<svg xmlns="http://www.w3.org/2000/svg" xmlns:xlink="http://www.w3.org/1999/xlink" xmlns:lucid="lucid" width="1781.16" height="1276.2"><g transform="translate(4618.246072154018 -275.76552337637224)" lucid:page-tab-id="0_0"><path d="M-4487.18 277.77c26.4 0 47.8 21.4 47.8 47.8s-21.4 47.8-47.8 47.8h-82.26c-26.4 0-47.8-21.4-47.8-47.8s21.4-47.8 47.8-47.8z" stroke="#000" stroke-width="2" fill="#fff"/><path d="M-4583.82 310.43a6 6 0 0 1 6-6h106.6a6 6 0 0 1 6 6v30.28a6 6 0 0 1-6 6h-106.6a6 6 0 0 1-6-6z" fill="none"/><use xlink:href="#a" transform="matrix(1,0,0,1,-4578.824496233053,309.43088284377046) translate(0 26.200520833333336)"/><path d="M-4528.3 375.87v54" stroke="#3a414a" stroke-width="3" stroke-linejoin="round" fill="none"/><path d="M-4526.83 375.9h-2.95v-1.53h2.95z" stroke="#3a414a" stroke-width=".05" fill="#3a414a"/><path d="M-4528.3 444.37l-7.5-13h15z" stroke="#3a414a" stroke-width="3" fill="#3a414a"/><path d="M-4608.3 454.37a6 6 0 0 1 6-6h148a6 6 0 0 1 6 6v108a6 6 0 0 1-6 6h-148a6 6 0 0 1-6-6z" stroke="#000" stroke-width="2" fill="#fff"/><use xlink:href="#b" transform="matrix(1,0,0,1,-4603.308615058102,453.37186731116867) translate(34.8193359375 45.8125)"/><use xlink:href="#c" transform="matrix(1,0,0,1,-4603.308615058102,453.37186731116867) translate(17.44580078125 83.56328124999999)"/><path d="M-4528.3 570.87v36.66" stroke="#3a414a" stroke-width="3" stroke-linejoin="round" fill="none"/><path d="M-4526.83 570.9h-2.95v-1.53h2.95z" stroke="#3a414a" stroke-width=".05" fill="#3a414a"/><path d="M-4528.3 622.02l-7.5-13h15z" stroke="#3a414a" stroke-width="3" fill="#3a414a"/><path d="M-4608.3 632.02a6 6 0 0 1 6-6h148a6 6 0 0 1 6 6v142.7a6 6 0 0 1-6 6h-148a6 6 0 0 1-6-6z" stroke="#000" stroke-width="2" fill="#fff"/><use xlink:href="#d" transform="matrix(1,0,0,1,-4603.308615058102,631.0162032486687) translate(14.21484375 29.71875)"/><use xlink:href="#e" transform="matrix(1,0,0,1,-4603.308615058102,631.0162032486687) translate(9.1494140625 67.46953124999999)"/><use xlink:href="#f" transform="matrix(1,0,0,1,-4603.308615058102,631.0162032486687) translate(38.8564453125 105.22031249999999)"/><use xlink:href="#g" transform="matrix(1,0,0,1,-4603.308615058102,631.0162032486687) translate(96.5439453125 105.22031249999999)"/><use xlink:href="#h" transform="matrix(1,0,0,1,-4603.308615058102,631.0162032486687) translate(29.3349609375 142.97109375)"/><path d="M-4528.3 783.23v54" stroke="#3a414a" stroke-width="3" stroke-linejoin="round" fill="none"/><path d="M-4526.83 783.27h-2.95v-1.54h2.95z" stroke="#3a414a" stroke-width=".05" fill="#3a414a"/><path d="M-4528.3 851.73l-7.5-13h15z" stroke="#3a414a" stroke-width="3" fill="#3a414a"/><path d="M-4608.3 861.73a6 6 0 0 1 6-6h148a6 6 0 0 1 6 6v108a6 6 0 0 1-6 6h-148a6 6 0 0 1-6-6z" stroke="#000" stroke-width="2" fill="#fff"/><use xlink:href="#i" transform="matrix(1,0,0,1,-4603.308615058102,860.7275313736686) translate(44.3408203125 45.8125)"/><use xlink:href="#j" transform="matrix(1,0,0,1,-4603.308615058102,860.7275313736686) translate(4.6552734375 83.56328124999999)"/><use xlink:href="#k" transform="matrix(1,0,0,1,-4603.308615058102,860.7275313736686) translate(103.513671875 83.56328124999999)"/><path d="M-4212.1 277.77c26.4 0 47.8 21.4 47.8 47.8s-21.4 47.8-47.8 47.8h-82.27c-26.4 0-47.8-21.4-47.8-47.8s21.4-47.8 47.8-47.8z" stroke="#000" stroke-width="2" fill="#fff"/><path d="M-4312.53 310.43a6 6 0 0 1 6-6h106.6a6 6 0 0 1 6 6v30.28a6 6 0 0 1-6 6h-106.6a6 6 0 0 1-6-6z" fill="none"/><use xlink:href="#l" transform="matrix(1,0,0,1,-4307.529563584573,309.43088284377046) translate(0 26.200520833333336)"/><path d="M-4253.23 375.87v71.18" stroke="#3a414a" stroke-width="3" stroke-linejoin="round" fill="none"/><path d="M-4251.76 375.9h-2.95v-1.53h2.94z" stroke="#3a414a" stroke-width=".05" fill="#3a414a"/><path d="M-4253.23 461.54l-7.5-13h15z" stroke="#3a414a" stroke-width="3" fill="#3a414a"/><path d="M-4333.23 471.54a6 6 0 0 1 6-6h148a6 6 0 0 1 6 6V727.5a6 6 0 0 1-6 6h-148a6 6 0 0 1-6-6z" stroke="#000" stroke-width="2" fill="#fff"/><use xlink:href="#m" transform="matrix(1,0,0,1,-4328.23428952873,470.5367037239061) translate(26.7705078125 29.21875)"/><use xlink:href="#n" transform="matrix(1,0,0,1,-4328.23428952873,470.5367037239061) translate(108.6298828125 29.21875)"/><use xlink:href="#o" transform="matrix(1,0,0,1,-4328.23428952873,470.5367037239061) translate(1.92578125 66.96953124999999)"/><use xlink:href="#p" transform="matrix(1,0,0,1,-4328.23428952873,470.5367037239061) translate(55.703125 66.96953124999999)"/><use xlink:href="#q" transform="matrix(1,0,0,1,-4328.23428952873,470.5367037239061) translate(36.29833984375 104.72031249999999)"/><use xlink:href="#n" transform="matrix(1,0,0,1,-4328.23428952873,470.5367037239061) translate(99.10205078125 104.72031249999999)"/><use xlink:href="#r" transform="matrix(1,0,0,1,-4328.23428952873,470.5367037239061) translate(18.3408203125 142.47109375)"/><use xlink:href="#s" transform="matrix(1,0,0,1,-4328.23428952873,470.5367037239061) translate(22.40966796875 180.22187499999998)"/><use xlink:href="#t" transform="matrix(1,0,0,1,-4328.23428952873,470.5367037239061) translate(112.43212890625 180.22187499999998)"/><use xlink:href="#u" transform="matrix(1,0,0,1,-4328.23428952873,470.5367037239061) translate(34.30517578125 217.97265624999997)"/><use xlink:href="#v" transform="matrix(1,0,0,1,-4328.23428952873,470.5367037239061) translate(100.10498046875 217.97265624999997)"/><use xlink:href="#j" transform="matrix(1,0,0,1,-4328.23428952873,470.5367037239061) translate(4.6552734375 255.72343749999996)"/><use xlink:href="#k" transform="matrix(1,0,0,1,-4328.23428952873,470.5367037239061) translate(103.513671875 255.72343749999996)"/><path d="M-4253.23 736v56.34" stroke="#3a414a" stroke-width="3" fill="none"/><path d="M-4251.76 736.04h-2.95v-1.54h2.94z" stroke="#3a414a" stroke-width=".05" fill="#3a414a"/><path d="M-4253.23 806.83l-7.5-13h15z" stroke="#3a414a" stroke-width="3" fill="#3a414a"/><path d="M-4257.17 812.63a5.2 5.2 0 0 1 7.87 0l110.86 127.78a6.92 6.92 0 0 1 0 9.08l-110.86 127.78a5.2 5.2 0 0 1-7.87 0l-110.86-127.78a6.92 6.92 0 0 1 0-9.07z" stroke="#000" stroke-width="2" fill="#fff"/><use xlink:href="#w" transform="matrix(1,0,0,1,-4366.958548680271,813.0954150774664) translate(36.25890625 109.1975)"/><use xlink:href="#x" transform="matrix(1,0,0,1,-4366.958548680271,813.0954150774664) translate(59.004023437499995 146.94828125)"/><use xlink:href="#y" transform="matrix(1,0,0,1,-4366.958548680271,813.0954150774664) translate(66.3165234375 184.6990625)"/><path d="M-4134.25 944.95h5.4a24 24 0 0 0 24-24V623.52a24 24 0 0 0-24-24h-25.9" stroke="#3a414a" stroke-width="3" fill="none"/><path d="M-4134.2 946.42h-1.7l.07-.35.08-1.12-.08-1.13-.07-.35h1.7z" stroke="#3a414a" stroke-width=".05" fill="#3a414a"/><path d="M-4169.23 599.52l13-7.5v15z" stroke="#3a414a" stroke-width="3" fill="#3a414a"/><path d="M-4075.2 584.38a6 6 0 0 1 6-6h49.05a6 6 0 0 1 6 6v30.28a6 6 0 0 1-6 6h-49.06a6 6 0 0 1-6-6z" fill="none"/><use xlink:href="#z" transform="matrix(1,0,0,1,-4070.2093380222027,583.3807271614061) translate(0 26.200520833333336)"/><path d="M-3846.5 276.77c26.4 0 47.8 21.4 47.8 47.8s-21.4 47.8-47.8 47.8h-82.27c-26.4 0-47.8-21.4-47.8-47.8s21.4-47.8 47.8-47.8z" stroke="#000" stroke-width="2" fill="#fff"/><path d="M-3943.15 309.43a6 6 0 0 1 6-6h106.6a6 6 0 0 1 6 6v30.28a6 6 0 0 1-6 6h-106.6a6 6 0 0 1-6-6z" fill="none"/><use xlink:href="#A" transform="matrix(1,0,0,1,-3938.1503871260156,308.4308828437704) translate(0 26.200520833333336)"/><path d="M-3887.64 374.87v54" stroke="#3a414a" stroke-width="3" stroke-linejoin="round" fill="none"/><path d="M-3886.16 374.9h-2.95v-1.53h2.94z" stroke="#3a414a" stroke-width=".05" fill="#3a414a"/><path d="M-3887.64 443.37l-7.5-13h15z" stroke="#3a414a" stroke-width="3" fill="#3a414a"/><path d="M-3967.64 453.37a6 6 0 0 1 6-6h148a6 6 0 0 1 6 6v255.97a6 6 0 0 1-6 6h-148a6 6 0 0 1-6-6z" stroke="#000" stroke-width="2" fill="#fff"/><use xlink:href="#m" transform="matrix(1,0,0,1,-3962.634505951065,452.3718673111685) translate(26.7705078125 29.21875)"/><use xlink:href="#n" transform="matrix(1,0,0,1,-3962.634505951065,452.3718673111685) translate(108.6298828125 29.21875)"/><use xlink:href="#o" transform="matrix(1,0,0,1,-3962.634505951065,452.3718673111685) translate(1.92578125 66.96953124999999)"/><use xlink:href="#p" transform="matrix(1,0,0,1,-3962.634505951065,452.3718673111685) translate(55.703125 66.96953124999999)"/><use xlink:href="#q" transform="matrix(1,0,0,1,-3962.634505951065,452.3718673111685) translate(36.29833984375 104.72031249999999)"/><use xlink:href="#n" transform="matrix(1,0,0,1,-3962.634505951065,452.3718673111685) translate(99.10205078125 104.72031249999999)"/><use xlink:href="#r" transform="matrix(1,0,0,1,-3962.634505951065,452.3718673111685) translate(18.3408203125 142.47109375)"/><use xlink:href="#B" transform="matrix(1,0,0,1,-3962.634505951065,452.3718673111685) translate(29.17626953125 180.22187499999998)"/><use xlink:href="#t" transform="matrix(1,0,0,1,-3962.634505951065,452.3718673111685) translate(105.66552734375 180.22187499999998)"/><use xlink:href="#u" transform="matrix(1,0,0,1,-3962.634505951065,452.3718673111685) translate(34.30517578125 217.97265624999997)"/><use xlink:href="#v" transform="matrix(1,0,0,1,-3962.634505951065,452.3718673111685) translate(100.10498046875 217.97265624999997)"/><use xlink:href="#j" transform="matrix(1,0,0,1,-3962.634505951065,452.3718673111685) translate(4.6552734375 255.72343749999996)"/><use xlink:href="#k" transform="matrix(1,0,0,1,-3962.634505951065,452.3718673111685) translate(103.513671875 255.72343749999996)"/><path d="M-3028.9 276.77c26.4 0 47.8 21.4 47.8 47.8s-21.4 47.8-47.8 47.8h-82.26c-26.4 0-47.8-21.4-47.8-47.8s21.4-47.8 47.8-47.8z" stroke="#000" stroke-width="2" fill="#fff"/><path d="M-3125.54 309.43a6 6 0 0 1 6-6h110.88a6 6 0 0 1 6 6v30.28a6 6 0 0 1-6 6h-110.88a6 6 0 0 1-6-6z" fill="none"/><use xlink:href="#C" transform="matrix(1,0,0,1,-3120.5389157787445,308.4308828437704) translate(0 26.200520833333336)"/><path d="M-3070.02 374.87v36.66" stroke="#3a414a" stroke-width="3" stroke-linejoin="round" fill="none"/><path d="M-3068.55 374.9h-2.95v-1.53h2.95z" stroke="#3a414a" stroke-width=".05" fill="#3a414a"/><path d="M-3070.02 426.02l-7.5-13h15z" stroke="#3a414a" stroke-width="3" fill="#3a414a"/><path d="M-3150.02 436.02a6 6 0 0 1 6-6h148a6 6 0 0 1 6 6v142.7a6 6 0 0 1-6 6h-148a6 6 0 0 1-6-6z" stroke="#000" stroke-width="2" fill="#fff"/><use xlink:href="#D" transform="matrix(1,0,0,1,-3145.023034603794,435.01620324866855) translate(14.1259765625 29.71875)"/><use xlink:href="#v" transform="matrix(1,0,0,1,-3145.023034603794,435.01620324866855) translate(120.2841796875 29.71875)"/><use xlink:href="#E" transform="matrix(1,0,0,1,-3145.023034603794,435.01620324866855) translate(28.96044921875 67.46953124999999)"/><use xlink:href="#F" transform="matrix(1,0,0,1,-3145.023034603794,435.01620324866855) translate(90.08837890625 67.46953124999999)"/><use xlink:href="#G" transform="matrix(1,0,0,1,-3145.023034603794,435.01620324866855) translate(18.9501953125 105.22031249999999)"/><use xlink:href="#H" transform="matrix(1,0,0,1,-3145.023034603794,435.01620324866855) translate(99.9716796875 105.22031249999999)"/><use xlink:href="#I" transform="matrix(1,0,0,1,-3145.023034603794,435.01620324866855) translate(0.65625 142.97109375)"/><path d="M-3070.02 587.23v55.54" stroke="#3a414a" stroke-width="3" stroke-linejoin="round" fill="none"/><path d="M-3068.55 587.27h-2.95v-1.54h2.95z" stroke="#3a414a" stroke-width=".05" fill="#3a414a"/><path d="M-3070.02 657.26l-7.5-13h15z" stroke="#3a414a" stroke-width="3" fill="#3a414a"/><path d="M-3150.02 667.26a6 6 0 0 1 6-6h148a6 6 0 0 1 6 6v180.47a6 6 0 0 1-6 6h-148a6 6 0 0 1-6-6z" stroke="#000" stroke-width="2" fill="#fff"/><use xlink:href="#J" transform="matrix(1,0,0,1,-3145.023034603794,666.2654219986687) translate(37.7265625 30.90625)"/><use xlink:href="#K" transform="matrix(1,0,0,1,-3145.023034603794,666.2654219986687) translate(20.88623046875 68.65703124999999)"/><use xlink:href="#t" transform="matrix(1,0,0,1,-3145.023034603794,666.2654219986687) translate(113.95556640625 68.65703124999999)"/><use xlink:href="#L" transform="matrix(1,0,0,1,-3145.023034603794,666.2654219986687) translate(31.6962890625 106.40781249999999)"/><use xlink:href="#v" transform="matrix(1,0,0,1,-3145.023034603794,666.2654219986687) translate(102.7138671875 106.40781249999999)"/><use xlink:href="#M" transform="matrix(1,0,0,1,-3145.023034603794,666.2654219986687) translate(22.27001953125 144.15859375)"/><use xlink:href="#N" transform="matrix(1,0,0,1,-3145.023034603794,666.2654219986687) translate(96.22021484375 144.15859375)"/><use xlink:href="#O" transform="matrix(1,0,0,1,-3145.023034603794,666.2654219986687) translate(48.09228515625 181.90937499999998)"/><path d="M-3074.13 969.2a5.64 5.64 0 0 1 8.22 0l124.3 132.22a6.38 6.38 0 0 1 0 8.75l-124.3 132.22a5.64 5.64 0 0 1-8.23 0l-124.3-132.23a6.38 6.38 0 0 1 0-8.75z" stroke="#000" stroke-width="2" fill="#fff"/><use xlink:href="#w" transform="matrix(1,0,0,1,-3197.548540157096,969.8247619651567) translate(49.75890625 105.9375)"/><use xlink:href="#x" transform="matrix(1,0,0,1,-3197.548540157096,969.8247619651567) translate(73.0040234375 143.68828125)"/><use xlink:href="#y" transform="matrix(1,0,0,1,-3197.548540157096,969.8247619651567) translate(80.3165234375 181.43906249999998)"/><path d="M-2937.37 1105.8h15.87a24 24 0 0 0 24-24V781.5a24 24 0 0 0-24-24h-50.03" stroke="#3a414a" stroke-width="3" fill="none"/><path d="M-2937.33 1107.27h-1.7l.07-.37.1-1.1-.1-1.12-.08-.36h1.7z" stroke="#3a414a" stroke-width=".05" fill="#3a414a"/><path d="M-2986.02 757.5l13-7.5v15z" stroke="#3a414a" stroke-width="3" fill="#3a414a"/><path d="M-2898.15 896.8a6 6 0 0 1 6-6h49.06a6 6 0 0 1 6 6v30.28a6 6 0 0 1-6 6h-49.05a6 6 0 0 1-6-6z" fill="none"/><g><use xlink:href="#z" transform="matrix(1,0,0,1,-2893.1517986450767,895.8016791641396) translate(0 26.200520833333336)"/></g><path d="M-3476.96 276.77c26.26 0 47.54 21.28 47.54 47.54 0 26.26-21.28 47.55-47.54 47.55h-146.4c-26.26 0-47.55-21.3-47.55-47.54 0-26.25 21.28-47.53 47.53-47.53z" stroke="#000" stroke-width="2" fill="#fff"/><g><use xlink:href="#P" transform="matrix(1,0,0,1,-3665.909109463011,281.76552337637224) translate(72.91145833333333 50.22916666666667)"/></g><path d="M-3550.16 374.35v33.82" stroke="#3a414a" stroke-width="3" stroke-linejoin="round" fill="none"/><path d="M-3548.7 374.4h-2.94v-1.55h2.95z" stroke="#3a414a" stroke-width=".05" fill="#3a414a"/><path d="M-3550.16 422.66l-7.5-13h15z" stroke="#3a414a" stroke-width="3" fill="#3a414a"/><path d="M-3554.45 428.4a6.1 6.1 0 0 1 8.57 0l81.32 79.84a5.9 5.9 0 0 1 0 8.4l-81.32 79.84a6.1 6.1 0 0 1-8.57 0l-81.32-79.83a5.9 5.9 0 0 1 0-8.4z" stroke="#000" stroke-width="2" fill="#fff"/><g><use xlink:href="#Q" transform="matrix(1,0,0,1,-3635.0514480777497,429.20631379781366) translate(25.30187499999999 93.72916666666667)"/><use xlink:href="#R" transform="matrix(1,0,0,1,-3635.0514480777497,429.20631379781366) translate(44.36437499999999 93.72916666666667)"/><use xlink:href="#S" transform="matrix(1,0,0,1,-3635.0514480777497,429.20631379781366) translate(94.020625 93.72916666666667)"/><use xlink:href="#T" transform="matrix(1,0,0,1,-3635.0514480777497,429.20631379781366) translate(128.24979166666668 93.72916666666667)"/></g><path d="M-3550.22 600.74l-.05.82-.13 1.12-.18 1.1-.24 1.06-.28 1.05-.33 1.05-.38 1.04-.46 1.05-.5 1.06-.6 1.08-.65 1.1-.76 1.12-.85 1.16-1 1.2-1.1 1.26-1.3 1.33-1.53 1.4-1.8 1.52-2.16 1.65-2.62 1.82-3.32 2.08-4.35 2.44-6.18 3.1-11.2 4.93-33.46 13.96-6.2 3.1-4.34 2.44-3.32 2.07-2.64 1.82-2.15 1.64-1.8 1.5-1.5 1.42-1.3 1.33-1.13 1.25-.4.5" stroke="#3a414a" stroke-width="3" stroke-linejoin="round" fill="none"/><path d="M-3548.73 600.8l-2.95-.06.04-1.68.38.1 1.1.08 1.1-.1.38-.08z" stroke="#3a414a" stroke-width=".05" fill="#3a414a"/><path d="M-3655.4 681.57l-2.46-14.8 14.05 5.27z" stroke="#3a414a" stroke-width="3" fill="#3a414a"/><path d="M-3550.12 600.74l.07.9.13 1.16.18 1.13.24 1.1.28 1.1.34 1.1.4 1.07.44 1.1.52 1.08.58 1.1.67 1.13.75 1.16.86 1.2.97 1.22 1.13 1.27 1.3 1.35 1.48 1.42 1.77 1.53 2.1 1.65 2.54 1.82 3.17 2.04 4.07 2.38 5.62 2.94 9.07 4.2 39.7 17 5.6 2.94 4.1 2.38 3.14 2.05 2.55 1.82 2.1 1.65 1.75 1.52 1.5 1.43 1.3 1.34 1.1 1.3.7.87" stroke="#3a414a" stroke-width="3" stroke-linejoin="round" fill="none"/><path d="M-3551.26 599.15l1.1.1 1.1-.1.37-.1.05 1.7-2.95.06-.04-1.74z" stroke="#3a414a" stroke-width=".05" fill="#3a414a"/><path d="M-3443.16 684.5l-11.43-9.7 14.13-5.05z" stroke="#3a414a" stroke-width="3" fill="#3a414a"/><path d="M-3710.46 691.38a6 6 0 0 1 6-6h96a6 6 0 0 1 6 6v180.46a6 6 0 0 1-6 6h-96a6 6 0 0 1-6-6z" stroke="#000" stroke-width="2" fill="#fff"/><g><use xlink:href="#U" transform="matrix(1,0,0,1,-3705.4572890220306,690.3757557242135) translate(15.94140625 30.90625)"/><use xlink:href="#V" transform="matrix(1,0,0,1,-3705.4572890220306,690.3757557242135) translate(22.24462890625 68.65703124999999)"/><use xlink:href="#W" transform="matrix(1,0,0,1,-3705.4572890220306,690.3757557242135) translate(19.08349609375 106.40781249999999)"/><use xlink:href="#X" transform="matrix(1,0,0,1,-3705.4572890220306,690.3757557242135) translate(1.3037109375 144.15859375)"/><use xlink:href="#Y" transform="matrix(1,0,0,1,-3705.4572890220306,690.3757557242135) translate(10.64111328125 181.90937499999998)"/><use xlink:href="#O" transform="matrix(1,0,0,1,-3705.4572890220306,690.3757557242135) translate(33.54345703125 181.90937499999998)"/></g><path d="M-3501.47 694.33a6 6 0 0 1 6-6h106.64a6 6 0 0 1 6 6V858.8a6 6 0 0 1-6 6h-106.64a6 6 0 0 1-6-6z" stroke="#000" stroke-width="2" fill="#fff"/><g><use xlink:href="#U" transform="matrix(1,0,0,1,-3496.473378672219,693.3309459346342) translate(21.44140625 35.625)"/><use xlink:href="#Z" transform="matrix(1,0,0,1,-3496.473378672219,693.3309459346342) translate(0.15771484375 73.37578124999999)"/><use xlink:href="#aa" transform="matrix(1,0,0,1,-3496.473378672219,693.3309459346342) translate(70.78173828125 73.37578124999999)"/><use xlink:href="#v" transform="matrix(1,0,0,1,-3496.473378672219,693.3309459346342) translate(93.25244140625 73.37578124999999)"/><use xlink:href="#ab" transform="matrix(1,0,0,1,-3496.473378672219,693.3309459346342) translate(16.89013671875 111.12656249999999)"/><use xlink:href="#ac" transform="matrix(1,0,0,1,-3496.473378672219,693.3309459346342) translate(27.59228515625 148.87734375)"/></g><path d="M-3670.9 606.68a6 6 0 0 1 6-6h44.93a6 6 0 0 1 6 6v30.28a6 6 0 0 1-6 6h-44.94a6 6 0 0 1-6-6z" fill="none"/><g><use xlink:href="#ad" transform="matrix(1,0,0,1,-3665.9091094630107,605.6847219474056) translate(0 26.200520833333336)"/></g><path d="M-3501.47 606.68a6 6 0 0 1 6-6h49.06a6 6 0 0 1 6 6v30.28a6 6 0 0 1-6 6h-49.07a6 6 0 0 1-6-6z" fill="none"/><g><use xlink:href="#z" transform="matrix(1,0,0,1,-3496.4733786722195,605.6847219474056) translate(0 26.200520833333336)"/></g><path d="M-3656.43 880.34l.03 1.15.16 2.52.25 2.43.36 2.33.43 2.26.5 2.2.6 2.14.7 2.12.76 2.08.87 2.07.97 2.06 1.08 2.08 1.2 2.08 1.35 2.12 1.5 2.16 1.7 2.23 1.9 2.3 2.2 2.44 2.54 2.6 3 2.8 3.64 3.15 4.65 3.67 6.56 4.75 38.93 26 4.64 3.68 3.64 3.14 3 2.8 2.55 2.6 2.2 2.42 1.9 2.3 1.7 2.24 1.5 2.16 1.34 2.12 1.2 2.1 1.08 2.05.97 2.05.86 2.07.8 2.1.45 1.42" stroke="#3a414a" stroke-width="3" stroke-linejoin="round" fill="none"/><path d="M-3654.95 880.35l-2.95.06-.03-1.56h2.95z" stroke="#3a414a" stroke-width=".05" fill="#3a414a"/><path d="M-3550.6 1011.6l-9.35-11.74 14.83-2.22z" stroke="#3a414a" stroke-width="3" fill="#3a414a"/><path d="M-3442.18 867.3l-.04 1.64-.18 2.97-.3 2.85-.4 2.72-.5 2.63-.6 2.55-.7 2.5-.8 2.43-.88 2.4-1 2.38-1.12 2.37-1.24 2.38-1.38 2.4-1.55 2.43-1.73 2.5-1.95 2.56-2.2 2.67-2.57 2.83-2.98 3.05-3.6 3.37-4.5 3.88-6.18 4.88-12.1 8.7-23.05 16.3-6.18 4.9-4.52 3.88-3.6 3.37-2.98 3.04-2.55 2.84-2.22 2.7-1.95 2.55-1.73 2.5-1.54 2.42-1.38 2.4-1.24 2.37-1.1 2.37-1 2.4-.9 2.4-.8 2.43-.57 2.03" stroke="#3a414a" stroke-width="3" stroke-linejoin="round" fill="none"/><path d="M-3440.7 867.38l-2.96-.06.03-1.5h2.95z" stroke="#3a414a" stroke-width=".05" fill="#3a414a"/><path d="M-3549.8 1011.6l-5.8-13.84 14.88 1.88z" stroke="#3a414a" stroke-width="3" fill="#3a414a"/><path d="M-3554.3 1017.34a5.73 5.73 0 0 1 8.28 0l105.7 110.7a6.28 6.28 0 0 1 0 8.68l-105.7 110.7a5.73 5.73 0 0 1-8.3 0l-105.7-110.7a6.28 6.28 0 0 1 0-8.67z" stroke="#000" stroke-width="2" fill="#fff"/><g><use xlink:href="#ae" transform="matrix(1,0,0,1,-3659.1525676618644,1018.0001796465807) translate(51.2540234375 89.59375)"/><use xlink:href="#af" transform="matrix(1,0,0,1,-3659.1525676618644,1018.0001796465807) translate(23.800410156250003 127.34453124999999)"/><use xlink:href="#ag" transform="matrix(1,0,0,1,-3659.1525676618644,1018.0001796465807) translate(62.19103515625 127.34453124999999)"/><use xlink:href="#ah" transform="matrix(1,0,0,1,-3659.1525676618644,1018.0001796465807) translate(164.89611328125 127.34453124999999)"/><use xlink:href="#ai" transform="matrix(1,0,0,1,-3659.1525676618644,1018.0001796465807) translate(75.23546875 165.09531249999998)"/></g><path d="M-3330.82 761.43a6 6 0 0 1 6-6h49.07a6 6 0 0 1 6 6v30.28a6 6 0 0 1-6 6h-49.07a6 6 0 0 1-6-6z" fill="none"/><g><use xlink:href="#z" transform="matrix(1,0,0,1,-3325.8181863305626,760.4323375094301) translate(0 26.200520833333336)"/></g><path d="M-3550.16 1251.7v88.32" stroke="#3a414a" stroke-width="3" stroke-linejoin="round" fill="none"/><path d="M-3551.25 1250.12l1.1.1 1.07-.1.4-.1v1.73h-2.96v-1.73z" stroke="#3a414a" stroke-width=".05" fill="#3a414a"/><path d="M-3550.16 1354.5l-7.5-12.98h15z" stroke="#3a414a" stroke-width="3" fill="#3a414a"/><path d="M-3630.16 1364.5a6 6 0 0 1 6-6h148a6 6 0 0 1 6 6v180.47a6 6 0 0 1-6 6h-148a6 6 0 0 1-6-6z" stroke="#000" stroke-width="2" fill="#fff"/><g><use xlink:href="#aj" transform="matrix(1,0,0,1,-3625.1644031879946,1363.5074469345159) translate(15.79541015625 30.90625)"/><use xlink:href="#v" transform="matrix(1,0,0,1,-3625.1644031879946,1363.5074469345159) translate(118.61474609375 30.90625)"/><use xlink:href="#ac" transform="matrix(1,0,0,1,-3625.1644031879946,1363.5074469345159) translate(48.09228515625 68.65703124999999)"/><use xlink:href="#ak" transform="matrix(1,0,0,1,-3625.1644031879946,1363.5074469345159) translate(20.87353515625 106.40781249999999)"/><use xlink:href="#al" transform="matrix(1,0,0,1,-3625.1644031879946,1363.5074469345159) translate(36.05078125 144.15859375)"/><use xlink:href="#am" transform="matrix(1,0,0,1,-3625.1644031879946,1363.5074469345159) translate(75 181.90937499999998)"/></g><path d="M-3526.72 1275.18a6 6 0 0 1 6-6h44.94a6 6 0 0 1 6 6v30.28a6 6 0 0 1-6 6h-44.93a6 6 0 0 1-6.02-6z" fill="none"/><g><use xlink:href="#ad" transform="matrix(1,0,0,1,-3521.714940317404,1274.1837596511532) translate(0 26.200520833333336)"/></g><path d="M-3070.02 856.23v92.7" stroke="#3a414a" stroke-width="3" stroke-linejoin="round" fill="none"/><path d="M-3068.55 856.27h-2.95v-1.54h2.95z" stroke="#3a414a" stroke-width=".05" fill="#3a414a"/><path d="M-3070.02 963.42l-7.5-13h15z" stroke="#3a414a" stroke-width="3" fill="#3a414a"/><path d="M-3436.07 1132.35l2.48-.05 3.77-.23 3.55-.38 3.38-.5 3.22-.62 3.1-.72 2.97-.83 2.86-.94 2.8-1.04 2.7-1.14 2.63-1.24 2.58-1.36 2.54-1.46 2.5-1.6 2.47-1.7 2.44-1.86 2.43-2.02 2.42-2.18 2.4-2.37 2.44-2.58 2.43-2.82 2.45-3.1 2.47-3.4 2.5-3.76 2.5-4.18 2.58-4.67 2.6-5.25 2.64-5.94 2.68-6.77 2.7-7.8 2.75-9.1 2.74-10.68 2.7-12.8 2.62-15.6 2.44-19.45 2.1-25.1 1.38-34.32-.1-53.3-5.6-137.4-4.6-116.34-1.72-17.24-1.7-11.8-1.67-8.94-1.66-7.2-1.67-6-1.65-5.15-1.65-4.5-1.66-3.97-1.66-3.56-1.67-3.24-1.7-2.97-1.73-2.73-1.76-2.55-1.8-2.38-1.84-2.24-1.9-2.12-1.95-2-2.03-1.92-2.12-1.84-2.22-1.77-2.33-1.7-2.47-1.65-2.6-1.6-2.8-1.54-3-1.5-3.26-1.46-3.54-1.4-3.9-1.37-4.3-1.32-4.8-1.24-5.44-1.18-6.23-1.07-7.22-.93-8.3-.72" stroke="#3a414a" stroke-width="3" stroke-linejoin="round" fill="none"/><path d="M-3436 1133.83l-1.75.03.1-.37.07-1.12-.08-1.1-.1-.37 1.7-.02z" stroke="#3a414a" stroke-width=".05" fill="#3a414a"/><path d="M-3458.8 512.54l13.23-7.08-.48 15z" stroke="#3a414a" stroke-width="3" fill="#3a414a"/><defs><path d="M158 0v-1118h180V0H158zm91-1301c-68 0-125-53-125-119s57-119 125-119c69 0 126 53 126 119s-57 119-126 119" id="an"/><path d="M154 0v-137l495-537c165-179 249-281 249-418 0-156-121-253-280-253-170 0-278 110-278 278H158c0-264 200-443 465-443 266 0 455 183 455 416 0 161-73 288-336 568L416-179v12h687V0H154" id="ao"/><path d="M613 24c-304 0-509-231-509-576 0-350 205-580 509-580 216 0 392 114 453 309l-173 49c-33-115-133-197-280-197-223 0-326 196-326 419 0 220 103 415 326 415 150 0 252-85 285-206l172 49C1010-95 832 24 613 24" id="ap"/><path d="M934 0v166H0V0h934" id="aq"/><path d="M338-670V0H158v-1118h173l1 207c72-158 192-221 342-221 226 0 378 139 378 422V0H872v-695c0-172-96-275-252-275-161 0-282 109-282 300" id="ar"/><path d="M598-1118v154H368v674c0 100 37 144 132 144 23 0 62-6 92-12L629-6c-37 13-88 20-134 20-193 0-307-107-307-290v-688H20v-154h168v-266h180v266h230" id="as"/><g id="a"><use transform="matrix(0.013020833333333334,0,0,0.013020833333333334,0,0)" xlink:href="#an"/><use transform="matrix(0.013020833333333334,0,0,0.013020833333333334,6.458333333333334,0)" xlink:href="#ao"/><use transform="matrix(0.013020833333333334,0,0,0.013020833333333334,22.72135416666667,0)" xlink:href="#ap"/><use transform="matrix(0.013020833333333334,0,0,0.013020833333333334,37.95572916666667,0)" xlink:href="#aq"/><use transform="matrix(0.013020833333333334,0,0,0.013020833333333334,51.01562500000001,0)" xlink:href="#an"/><use transform="matrix(0.013020833333333334,0,0,0.013020833333333334,57.47395833333335,0)" xlink:href="#ar"/><use transform="matrix(0.013020833333333334,0,0,0.013020833333333334,73.22916666666667,0)" xlink:href="#an"/><use transform="matrix(0.013020833333333334,0,0,0.013020833333333334,79.6875,0)" xlink:href="#as"/></g><path d="M645 0H180v-1490h484c435 0 692 280 692 742 0 466-257 748-711 748zM370-168h263c363 0 539-218 539-580 0-358-176-574-521-574H370v1154" id="at"/><path d="M628 24c-324 0-524-230-524-574 0-343 198-582 503-582 237 0 487 146 487 559v75H286c9 234 145 362 343 362 132 0 231-58 273-172l174 48C1024-91 857 24 628 24zM287-650h624c-17-190-120-322-304-322-192 0-309 151-320 322" id="au"/><path d="M678-1118v154H420V0H240v-964H20v-154h220v-149c0-194 155-293 318-293 85 0 141 18 168 30l-50 154c-19-6-47-17-97-17-111 0-159 58-159 166v109h258" id="av"/><g id="b"><use transform="matrix(0.0126953125,0,0,0.0126953125,0,0)" xlink:href="#at"/><use transform="matrix(0.0126953125,0,0,0.0126953125,18.763671875,0)" xlink:href="#au"/><use transform="matrix(0.0126953125,0,0,0.0126953125,33.921875,0)" xlink:href="#av"/><use transform="matrix(0.0126953125,0,0,0.0126953125,43.544921875,0)" xlink:href="#an"/><use transform="matrix(0.0126953125,0,0,0.0126953125,49.841796875,0)" xlink:href="#ar"/><use transform="matrix(0.0126953125,0,0,0.0126953125,65.203125,0)" xlink:href="#au"/></g><path d="M158 418v-1536h174v179h20c37-59 106-193 324-193 279 0 474 222 474 576 0 356-194 580-473 580-213 0-288-135-325-197h-14v591H158zm492-555c209 0 317-186 317-421 0-232-105-413-317-413-206 0-314 166-314 413 0 249 111 421 314 421" id="aw"/><path d="M158 0v-1118h174v172h12c41-113 157-188 290-188 26 0 70 2 91 3v181c-11-2-60-10-108-10-161 0-279 109-279 260V0H158" id="ax"/><path d="M538 24C308 24 148-78 108-271l171-41c32 123 123 178 257 178 156 0 256-77 256-169 0-77-54-128-164-154l-186-44c-203-48-300-148-300-305 0-192 176-326 414-326 230 0 351 112 402 269l-163 42c-31-80-94-158-238-158-133 0-233 69-233 162 0 83 57 129 188 160l169 40c203 48 298 149 298 302 0 196-179 339-441 339" id="ay"/><path d="M471 26C259 26 90-98 90-318c0-256 228-303 435-329 202-27 287-16 287-108 0-139-79-219-234-219-161 0-248 86-283 164l-173-57c86-203 278-265 451-265 150 0 419 46 419 395V0H815v-152h-12C765-73 660 26 471 26zm31-159c199 0 310-134 310-271v-155c-30 35-226 55-295 64-131 17-246 59-246 186 0 116 97 176 231 176" id="az"/><path d="M338-1490V0H158v-1490h180" id="aA"/><g id="c"><use transform="matrix(0.0126953125,0,0,0.0126953125,0,0)" xlink:href="#aw"/><use transform="matrix(0.0126953125,0,0,0.0126953125,15.919921875,0)" xlink:href="#ax"/><use transform="matrix(0.0126953125,0,0,0.0126953125,25.2763671875,0)" xlink:href="#au"/><use transform="matrix(0.0126953125,0,0,0.0126953125,40.4345703125,0)" xlink:href="#ay"/><use transform="matrix(0.0126953125,0,0,0.0126953125,54.158203125,0)" xlink:href="#ap"/><use transform="matrix(0.0126953125,0,0,0.0126953125,69.265625,0)" xlink:href="#az"/><use transform="matrix(0.0126953125,0,0,0.0126953125,83.865234375,0)" xlink:href="#aA"/><use transform="matrix(0.0126953125,0,0,0.0126953125,90.162109375,0)" xlink:href="#au"/><use transform="matrix(0.0126953125,0,0,0.0126953125,105.3203125,0)" xlink:href="#ax"/></g><path d="M783 20c-382 0-661-292-661-764 0-473 279-766 661-766 302 0 548 182 601 489h-190c-42-204-217-313-411-313-268 0-476 208-476 590 0 381 209 588 476 588 195 0 369-110 411-313h190c-52 303-296 489-601 489" id="aB"/><path d="M613 24c-304 0-509-231-509-576 0-350 205-580 509-580 305 0 511 230 511 580 0 345-206 576-511 576zm0-161c226 0 329-195 329-415 0-222-103-419-329-419-223 0-326 196-326 419 0 220 103 415 326 415" id="aC"/><path d="M611 442c-248 0-391-105-460-228l146-94c47 65 117 165 314 165 178 0 307-82 307-266v-224h-17C863-141 792-18 576-18c-268 0-472-195-472-546 0-346 197-568 476-568 216 0 288 133 326 193h17v-179h175V29c0 289-215 413-487 413zm-5-620c203 0 314-146 314-390 0-237-108-403-314-403-213 0-319 180-319 403 0 230 109 390 319 390" id="aD"/><path d="M537 14c-226 0-379-139-379-422v-710h180v695c0 172 97 275 253 275 160 0 281-109 281-300v-670h181V0H879v-209C806-46 684 14 537 14" id="aE"/><g id="d"><use transform="matrix(0.0126953125,0,0,0.0126953125,0,0)" xlink:href="#aB"/><use transform="matrix(0.0126953125,0,0,0.0126953125,18.9921875,0)" xlink:href="#aC"/><use transform="matrix(0.0126953125,0,0,0.0126953125,34.58203125,0)" xlink:href="#ar"/><use transform="matrix(0.0126953125,0,0,0.0126953125,49.943359375,0)" xlink:href="#av"/><use transform="matrix(0.0126953125,0,0,0.0126953125,59.56640625,0)" xlink:href="#an"/><use transform="matrix(0.0126953125,0,0,0.0126953125,65.86328125,0)" xlink:href="#aD"/><use transform="matrix(0.0126953125,0,0,0.0126953125,81.80859375,0)" xlink:href="#aE"/><use transform="matrix(0.0126953125,0,0,0.0126953125,97.1826171875,0)" xlink:href="#ax"/><use transform="matrix(0.0126953125,0,0,0.0126953125,106.970703125,0)" xlink:href="#az"/></g><path d="M1096 418H916v-591h-14C865-111 790 24 577 24c-279 0-473-224-473-580 0-354 195-576 474-576 218 0 287 134 324 193h20v-179h174V418zM604-137c203 0 314-172 314-421 0-247-108-413-314-413-212 0-317 181-317 413 0 235 108 421 317 421" id="aF"/><g id="e"><use transform="matrix(0.0126953125,0,0,0.0126953125,0,0)" xlink:href="#av"/><use transform="matrix(0.0126953125,0,0,0.0126953125,9.623046875,0)" xlink:href="#ax"/><use transform="matrix(0.0126953125,0,0,0.0126953125,18.9794921875,0)" xlink:href="#au"/><use transform="matrix(0.0126953125,0,0,0.0126953125,34.1376953125,0)" xlink:href="#aF"/><use transform="matrix(0.0126953125,0,0,0.0126953125,50.0576171875,0)" xlink:href="#aE"/><use transform="matrix(0.0126953125,0,0,0.0126953125,65.431640625,0)" xlink:href="#au"/><use transform="matrix(0.0126953125,0,0,0.0126953125,80.58984375,0)" xlink:href="#ar"/><use transform="matrix(0.0126953125,0,0,0.0126953125,95.951171875,0)" xlink:href="#ap"/><use transform="matrix(0.0126953125,0,0,0.0126953125,110.8046875,0)" xlink:href="#an"/><use transform="matrix(0.0126953125,0,0,0.0126953125,117.1015625,0)" xlink:href="#az"/></g><path d="M657 26c-323 0-524-166-541-416h195c15 169 171 246 346 246 202 0 356-106 356-265 5-203-294-238-475-293-239-73-380-191-380-389 0-252 224-419 512-419 294 0 499 171 508 396H992c-17-145-151-228-328-228-193 0-321 102-321 242 0 156 175 211 284 241l149 41c160 44 422 134 422 412 0 244-197 432-541 432" id="aG"/><path d="M180 0v-1490h190v1322h690V0H180" id="aH"/><g id="f"><use transform="matrix(0.0126953125,0,0,0.0126953125,0,0)" xlink:href="#aG"/><use transform="matrix(0.0126953125,0,0,0.0126953125,16.681640625,0)" xlink:href="#aB"/><use transform="matrix(0.0126953125,0,0,0.0126953125,35.673828125,0)" xlink:href="#aH"/></g><use transform="matrix(0.0126953125,0,0,0.0126953125,0,0)" xlink:href="#az" id="g"/><path d="M653-1490V0H466v-1314h-10L96-1047v-204l324-239h233" id="aI"/><path d="M646 20c-332 0-524-278-524-764 0-483 194-766 524-766s524 283 524 766c0 485-191 764-524 764zm0-166c218 0 341-220 341-598 0-380-123-601-341-601s-341 222-341 601c0 378 123 598 341 598" id="aJ"/><path d="M158 0v-1490h180v865h22l478-493h223L593-638 1096 0H865L456-523 338-412V0H158" id="aK"/><path d="M180 0v-1490h190v644h782v-644h190V0h-190v-678H370V0H180" id="aL"/><path d="M126 0v-134l627-806v-11H146v-167h839v143L376-178v11h629V0H126" id="aM"/><g id="h"><use transform="matrix(0.0126953125,0,0,0.0126953125,0,0)" xlink:href="#aI"/><use transform="matrix(0.0126953125,0,0,0.0126953125,10.5751953125,0)" xlink:href="#aJ"/><use transform="matrix(0.0126953125,0,0,0.0126953125,26.9775390625,0)" xlink:href="#aJ"/><use transform="matrix(0.0126953125,0,0,0.0126953125,43.3798828125,0)" xlink:href="#aK"/><use transform="matrix(0.0126953125,0,0,0.0126953125,57.6494140625,0)" xlink:href="#aL"/><use transform="matrix(0.0126953125,0,0,0.0126953125,76.9716796875,0)" xlink:href="#aM"/></g><path d="M52 0l541-1490h220L1361 0h-200l-149-416H398L254 0H52zm404-582h497c-103-290-145-390-251-756-108 377-145 460-246 756" id="aN"/><path d="M481 0L54-1118h197c107 314 236 620 325 951 87-331 217-637 324-951h197L670 0H481" id="aO"/><g id="i"><use transform="matrix(0.0126953125,0,0,0.0126953125,0,0)" xlink:href="#aN"/><use transform="matrix(0.0126953125,0,0,0.0126953125,17.4306640625,0)" xlink:href="#as"/><use transform="matrix(0.0126953125,0,0,0.0126953125,25.9365234375,0)" xlink:href="#an"/><use transform="matrix(0.0126953125,0,0,0.0126953125,32.2333984375,0)" xlink:href="#aO"/><use transform="matrix(0.0126953125,0,0,0.0126953125,46.71875,0)" xlink:href="#az"/></g><path d="M158 0v-1118h175l1 205c55-151 181-225 313-225 147 0 245 90 285 228 53-141 190-228 352-228 194 0 352 125 352 384V0h-181v-749c0-161-105-225-225-225-151 0-243 103-243 244V0H807v-767c0-124-93-207-219-207-131 0-250 92-250 270V0H158" id="aP"/><path d="M577 24c-279 0-473-224-473-580 0-354 195-576 474-576 218 0 287 134 324 193h14v-551h180V0H922v-173h-20C865-111 790 24 577 24zm27-161c203 0 314-172 314-421 0-247-108-413-314-413-212 0-317 181-317 413 0 235 108 421 317 421" id="aQ"/><g id="j"><use transform="matrix(0.0126953125,0,0,0.0126953125,0,0)" xlink:href="#aP"/><use transform="matrix(0.0126953125,0,0,0.0126953125,22.775390625,0)" xlink:href="#aC"/><use transform="matrix(0.0126953125,0,0,0.0126953125,38.365234375,0)" xlink:href="#aQ"/><use transform="matrix(0.0126953125,0,0,0.0126953125,54.28515625,0)" xlink:href="#aE"/><use transform="matrix(0.0126953125,0,0,0.0126953125,69.6591796875,0)" xlink:href="#aA"/><use transform="matrix(0.0126953125,0,0,0.0126953125,75.9560546875,0)" xlink:href="#aC"/></g><path d="M370-1490V0H180v-1490h190" id="aR"/><g id="k"><use transform="matrix(0.0126953125,0,0,0.0126953125,0,0)" xlink:href="#aR"/><use transform="matrix(0.0126953125,0,0,0.0126953125,6.982421875,0)" xlink:href="#ao"/><use transform="matrix(0.0126953125,0,0,0.0126953125,22.8388671875,0)" xlink:href="#aB"/></g><g id="l"><use transform="matrix(0.013020833333333334,0,0,0.013020833333333334,0,0)" xlink:href="#an"/><use transform="matrix(0.013020833333333334,0,0,0.013020833333333334,6.458333333333334,0)" xlink:href="#ao"/><use transform="matrix(0.013020833333333334,0,0,0.013020833333333334,22.72135416666667,0)" xlink:href="#ap"/><use transform="matrix(0.013020833333333334,0,0,0.013020833333333334,37.95572916666667,0)" xlink:href="#aq"/><use transform="matrix(0.013020833333333334,0,0,0.013020833333333334,50.11718750000001,0)" xlink:href="#ay"/><use transform="matrix(0.013020833333333334,0,0,0.013020833333333334,64.19270833333334,0)" xlink:href="#as"/><use transform="matrix(0.013020833333333334,0,0,0.013020833333333334,73.046875,0)" xlink:href="#az"/><use transform="matrix(0.013020833333333334,0,0,0.013020833333333334,88.02083333333333,0)" xlink:href="#ax"/><use transform="matrix(0.013020833333333334,0,0,0.013020833333333334,98.4765625,0)" xlink:href="#as"/></g><g id="m"><use transform="matrix(0.0126953125,0,0,0.0126953125,0,0)" xlink:href="#aH"/><use transform="matrix(0.0126953125,0,0,0.0126953125,14.701171875,0)" xlink:href="#an"/><use transform="matrix(0.0126953125,0,0,0.0126953125,20.998046875,0)" xlink:href="#aP"/><use transform="matrix(0.0126953125,0,0,0.0126953125,43.7734375,0)" xlink:href="#aw"/><use transform="matrix(0.0126953125,0,0,0.0126953125,59.947265625,0)" xlink:href="#az"/></g><use transform="matrix(0.0126953125,0,0,0.0126953125,0,0)" xlink:href="#az" id="n"/><g id="o"><use transform="matrix(0.0126953125,0,0,0.0126953125,0,0)" xlink:href="#av"/><use transform="matrix(0.0126953125,0,0,0.0126953125,9.623046875,0)" xlink:href="#aA"/><use transform="matrix(0.0126953125,0,0,0.0126953125,15.919921875,0)" xlink:href="#az"/><use transform="matrix(0.0126953125,0,0,0.0126953125,30.51953125,0)" xlink:href="#aD"/></g><path d="M98-1322v-168h1126v168H757V0H567v-1322H98" id="aS"/><path d="M458 0L52-1490h194c108 439 233 855 324 1313 92-459 221-873 331-1313h216c110 438 234 854 330 1307 92-455 216-869 323-1307h196L1558 0h-221l-256-944c-26-95-50-200-73-331-22 122-44 223-73 331L680 0H458" id="aT"/><path d="M180 0v-1490h224l606 953c40 63 108 177 176 312-27-437-7-821-13-1265h190V0h-226C860-448 622-778 356-1262c27 476 11 792 15 1262H180" id="aU"/><path d="M128 359l88-567h206L266 359H128" id="aV"/><g id="p"><use transform="matrix(0.0126953125,0,0,0.0126953125,0,0)" xlink:href="#aS"/><use transform="matrix(0.0126953125,0,0,0.0126953125,16.783203125,0)" xlink:href="#aT"/><use transform="matrix(0.0126953125,0,0,0.0126953125,42.40234375,0)" xlink:href="#aR"/><use transform="matrix(0.0126953125,0,0,0.0126953125,49.384765625,0)" xlink:href="#aU"/><use transform="matrix(0.0126953125,0,0,0.0126953125,68.9736328125,0)" xlink:href="#aS"/><use transform="matrix(0.0126953125,0,0,0.0126953125,84.880859375,0)" xlink:href="#aV"/></g><g id="q"><use transform="matrix(0.0126953125,0,0,0.0126953125,0,0)" xlink:href="#aD"/><use transform="matrix(0.0126953125,0,0,0.0126953125,15.9453125,0)" xlink:href="#au"/><use transform="matrix(0.0126953125,0,0,0.0126953125,31.103515625,0)" xlink:href="#ax"/><use transform="matrix(0.0126953125,0,0,0.0126953125,40.8916015625,0)" xlink:href="#az"/></g><g id="r"><use transform="matrix(0.0126953125,0,0,0.0126953125,0,0)" xlink:href="#ap"/><use transform="matrix(0.0126953125,0,0,0.0126953125,14.853515625,0)" xlink:href="#aC"/><use transform="matrix(0.0126953125,0,0,0.0126953125,30.443359375,0)" xlink:href="#ar"/><use transform="matrix(0.0126953125,0,0,0.0126953125,45.8046875,0)" xlink:href="#aQ"/><use transform="matrix(0.0126953125,0,0,0.0126953125,61.724609375,0)" xlink:href="#an"/><use transform="matrix(0.0126953125,0,0,0.0126953125,68.021484375,0)" xlink:href="#ap"/><use transform="matrix(0.0126953125,0,0,0.0126953125,83.12890625,0)" xlink:href="#az"/><use transform="matrix(0.0126953125,0,0,0.0126953125,97.728515625,0)" xlink:href="#aC"/></g><path d="M180 0v-1490h510c348 0 508 194 508 460 0 198-88 351-276 417L1256 0h-220L726-579c-117 2-238 0-356 1V0H180zm190-747h312c235 0 327-108 327-283 0-177-92-293-329-293H370v576" id="aW"/><g id="s"><use transform="matrix(0.0126953125,0,0,0.0126953125,0,0)" xlink:href="#aG"/><use transform="matrix(0.0126953125,0,0,0.0126953125,16.681640625,0)" xlink:href="#aS"/><use transform="matrix(0.0126953125,0,0,0.0126953125,31.255859375,0)" xlink:href="#aN"/><use transform="matrix(0.0126953125,0,0,0.0126953125,49.1943359375,0)" xlink:href="#aW"/><use transform="matrix(0.0126953125,0,0,0.0126953125,65.9267578125,0)" xlink:href="#aS"/></g><use transform="matrix(0.0126953125,0,0,0.0126953125,0,0)" xlink:href="#au" id="t"/><g id="u"><use transform="matrix(0.0126953125,0,0,0.0126953125,0,0)" xlink:href="#az"/><use transform="matrix(0.0126953125,0,0,0.0126953125,14.599609375,0)" xlink:href="#as"/><use transform="matrix(0.0126953125,0,0,0.0126953125,23.10546875,0)" xlink:href="#an"/><use transform="matrix(0.0126953125,0,0,0.0126953125,29.40234375,0)" xlink:href="#aO"/><use transform="matrix(0.0126953125,0,0,0.0126953125,43.8876953125,0)" xlink:href="#az"/></g><use transform="matrix(0.0126953125,0,0,0.0126953125,0,0)" xlink:href="#aC" id="v"/><path d="M471 26C259 26 90-98 90-318c0-256 228-303 435-329 202-27 287-16 287-108 0-139-79-219-234-219-161 0-248 86-283 164l-173-57c86-203 278-265 451-265 150 0 419 46 419 395V0H815v-152h-12C765-73 660 26 471 26zm31-159c199 0 310-134 310-271v-155c-30 35-226 55-295 64-131 17-246 59-246 186 0 116 97 176 231 176zm187-1180c-99 0-192-83-243-83-35 0-51 40-53 79H267c4-120 55-208 162-208 104 0 174 85 241 85 33 0 49-23 56-81h123c-4 126-62 208-160 208" id="aX"/><g id="w"><use transform="matrix(0.0126953125,0,0,0.0126953125,0,0)" xlink:href="#aS"/><use transform="matrix(0.0126953125,0,0,0.0126953125,15.310546875,0)" xlink:href="#ax"/><use transform="matrix(0.0126953125,0,0,0.0126953125,25.0986328125,0)" xlink:href="#az"/><use transform="matrix(0.0126953125,0,0,0.0126953125,39.6982421875,0)" xlink:href="#ar"/><use transform="matrix(0.0126953125,0,0,0.0126953125,55.0595703125,0)" xlink:href="#ay"/><use transform="matrix(0.0126953125,0,0,0.0126953125,68.783203125,0)" xlink:href="#aP"/><use transform="matrix(0.0126953125,0,0,0.0126953125,91.55859375,0)" xlink:href="#an"/><use transform="matrix(0.0126953125,0,0,0.0126953125,97.85546875,0)" xlink:href="#ay"/><use transform="matrix(0.0126953125,0,0,0.0126953125,111.5791015625,0)" xlink:href="#ay"/><use transform="matrix(0.0126953125,0,0,0.0126953125,125.302734375,0)" xlink:href="#aX"/><use transform="matrix(0.0126953125,0,0,0.0126953125,139.90234375,0)" xlink:href="#aC"/></g><g id="x"><use transform="matrix(0.0126953125,0,0,0.0126953125,0,0)" xlink:href="#as"/><use transform="matrix(0.0126953125,0,0,0.0126953125,8.251953125,0)" xlink:href="#au"/><use transform="matrix(0.0126953125,0,0,0.0126953125,23.41015625,0)" xlink:href="#ax"/><use transform="matrix(0.0126953125,0,0,0.0126953125,33.6044921875,0)" xlink:href="#aP"/><use transform="matrix(0.0126953125,0,0,0.0126953125,56.3798828125,0)" xlink:href="#an"/><use transform="matrix(0.0126953125,0,0,0.0126953125,62.6767578125,0)" xlink:href="#ar"/><use transform="matrix(0.0126953125,0,0,0.0126953125,78.0380859375,0)" xlink:href="#aC"/><use transform="matrix(0.0126953125,0,0,0.0126953125,93.6279296875,0)" xlink:href="#aE"/></g><path d="M409 0L70-1118h191c89 329 165 560 243 925 75-353 154-601 240-925h192c85 325 161 564 235 922 77-354 157-598 244-922h191L1267 0h-179c-86-307-176-590-250-913C763-588 675-308 588 0H409" id="aY"/><path d="M226-283v-166h904v166H226zm0-434v-166h904v166H226" id="aZ"/><g id="y"><use transform="matrix(0.0126953125,0,0,0.0126953125,0,0)" xlink:href="#aS"/><use transform="matrix(0.0126953125,0,0,0.0126953125,15.158203125,0)" xlink:href="#aY"/><use transform="matrix(0.0126953125,0,0,0.0126953125,36.435546875,0)" xlink:href="#an"/><use transform="matrix(0.0126953125,0,0,0.0126953125,42.732421875,0)" xlink:href="#ar"/><use transform="matrix(0.0126953125,0,0,0.0126953125,58.09375,0)" xlink:href="#as"/><use transform="matrix(0.0126953125,0,0,0.0126953125,66.599609375,0)" xlink:href="#aZ"/><use transform="matrix(0.0126953125,0,0,0.0126953125,83.8017578125,0)" xlink:href="#aI"/></g><g id="z"><use transform="matrix(0.013020833333333334,0,0,0.013020833333333334,0,0)" xlink:href="#aU"/><use transform="matrix(0.013020833333333334,0,0,0.013020833333333334,20.091145833333336,0)" xlink:href="#aX"/><use transform="matrix(0.013020833333333334,0,0,0.013020833333333334,35.06510416666667,0)" xlink:href="#aC"/></g><g id="A"><use transform="matrix(0.013020833333333334,0,0,0.013020833333333334,0,0)" xlink:href="#an"/><use transform="matrix(0.013020833333333334,0,0,0.013020833333333334,6.458333333333334,0)" xlink:href="#ao"/><use transform="matrix(0.013020833333333334,0,0,0.013020833333333334,22.72135416666667,0)" xlink:href="#ap"/><use transform="matrix(0.013020833333333334,0,0,0.013020833333333334,37.95572916666667,0)" xlink:href="#aq"/><use transform="matrix(0.013020833333333334,0,0,0.013020833333333334,50.11718750000001,0)" xlink:href="#ay"/><use transform="matrix(0.013020833333333334,0,0,0.013020833333333334,64.19270833333334,0)" xlink:href="#as"/><use transform="matrix(0.013020833333333334,0,0,0.013020833333333334,72.65625000000001,0)" xlink:href="#aC"/><use transform="matrix(0.013020833333333334,0,0,0.013020833333333334,88.64583333333334,0)" xlink:href="#aw"/></g><path d="M784 20c-382 0-662-292-662-764 0-473 280-766 662-766s660 293 660 766c0 472-278 764-660 764zm0-176c266 0 475-207 475-588 0-383-209-590-475-590-268 0-477 208-477 590 0 380 209 588 477 588" id="ba"/><path d="M180 0v-1490h510c348 0 508 209 508 474 0 266-160 477-507 477H370V0H180zm190-706h312c236 0 327-133 327-310 0-176-91-307-329-307H370v617" id="bb"/><g id="B"><use transform="matrix(0.0126953125,0,0,0.0126953125,0,0)" xlink:href="#aG"/><use transform="matrix(0.0126953125,0,0,0.0126953125,16.681640625,0)" xlink:href="#aS"/><use transform="matrix(0.0126953125,0,0,0.0126953125,32.6904296875,0)" xlink:href="#ba"/><use transform="matrix(0.0126953125,0,0,0.0126953125,52.5712890625,0)" xlink:href="#bb"/></g><g id="C"><use transform="matrix(0.013020833333333334,0,0,0.013020833333333334,0,0)" xlink:href="#an"/><use transform="matrix(0.013020833333333334,0,0,0.013020833333333334,6.458333333333334,0)" xlink:href="#ao"/><use transform="matrix(0.013020833333333334,0,0,0.013020833333333334,22.72135416666667,0)" xlink:href="#ap"/><use transform="matrix(0.013020833333333334,0,0,0.013020833333333334,37.95572916666667,0)" xlink:href="#aq"/><use transform="matrix(0.013020833333333334,0,0,0.013020833333333334,50.11718750000001,0)" xlink:href="#aY"/><use transform="matrix(0.013020833333333334,0,0,0.013020833333333334,71.94010416666667,0)" xlink:href="#ax"/><use transform="matrix(0.013020833333333334,0,0,0.013020833333333334,82.39583333333334,0)" xlink:href="#an"/><use transform="matrix(0.013020833333333334,0,0,0.013020833333333334,88.85416666666667,0)" xlink:href="#as"/><use transform="matrix(0.013020833333333334,0,0,0.013020833333333334,97.31770833333333,0)" xlink:href="#au"/></g><g id="D"><use transform="matrix(0.0126953125,0,0,0.0126953125,0,0)" xlink:href="#aB"/><use transform="matrix(0.0126953125,0,0,0.0126953125,18.9921875,0)" xlink:href="#az"/><use transform="matrix(0.0126953125,0,0,0.0126953125,33.591796875,0)" xlink:href="#ax"/><use transform="matrix(0.0126953125,0,0,0.0126953125,43.7861328125,0)" xlink:href="#ax"/><use transform="matrix(0.0126953125,0,0,0.0126953125,53.142578125,0)" xlink:href="#au"/><use transform="matrix(0.0126953125,0,0,0.0126953125,68.30078125,0)" xlink:href="#aD"/><use transform="matrix(0.0126953125,0,0,0.0126953125,84.24609375,0)" xlink:href="#az"/></g><path d="M677 24c-213 0-288-135-325-197h-20V0H158v-1490h180v551h14c37-59 106-193 324-193 279 0 474 222 474 576 0 356-194 580-473 580zm-27-161c209 0 317-186 317-421 0-232-105-413-317-413-206 0-314 166-314 413 0 249 111 421 314 421" id="bc"/><path d="M140 405l46-156c120 36 205 19 263-150l32-93L54-1118h197c107 313 237 620 324 950 87-331 219-637 326-950h196L606 167c-68 178-176 259-334 259-64 0-113-12-132-21" id="bd"/><g id="E"><use transform="matrix(0.0126953125,0,0,0.0126953125,0,0)" xlink:href="#bc"/><use transform="matrix(0.0126953125,0,0,0.0126953125,15.412109375,0)" xlink:href="#bd"/><use transform="matrix(0.0126953125,0,0,0.0126953125,30.4052734375,0)" xlink:href="#as"/><use transform="matrix(0.0126953125,0,0,0.0126953125,38.6572265625,0)" xlink:href="#au"/></g><g id="F"><use transform="matrix(0.0126953125,0,0,0.0126953125,0,0)" xlink:href="#ar"/><use transform="matrix(0.0126953125,0,0,0.0126953125,15.361328125,0)" xlink:href="#aC"/></g><g id="G"><use transform="matrix(0.0126953125,0,0,0.0126953125,0,0)" xlink:href="#bc"/><use transform="matrix(0.0126953125,0,0,0.0126953125,15.919921875,0)" xlink:href="#aE"/><use transform="matrix(0.0126953125,0,0,0.0126953125,31.2939453125,0)" xlink:href="#av"/><use transform="matrix(0.0126953125,0,0,0.0126953125,39.9013671875,0)" xlink:href="#av"/><use transform="matrix(0.0126953125,0,0,0.0126953125,48.7626953125,0)" xlink:href="#au"/><use transform="matrix(0.0126953125,0,0,0.0126953125,63.9208984375,0)" xlink:href="#ax"/></g><g id="H"><use transform="matrix(0.0126953125,0,0,0.0126953125,0,0)" xlink:href="#aQ"/><use transform="matrix(0.0126953125,0,0,0.0126953125,15.919921875,0)" xlink:href="#au"/></g><g id="I"><use transform="matrix(0.0126953125,0,0,0.0126953125,0,0)" xlink:href="#as"/><use transform="matrix(0.0126953125,0,0,0.0126953125,8.505859375,0)" xlink:href="#ax"/><use transform="matrix(0.0126953125,0,0,0.0126953125,18.2939453125,0)" xlink:href="#az"/><use transform="matrix(0.0126953125,0,0,0.0126953125,32.8935546875,0)" xlink:href="#ar"/><use transform="matrix(0.0126953125,0,0,0.0126953125,48.2548828125,0)" xlink:href="#ay"/><use transform="matrix(0.0126953125,0,0,0.0126953125,61.978515625,0)" xlink:href="#aP"/><use transform="matrix(0.0126953125,0,0,0.0126953125,84.75390625,0)" xlink:href="#an"/><use transform="matrix(0.0126953125,0,0,0.0126953125,91.05078125,0)" xlink:href="#ay"/><use transform="matrix(0.0126953125,0,0,0.0126953125,104.7744140625,0)" xlink:href="#ay"/><use transform="matrix(0.0126953125,0,0,0.0126953125,118.498046875,0)" xlink:href="#aX"/><use transform="matrix(0.0126953125,0,0,0.0126953125,133.09765625,0)" xlink:href="#aC"/></g><g id="J"><use transform="matrix(0.0126953125,0,0,0.0126953125,0,0)" xlink:href="#aH"/><use transform="matrix(0.0126953125,0,0,0.0126953125,14.701171875,0)" xlink:href="#an"/><use transform="matrix(0.0126953125,0,0,0.0126953125,20.998046875,0)" xlink:href="#aP"/><use transform="matrix(0.0126953125,0,0,0.0126953125,43.7734375,0)" xlink:href="#aw"/><use transform="matrix(0.0126953125,0,0,0.0126953125,59.947265625,0)" xlink:href="#az"/></g><g id="K"><use transform="matrix(0.0126953125,0,0,0.0126953125,0,0)" xlink:href="#aS"/><use transform="matrix(0.0126953125,0,0,0.0126953125,16.783203125,0)" xlink:href="#aT"/><use transform="matrix(0.0126953125,0,0,0.0126953125,42.40234375,0)" xlink:href="#aR"/><use transform="matrix(0.0126953125,0,0,0.0126953125,49.384765625,0)" xlink:href="#aU"/><use transform="matrix(0.0126953125,0,0,0.0126953125,68.9736328125,0)" xlink:href="#aS"/></g><g id="L"><use transform="matrix(0.0126953125,0,0,0.0126953125,0,0)" xlink:href="#an"/><use transform="matrix(0.0126953125,0,0,0.0126953125,6.296875,0)" xlink:href="#ar"/><use transform="matrix(0.0126953125,0,0,0.0126953125,21.658203125,0)" xlink:href="#an"/><use transform="matrix(0.0126953125,0,0,0.0126953125,27.955078125,0)" xlink:href="#ap"/><use transform="matrix(0.0126953125,0,0,0.0126953125,42.80859375,0)" xlink:href="#an"/><use transform="matrix(0.0126953125,0,0,0.0126953125,49.10546875,0)" xlink:href="#az"/></g><g id="M"><use transform="matrix(0.0126953125,0,0,0.0126953125,0,0)" xlink:href="#au"/><use transform="matrix(0.0126953125,0,0,0.0126953125,15.158203125,0)" xlink:href="#ar"/><use transform="matrix(0.0126953125,0,0,0.0126953125,30.138671875,0)" xlink:href="#aO"/><use transform="matrix(0.0126953125,0,0,0.0126953125,44.7509765625,0)" xlink:href="#an"/><use transform="matrix(0.0126953125,0,0,0.0126953125,51.0478515625,0)" xlink:href="#aC"/></g><g id="N"><use transform="matrix(0.0126953125,0,0,0.0126953125,0,0)" xlink:href="#aQ"/><use transform="matrix(0.0126953125,0,0,0.0126953125,15.919921875,0)" xlink:href="#aC"/></g><g id="O"><use transform="matrix(0.0126953125,0,0,0.0126953125,0,0)" xlink:href="#bc"/><use transform="matrix(0.0126953125,0,0,0.0126953125,15.412109375,0)" xlink:href="#bd"/><use transform="matrix(0.0126953125,0,0,0.0126953125,30.4052734375,0)" xlink:href="#as"/><use transform="matrix(0.0126953125,0,0,0.0126953125,38.6572265625,0)" xlink:href="#au"/></g><g id="P"><use transform="matrix(0.010416666666666668,0,0,0.010416666666666668,0,0)" xlink:href="#an"/><use transform="matrix(0.010416666666666668,0,0,0.010416666666666668,5.166666666666667,0)" xlink:href="#ao"/><use transform="matrix(0.010416666666666668,0,0,0.010416666666666668,18.177083333333336,0)" xlink:href="#ap"/><use transform="matrix(0.010416666666666668,0,0,0.010416666666666668,30.364583333333336,0)" xlink:href="#aq"/><use transform="matrix(0.010416666666666668,0,0,0.010416666666666668,40.8125,0)" xlink:href="#ax"/><use transform="matrix(0.010416666666666668,0,0,0.010416666666666668,48.489583333333336,0)" xlink:href="#au"/><use transform="matrix(0.010416666666666668,0,0,0.010416666666666668,61.13541666666667,0)" xlink:href="#az"/><use transform="matrix(0.010416666666666668,0,0,0.010416666666666668,73.11458333333334,0)" xlink:href="#aQ"/></g><g id="Q"><use transform="matrix(0.010416666666666668,0,0,0.010416666666666668,0,0)" xlink:href="#an"/><use transform="matrix(0.010416666666666668,0,0,0.010416666666666668,5.166666666666667,0)" xlink:href="#av"/></g><path d="M218-607c0-325 108-727 258-974h175c-155 315-250 682-250 974 0 265 78 531 250 886H476C306-10 218-315 218-607" id="be"/><g id="R"><use transform="matrix(0.010416666666666668,0,0,0.010416666666666668,0,0)" xlink:href="#be"/><use transform="matrix(0.010416666666666668,0,0,0.010416666666666668,7.781250000000001,0)" xlink:href="#az"/><use transform="matrix(0.010416666666666668,0,0,0.010416666666666668,19.760416666666668,0)" xlink:href="#ap"/><use transform="matrix(0.010416666666666668,0,0,0.010416666666666668,31.94791666666667,0)" xlink:href="#aK"/></g><g id="S"><use transform="matrix(0.010416666666666668,0,0,0.010416666666666668,0,0)" xlink:href="#aZ"/><use transform="matrix(0.010416666666666668,0,0,0.010416666666666668,14.114583333333336,0)" xlink:href="#aZ"/></g><path d="M96 279C273-86 346-350 346-607c0-292-95-659-250-974h175c150 246 258 650 258 974 0 297-91 602-258 886H96" id="bf"/><g id="T"><use transform="matrix(0.010416666666666668,0,0,0.010416666666666668,0,0)" xlink:href="#aI"/><use transform="matrix(0.010416666666666668,0,0,0.010416666666666668,8.677083333333334,0)" xlink:href="#bf"/></g><path d="M180 0v-1490h908v168H370v486h669v168H370v500h727V0H180" id="bg"/><g id="U"><use transform="matrix(0.0126953125,0,0,0.0126953125,0,0)" xlink:href="#bg"/><use transform="matrix(0.0126953125,0,0,0.0126953125,15.6279296875,0)" xlink:href="#ar"/><use transform="matrix(0.0126953125,0,0,0.0126953125,30.6083984375,0)" xlink:href="#aO"/><use transform="matrix(0.0126953125,0,0,0.0126953125,45.220703125,0)" xlink:href="#an"/><use transform="matrix(0.0126953125,0,0,0.0126953125,51.517578125,0)" xlink:href="#az"/></g><path d="M180 0v-1490h190c0 262 1 526-3 784 217-279 467-523 702-784h249L716-845 1319 0h-225L585-716 370-489V0H180" id="bh"/><g id="V"><use transform="matrix(0.0126953125,0,0,0.0126953125,0,0)" xlink:href="#aN"/><use transform="matrix(0.0126953125,0,0,0.0126953125,17.0498046875,0)" xlink:href="#aB"/><use transform="matrix(0.0126953125,0,0,0.0126953125,36.0419921875,0)" xlink:href="#bh"/></g><g id="W"><use transform="matrix(0.0126953125,0,0,0.0126953125,0,0)" xlink:href="#az"/><use transform="matrix(0.0126953125,0,0,0.0126953125,14.599609375,0)" xlink:href="#aw"/><use transform="matrix(0.0126953125,0,0,0.0126953125,30.51953125,0)" xlink:href="#aC"/><use transform="matrix(0.0126953125,0,0,0.0126953125,46.109375,0)" xlink:href="#ay"/></g><g id="X"><use transform="matrix(0.0126953125,0,0,0.0126953125,0,0)" xlink:href="#ax"/><use transform="matrix(0.0126953125,0,0,0.0126953125,9.3564453125,0)" xlink:href="#au"/><use transform="matrix(0.0126953125,0,0,0.0126953125,24.5146484375,0)" xlink:href="#ap"/><use transform="matrix(0.0126953125,0,0,0.0126953125,39.3681640625,0)" xlink:href="#au"/><use transform="matrix(0.0126953125,0,0,0.0126953125,54.5263671875,0)" xlink:href="#bc"/><use transform="matrix(0.0126953125,0,0,0.0126953125,70.4462890625,0)" xlink:href="#au"/><use transform="matrix(0.0126953125,0,0,0.0126953125,85.6044921875,0)" xlink:href="#ax"/></g><use transform="matrix(0.0126953125,0,0,0.0126953125,0,0)" xlink:href="#aC" id="Y"/><g id="Z"><use transform="matrix(0.0126953125,0,0,0.0126953125,0,0)" xlink:href="#aU"/><use transform="matrix(0.0126953125,0,0,0.0126953125,19.5888671875,0)" xlink:href="#az"/><use transform="matrix(0.0126953125,0,0,0.0126953125,34.1884765625,0)" xlink:href="#ap"/><use transform="matrix(0.0126953125,0,0,0.0126953125,49.0419921875,0)" xlink:href="#aK"/></g><use transform="matrix(0.0126953125,0,0,0.0126953125,0,0)" xlink:href="#au" id="aa"/><g id="ab"><use transform="matrix(0.0126953125,0,0,0.0126953125,0,0)" xlink:href="#aE"/><use transform="matrix(0.0126953125,0,0,0.0126953125,15.3740234375,0)" xlink:href="#aA"/><use transform="matrix(0.0126953125,0,0,0.0126953125,22.0517578125,0)" xlink:href="#as"/><use transform="matrix(0.0126953125,0,0,0.0126953125,30.5576171875,0)" xlink:href="#an"/><use transform="matrix(0.0126953125,0,0,0.0126953125,36.8544921875,0)" xlink:href="#aP"/><use transform="matrix(0.0126953125,0,0,0.0126953125,59.6298828125,0)" xlink:href="#aC"/></g><g id="ac"><use transform="matrix(0.0126953125,0,0,0.0126953125,0,0)" xlink:href="#bc"/><use transform="matrix(0.0126953125,0,0,0.0126953125,15.412109375,0)" xlink:href="#bd"/><use transform="matrix(0.0126953125,0,0,0.0126953125,30.4052734375,0)" xlink:href="#as"/><use transform="matrix(0.0126953125,0,0,0.0126953125,38.6572265625,0)" xlink:href="#au"/></g><g id="ad"><use transform="matrix(0.013020833333333334,0,0,0.013020833333333334,0,0)" xlink:href="#aG"/><use transform="matrix(0.013020833333333334,0,0,0.013020833333333334,17.109375,0)" xlink:href="#an"/><use transform="matrix(0.013020833333333334,0,0,0.013020833333333334,23.567708333333336,0)" xlink:href="#aP"/></g><g id="ae"><use transform="matrix(0.0126953125,0,0,0.0126953125,0,0)" xlink:href="#aS"/><use transform="matrix(0.0126953125,0,0,0.0126953125,14.751953125,0)" xlink:href="#au"/><use transform="matrix(0.0126953125,0,0,0.0126953125,29.91015625,0)" xlink:href="#ax"/><use transform="matrix(0.0126953125,0,0,0.0126953125,40.1044921875,0)" xlink:href="#aP"/><use transform="matrix(0.0126953125,0,0,0.0126953125,62.8798828125,0)" xlink:href="#an"/><use transform="matrix(0.0126953125,0,0,0.0126953125,69.1767578125,0)" xlink:href="#ar"/><use transform="matrix(0.0126953125,0,0,0.0126953125,84.5380859375,0)" xlink:href="#aC"/><use transform="matrix(0.0126953125,0,0,0.0126953125,100.1279296875,0)" xlink:href="#aE"/></g><g id="af"><use transform="matrix(0.0126953125,0,0,0.0126953125,0,0)" xlink:href="#aQ"/><use transform="matrix(0.0126953125,0,0,0.0126953125,15.919921875,0)" xlink:href="#au"/></g><g id="ag"><use transform="matrix(0.0126953125,0,0,0.0126953125,0,0)" xlink:href="#ax"/><use transform="matrix(0.0126953125,0,0,0.0126953125,9.3564453125,0)" xlink:href="#au"/><use transform="matrix(0.0126953125,0,0,0.0126953125,24.5146484375,0)" xlink:href="#ap"/><use transform="matrix(0.0126953125,0,0,0.0126953125,39.3681640625,0)" xlink:href="#au"/><use transform="matrix(0.0126953125,0,0,0.0126953125,54.5263671875,0)" xlink:href="#bc"/><use transform="matrix(0.0126953125,0,0,0.0126953125,70.4462890625,0)" xlink:href="#au"/><use transform="matrix(0.0126953125,0,0,0.0126953125,85.6044921875,0)" xlink:href="#ax"/></g><g id="ah"><use transform="matrix(0.0126953125,0,0,0.0126953125,0,0)" xlink:href="#aC"/><use transform="matrix(0.0126953125,0,0,0.0126953125,15.58984375,0)" xlink:href="#ay"/></g><g id="ai"><use transform="matrix(0.0126953125,0,0,0.0126953125,0,0)" xlink:href="#bc"/><use transform="matrix(0.0126953125,0,0,0.0126953125,15.412109375,0)" xlink:href="#bd"/><use transform="matrix(0.0126953125,0,0,0.0126953125,30.4052734375,0)" xlink:href="#as"/><use transform="matrix(0.0126953125,0,0,0.0126953125,38.6572265625,0)" xlink:href="#au"/><use transform="matrix(0.0126953125,0,0,0.0126953125,53.8154296875,0)" xlink:href="#ay"/></g><g id="aj"><use transform="matrix(0.0126953125,0,0,0.0126953125,0,0)" xlink:href="#aW"/><use transform="matrix(0.0126953125,0,0,0.0126953125,16.3515625,0)" xlink:href="#au"/><use transform="matrix(0.0126953125,0,0,0.0126953125,31.509765625,0)" xlink:href="#as"/><use transform="matrix(0.0126953125,0,0,0.0126953125,39.76171875,0)" xlink:href="#aC"/><use transform="matrix(0.0126953125,0,0,0.0126953125,55.3515625,0)" xlink:href="#ax"/><use transform="matrix(0.0126953125,0,0,0.0126953125,65.5458984375,0)" xlink:href="#ar"/><use transform="matrix(0.0126953125,0,0,0.0126953125,80.9072265625,0)" xlink:href="#az"/></g><g id="ak"><use transform="matrix(0.0126953125,0,0,0.0126953125,0,0)" xlink:href="#ax"/><use transform="matrix(0.0126953125,0,0,0.0126953125,9.3564453125,0)" xlink:href="#au"/><use transform="matrix(0.0126953125,0,0,0.0126953125,24.5146484375,0)" xlink:href="#ap"/><use transform="matrix(0.0126953125,0,0,0.0126953125,39.3681640625,0)" xlink:href="#au"/><use transform="matrix(0.0126953125,0,0,0.0126953125,54.5263671875,0)" xlink:href="#bc"/><use transform="matrix(0.0126953125,0,0,0.0126953125,70.4462890625,0)" xlink:href="#an"/><use transform="matrix(0.0126953125,0,0,0.0126953125,76.7431640625,0)" xlink:href="#aQ"/><use transform="matrix(0.0126953125,0,0,0.0126953125,92.6630859375,0)" xlink:href="#aC"/></g><g id="al"><use transform="matrix(0.0126953125,0,0,0.0126953125,0,0)" xlink:href="#aS"/><use transform="matrix(0.0126953125,0,0,0.0126953125,16.783203125,0)" xlink:href="#aT"/><use transform="matrix(0.0126953125,0,0,0.0126953125,42.40234375,0)" xlink:href="#at"/><use transform="matrix(0.0126953125,0,0,0.0126953125,61.166015625,0)" xlink:href="#aW"/></g></defs></g></svg>