<svg xmlns="http://www.w3.org/2000/svg" xmlns:xlink="http://www.w3.org/1999/xlink" xmlns:lucid="lucid" width="248.82" height="799.45"><g transform="translate(2984.409764078846 -1979.1867627518875)" lucid:page-tab-id="0_0"><path d="M-2779.26 1980.2c22.1 0 40 17.9 40 40 0 22.08-17.9 40-40 40h-161.48c-22.1 0-40-17.92-40-40 0-22.1 17.9-40 40-40z" stroke="#000" stroke-width="2" fill="#fff"/><use xlink:href="#a" transform="matrix(1,0,0,1,-2975.744706275016,1985.1867627518875) translate(103.48958333333333 42.54166666666667)"/><path d="M-2860 2062.7v54" stroke="#3a414a" stroke-width="3" stroke-linejoin="round" fill="none"/><path d="M-2858.53 2062.73h-2.94v-1.54h2.94z" stroke="#3a414a" stroke-width=".05" fill="#3a414a"/><path d="M-2860 2131.2l-7.5-13h15z" stroke="#3a414a" stroke-width="3" fill="#3a414a"/><path d="M-2940 2141.2a6 6 0 0 1 6-6h148a6 6 0 0 1 6 6v108a6 6 0 0 1-6 6h-148a6 6 0 0 1-6-6z" stroke="#000" stroke-width="2" fill="#fff"/><use xlink:href="#b" transform="matrix(1,0,0,1,-2935,2140.1867627518877) translate(5.88037109375 28.625)"/><use xlink:href="#c" transform="matrix(1,0,0,1,-2935,2140.1867627518877) translate(36.15234375 66.37578124999999)"/><use xlink:href="#d" transform="matrix(1,0,0,1,-2935,2140.1867627518877) translate(21.248046875 104.12656249999999)"/><path d="M-2860 2257.7v56.22" stroke="#3a414a" stroke-width="3" stroke-linejoin="round" fill="none"/><path d="M-2858.53 2257.73h-2.94v-1.54h2.94z" stroke="#3a414a" stroke-width=".05" fill="#3a414a"/><path d="M-2860 2328.4l-7.5-12.98h15z" stroke="#3a414a" stroke-width="3" fill="#3a414a"/><path d="M-2864.55 2334.1a7 7 0 0 1 9.1 0l115.3 99a5.15 5.15 0 0 1 0 7.82l-115.3 99a7 7 0 0 1-9.1 0l-115.3-99a5.15 5.15 0 0 1 0-7.82z" stroke="#000" stroke-width="2" fill="#fff"/><use xlink:href="#e" transform="matrix(1,0,0,1,-2979.409764078846,2335.1867627518877) translate(27.668574218750006 114.4375)"/><path d="M-2860 2544.1v60.34" stroke="#3a414a" stroke-width="3" stroke-linejoin="round" fill="none"/><path d="M-2861.13 2542.53l1.13.08 1.13-.07.34-.08v1.7h-2.94v-1.7z" stroke="#3a414a" stroke-width=".05" fill="#3a414a"/><path d="M-2860 2618.93l-7.5-13h15z" stroke="#3a414a" stroke-width="3" fill="#3a414a"/><path d="M-2940 2628.93a6 6 0 0 1 6-6h148a6 6 0 0 1 6 6v142.7a6 6 0 0 1-6 6h-148a6 6 0 0 1-6-6z" stroke="#000" stroke-width="2" fill="#fff"/><use xlink:href="#f" transform="matrix(1,0,0,1,-2935,2627.928213520957) translate(21.1337890625 29.71875)"/><use xlink:href="#g" transform="matrix(1,0,0,1,-2935,2627.928213520957) translate(113.2763671875 29.71875)"/><use xlink:href="#h" transform="matrix(1,0,0,1,-2935,2627.928213520957) translate(23.24755859375 67.46953124999999)"/><use xlink:href="#i" transform="matrix(1,0,0,1,-2935,2627.928213520957) translate(76.33935546875 67.46953124999999)"/><use xlink:href="#j" transform="matrix(1,0,0,1,-2935,2627.928213520957) translate(13.9990234375 105.22031249999999)"/><use xlink:href="#k" transform="matrix(1,0,0,1,-2935,2627.928213520957) translate(36.4697265625 105.22031249999999)"/><use xlink:href="#g" transform="matrix(1,0,0,1,-2935,2627.928213520957) translate(120.4111328125 105.22031249999999)"/><use xlink:href="#l" transform="matrix(1,0,0,1,-2935,2627.928213520957) translate(19.83251953125 142.97109375)"/><path d="M-2854.47 2546.86a6 6 0 0 1 6-6h44.94a6 6 0 0 1 6 6v30.28a6 6 0 0 1-6 6h-44.94a6 6 0 0 1-6-6z" fill="none"/><g><use xlink:href="#m" transform="matrix(1,0,0,1,-2849.4685416666666,2545.8621875) translate(0 26.200520833333336)"/></g><defs><path d="M370-1490V0H180v-1490h190" id="n"/><path d="M538 24C308 24 148-78 108-271l171-41c32 123 123 178 257 178 156 0 256-77 256-169 0-77-54-128-164-154l-186-44c-203-48-300-148-300-305 0-192 176-326 414-326 230 0 351 112 402 269l-163 42c-31-80-94-158-238-158-133 0-233 69-233 162 0 83 57 129 188 160l169 40c203 48 298 149 298 302 0 196-179 339-441 339" id="o"/><path d="M158 0v-1118h174v172h12c41-113 157-188 290-188 26 0 70 2 91 3v181c-11-2-60-10-108-10-161 0-279 109-279 260V0H158" id="p"/><g id="a"><use transform="matrix(0.010416666666666668,0,0,0.010416666666666668,0,0)" xlink:href="#n"/><use transform="matrix(0.010416666666666668,0,0,0.010416666666666668,5.729166666666667,0)" xlink:href="#o"/><use transform="matrix(0.010416666666666668,0,0,0.010416666666666668,16.989583333333336,0)" xlink:href="#p"/></g><path d="M338-670V0H158v-1118h173l1 207c72-158 192-221 342-221 226 0 378 139 378 422V0H872v-695c0-172-96-275-252-275-161 0-282 109-282 300" id="q"/><path d="M613 24c-304 0-509-231-509-576 0-350 205-580 509-580 216 0 392 114 453 309l-173 49c-33-115-133-197-280-197-223 0-326 196-326 419 0 220 103 415 326 415 150 0 252-85 285-206l172 49C1010-95 832 24 613 24" id="r"/><path d="M628 24c-324 0-524-230-524-574 0-343 198-582 503-582 237 0 487 146 487 559v75H286c9 234 145 362 343 362 132 0 231-58 273-172l174 48C1024-91 857 24 628 24zM287-650h624c-17-190-120-322-304-322-192 0-309 151-320 322" id="s"/><path d="M158 0v-1118h175l1 205c55-151 181-225 313-225 147 0 245 90 285 228 53-141 190-228 352-228 194 0 352 125 352 384V0h-181v-749c0-161-105-225-225-225-151 0-243 103-243 244V0H807v-767c0-124-93-207-219-207-131 0-250 92-250 270V0H158" id="t"/><path d="M598-1118v154H368v674c0 100 37 144 132 144 23 0 62-6 92-12L629-6c-37 13-88 20-134 20-193 0-307-107-307-290v-688H20v-154h168v-266h180v266h230" id="u"/><path d="M471 26C259 26 90-98 90-318c0-256 228-303 435-329 202-27 287-16 287-108 0-139-79-219-234-219-161 0-248 86-283 164l-173-57c86-203 278-265 451-265 150 0 419 46 419 395V0H815v-152h-12C765-73 660 26 471 26zm31-159c199 0 310-134 310-271v-155c-30 35-226 55-295 64-131 17-246 59-246 186 0 116 97 176 231 176" id="v"/><g id="b"><use transform="matrix(0.0126953125,0,0,0.0126953125,0,0)" xlink:href="#n"/><use transform="matrix(0.0126953125,0,0,0.0126953125,6.982421875,0)" xlink:href="#q"/><use transform="matrix(0.0126953125,0,0,0.0126953125,22.34375,0)" xlink:href="#r"/><use transform="matrix(0.0126953125,0,0,0.0126953125,37.197265625,0)" xlink:href="#p"/><use transform="matrix(0.0126953125,0,0,0.0126953125,46.5537109375,0)" xlink:href="#s"/><use transform="matrix(0.0126953125,0,0,0.0126953125,61.7119140625,0)" xlink:href="#t"/><use transform="matrix(0.0126953125,0,0,0.0126953125,84.4873046875,0)" xlink:href="#s"/><use transform="matrix(0.0126953125,0,0,0.0126953125,99.6455078125,0)" xlink:href="#q"/><use transform="matrix(0.0126953125,0,0,0.0126953125,115.0068359375,0)" xlink:href="#u"/><use transform="matrix(0.0126953125,0,0,0.0126953125,123.6396484375,0)" xlink:href="#v"/></g><path d="M158 418v-1536h174v179h20c37-59 106-193 324-193 279 0 474 222 474 576 0 356-194 580-473 580-213 0-288-135-325-197h-14v591H158zm492-555c209 0 317-186 317-421 0-232-105-413-317-413-206 0-314 166-314 413 0 249 111 421 314 421" id="w"/><path d="M613 24c-304 0-509-231-509-576 0-350 205-580 509-580 305 0 511 230 511 580 0 345-206 576-511 576zm0-161c226 0 329-195 329-415 0-222-103-419-329-419-223 0-326 196-326 419 0 220 103 415 326 415" id="x"/><g id="c"><use transform="matrix(0.0126953125,0,0,0.0126953125,0,0)" xlink:href="#u"/><use transform="matrix(0.0126953125,0,0,0.0126953125,8.251953125,0)" xlink:href="#s"/><use transform="matrix(0.0126953125,0,0,0.0126953125,23.41015625,0)" xlink:href="#t"/><use transform="matrix(0.0126953125,0,0,0.0126953125,46.185546875,0)" xlink:href="#w"/><use transform="matrix(0.0126953125,0,0,0.0126953125,62.10546875,0)" xlink:href="#x"/></g><path d="M677 24c-213 0-288-135-325-197h-20V0H158v-1490h180v551h14c37-59 106-193 324-193 279 0 474 222 474 576 0 356-194 580-473 580zm-27-161c209 0 317-186 317-421 0-232-105-413-317-413-206 0-314 166-314 413 0 249 111 421 314 421" id="y"/><path d="M338-1490V0H158v-1490h180" id="z"/><path d="M158 0v-1118h180V0H158zm91-1301c-68 0-125-53-125-119s57-119 125-119c69 0 126 53 126 119s-57 119-126 119" id="A"/><path d="M158 0v-1490h180v865h22l478-493h223L593-638 1096 0H865L456-523 338-412V0H158" id="B"/><path d="M934 0v166H0V0h934" id="C"/><path d="M653-1490V0H466v-1314h-10L96-1047v-204l324-239h233" id="D"/><path d="M338-670V0H158v-1490h180v566c73-149 190-208 336-208 226 0 379 139 379 422V0H872v-695c0-172-96-275-252-275-161 0-282 109-282 300" id="E"/><path d="M126 0v-134l627-806v-11H146v-167h839v143L376-178v11h629V0H126" id="F"/><g id="d"><use transform="matrix(0.0126953125,0,0,0.0126953125,0,0)" xlink:href="#y"/><use transform="matrix(0.0126953125,0,0,0.0126953125,15.919921875,0)" xlink:href="#z"/><use transform="matrix(0.0126953125,0,0,0.0126953125,22.216796875,0)" xlink:href="#A"/><use transform="matrix(0.0126953125,0,0,0.0126953125,28.513671875,0)" xlink:href="#q"/><use transform="matrix(0.0126953125,0,0,0.0126953125,43.875,0)" xlink:href="#B"/><use transform="matrix(0.0126953125,0,0,0.0126953125,58.14453125,0)" xlink:href="#C"/><use transform="matrix(0.0126953125,0,0,0.0126953125,67.1962890625,0)" xlink:href="#D"/><use transform="matrix(0.0126953125,0,0,0.0126953125,77.771484375,0)" xlink:href="#E"/><use transform="matrix(0.0126953125,0,0,0.0126953125,93.1455078125,0)" xlink:href="#F"/></g><path d="M180 0v-1490h528c311 0 458 177 458 395 0 191-114 278-244 313v14c139 9 302 137 302 371 0 225-148 397-499 397H180zm190-168h350c232 0 321-102 321-231 0-149-120-277-311-277H370v508zm0-668h328c160 0 286-101 286-255 0-129-87-231-280-231H370v486" id="G"/><path d="M1181-520L237-44v-194l712-338v-12L237-926v-196l944 476v126" id="H"/><path d="M226-283v-166h904v166H226zm0-434v-166h904v166H226" id="I"/><path d="M626 20c-262 0-458-168-468-396h184c12 133 134 229 284 229 180 0 311-137 311-326 0-192-136-335-323-335-92 0-196 33-255 78l-178-22 88-738h784v167H429l-51 435h8c61-51 160-87 263-87 273 0 474 211 474 499 0 286-210 496-497 496" id="J"/><path d="M383-449c-3-277 82-343 222-425 88-53 156-134 156-250 0-139-108-227-243-227-118 0-235 70-246 236H82c10-251 200-395 436-395 259 0 427 165 427 393 0 161-74 273-203 352-132 80-180 132-178 316H383zm93 462c-75 0-135-60-135-134 0-75 60-135 135-135 74 0 134 60 134 135 0 74-60 134-134 134" id="K"/><g id="e"><use transform="matrix(0.0126953125,0,0,0.0126953125,0,0)" xlink:href="#G"/><use transform="matrix(0.0126953125,0,0,0.0126953125,17.01171875,0)" xlink:href="#z"/><use transform="matrix(0.0126953125,0,0,0.0126953125,23.30859375,0)" xlink:href="#A"/><use transform="matrix(0.0126953125,0,0,0.0126953125,29.60546875,0)" xlink:href="#q"/><use transform="matrix(0.0126953125,0,0,0.0126953125,44.966796875,0)" xlink:href="#B"/><use transform="matrix(0.0126953125,0,0,0.0126953125,59.236328125,0)" xlink:href="#C"/><use transform="matrix(0.0126953125,0,0,0.0126953125,68.2880859375,0)" xlink:href="#D"/><use transform="matrix(0.0126953125,0,0,0.0126953125,78.86328125,0)" xlink:href="#E"/><use transform="matrix(0.0126953125,0,0,0.0126953125,94.2373046875,0)" xlink:href="#F"/><use transform="matrix(0.0126953125,0,0,0.0126953125,108.595703125,0)" xlink:href="#H"/><use transform="matrix(0.0126953125,0,0,0.0126953125,125.7978515625,0)" xlink:href="#I"/><use transform="matrix(0.0126953125,0,0,0.0126953125,143,0)" xlink:href="#D"/><use transform="matrix(0.0126953125,0,0,0.0126953125,153.5751953125,0)" xlink:href="#J"/><use transform="matrix(0.0126953125,0,0,0.0126953125,169.380859375,0)" xlink:href="#K"/></g><path d="M481 0L54-1118h197c107 314 236 620 325 951 87-331 217-637 324-951h197L670 0H481" id="L"/><g id="f"><use transform="matrix(0.0126953125,0,0,0.0126953125,0,0)" xlink:href="#n"/><use transform="matrix(0.0126953125,0,0,0.0126953125,6.982421875,0)" xlink:href="#q"/><use transform="matrix(0.0126953125,0,0,0.0126953125,21.962890625,0)" xlink:href="#L"/><use transform="matrix(0.0126953125,0,0,0.0126953125,36.0673828125,0)" xlink:href="#s"/><use transform="matrix(0.0126953125,0,0,0.0126953125,51.2255859375,0)" xlink:href="#p"/><use transform="matrix(0.0126953125,0,0,0.0126953125,61.419921875,0)" xlink:href="#u"/><use transform="matrix(0.0126953125,0,0,0.0126953125,69.671875,0)" xlink:href="#s"/></g><use transform="matrix(0.0126953125,0,0,0.0126953125,0,0)" xlink:href="#x" id="g"/><path d="M180 0v-1490h190v1322h690V0H180" id="M"/><path d="M577 24c-279 0-473-224-473-580 0-354 195-576 474-576 218 0 287 134 324 193h14v-551h180V0H922v-173h-20C865-111 790 24 577 24zm27-161c203 0 314-172 314-421 0-247-108-413-314-413-212 0-317 181-317 413 0 235 108 421 317 421" id="N"/><g id="h"><use transform="matrix(0.0126953125,0,0,0.0126953125,0,0)" xlink:href="#M"/><use transform="matrix(0.0126953125,0,0,0.0126953125,14.701171875,0)" xlink:href="#s"/><use transform="matrix(0.0126953125,0,0,0.0126953125,29.859375,0)" xlink:href="#N"/></g><path d="M180 0v-1490h510c348 0 508 209 508 474 0 266-160 477-507 477H370V0H180zm190-706h312c236 0 327-133 327-310 0-176-91-307-329-307H370v617" id="O"/><path d="M120-303v-155l652-1032h231v1020h202v167h-202V0H821v-303H120zm702-167v-782h-12L323-482v12h499" id="P"/><g id="i"><use transform="matrix(0.0126953125,0,0,0.0126953125,0,0)" xlink:href="#O"/><use transform="matrix(0.0126953125,0,0,0.0126953125,16.60546875,0)" xlink:href="#G"/><use transform="matrix(0.0126953125,0,0,0.0126953125,33.6171875,0)" xlink:href="#P"/></g><use transform="matrix(0.0126953125,0,0,0.0126953125,0,0)" xlink:href="#s" id="j"/><g id="k"><use transform="matrix(0.0126953125,0,0,0.0126953125,0,0)" xlink:href="#p"/><use transform="matrix(0.0126953125,0,0,0.0126953125,9.3564453125,0)" xlink:href="#s"/><use transform="matrix(0.0126953125,0,0,0.0126953125,24.5146484375,0)" xlink:href="#o"/><use transform="matrix(0.0126953125,0,0,0.0126953125,38.23828125,0)" xlink:href="#s"/><use transform="matrix(0.0126953125,0,0,0.0126953125,53.396484375,0)" xlink:href="#u"/><use transform="matrix(0.0126953125,0,0,0.0126953125,62.029296875,0)" xlink:href="#v"/></g><g id="l"><use transform="matrix(0.0126953125,0,0,0.0126953125,0,0)" xlink:href="#r"/><use transform="matrix(0.0126953125,0,0,0.0126953125,14.853515625,0)" xlink:href="#x"/><use transform="matrix(0.0126953125,0,0,0.0126953125,30.443359375,0)" xlink:href="#q"/><use transform="matrix(0.0126953125,0,0,0.0126953125,45.8046875,0)" xlink:href="#u"/><use transform="matrix(0.0126953125,0,0,0.0126953125,54.4375,0)" xlink:href="#v"/><use transform="matrix(0.0126953125,0,0,0.0126953125,69.037109375,0)" xlink:href="#N"/><use transform="matrix(0.0126953125,0,0,0.0126953125,84.95703125,0)" xlink:href="#x"/><use transform="matrix(0.0126953125,0,0,0.0126953125,100.546875,0)" xlink:href="#p"/></g><path d="M657 26c-323 0-524-166-541-416h195c15 169 171 246 346 246 202 0 356-106 356-265 5-203-294-238-475-293-239-73-380-191-380-389 0-252 224-419 512-419 294 0 499 171 508 396H992c-17-145-151-228-328-228-193 0-321 102-321 242 0 156 175 211 284 241l149 41c160 44 422 134 422 412 0 244-197 432-541 432" id="Q"/><g id="m"><use transform="matrix(0.013020833333333334,0,0,0.013020833333333334,0,0)" xlink:href="#Q"/><use transform="matrix(0.013020833333333334,0,0,0.013020833333333334,17.109375,0)" xlink:href="#A"/><use transform="matrix(0.013020833333333334,0,0,0.013020833333333334,23.567708333333336,0)" xlink:href="#t"/></g></defs></g></svg>