<svg xmlns="http://www.w3.org/2000/svg" xmlns:xlink="http://www.w3.org/1999/xlink" xmlns:lucid="lucid" width="1694.74" height="1379.75"><g transform="translate(2349.7459938639154 -275.76552337637224)" lucid:page-tab-id="0_0"><path d="M-2154.8 276.77c26.26 0 47.55 21.28 47.55 47.54 0 26.26-21.3 47.55-47.55 47.55h-146.4c-26.26 0-47.55-21.3-47.55-47.54 0-26.25 21.3-47.53 47.55-47.53z" stroke="#000" stroke-width="2" fill="#fff"/><use xlink:href="#a" transform="matrix(1,0,0,1,-2343.744706275016,281.76552337637224) translate(68.296875 50.22916666666667)"/><path d="M-2228 374.35v55" stroke="#3a414a" stroke-width="3" stroke-linejoin="round" fill="none"/><path d="M-2226.53 374.4h-2.94v-1.55h2.94z" stroke="#3a414a" stroke-width=".05" fill="#3a414a"/><path d="M-2228 443.85l-7.5-13h15z" stroke="#3a414a" stroke-width="3" fill="#3a414a"/><path d="M-2308 453.85a6 6 0 0 1 6-6h148a6 6 0 0 1 6 6v108a6 6 0 0 1-6 6h-148a6 6 0 0 1-6-6z" stroke="#000" stroke-width="2" fill="#fff"/><use xlink:href="#b" transform="matrix(1,0,0,1,-2303,452.8506497353138) translate(4.645833333333329 30.979166666666668)"/><use xlink:href="#c" transform="matrix(1,0,0,1,-2303,452.8506497353138) translate(82.40625 30.979166666666668)"/><use xlink:href="#d" transform="matrix(1,0,0,1,-2303,452.8506497353138) translate(101.19791666666667 30.979166666666668)"/><use xlink:href="#e" transform="matrix(1,0,0,1,-2303,452.8506497353138) translate(11.432291666666657 61.954166666666666)"/><use xlink:href="#f" transform="matrix(1,0,0,1,-2303,452.8506497353138) translate(42.93229166666666 61.954166666666666)"/><use xlink:href="#g" transform="matrix(1,0,0,1,-2303,452.8506497353138) translate(12.781249999999993 92.92916666666666)"/><use xlink:href="#h" transform="matrix(1,0,0,1,-2303,452.8506497353138) translate(44.635416666666664 92.92916666666666)"/><path d="M-2228 570.35V620" stroke="#3a414a" stroke-width="3" stroke-linejoin="round" fill="none"/><path d="M-2226.53 570.4h-2.94v-1.55h2.94z" stroke="#3a414a" stroke-width=".05" fill="#3a414a"/><path d="M-2228 634.48l-7.5-13h15z" stroke="#3a414a" stroke-width="3" fill="#3a414a"/><path d="M-2308 644.48a6 6 0 0 1 6-6h148a6 6 0 0 1 6 6v116.74a6 6 0 0 1-6 6h-148a6 6 0 0 1-6-6z" stroke="#000" stroke-width="2" fill="#fff"/><use xlink:href="#i" transform="matrix(1,0,0,1,-2303,643.481899735314) translate(39.59374999999999 24.385416666666668)"/><use xlink:href="#j" transform="matrix(1,0,0,1,-2303,643.481899735314) translate(98.42708333333334 24.385416666666668)"/><use xlink:href="#k" transform="matrix(1,0,0,1,-2303,643.481899735314) translate(4.838541666666657 55.360416666666666)"/><use xlink:href="#l" transform="matrix(1,0,0,1,-2303,643.481899735314) translate(110.83854166666669 55.360416666666666)"/><use xlink:href="#m" transform="matrix(1,0,0,1,-2303,643.481899735314) translate(1.3281249999999858 86.33541666666666)"/><use xlink:href="#n" transform="matrix(1,0,0,1,-2303,643.481899735314) translate(55.69270833333333 86.33541666666666)"/><use xlink:href="#o" transform="matrix(1,0,0,1,-2303,643.481899735314) translate(41.06770833333333 117.31041666666665)"/><path d="M-2228 769.72v49.64" stroke="#3a414a" stroke-width="3" stroke-linejoin="round" fill="none"/><path d="M-2226.53 769.76h-2.94v-1.54h2.94z" stroke="#3a414a" stroke-width=".05" fill="#3a414a"/><path d="M-2228 833.85l-7.5-13h15z" stroke="#3a414a" stroke-width="3" fill="#3a414a"/><path d="M-2308 843.85a6 6 0 0 1 6-6h148a6 6 0 0 1 6 6v108a6 6 0 0 1-6 6h-148a6 6 0 0 1-6-6z" stroke="#000" stroke-width="2" fill="#fff"/><use xlink:href="#p" transform="matrix(1,0,0,1,-2303,842.8506497353138) translate(38.479166666666664 30.979166666666668)"/><use xlink:href="#q" transform="matrix(1,0,0,1,-2303,842.8506497353138) translate(98.72916666666666 30.979166666666668)"/><use xlink:href="#r" transform="matrix(1,0,0,1,-2303,842.8506497353138) translate(11.255208333333321 61.954166666666666)"/><use xlink:href="#s" transform="matrix(1,0,0,1,-2303,842.8506497353138) translate(112.890625 61.954166666666666)"/><use xlink:href="#h" transform="matrix(1,0,0,1,-2303,842.8506497353138) translate(28.70833333333333 92.92916666666666)"/><path d="M-2228 960.35v54" stroke="#3a414a" stroke-width="3" stroke-linejoin="round" fill="none"/><path d="M-2226.53 960.4h-2.94v-1.55h2.94z" stroke="#3a414a" stroke-width=".05" fill="#3a414a"/><path d="M-2228 1028.85l-7.5-13h15z" stroke="#3a414a" stroke-width="3" fill="#3a414a"/><path d="M-2308 1038.85a6 6 0 0 1 6-6h148a6 6 0 0 1 6 6v108a6 6 0 0 1-6 6h-148a6 6 0 0 1-6-6z" stroke="#000" stroke-width="2" fill="#fff"/><use xlink:href="#p" transform="matrix(1,0,0,1,-2303,1037.8506497353137) translate(20.33333333333333 30.979166666666668)"/><use xlink:href="#t" transform="matrix(1,0,0,1,-2303,1037.8506497353137) translate(80.58333333333333 30.979166666666668)"/><use xlink:href="#u" transform="matrix(1,0,0,1,-2303,1037.8506497353137) translate(42.86458333333333 61.954166666666666)"/><use xlink:href="#v" transform="matrix(1,0,0,1,-2303,1037.8506497353137) translate(93.02083333333334 61.954166666666666)"/><use xlink:href="#w" transform="matrix(1,0,0,1,-2303,1037.8506497353137) translate(16.374999999999993 92.92916666666666)"/><use xlink:href="#x" transform="matrix(1,0,0,1,-2303,1037.8506497353137) translate(104.83333333333334 92.92916666666666)"/><use xlink:href="#y" transform="matrix(1,0,0,1,-2303,1037.8506497353137) translate(124.94791666666669 92.92916666666666)"/><path d="M-2228 1155.35v54" stroke="#3a414a" stroke-width="3" stroke-linejoin="round" fill="none"/><path d="M-2226.53 1155.4h-2.94v-1.55h2.94z" stroke="#3a414a" stroke-width=".05" fill="#3a414a"/><path d="M-2228 1223.85l-7.5-13h15z" stroke="#3a414a" stroke-width="3" fill="#3a414a"/><path d="M-2308 1233.85a6 6 0 0 1 6-6h148a6 6 0 0 1 6 6v108a6 6 0 0 1-6 6h-148a6 6 0 0 1-6-6z" stroke="#000" stroke-width="2" fill="#fff"/><use xlink:href="#p" transform="matrix(1,0,0,1,-2303,1232.8506497353137) translate(20.33333333333333 30.979166666666668)"/><use xlink:href="#t" transform="matrix(1,0,0,1,-2303,1232.8506497353137) translate(80.58333333333333 30.979166666666668)"/><use xlink:href="#u" transform="matrix(1,0,0,1,-2303,1232.8506497353137) translate(42.86458333333333 61.954166666666666)"/><use xlink:href="#v" transform="matrix(1,0,0,1,-2303,1232.8506497353137) translate(93.02083333333334 61.954166666666666)"/><use xlink:href="#w" transform="matrix(1,0,0,1,-2303,1232.8506497353137) translate(13.984374999999986 92.92916666666666)"/><use xlink:href="#x" transform="matrix(1,0,0,1,-2303,1232.8506497353137) translate(102.44270833333333 92.92916666666666)"/><use xlink:href="#z" transform="matrix(1,0,0,1,-2303,1232.8506497353137) translate(122.55729166666667 92.92916666666666)"/><path d="M-2228 1350.35v54" stroke="#3a414a" stroke-width="3" stroke-linejoin="round" fill="none"/><path d="M-2226.53 1350.4h-2.94v-1.55h2.94z" stroke="#3a414a" stroke-width=".05" fill="#3a414a"/><path d="M-2228 1418.85l-7.5-13h15z" stroke="#3a414a" stroke-width="3" fill="#3a414a"/><path d="M-2308 1428.85a6 6 0 0 1 6-6h148a6 6 0 0 1 6 6v218.2a6 6 0 0 1-6 6h-148a6 6 0 0 1-6-6z" stroke="#000" stroke-width="2" fill="#fff"/><use xlink:href="#A" transform="matrix(1,0,0,1,-2303,1427.8506497353137) translate(17.46484375 32.09375)"/><use xlink:href="#B" transform="matrix(1,0,0,1,-2303,1427.8506497353137) translate(117.935546875 32.09375)"/><use xlink:href="#C" transform="matrix(1,0,0,1,-2303,1427.8506497353137) translate(14.0625 69.84453124999999)"/><use xlink:href="#D" transform="matrix(1,0,0,1,-2303,1427.8506497353137) translate(54.08447265625 107.59531249999999)"/><use xlink:href="#E" transform="matrix(1,0,0,1,-2303,1427.8506497353137) translate(34.57177734375 145.34609375)"/><use xlink:href="#B" transform="matrix(1,0,0,1,-2303,1427.8506497353137) translate(100.82861328125 145.34609375)"/><use xlink:href="#F" transform="matrix(1,0,0,1,-2303,1427.8506497353137) translate(18.3408203125 183.09687499999998)"/><use xlink:href="#G" transform="matrix(1,0,0,1,-2303,1427.8506497353137) translate(48.25732421875 220.84765624999997)"/><path d="M-1802.97 276.77c26.26 0 47.55 21.28 47.55 47.54 0 26.26-21.3 47.55-47.55 47.55h-146.4c-26.26 0-47.54-21.3-47.54-47.54 0-26.25 21.27-47.53 47.53-47.53z" stroke="#000" stroke-width="2" fill="#fff"/><use xlink:href="#H" transform="matrix(1,0,0,1,-1991.9133440298433,281.76552337637224) translate(71.24479166666666 50.22916666666667)"/><path d="M-1876.17 374.35v54" stroke="#3a414a" stroke-width="3" stroke-linejoin="round" fill="none"/><path d="M-1874.7 374.4h-2.94v-1.55h2.95z" stroke="#3a414a" stroke-width=".05" fill="#3a414a"/><path d="M-1876.17 442.85l-7.5-13h15z" stroke="#3a414a" stroke-width="3" fill="#3a414a"/><path d="M-1956.17 452.85a6 6 0 0 1 6-6h148a6 6 0 0 1 6 6v108a6 6 0 0 1-6 6h-148a6 6 0 0 1-6-6z" stroke="#000" stroke-width="2" fill="#fff"/><use xlink:href="#p" transform="matrix(1,0,0,1,-1951.168637754827,451.8506497353137) translate(1.828125 30.979166666666668)"/><use xlink:href="#I" transform="matrix(1,0,0,1,-1951.168637754827,451.8506497353137) translate(62.078125 30.979166666666668)"/><use xlink:href="#J" transform="matrix(1,0,0,1,-1951.168637754827,451.8506497353137) translate(92.13020833333334 30.979166666666668)"/><use xlink:href="#K" transform="matrix(1,0,0,1,-1951.168637754827,451.8506497353137) translate(111.91145833333334 30.979166666666668)"/><use xlink:href="#L" transform="matrix(1,0,0,1,-1951.168637754827,451.8506497353137) translate(24.312499999999993 61.954166666666666)"/><use xlink:href="#M" transform="matrix(1,0,0,1,-1951.168637754827,451.8506497353137) translate(77.40625 61.954166666666666)"/><use xlink:href="#N" transform="matrix(1,0,0,1,-1951.168637754827,451.8506497353137) translate(2.515625 92.92916666666666)"/><path d="M-1876.17 569.35v54" stroke="#3a414a" stroke-width="3" stroke-linejoin="round" fill="none"/><path d="M-1874.7 569.4h-2.94v-1.55h2.95z" stroke="#3a414a" stroke-width=".05" fill="#3a414a"/><path d="M-1876.17 637.85l-7.5-13h15z" stroke="#3a414a" stroke-width="3" fill="#3a414a"/><path d="M-1956.17 647.85a6 6 0 0 1 6-6h148a6 6 0 0 1 6 6v108a6 6 0 0 1-6 6h-148a6 6 0 0 1-6-6z" stroke="#000" stroke-width="2" fill="#fff"/><use xlink:href="#p" transform="matrix(1,0,0,1,-1951.168637754827,646.8506497353137) translate(1.828125 30.979166666666668)"/><use xlink:href="#I" transform="matrix(1,0,0,1,-1951.168637754827,646.8506497353137) translate(62.078125 30.979166666666668)"/><use xlink:href="#J" transform="matrix(1,0,0,1,-1951.168637754827,646.8506497353137) translate(92.13020833333334 30.979166666666668)"/><use xlink:href="#K" transform="matrix(1,0,0,1,-1951.168637754827,646.8506497353137) translate(111.91145833333334 30.979166666666668)"/><use xlink:href="#L" transform="matrix(1,0,0,1,-1951.168637754827,646.8506497353137) translate(15.635416666666664 61.954166666666666)"/><use xlink:href="#O" transform="matrix(1,0,0,1,-1951.168637754827,646.8506497353137) translate(68.72916666666666 61.954166666666666)"/><use xlink:href="#P" transform="matrix(1,0,0,1,-1951.168637754827,646.8506497353137) translate(3.2864583333333286 92.92916666666666)"/><path d="M-1436.5 277.77c26.26 0 47.55 21.28 47.55 47.54 0 26.26-21.3 47.55-47.54 47.55h-146.4c-26.26 0-47.54-21.3-47.54-47.54 0-26.25 21.28-47.53 47.54-47.53z" stroke="#000" stroke-width="2" fill="#fff"/><g><use xlink:href="#Q" transform="matrix(1,0,0,1,-1625.441538508013,282.7655233763723) translate(72.47916666666666 50.22916666666667)"/></g><path d="M-1509.7 375.35v54" stroke="#3a414a" stroke-width="3" stroke-linejoin="round" fill="none"/><path d="M-1508.22 375.4h-2.95v-1.55h2.95z" stroke="#3a414a" stroke-width=".05" fill="#3a414a"/><path d="M-1509.7 443.85l-7.5-13h15z" stroke="#3a414a" stroke-width="3" fill="#3a414a"/><path d="M-1589.7 453.85a6 6 0 0 1 6-6h148a6 6 0 0 1 6 6v108a6 6 0 0 1-6 6h-148a6 6 0 0 1-6-6z" stroke="#000" stroke-width="2" fill="#fff"/><g><use xlink:href="#R" transform="matrix(1,0,0,1,-1584.6968322329967,452.85064973531377) translate(29.982421875 63)"/><use xlink:href="#S" transform="matrix(1,0,0,1,-1584.6968322329967,452.85064973531377) translate(53.9765625 63)"/></g><path d="M-1509.7 570.35v54" stroke="#3a414a" stroke-width="3" stroke-linejoin="round" fill="none"/><path d="M-1508.22 570.4h-2.95v-1.55h2.95z" stroke="#3a414a" stroke-width=".05" fill="#3a414a"/><path d="M-1509.7 638.85l-7.5-13h15z" stroke="#3a414a" stroke-width="3" fill="#3a414a"/><path d="M-1589.7 648.85a6 6 0 0 1 6-6h148a6 6 0 0 1 6 6v108a6 6 0 0 1-6 6h-148a6 6 0 0 1-6-6z" stroke="#000" stroke-width="2" fill="#fff"/><g><use xlink:href="#p" transform="matrix(1,0,0,1,-1584.6968322329967,647.8506497353137) translate(8.270833333333329 30.979166666666668)"/><use xlink:href="#T" transform="matrix(1,0,0,1,-1584.6968322329967,647.8506497353137) translate(68.52083333333333 30.979166666666668)"/><use xlink:href="#U" transform="matrix(1,0,0,1,-1584.6968322329967,647.8506497353137) translate(96.46875 30.979166666666668)"/><use xlink:href="#c" transform="matrix(1,0,0,1,-1584.6968322329967,647.8506497353137) translate(35.166666666666664 61.954166666666666)"/><use xlink:href="#V" transform="matrix(1,0,0,1,-1584.6968322329967,647.8506497353137) translate(53.95833333333333 61.954166666666666)"/><use xlink:href="#W" transform="matrix(1,0,0,1,-1584.6968322329967,647.8506497353137) translate(102.39583333333334 61.954166666666666)"/><use xlink:href="#X" transform="matrix(1,0,0,1,-1584.6968322329967,647.8506497353137) translate(9.656249999999986 92.92916666666666)"/><use xlink:href="#Y" transform="matrix(1,0,0,1,-1584.6968322329967,647.8506497353137) translate(129.08333333333334 92.92916666666666)"/></g><path d="M-1070.02 277.77c26.25 0 47.54 21.28 47.54 47.54 0 26.26-21.3 47.55-47.54 47.55h-146.4c-26.26 0-47.55-21.3-47.55-47.54 0-26.25 21.3-47.53 47.54-47.53z" stroke="#000" stroke-width="2" fill="#fff"/><g><use xlink:href="#Z" transform="matrix(1,0,0,1,-1258.9697329861829,282.7655233763723) translate(80.609375 50.22916666666667)"/></g><path d="M-1143.22 375.35v54" stroke="#3a414a" stroke-width="3" stroke-linejoin="round" fill="none"/><path d="M-1141.75 375.4h-2.95v-1.55h2.95z" stroke="#3a414a" stroke-width=".05" fill="#3a414a"/><path d="M-1143.22 443.85l-7.5-13h15z" stroke="#3a414a" stroke-width="3" fill="#3a414a"/><path d="M-1223.22 453.85a6 6 0 0 1 6-6h148a6 6 0 0 1 6 6v108a6 6 0 0 1-6 6h-148a6 6 0 0 1-6-6z" stroke="#000" stroke-width="2" fill="#fff"/><g><use xlink:href="#aa" transform="matrix(1,0,0,1,-1218.2250267111665,452.8506497353138) translate(25.6279296875 45.8125)"/><use xlink:href="#ab" transform="matrix(1,0,0,1,-1218.2250267111665,452.8506497353138) translate(49 45.8125)"/><use xlink:href="#ac" transform="matrix(1,0,0,1,-1218.2250267111665,452.8506497353138) translate(23.634765625 83.56328124999999)"/></g><path d="M-1143.22 570.35v54" stroke="#3a414a" stroke-width="3" stroke-linejoin="round" fill="none"/><path d="M-1141.75 570.4h-2.95v-1.55h2.95z" stroke="#3a414a" stroke-width=".05" fill="#3a414a"/><path d="M-1143.22 638.85l-7.5-13h15z" stroke="#3a414a" stroke-width="3" fill="#3a414a"/><path d="M-1223.22 648.85a6 6 0 0 1 6-6h148a6 6 0 0 1 6 6v108a6 6 0 0 1-6 6h-148a6 6 0 0 1-6-6z" stroke="#000" stroke-width="2" fill="#fff"/><g><use xlink:href="#ad" transform="matrix(1,0,0,1,-1218.2250267111665,647.8506497353137) translate(5.7470703125 45.8125)"/><use xlink:href="#ae" transform="matrix(1,0,0,1,-1218.2250267111665,647.8506497353137) translate(74.3779296875 45.8125)"/><use xlink:href="#af" transform="matrix(1,0,0,1,-1218.2250267111665,647.8506497353137) translate(45.26123046875 83.56328124999999)"/></g><path d="M-1143.22 765.35v41.87" stroke="#3a414a" stroke-width="3" stroke-linejoin="round" fill="none"/><path d="M-1141.75 765.4h-2.95v-1.55h2.95z" stroke="#3a414a" stroke-width=".05" fill="#3a414a"/><path d="M-1143.22 821.7l-7.5-12.98h15z" stroke="#3a414a" stroke-width="3" fill="#3a414a"/><path d="M-1257.68 831.7a6 6 0 0 1 6-6h216.9a6 6 0 0 1 6 6v255.97a6 6 0 0 1-6 6h-216.9a6 6 0 0 1-6-6z" stroke="#000" stroke-width="2" fill="#fff"/><g><use xlink:href="#ag" transform="matrix(1,0,0,1,-1252.6802182500146,830.7114652777975) translate(48.71484375 29.21875)"/><use xlink:href="#ah" transform="matrix(1,0,0,1,-1252.6802182500146,830.7114652777975) translate(56.5478515625 66.96953124999999)"/><use xlink:href="#ai" transform="matrix(1,0,0,1,-1252.6802182500146,830.7114652777975) translate(90.7998046875 66.96953124999999)"/><use xlink:href="#aj" transform="matrix(1,0,0,1,-1252.6802182500146,830.7114652777975) translate(17.6240234375 104.72031249999999)"/><use xlink:href="#ak" transform="matrix(1,0,0,1,-1252.6802182500146,830.7114652777975) translate(126.7275390625 104.72031249999999)"/><use xlink:href="#al" transform="matrix(1,0,0,1,-1252.6802182500146,830.7114652777975) translate(34.09619140625 142.47109375)"/><use xlink:href="#am" transform="matrix(1,0,0,1,-1252.6802182500146,830.7114652777975) translate(41.28173828125 180.22187499999998)"/><use xlink:href="#an" transform="matrix(1,0,0,1,-1252.6802182500146,830.7114652777975) translate(70.97607421875 217.97265624999997)"/><use xlink:href="#ao" transform="matrix(1,0,0,1,-1252.6802182500146,830.7114652777975) translate(109.5 255.72343749999996)"/></g><path d="M-703.55 277.77c26.26 0 47.54 21.28 47.54 47.54 0 26.26-21.3 47.55-47.55 47.55h-146.4c-26.26 0-47.55-21.3-47.55-47.54 0-26.25 21.3-47.53 47.54-47.53z" stroke="#000" stroke-width="2" fill="#fff"/><g><use xlink:href="#ap" transform="matrix(1,0,0,1,-892.4979274643526,282.7655233763723) translate(80.49479166666666 50.22916666666667)"/></g><path d="M-776.75 375.35v47.22" stroke="#3a414a" stroke-width="3" stroke-linejoin="round" fill="none"/><path d="M-775.28 375.4h-2.95v-1.55h2.95z" stroke="#3a414a" stroke-width=".05" fill="#3a414a"/><path d="M-776.75 437.06l-7.5-13h15z" stroke="#3a414a" stroke-width="3" fill="#3a414a"/><path d="M-880.54 447.06a6 6 0 0 1 6-6h195.57a6 6 0 0 1 6 6v218.2a6 6 0 0 1-6 6h-195.57a6 6 0 0 1-6-6z" stroke="#000" stroke-width="2" fill="#fff"/><g><use xlink:href="#aq" transform="matrix(1,0,0,1,-875.5391624179027,446.05616105087137) translate(27.55078125 66.625)"/><use xlink:href="#ar" transform="matrix(1,0,0,1,-875.5391624179027,446.05616105087137) translate(154.859375 66.625)"/><use xlink:href="#as" transform="matrix(1,0,0,1,-875.5391624179027,446.05616105087137) translate(7.23828125 104.37578124999999)"/><use xlink:href="#at" transform="matrix(1,0,0,1,-875.5391624179027,446.05616105087137) translate(131.1064453125 104.37578124999999)"/><use xlink:href="#au" transform="matrix(1,0,0,1,-875.5391624179027,446.05616105087137) translate(19.66064453125 142.12656249999998)"/><use xlink:href="#av" transform="matrix(1,0,0,1,-875.5391624179027,446.05616105087137) translate(58.05126953125 142.12656249999998)"/><use xlink:href="#aw" transform="matrix(1,0,0,1,-875.5391624179027,446.05616105087137) translate(125.59033203125 142.12656249999998)"/><use xlink:href="#ax" transform="matrix(1,0,0,1,-875.5391624179027,446.05616105087137) translate(7.30810546875 179.87734374999997)"/><use xlink:href="#ay" transform="matrix(1,0,0,1,-875.5391624179027,446.05616105087137) translate(58.86376953125 179.87734374999997)"/><use xlink:href="#az" transform="matrix(1,0,0,1,-875.5391624179027,446.05616105087137) translate(82.97216796875 179.87734374999997)"/><use xlink:href="#aA" transform="matrix(1,0,0,1,-875.5391624179027,446.05616105087137) translate(161.93701171875 179.87734374999997)"/></g><path d="M-776.75 673.77v47.2" stroke="#3a414a" stroke-width="3" stroke-linejoin="round" fill="none"/><path d="M-775.28 673.8h-2.95v-1.53h2.95z" stroke="#3a414a" stroke-width=".05" fill="#3a414a"/><path d="M-776.75 735.48l-7.5-13h15z" stroke="#3a414a" stroke-width="3" fill="#3a414a"/><path d="M-856.75 745.48a6 6 0 0 1 6-6h148a6 6 0 0 1 6 6v218.2a6 6 0 0 1-6 6h-148a6 6 0 0 1-6-6z" stroke="#000" stroke-width="2" fill="#fff"/><g><use xlink:href="#aB" transform="matrix(1,0,0,1,-851.7532211893363,744.4745629914289) translate(18.53759765625 32.09375)"/><use xlink:href="#B" transform="matrix(1,0,0,1,-851.7532211893363,744.4745629914289) translate(116.86279296875 32.09375)"/><use xlink:href="#aC" transform="matrix(1,0,0,1,-851.7532211893363,744.4745629914289) translate(26.58642578125 69.84453124999999)"/><use xlink:href="#aD" transform="matrix(1,0,0,1,-851.7532211893363,744.4745629914289) translate(30.46484375 107.59531249999999)"/><use xlink:href="#aE" transform="matrix(1,0,0,1,-851.7532211893363,744.4745629914289) translate(104.376953125 107.59531249999999)"/><use xlink:href="#aF" transform="matrix(1,0,0,1,-851.7532211893363,744.4745629914289) translate(30.72509765625 145.34609375)"/><use xlink:href="#ar" transform="matrix(1,0,0,1,-851.7532211893363,744.4745629914289) translate(103.68505859375 145.34609375)"/><use xlink:href="#aG" transform="matrix(1,0,0,1,-851.7532211893363,744.4745629914289) translate(17.6552734375 183.09687499999998)"/><use xlink:href="#aH" transform="matrix(1,0,0,1,-851.7532211893363,744.4745629914289) translate(49.1396484375 220.84765624999997)"/></g><defs><path d="M338-1490V0H158v-1490h180" id="aI"/><path d="M613 24c-304 0-509-231-509-576 0-350 205-580 509-580 216 0 392 114 453 309l-173 49c-33-115-133-197-280-197-223 0-326 196-326 419 0 220 103 415 326 415 150 0 252-85 285-206l172 49C1010-95 832 24 613 24" id="aJ"/><path d="M577 24c-279 0-473-224-473-580 0-354 195-576 474-576 218 0 287 134 324 193h14v-551h180V0H922v-173h-20C865-111 790 24 577 24zm27-161c203 0 314-172 314-421 0-247-108-413-314-413-212 0-317 181-317 413 0 235 108 421 317 421" id="aK"/><path d="M934 0v166H0V0h934" id="aL"/><path d="M158 418v-1536h174v179h20c37-59 106-193 324-193 279 0 474 222 474 576 0 356-194 580-473 580-213 0-288-135-325-197h-14v591H158zm492-555c209 0 317-186 317-421 0-232-105-413-317-413-206 0-314 166-314 413 0 249 111 421 314 421" id="aM"/><path d="M537 14c-226 0-379-139-379-422v-710h180v695c0 172 97 275 253 275 160 0 281-109 281-300v-670h181V0H879v-209C806-46 684 14 537 14" id="aN"/><path d="M538 24C308 24 148-78 108-271l171-41c32 123 123 178 257 178 156 0 256-77 256-169 0-77-54-128-164-154l-186-44c-203-48-300-148-300-305 0-192 176-326 414-326 230 0 351 112 402 269l-163 42c-31-80-94-158-238-158-133 0-233 69-233 162 0 83 57 129 188 160l169 40c203 48 298 149 298 302 0 196-179 339-441 339" id="aO"/><path d="M628 24c-324 0-524-230-524-574 0-343 198-582 503-582 237 0 487 146 487 559v75H286c9 234 145 362 343 362 132 0 231-58 273-172l174 48C1024-91 857 24 628 24zM287-650h624c-17-190-120-322-304-322-192 0-309 151-320 322" id="aP"/><g id="a"><use transform="matrix(0.010416666666666668,0,0,0.010416666666666668,0,0)" xlink:href="#aI"/><use transform="matrix(0.010416666666666668,0,0,0.010416666666666668,5.166666666666667,0)" xlink:href="#aJ"/><use transform="matrix(0.010416666666666668,0,0,0.010416666666666668,17.354166666666668,0)" xlink:href="#aK"/><use transform="matrix(0.010416666666666668,0,0,0.010416666666666668,30.41666666666667,0)" xlink:href="#aL"/><use transform="matrix(0.010416666666666668,0,0,0.010416666666666668,40.86458333333334,0)" xlink:href="#aM"/><use transform="matrix(0.010416666666666668,0,0,0.010416666666666668,53.92708333333334,0)" xlink:href="#aN"/><use transform="matrix(0.010416666666666668,0,0,0.010416666666666668,66.54166666666667,0)" xlink:href="#aI"/><use transform="matrix(0.010416666666666668,0,0,0.010416666666666668,71.70833333333334,0)" xlink:href="#aO"/><use transform="matrix(0.010416666666666668,0,0,0.010416666666666668,82.96875000000001,0)" xlink:href="#aP"/></g><path d="M180 0v-1490h270l367 940c28 72 75 218 110 339 35-117 81-264 110-339l362-940h271V0h-187c2-448-5-837 7-1287-157 497-311 829-483 1287H842C666-458 514-784 354-1284c12 438 5 843 7 1284H180" id="aQ"/><path d="M613 24c-304 0-509-231-509-576 0-350 205-580 509-580 305 0 511 230 511 580 0 345-206 576-511 576zm0-161c226 0 329-195 329-415 0-222-103-419-329-419-223 0-326 196-326 419 0 220 103 415 326 415" id="aR"/><path d="M338-670V0H158v-1118h173l1 207c72-158 192-221 342-221 226 0 378 139 378 422V0H872v-695c0-172-96-275-252-275-161 0-282 109-282 300" id="aS"/><path d="M598-1118v154H368v674c0 100 37 144 132 144 23 0 62-6 92-12L629-6c-37 13-88 20-134 20-193 0-307-107-307-290v-688H20v-154h168v-266h180v266h230" id="aT"/><path d="M471 26C259 26 90-98 90-318c0-256 228-303 435-329 202-27 287-16 287-108 0-139-79-219-234-219-161 0-248 86-283 164l-173-57c86-203 278-265 451-265 150 0 419 46 419 395V0H815v-152h-12C765-73 660 26 471 26zm31-159c199 0 310-134 310-271v-155c-30 35-226 55-295 64-131 17-246 59-246 186 0 116 97 176 231 176" id="aU"/><path d="M158 0v-1118h174v172h12c41-113 157-188 290-188 26 0 70 2 91 3v181c-11-2-60-10-108-10-161 0-279 109-279 260V0H158" id="aV"/><g id="b"><use transform="matrix(0.010416666666666668,0,0,0.010416666666666668,0,0)" xlink:href="#aQ"/><use transform="matrix(0.010416666666666668,0,0,0.010416666666666668,19.270833333333336,0)" xlink:href="#aR"/><use transform="matrix(0.010416666666666668,0,0,0.010416666666666668,32.0625,0)" xlink:href="#aS"/><use transform="matrix(0.010416666666666668,0,0,0.010416666666666668,44.66666666666667,0)" xlink:href="#aT"/><use transform="matrix(0.010416666666666668,0,0,0.010416666666666668,51.74999999999999,0)" xlink:href="#aU"/><use transform="matrix(0.010416666666666668,0,0,0.010416666666666668,63.72916666666667,0)" xlink:href="#aV"/></g><use transform="matrix(0.010416666666666668,0,0,0.010416666666666668,0,0)" xlink:href="#aR" id="c"/><path d="M677 24c-213 0-288-135-325-197h-20V0H158v-1490h180v551h14c37-59 106-193 324-193 279 0 474 222 474 576 0 356-194 580-473 580zm-27-161c209 0 317-186 317-421 0-232-105-413-317-413-206 0-314 166-314 413 0 249 111 421 314 421" id="aW"/><path d="M140 405l46-156c120 36 205 19 263-150l32-93L54-1118h197c107 313 237 620 324 950 87-331 219-637 326-950h196L606 167c-68 178-176 259-334 259-64 0-113-12-132-21" id="aX"/><g id="d"><use transform="matrix(0.010416666666666668,0,0,0.010416666666666668,0,0)" xlink:href="#aW"/><use transform="matrix(0.010416666666666668,0,0,0.010416666666666668,12.645833333333334,0)" xlink:href="#aX"/><use transform="matrix(0.010416666666666668,0,0,0.010416666666666668,24.947916666666668,0)" xlink:href="#aT"/><use transform="matrix(0.010416666666666668,0,0,0.010416666666666668,31.718750000000007,0)" xlink:href="#aP"/></g><g id="e"><use transform="matrix(0.010416666666666668,0,0,0.010416666666666668,0,0)" xlink:href="#aK"/><use transform="matrix(0.010416666666666668,0,0,0.010416666666666668,13.062500000000002,0)" xlink:href="#aP"/></g><path d="M502 418V313h118c73 0 98-17 98-66s-25-65-98-65h-82l21-161C285-4 104-228 104-552c0-350 205-580 509-580 216 0 392 114 453 309l-173 49c-33-115-133-197-280-197-223 0-326 196-326 419 0 220 103 415 326 415 150 0 252-85 285-206l172 49C1015-110 859 5 663 22v64c130 5 189 54 189 162 0 118-71 170-231 170H502" id="aY"/><g id="f"><use transform="matrix(0.010416666666666668,0,0,0.010416666666666668,0,0)" xlink:href="#aP"/><use transform="matrix(0.010416666666666668,0,0,0.010416666666666668,12.437500000000002,0)" xlink:href="#aS"/><use transform="matrix(0.010416666666666668,0,0,0.010416666666666668,25.041666666666668,0)" xlink:href="#aK"/><use transform="matrix(0.010416666666666668,0,0,0.010416666666666668,38.10416666666667,0)" xlink:href="#aP"/><use transform="matrix(0.010416666666666668,0,0,0.010416666666666668,50.54166666666667,0)" xlink:href="#aV"/><use transform="matrix(0.010416666666666668,0,0,0.010416666666666668,58.21875000000001,0)" xlink:href="#aP"/><use transform="matrix(0.010416666666666668,0,0,0.010416666666666668,70.65625000000001,0)" xlink:href="#aY"/><use transform="matrix(0.010416666666666668,0,0,0.010416666666666668,82.84375000000001,0)" xlink:href="#aR"/></g><g id="g"><use transform="matrix(0.010416666666666668,0,0,0.010416666666666668,0,0)" xlink:href="#aK"/><use transform="matrix(0.010416666666666668,0,0,0.010416666666666668,13.062500000000002,0)" xlink:href="#aR"/></g><path d="M180 0v-1490h510c348 0 508 209 508 474 0 266-160 477-507 477H370V0H180zm190-706h312c236 0 327-133 327-310 0-176-91-307-329-307H370v617" id="aZ"/><path d="M783 20c-382 0-661-292-661-764 0-473 279-766 661-766 302 0 548 182 601 489h-190c-42-204-217-313-411-313-268 0-476 208-476 590 0 381 209 588 476 588 195 0 369-110 411-313h190c-52 303-296 489-601 489" id="ba"/><path d="M180 0v-1490h901v168H370v510h643v168H370V0H180" id="bb"/><path d="M633 20c-303 0-511-173-511-416 0-188 124-348 291-378v-8c-145-37-237-174-237-332 0-227 192-396 457-396 261 0 456 169 456 396 0 158-94 295-235 332v8c162 30 291 190 291 378 0 243-212 416-512 416zm0-165c197 0 322-103 322-261 0-165-138-283-322-283-188 0-324 118-324 283 0 158 123 261 324 261zm0-703c157 0 272-101 272-252 0-149-110-246-272-246-165 0-273 97-273 246 0 151 112 252 273 252" id="bc"/><path d="M626 20c-262 0-458-168-468-396h184c12 133 134 229 284 229 180 0 311-137 311-326 0-192-136-335-323-335-92 0-196 33-255 78l-178-22 88-738h784v167H429l-51 435h8c61-51 160-87 263-87 273 0 474 211 474 499 0 286-210 496-497 496" id="bd"/><path d="M200 0l662-1311v-12H98v-167h963v177L400 0H200" id="be"/><path d="M120-303v-155l652-1032h231v1020h202v167h-202V0H821v-303H120zm702-167v-782h-12L323-482v12h499" id="bf"/><g id="h"><use transform="matrix(0.010416666666666668,0,0,0.010416666666666668,0,0)" xlink:href="#aZ"/><use transform="matrix(0.010416666666666668,0,0,0.010416666666666668,13.625000000000002,0)" xlink:href="#ba"/><use transform="matrix(0.010416666666666668,0,0,0.010416666666666668,29.208333333333336,0)" xlink:href="#bb"/><use transform="matrix(0.010416666666666668,0,0,0.010416666666666668,41.802083333333336,0)" xlink:href="#bc"/><use transform="matrix(0.010416666666666668,0,0,0.010416666666666668,55,0)" xlink:href="#bd"/><use transform="matrix(0.010416666666666668,0,0,0.010416666666666668,67.96875,0)" xlink:href="#be"/><use transform="matrix(0.010416666666666668,0,0,0.010416666666666668,78.80208333333334,0)" xlink:href="#bf"/></g><path d="M370-1490V0H180v-1490h190" id="bg"/><path d="M158 0v-1118h180V0H158zm91-1301c-68 0-125-53-125-119s57-119 125-119c69 0 126 53 126 119s-57 119-126 119" id="bh"/><g id="i"><use transform="matrix(0.010416666666666668,0,0,0.010416666666666668,0,0)" xlink:href="#bg"/><use transform="matrix(0.010416666666666668,0,0,0.010416666666666668,5.729166666666667,0)" xlink:href="#aS"/><use transform="matrix(0.010416666666666668,0,0,0.010416666666666668,18.333333333333336,0)" xlink:href="#bh"/><use transform="matrix(0.010416666666666668,0,0,0.010416666666666668,23.500000000000004,0)" xlink:href="#aJ"/><use transform="matrix(0.010416666666666668,0,0,0.010416666666666668,35.68750000000001,0)" xlink:href="#bh"/><use transform="matrix(0.010416666666666668,0,0,0.010416666666666668,40.85416666666667,0)" xlink:href="#aU"/></g><use transform="matrix(0.010416666666666668,0,0,0.010416666666666668,0,0)" xlink:href="#aU" id="j"/><path d="M471 26C259 26 90-98 90-318c0-256 228-303 435-329 202-27 287-16 287-108 0-139-79-219-234-219-161 0-248 86-283 164l-173-57c86-203 278-265 451-265 150 0 419 46 419 395V0H815v-152h-12C765-73 660 26 471 26zm31-159c199 0 310-134 310-271v-155c-30 35-226 55-295 64-131 17-246 59-246 186 0 116 97 176 231 176zm187-1180c-99 0-192-83-243-83-35 0-51 40-53 79H267c4-120 55-208 162-208 104 0 174 85 241 85 33 0 49-23 56-81h123c-4 126-62 208-160 208" id="bi"/><g id="k"><use transform="matrix(0.010416666666666668,0,0,0.010416666666666668,0,0)" xlink:href="#aT"/><use transform="matrix(0.010416666666666668,0,0,0.010416666666666668,6.979166666666668,0)" xlink:href="#aV"/><use transform="matrix(0.010416666666666668,0,0,0.010416666666666668,15.010416666666671,0)" xlink:href="#aU"/><use transform="matrix(0.010416666666666668,0,0,0.010416666666666668,26.989583333333336,0)" xlink:href="#aS"/><use transform="matrix(0.010416666666666668,0,0,0.010416666666666668,39.59375,0)" xlink:href="#aO"/><use transform="matrix(0.010416666666666668,0,0,0.010416666666666668,50.85416666666667,0)" xlink:href="#aU"/><use transform="matrix(0.010416666666666668,0,0,0.010416666666666668,62.83333333333334,0)" xlink:href="#aY"/><use transform="matrix(0.010416666666666668,0,0,0.010416666666666668,75.22916666666669,0)" xlink:href="#bi"/><use transform="matrix(0.010416666666666668,0,0,0.010416666666666668,87.20833333333336,0)" xlink:href="#aR"/></g><path d="M154 0v-137l495-537c165-179 249-281 249-418 0-156-121-253-280-253-170 0-278 110-278 278H158c0-264 200-443 465-443 266 0 455 183 455 416 0 161-73 288-336 568L416-179v12h687V0H154" id="bj"/><g id="l"><use transform="matrix(0.010416666666666668,0,0,0.010416666666666668,0,0)" xlink:href="#bg"/><use transform="matrix(0.010416666666666668,0,0,0.010416666666666668,5.729166666666667,0)" xlink:href="#bj"/><use transform="matrix(0.010416666666666668,0,0,0.010416666666666668,18.739583333333336,0)" xlink:href="#ba"/></g><path d="M789 20c-398 0-667-293-667-764 0-473 273-766 655-766 315 0 558 198 612 487h-196c-61-191-204-311-415-311-262 0-471 207-471 590 0 380 208 588 482 588 249 0 420-165 425-427H828v-166h572v163c0 370-256 606-611 606" id="bk"/><g id="m"><use transform="matrix(0.010416666666666668,0,0,0.010416666666666668,0,0)" xlink:href="#bk"/><use transform="matrix(0.010416666666666668,0,0,0.010416666666666668,15.916666666666668,0)" xlink:href="#aP"/><use transform="matrix(0.010416666666666668,0,0,0.010416666666666668,28.35416666666667,0)" xlink:href="#aV"/><use transform="matrix(0.010416666666666668,0,0,0.010416666666666668,36.38541666666667,0)" xlink:href="#aU"/></g><g id="n"><use transform="matrix(0.010416666666666668,0,0,0.010416666666666668,0,0)" xlink:href="#aJ"/><use transform="matrix(0.010416666666666668,0,0,0.010416666666666668,12.187500000000002,0)" xlink:href="#aR"/><use transform="matrix(0.010416666666666668,0,0,0.010416666666666668,24.979166666666668,0)" xlink:href="#aS"/><use transform="matrix(0.010416666666666668,0,0,0.010416666666666668,37.58333333333334,0)" xlink:href="#aK"/><use transform="matrix(0.010416666666666668,0,0,0.010416666666666668,50.645833333333336,0)" xlink:href="#bh"/><use transform="matrix(0.010416666666666668,0,0,0.010416666666666668,55.81250000000001,0)" xlink:href="#aY"/><use transform="matrix(0.010416666666666668,0,0,0.010416666666666668,68.20833333333334,0)" xlink:href="#bi"/><use transform="matrix(0.010416666666666668,0,0,0.010416666666666668,80.18750000000001,0)" xlink:href="#aR"/></g><path d="M657 26c-323 0-524-166-541-416h195c15 169 171 246 346 246 202 0 356-106 356-265 5-203-294-238-475-293-239-73-380-191-380-389 0-252 224-419 512-419 294 0 499 171 508 396H992c-17-145-151-228-328-228-193 0-321 102-321 242 0 156 175 211 284 241l149 41c160 44 422 134 422 412 0 244-197 432-541 432" id="bl"/><path d="M98-1322v-168h1126v168H757V0H567v-1322H98" id="bm"/><path d="M52 0l541-1490h220L1361 0h-200l-149-416H398L254 0H52zm404-582h497c-103-290-145-390-251-756-108 377-145 460-246 756" id="bn"/><path d="M180 0v-1490h510c348 0 508 194 508 460 0 198-88 351-276 417L1256 0h-220L726-579c-117 2-238 0-356 1V0H180zm190-747h312c235 0 327-108 327-283 0-177-92-293-329-293H370v576" id="bo"/><g id="o"><use transform="matrix(0.010416666666666668,0,0,0.010416666666666668,0,0)" xlink:href="#bl"/><use transform="matrix(0.010416666666666668,0,0,0.010416666666666668,13.687500000000002,0)" xlink:href="#bm"/><use transform="matrix(0.010416666666666668,0,0,0.010416666666666668,25.645833333333336,0)" xlink:href="#bn"/><use transform="matrix(0.010416666666666668,0,0,0.010416666666666668,40.364583333333336,0)" xlink:href="#bo"/><use transform="matrix(0.010416666666666668,0,0,0.010416666666666668,54.09375,0)" xlink:href="#bm"/></g><path d="M180 0v-1490h908v168H370v486h669v168H370v500h727V0H180" id="bp"/><path d="M481 0L54-1118h197c107 314 236 620 325 951 87-331 217-637 324-951h197L670 0H481" id="bq"/><g id="p"><use transform="matrix(0.010416666666666668,0,0,0.010416666666666668,0,0)" xlink:href="#bp"/><use transform="matrix(0.010416666666666668,0,0,0.010416666666666668,12.822916666666668,0)" xlink:href="#aS"/><use transform="matrix(0.010416666666666668,0,0,0.010416666666666668,25.114583333333336,0)" xlink:href="#bq"/><use transform="matrix(0.010416666666666668,0,0,0.010416666666666668,37.10416666666667,0)" xlink:href="#bh"/><use transform="matrix(0.010416666666666668,0,0,0.010416666666666668,42.270833333333336,0)" xlink:href="#aU"/></g><use transform="matrix(0.010416666666666668,0,0,0.010416666666666668,0,0)" xlink:href="#aR" id="q"/><g id="r"><use transform="matrix(0.010416666666666668,0,0,0.010416666666666668,0,0)" xlink:href="#aP"/><use transform="matrix(0.010416666666666668,0,0,0.010416666666666668,12.437500000000002,0)" xlink:href="#aS"/><use transform="matrix(0.010416666666666668,0,0,0.010416666666666668,25.041666666666668,0)" xlink:href="#aK"/><use transform="matrix(0.010416666666666668,0,0,0.010416666666666668,38.10416666666667,0)" xlink:href="#aP"/><use transform="matrix(0.010416666666666668,0,0,0.010416666666666668,50.54166666666667,0)" xlink:href="#aV"/><use transform="matrix(0.010416666666666668,0,0,0.010416666666666668,58.21875000000001,0)" xlink:href="#aP"/><use transform="matrix(0.010416666666666668,0,0,0.010416666666666668,70.65625000000001,0)" xlink:href="#aY"/><use transform="matrix(0.010416666666666668,0,0,0.010416666666666668,82.84375000000001,0)" xlink:href="#aR"/></g><g id="s"><use transform="matrix(0.010416666666666668,0,0,0.010416666666666668,0,0)" xlink:href="#aK"/><use transform="matrix(0.010416666666666668,0,0,0.010416666666666668,13.062500000000002,0)" xlink:href="#aR"/></g><path d="M158 0v-1118h175l1 205c55-151 181-225 313-225 147 0 245 90 285 228 53-141 190-228 352-228 194 0 352 125 352 384V0h-181v-749c0-161-105-225-225-225-151 0-243 103-243 244V0H807v-767c0-124-93-207-219-207-131 0-250 92-250 270V0H158" id="br"/><g id="t"><use transform="matrix(0.010416666666666668,0,0,0.010416666666666668,0,0)" xlink:href="#br"/><use transform="matrix(0.010416666666666668,0,0,0.010416666666666668,18.687500000000004,0)" xlink:href="#aP"/><use transform="matrix(0.010416666666666668,0,0,0.010416666666666668,31.125000000000007,0)" xlink:href="#bh"/><use transform="matrix(0.010416666666666668,0,0,0.010416666666666668,36.29166666666667,0)" xlink:href="#aR"/></g><g id="u"><use transform="matrix(0.010416666666666668,0,0,0.010416666666666668,0,0)" xlink:href="#aW"/><use transform="matrix(0.010416666666666668,0,0,0.010416666666666668,12.645833333333334,0)" xlink:href="#aX"/><use transform="matrix(0.010416666666666668,0,0,0.010416666666666668,24.947916666666668,0)" xlink:href="#aT"/><use transform="matrix(0.010416666666666668,0,0,0.010416666666666668,31.718750000000007,0)" xlink:href="#aP"/></g><path d="M593-100v-404H195v-159h398v-403h169v403h398v159H762v404H593" id="bs"/><use transform="matrix(0.010416666666666668,0,0,0.010416666666666668,0,0)" xlink:href="#bs" id="v"/><path d="M180 0v-1490h224l606 953c40 63 108 177 176 312-27-437-7-821-13-1265h190V0h-226C860-448 622-778 356-1262c27 476 11 792 15 1262H180" id="bt"/><path d="M180 0v-1490h528c311 0 458 177 458 395 0 191-114 278-244 313v14c139 9 302 137 302 371 0 225-148 397-499 397H180zm190-168h350c232 0 321-102 321-231 0-149-120-277-311-277H370v508zm0-668h328c160 0 286-101 286-255 0-129-87-231-280-231H370v486" id="bu"/><path d="M180 0v-1490h190v1322h690V0H180" id="bv"/><g id="w"><use transform="matrix(0.010416666666666668,0,0,0.010416666666666668,0,0)" xlink:href="#bp"/><use transform="matrix(0.010416666666666668,0,0,0.010416666666666668,12.822916666666668,0)" xlink:href="#bt"/><use transform="matrix(0.010416666666666668,0,0,0.010416666666666668,28.895833333333336,0)" xlink:href="#bn"/><use transform="matrix(0.010416666666666668,0,0,0.010416666666666668,43.614583333333336,0)" xlink:href="#bu"/><use transform="matrix(0.010416666666666668,0,0,0.010416666666666668,57.57291666666667,0)" xlink:href="#bv"/><use transform="matrix(0.010416666666666668,0,0,0.010416666666666668,69.63541666666667,0)" xlink:href="#bp"/></g><path d="M226-283v-166h904v166H226zm0-434v-166h904v166H226" id="bw"/><use transform="matrix(0.010416666666666668,0,0,0.010416666666666668,0,0)" xlink:href="#bw" id="x"/><path d="M653-1490V0H466v-1314h-10L96-1047v-204l324-239h233" id="bx"/><use transform="matrix(0.010416666666666668,0,0,0.010416666666666668,0,0)" xlink:href="#bx" id="y"/><path d="M646 20c-332 0-524-278-524-764 0-483 194-766 524-766s524 283 524 766c0 485-191 764-524 764zm0-166c218 0 341-220 341-598 0-380-123-601-341-601s-341 222-341 601c0 378 123 598 341 598" id="by"/><use transform="matrix(0.010416666666666668,0,0,0.010416666666666668,0,0)" xlink:href="#by" id="z"/><path d="M126 0v-134l627-806v-11H146v-167h839v143L376-178v11h629V0H126" id="bz"/><g id="A"><use transform="matrix(0.0126953125,0,0,0.0126953125,0,0)" xlink:href="#bb"/><use transform="matrix(0.0126953125,0,0,0.0126953125,15.3486328125,0)" xlink:href="#bh"/><use transform="matrix(0.0126953125,0,0,0.0126953125,21.6455078125,0)" xlink:href="#aS"/><use transform="matrix(0.0126953125,0,0,0.0126953125,37.0068359375,0)" xlink:href="#aU"/><use transform="matrix(0.0126953125,0,0,0.0126953125,51.6064453125,0)" xlink:href="#aI"/><use transform="matrix(0.0126953125,0,0,0.0126953125,57.9033203125,0)" xlink:href="#bh"/><use transform="matrix(0.0126953125,0,0,0.0126953125,64.2001953125,0)" xlink:href="#bz"/><use transform="matrix(0.0126953125,0,0,0.0126953125,78.55859375,0)" xlink:href="#aU"/></g><use transform="matrix(0.0126953125,0,0,0.0126953125,0,0)" xlink:href="#aU" id="B"/><g id="C"><use transform="matrix(0.0126953125,0,0,0.0126953125,0,0)" xlink:href="#aT"/><use transform="matrix(0.0126953125,0,0,0.0126953125,8.505859375,0)" xlink:href="#aV"/><use transform="matrix(0.0126953125,0,0,0.0126953125,18.2939453125,0)" xlink:href="#aU"/><use transform="matrix(0.0126953125,0,0,0.0126953125,32.8935546875,0)" xlink:href="#aS"/><use transform="matrix(0.0126953125,0,0,0.0126953125,48.2548828125,0)" xlink:href="#aO"/><use transform="matrix(0.0126953125,0,0,0.0126953125,61.978515625,0)" xlink:href="#aU"/><use transform="matrix(0.0126953125,0,0,0.0126953125,76.578125,0)" xlink:href="#aY"/><use transform="matrix(0.0126953125,0,0,0.0126953125,91.685546875,0)" xlink:href="#bi"/><use transform="matrix(0.0126953125,0,0,0.0126953125,106.28515625,0)" xlink:href="#aR"/></g><g id="D"><use transform="matrix(0.0126953125,0,0,0.0126953125,0,0)" xlink:href="#bg"/><use transform="matrix(0.0126953125,0,0,0.0126953125,6.982421875,0)" xlink:href="#bj"/><use transform="matrix(0.0126953125,0,0,0.0126953125,22.8388671875,0)" xlink:href="#ba"/></g><g id="E"><use transform="matrix(0.0126953125,0,0,0.0126953125,0,0)" xlink:href="#bk"/><use transform="matrix(0.0126953125,0,0,0.0126953125,19.3984375,0)" xlink:href="#aP"/><use transform="matrix(0.0126953125,0,0,0.0126953125,34.556640625,0)" xlink:href="#aV"/><use transform="matrix(0.0126953125,0,0,0.0126953125,44.3447265625,0)" xlink:href="#aU"/></g><g id="F"><use transform="matrix(0.0126953125,0,0,0.0126953125,0,0)" xlink:href="#aJ"/><use transform="matrix(0.0126953125,0,0,0.0126953125,14.853515625,0)" xlink:href="#aR"/><use transform="matrix(0.0126953125,0,0,0.0126953125,30.443359375,0)" xlink:href="#aS"/><use transform="matrix(0.0126953125,0,0,0.0126953125,45.8046875,0)" xlink:href="#aK"/><use transform="matrix(0.0126953125,0,0,0.0126953125,61.724609375,0)" xlink:href="#bh"/><use transform="matrix(0.0126953125,0,0,0.0126953125,68.021484375,0)" xlink:href="#aY"/><use transform="matrix(0.0126953125,0,0,0.0126953125,83.12890625,0)" xlink:href="#bi"/><use transform="matrix(0.0126953125,0,0,0.0126953125,97.728515625,0)" xlink:href="#aR"/></g><g id="G"><use transform="matrix(0.0126953125,0,0,0.0126953125,0,0)" xlink:href="#aO"/><use transform="matrix(0.0126953125,0,0,0.0126953125,13.7236328125,0)" xlink:href="#aT"/><use transform="matrix(0.0126953125,0,0,0.0126953125,21.9755859375,0)" xlink:href="#aR"/><use transform="matrix(0.0126953125,0,0,0.0126953125,37.5654296875,0)" xlink:href="#aM"/></g><g id="H"><use transform="matrix(0.010416666666666668,0,0,0.010416666666666668,0,0)" xlink:href="#aI"/><use transform="matrix(0.010416666666666668,0,0,0.010416666666666668,5.166666666666667,0)" xlink:href="#aJ"/><use transform="matrix(0.010416666666666668,0,0,0.010416666666666668,17.354166666666668,0)" xlink:href="#aK"/><use transform="matrix(0.010416666666666668,0,0,0.010416666666666668,30.41666666666667,0)" xlink:href="#aL"/><use transform="matrix(0.010416666666666668,0,0,0.010416666666666668,40.14583333333334,0)" xlink:href="#aO"/><use transform="matrix(0.010416666666666668,0,0,0.010416666666666668,51.406250000000014,0)" xlink:href="#aP"/><use transform="matrix(0.010416666666666668,0,0,0.010416666666666668,63.843750000000014,0)" xlink:href="#aS"/><use transform="matrix(0.010416666666666668,0,0,0.010416666666666668,76.44791666666669,0)" xlink:href="#aK"/></g><g id="I"><use transform="matrix(0.010416666666666668,0,0,0.010416666666666668,0,0)" xlink:href="#aR"/><use transform="matrix(0.010416666666666668,0,0,0.010416666666666668,12.791666666666668,0)" xlink:href="#aO"/></g><use transform="matrix(0.010416666666666668,0,0,0.010416666666666668,0,0)" xlink:href="#bf" id="J"/><g id="K"><use transform="matrix(0.010416666666666668,0,0,0.010416666666666668,0,0)" xlink:href="#aW"/><use transform="matrix(0.010416666666666668,0,0,0.010416666666666668,13.062500000000002,0)" xlink:href="#bh"/><use transform="matrix(0.010416666666666668,0,0,0.010416666666666668,18.229166666666668,0)" xlink:href="#aT"/><use transform="matrix(0.010416666666666668,0,0,0.010416666666666668,25.000000000000004,0)" xlink:href="#aO"/></g><g id="L"><use transform="matrix(0.010416666666666668,0,0,0.010416666666666668,0,0)" xlink:href="#br"/><use transform="matrix(0.010416666666666668,0,0,0.010416666666666668,18.687500000000004,0)" xlink:href="#aU"/><use transform="matrix(0.010416666666666668,0,0,0.010416666666666668,30.66666666666667,0)" xlink:href="#bh"/><use transform="matrix(0.010416666666666668,0,0,0.010416666666666668,35.833333333333336,0)" xlink:href="#aO"/></g><g id="M"><use transform="matrix(0.010416666666666668,0,0,0.010416666666666668,0,0)" xlink:href="#aU"/><use transform="matrix(0.010416666666666668,0,0,0.010416666666666668,11.979166666666668,0)" xlink:href="#aI"/><use transform="matrix(0.010416666666666668,0,0,0.010416666666666668,17.458333333333336,0)" xlink:href="#aT"/><use transform="matrix(0.010416666666666668,0,0,0.010416666666666668,24.229166666666668,0)" xlink:href="#aR"/><use transform="matrix(0.010416666666666668,0,0,0.010416666666666668,37.02083333333334,0)" xlink:href="#aO"/></g><path d="M218-607c0-325 108-727 258-974h175c-155 315-250 682-250 974 0 265 78 531 250 886H476C306-10 218-315 218-607" id="bA"/><path d="M645 0H180v-1490h484c435 0 692 280 692 742 0 466-257 748-711 748zM370-168h263c363 0 539-218 539-580 0-358-176-574-521-574H370v1154" id="bB"/><path d="M128 359l88-567h206L266 359H128" id="bC"/><path d="M646 20c-249 0-524-159-524-708 0-524 209-822 547-822 250 0 431 161 467 395H950c-33-129-126-227-281-227-229 0-367 208-367 566h12c80-124 212-198 367-198 255 0 467 205 467 493 0 278-198 501-502 501zm0-167c179 0 318-148 318-334 0-182-133-328-313-328-181 0-322 156-322 330 0 176 134 332 317 332" id="bD"/><path d="M96 279C273-86 346-350 346-607c0-292-95-659-250-974h175c150 246 258 650 258 974 0 297-91 602-258 886H96" id="bE"/><g id="N"><use transform="matrix(0.010416666666666668,0,0,0.010416666666666668,0,0)" xlink:href="#bA"/><use transform="matrix(0.010416666666666668,0,0,0.010416666666666668,7.781250000000001,0)" xlink:href="#bB"/><use transform="matrix(0.010416666666666668,0,0,0.010416666666666668,23.177083333333336,0)" xlink:href="#be"/><use transform="matrix(0.010416666666666668,0,0,0.010416666666666668,32.583333333333336,0)" xlink:href="#bC"/><use transform="matrix(0.010416666666666668,0,0,0.010416666666666668,38.72916666666667,0)" xlink:href="#bB"/><use transform="matrix(0.010416666666666668,0,0,0.010416666666666668,54.12500000000001,0)" xlink:href="#bD"/><use transform="matrix(0.010416666666666668,0,0,0.010416666666666668,67.35416666666667,0)" xlink:href="#bC"/><use transform="matrix(0.010416666666666668,0,0,0.010416666666666668,73.5,0)" xlink:href="#bB"/><use transform="matrix(0.010416666666666668,0,0,0.010416666666666668,88.89583333333334,0)" xlink:href="#bd"/><use transform="matrix(0.010416666666666668,0,0,0.010416666666666668,101.86458333333334,0)" xlink:href="#bC"/><use transform="matrix(0.010416666666666668,0,0,0.010416666666666668,108.01041666666669,0)" xlink:href="#bB"/><use transform="matrix(0.010416666666666668,0,0,0.010416666666666668,123.40625,0)" xlink:href="#bf"/><use transform="matrix(0.010416666666666668,0,0,0.010416666666666668,137.1875,0)" xlink:href="#bE"/></g><path d="M65 0l393-574-370-544h210c88 136 192 297 267 435 67-142 176-302 264-435h206L661-564 1053 0H844c-94-144-206-310-287-458C484-308 366-142 273 0H65" id="bF"/><g id="O"><use transform="matrix(0.010416666666666668,0,0,0.010416666666666668,0,0)" xlink:href="#aW"/><use transform="matrix(0.010416666666666668,0,0,0.010416666666666668,13.270833333333334,0)" xlink:href="#aU"/><use transform="matrix(0.010416666666666668,0,0,0.010416666666666668,25.250000000000004,0)" xlink:href="#bh"/><use transform="matrix(0.010416666666666668,0,0,0.010416666666666668,30.41666666666667,0)" xlink:href="#bF"/><use transform="matrix(0.010416666666666668,0,0,0.010416666666666668,41.583333333333336,0)" xlink:href="#aR"/><use transform="matrix(0.010416666666666668,0,0,0.010416666666666668,54.375,0)" xlink:href="#aO"/></g><path d="M635 20c-292 0-500-160-510-396h192c11 142 145 229 315 229 187 0 323-105 323-260 0-161-125-274-346-274H488v-165h121c174 0 294-100 294-254 0-148-104-245-266-245-152 0-291 85-297 230H157c8-234 222-395 484-395 278 0 448 188 448 400 0 168-95 291-247 336v12c190 31 301 169 301 357 0 244-216 425-508 425" id="bG"/><g id="P"><use transform="matrix(0.010416666666666668,0,0,0.010416666666666668,0,0)" xlink:href="#bA"/><use transform="matrix(0.010416666666666668,0,0,0.010416666666666668,7.781250000000001,0)" xlink:href="#bB"/><use transform="matrix(0.010416666666666668,0,0,0.010416666666666668,23.177083333333336,0)" xlink:href="#bG"/><use transform="matrix(0.010416666666666668,0,0,0.010416666666666668,35.875,0)" xlink:href="#bC"/><use transform="matrix(0.010416666666666668,0,0,0.010416666666666668,42.020833333333336,0)" xlink:href="#bB"/><use transform="matrix(0.010416666666666668,0,0,0.010416666666666668,57.41666666666667,0)" xlink:href="#bj"/><use transform="matrix(0.010416666666666668,0,0,0.010416666666666668,70.42708333333334,0)" xlink:href="#bC"/><use transform="matrix(0.010416666666666668,0,0,0.010416666666666668,76.57291666666667,0)" xlink:href="#bB"/><use transform="matrix(0.010416666666666668,0,0,0.010416666666666668,91.96874999999999,0)" xlink:href="#bx"/><use transform="matrix(0.010416666666666668,0,0,0.010416666666666668,100.64583333333333,0)" xlink:href="#bC"/><use transform="matrix(0.010416666666666668,0,0,0.010416666666666668,106.79166666666666,0)" xlink:href="#bB"/><use transform="matrix(0.010416666666666668,0,0,0.010416666666666668,122.1875,0)" xlink:href="#by"/><use transform="matrix(0.010416666666666668,0,0,0.010416666666666668,135.64583333333334,0)" xlink:href="#bE"/></g><g id="Q"><use transform="matrix(0.010416666666666668,0,0,0.010416666666666668,0,0)" xlink:href="#aI"/><use transform="matrix(0.010416666666666668,0,0,0.010416666666666668,5.166666666666667,0)" xlink:href="#aJ"/><use transform="matrix(0.010416666666666668,0,0,0.010416666666666668,17.354166666666668,0)" xlink:href="#aK"/><use transform="matrix(0.010416666666666668,0,0,0.010416666666666668,30.41666666666667,0)" xlink:href="#aL"/><use transform="matrix(0.010416666666666668,0,0,0.010416666666666668,40.86458333333334,0)" xlink:href="#aM"/><use transform="matrix(0.010416666666666668,0,0,0.010416666666666668,53.92708333333334,0)" xlink:href="#aV"/><use transform="matrix(0.010416666666666668,0,0,0.010416666666666668,62.291666666666686,0)" xlink:href="#bh"/><use transform="matrix(0.010416666666666668,0,0,0.010416666666666668,67.45833333333334,0)" xlink:href="#aS"/><use transform="matrix(0.010416666666666668,0,0,0.010416666666666668,80.06250000000001,0)" xlink:href="#aT"/></g><use transform="matrix(0.0126953125,0,0,0.0126953125,0,0)" xlink:href="#bl" id="R"/><path d="M204-479l-12-1011h204L383-479H204zm91 492c-75 0-135-60-135-134 0-75 60-135 135-135 74 0 134 60 134 135 0 74-60 134-134 134" id="bH"/><path d="M232-923l-22-567h194l-22 567H232" id="bI"/><path d="M526 224L46-1560h166L692 224H526" id="bJ"/><g id="S"><use transform="matrix(0.0126953125,0,0,0.0126953125,0,0)" xlink:href="#bH"/><use transform="matrix(0.0126953125,0,0,0.0126953125,7.4775390625,0)" xlink:href="#bw"/><use transform="matrix(0.0126953125,0,0,0.0126953125,24.6796875,0)" xlink:href="#bI"/><use transform="matrix(0.0126953125,0,0,0.0126953125,32.474609375,0)" xlink:href="#bJ"/><use transform="matrix(0.0126953125,0,0,0.0126953125,41.84375,0)" xlink:href="#by"/><use transform="matrix(0.0126953125,0,0,0.0126953125,58.24609375,0)" xlink:href="#bI"/></g><path d="M441-652l13-317-268 171-72-126 282-146-282-146 72-128 268 171-13-317h144l-12 317 267-171 72 128-282 146 282 146-72 126-267-171 12 317H441" id="bK"/><g id="T"><use transform="matrix(0.010416666666666668,0,0,0.010416666666666668,0,0)" xlink:href="#bK"/><use transform="matrix(0.010416666666666668,0,0,0.010416666666666668,10.687500000000002,0)" xlink:href="#aO"/></g><g id="U"><use transform="matrix(0.010416666666666668,0,0,0.010416666666666668,0,0)" xlink:href="#aM"/><use transform="matrix(0.010416666666666668,0,0,0.010416666666666668,13.270833333333334,0)" xlink:href="#aU"/><use transform="matrix(0.010416666666666668,0,0,0.010416666666666668,25.250000000000004,0)" xlink:href="#aV"/><use transform="matrix(0.010416666666666668,0,0,0.010416666666666668,33.28125000000001,0)" xlink:href="#aU"/></g><g id="V"><use transform="matrix(0.010416666666666668,0,0,0.010416666666666668,0,0)" xlink:href="#bv"/><use transform="matrix(0.010416666666666668,0,0,0.010416666666666668,11.458333333333334,0)" xlink:href="#ba"/><use transform="matrix(0.010416666666666668,0,0,0.010416666666666668,27.04166666666667,0)" xlink:href="#bB"/></g><use transform="matrix(0.010416666666666668,0,0,0.010416666666666668,0,0)" xlink:href="#aP" id="W"/><g id="X"><use transform="matrix(0.010416666666666668,0,0,0.010416666666666668,0,0)" xlink:href="#bg"/><use transform="matrix(0.010416666666666668,0,0,0.010416666666666668,5.729166666666667,0)" xlink:href="#aS"/><use transform="matrix(0.010416666666666668,0,0,0.010416666666666668,18.333333333333336,0)" xlink:href="#aJ"/><use transform="matrix(0.010416666666666668,0,0,0.010416666666666668,30.520833333333336,0)" xlink:href="#aV"/><use transform="matrix(0.010416666666666668,0,0,0.010416666666666668,38.19791666666667,0)" xlink:href="#aP"/><use transform="matrix(0.010416666666666668,0,0,0.010416666666666668,50.63541666666667,0)" xlink:href="#br"/><use transform="matrix(0.010416666666666668,0,0,0.010416666666666668,69.32291666666667,0)" xlink:href="#aP"/><use transform="matrix(0.010416666666666668,0,0,0.010416666666666668,81.76041666666667,0)" xlink:href="#aS"/><use transform="matrix(0.010416666666666668,0,0,0.010416666666666668,94.36458333333334,0)" xlink:href="#aT"/><use transform="matrix(0.010416666666666668,0,0,0.010416666666666668,101.44791666666667,0)" xlink:href="#aU"/></g><use transform="matrix(0.010416666666666668,0,0,0.010416666666666668,0,0)" xlink:href="#aO" id="Y"/><g id="Z"><use transform="matrix(0.010416666666666668,0,0,0.010416666666666668,0,0)" xlink:href="#aI"/><use transform="matrix(0.010416666666666668,0,0,0.010416666666666668,5.166666666666667,0)" xlink:href="#aJ"/><use transform="matrix(0.010416666666666668,0,0,0.010416666666666668,17.354166666666668,0)" xlink:href="#aK"/><use transform="matrix(0.010416666666666668,0,0,0.010416666666666668,30.41666666666667,0)" xlink:href="#aL"/><use transform="matrix(0.010416666666666668,0,0,0.010416666666666668,40.86458333333334,0)" xlink:href="#bh"/><use transform="matrix(0.010416666666666668,0,0,0.010416666666666668,46.03125000000001,0)" xlink:href="#aS"/><use transform="matrix(0.010416666666666668,0,0,0.010416666666666668,58.63541666666667,0)" xlink:href="#bh"/><use transform="matrix(0.010416666666666668,0,0,0.010416666666666668,63.80208333333334,0)" xlink:href="#aT"/></g><use transform="matrix(0.0126953125,0,0,0.0126953125,0,0)" xlink:href="#bG" id="aa"/><g id="ab"><use transform="matrix(0.0126953125,0,0,0.0126953125,0,0)" xlink:href="#aV"/><use transform="matrix(0.0126953125,0,0,0.0126953125,9.3564453125,0)" xlink:href="#aP"/><use transform="matrix(0.0126953125,0,0,0.0126953125,24.5146484375,0)" xlink:href="#aO"/><use transform="matrix(0.0126953125,0,0,0.0126953125,38.23828125,0)" xlink:href="#aP"/><use transform="matrix(0.0126953125,0,0,0.0126953125,53.396484375,0)" xlink:href="#aT"/><use transform="matrix(0.0126953125,0,0,0.0126953125,61.6484375,0)" xlink:href="#aO"/></g><g id="ac"><use transform="matrix(0.0126953125,0,0,0.0126953125,0,0)" xlink:href="#br"/><use transform="matrix(0.0126953125,0,0,0.0126953125,22.775390625,0)" xlink:href="#aU"/><use transform="matrix(0.0126953125,0,0,0.0126953125,37.375,0)" xlink:href="#aS"/><use transform="matrix(0.0126953125,0,0,0.0126953125,52.736328125,0)" xlink:href="#aN"/><use transform="matrix(0.0126953125,0,0,0.0126953125,68.1103515625,0)" xlink:href="#aU"/><use transform="matrix(0.0126953125,0,0,0.0126953125,82.7099609375,0)" xlink:href="#bh"/><use transform="matrix(0.0126953125,0,0,0.0126953125,89.0068359375,0)" xlink:href="#aO"/></g><g id="ad"><use transform="matrix(0.0126953125,0,0,0.0126953125,0,0)" xlink:href="#bn"/><use transform="matrix(0.0126953125,0,0,0.0126953125,17.4306640625,0)" xlink:href="#aT"/><use transform="matrix(0.0126953125,0,0,0.0126953125,25.9365234375,0)" xlink:href="#bh"/><use transform="matrix(0.0126953125,0,0,0.0126953125,32.2333984375,0)" xlink:href="#bq"/><use transform="matrix(0.0126953125,0,0,0.0126953125,46.71875,0)" xlink:href="#aU"/></g><g id="ae"><use transform="matrix(0.0126953125,0,0,0.0126953125,0,0)" xlink:href="#br"/><use transform="matrix(0.0126953125,0,0,0.0126953125,22.775390625,0)" xlink:href="#aR"/><use transform="matrix(0.0126953125,0,0,0.0126953125,38.365234375,0)" xlink:href="#aK"/><use transform="matrix(0.0126953125,0,0,0.0126953125,54.28515625,0)" xlink:href="#aR"/></g><path d="M798-719v166H144v-166h654" id="bL"/><g id="af"><use transform="matrix(0.0126953125,0,0,0.0126953125,0,0)" xlink:href="#bf"/><use transform="matrix(0.0126953125,0,0,0.0126953125,16.7958984375,0)" xlink:href="#bL"/><use transform="matrix(0.0126953125,0,0,0.0126953125,28.7548828125,0)" xlink:href="#aW"/><use transform="matrix(0.0126953125,0,0,0.0126953125,44.6748046875,0)" xlink:href="#bh"/><use transform="matrix(0.0126953125,0,0,0.0126953125,50.9716796875,0)" xlink:href="#aT"/></g><path d="M678-1118v154H420V0H240v-964H20v-154h220v-149c0-194 155-293 318-293 85 0 141 18 168 30l-50 154c-19-6-47-17-97-17-111 0-159 58-159 166v109h258" id="bM"/><path d="M611 442c-248 0-391-105-460-228l146-94c47 65 117 165 314 165 178 0 307-82 307-266v-224h-17C863-141 792-18 576-18c-268 0-472-195-472-546 0-346 197-568 476-568 216 0 288 133 326 193h17v-179h175V29c0 289-215 413-487 413zm-5-620c203 0 314-146 314-390 0-237-108-403-314-403-213 0-319 180-319 403 0 230 109 390 319 390" id="bN"/><g id="ag"><use transform="matrix(0.0126953125,0,0,0.0126953125,0,0)" xlink:href="#ba"/><use transform="matrix(0.0126953125,0,0,0.0126953125,18.9921875,0)" xlink:href="#aR"/><use transform="matrix(0.0126953125,0,0,0.0126953125,34.58203125,0)" xlink:href="#aS"/><use transform="matrix(0.0126953125,0,0,0.0126953125,49.943359375,0)" xlink:href="#bM"/><use transform="matrix(0.0126953125,0,0,0.0126953125,59.56640625,0)" xlink:href="#bh"/><use transform="matrix(0.0126953125,0,0,0.0126953125,65.86328125,0)" xlink:href="#bN"/><use transform="matrix(0.0126953125,0,0,0.0126953125,81.80859375,0)" xlink:href="#aN"/><use transform="matrix(0.0126953125,0,0,0.0126953125,97.1826171875,0)" xlink:href="#aV"/><use transform="matrix(0.0126953125,0,0,0.0126953125,106.970703125,0)" xlink:href="#aU"/></g><g id="ah"><use transform="matrix(0.0126953125,0,0,0.0126953125,0,0)" xlink:href="#bL"/><use transform="matrix(0.0126953125,0,0,0.0126953125,11.0830078125,0)" xlink:href="#bj"/></g><path d="M338-670V0H158v-1490h180v566c73-149 190-208 336-208 226 0 379 139 379 422V0H872v-695c0-172-96-275-252-275-161 0-282 109-282 300" id="bO"/><g id="ai"><use transform="matrix(0.0126953125,0,0,0.0126953125,0,0)" xlink:href="#aI"/><use transform="matrix(0.0126953125,0,0,0.0126953125,6.296875,0)" xlink:href="#bh"/><use transform="matrix(0.0126953125,0,0,0.0126953125,12.59375,0)" xlink:href="#aS"/><use transform="matrix(0.0126953125,0,0,0.0126953125,27.955078125,0)" xlink:href="#bO"/><use transform="matrix(0.0126953125,0,0,0.0126953125,43.3291015625,0)" xlink:href="#aU"/><use transform="matrix(0.0126953125,0,0,0.0126953125,57.9287109375,0)" xlink:href="#aO"/></g><g id="aj"><use transform="matrix(0.0126953125,0,0,0.0126953125,0,0)" xlink:href="#bL"/><use transform="matrix(0.0126953125,0,0,0.0126953125,11.958984375,0)" xlink:href="#bB"/><use transform="matrix(0.0126953125,0,0,0.0126953125,30.72265625,0)" xlink:href="#bh"/><use transform="matrix(0.0126953125,0,0,0.0126953125,37.01953125,0)" xlink:href="#aO"/><use transform="matrix(0.0126953125,0,0,0.0126953125,50.7431640625,0)" xlink:href="#aM"/><use transform="matrix(0.0126953125,0,0,0.0126953125,66.6630859375,0)" xlink:href="#aI"/><use transform="matrix(0.0126953125,0,0,0.0126953125,72.9599609375,0)" xlink:href="#aU"/><use transform="matrix(0.0126953125,0,0,0.0126953125,87.1787109375,0)" xlink:href="#aX"/></g><g id="ak"><use transform="matrix(0.0126953125,0,0,0.0126953125,0,0)" xlink:href="#aI"/><use transform="matrix(0.0126953125,0,0,0.0126953125,6.296875,0)" xlink:href="#bh"/><use transform="matrix(0.0126953125,0,0,0.0126953125,12.59375,0)" xlink:href="#bN"/><use transform="matrix(0.0126953125,0,0,0.0126953125,28.5390625,0)" xlink:href="#aU"/><use transform="matrix(0.0126953125,0,0,0.0126953125,43.138671875,0)" xlink:href="#aK"/><use transform="matrix(0.0126953125,0,0,0.0126953125,59.05859375,0)" xlink:href="#aR"/></g><g id="al"><use transform="matrix(0.0126953125,0,0,0.0126953125,0,0)" xlink:href="#bL"/><use transform="matrix(0.0126953125,0,0,0.0126953125,11.958984375,0)" xlink:href="#bg"/><use transform="matrix(0.0126953125,0,0,0.0126953125,18.94140625,0)" xlink:href="#aS"/><use transform="matrix(0.0126953125,0,0,0.0126953125,34.302734375,0)" xlink:href="#aJ"/><use transform="matrix(0.0126953125,0,0,0.0126953125,49.15625,0)" xlink:href="#aV"/><use transform="matrix(0.0126953125,0,0,0.0126953125,58.5126953125,0)" xlink:href="#aP"/><use transform="matrix(0.0126953125,0,0,0.0126953125,73.6708984375,0)" xlink:href="#br"/><use transform="matrix(0.0126953125,0,0,0.0126953125,96.4462890625,0)" xlink:href="#aP"/><use transform="matrix(0.0126953125,0,0,0.0126953125,111.6044921875,0)" xlink:href="#aS"/><use transform="matrix(0.0126953125,0,0,0.0126953125,126.9658203125,0)" xlink:href="#aT"/><use transform="matrix(0.0126953125,0,0,0.0126953125,135.2177734375,0)" xlink:href="#aR"/></g><g id="am"><use transform="matrix(0.0126953125,0,0,0.0126953125,0,0)" xlink:href="#aU"/><use transform="matrix(0.0126953125,0,0,0.0126953125,14.599609375,0)" xlink:href="#aN"/><use transform="matrix(0.0126953125,0,0,0.0126953125,29.9736328125,0)" xlink:href="#aT"/><use transform="matrix(0.0126953125,0,0,0.0126953125,38.2255859375,0)" xlink:href="#aR"/><use transform="matrix(0.0126953125,0,0,0.0126953125,53.8154296875,0)" xlink:href="#br"/><use transform="matrix(0.0126953125,0,0,0.0126953125,76.5908203125,0)" xlink:href="#aU"/><use transform="matrix(0.0126953125,0,0,0.0126953125,91.1904296875,0)" xlink:href="#aT"/><use transform="matrix(0.0126953125,0,0,0.0126953125,99.6962890625,0)" xlink:href="#bh"/><use transform="matrix(0.0126953125,0,0,0.0126953125,105.9931640625,0)" xlink:href="#aJ"/><use transform="matrix(0.0126953125,0,0,0.0126953125,120.8466796875,0)" xlink:href="#aR"/></g><g id="an"><use transform="matrix(0.0126953125,0,0,0.0126953125,0,0)" xlink:href="#bL"/><use transform="matrix(0.0126953125,0,0,0.0126953125,11.958984375,0)" xlink:href="#ba"/><use transform="matrix(0.0126953125,0,0,0.0126953125,30.951171875,0)" xlink:href="#aI"/><use transform="matrix(0.0126953125,0,0,0.0126953125,37.248046875,0)" xlink:href="#aP"/><use transform="matrix(0.0126953125,0,0,0.0126953125,52.66015625,0)" xlink:href="#aU"/><use transform="matrix(0.0126953125,0,0,0.0126953125,67.259765625,0)" xlink:href="#aV"/></g><g id="ap"><use transform="matrix(0.010416666666666668,0,0,0.010416666666666668,0,0)" xlink:href="#aI"/><use transform="matrix(0.010416666666666668,0,0,0.010416666666666668,5.166666666666667,0)" xlink:href="#aJ"/><use transform="matrix(0.010416666666666668,0,0,0.010416666666666668,17.354166666666668,0)" xlink:href="#aK"/><use transform="matrix(0.010416666666666668,0,0,0.010416666666666668,30.41666666666667,0)" xlink:href="#aL"/><use transform="matrix(0.010416666666666668,0,0,0.010416666666666668,40.86458333333334,0)" xlink:href="#aI"/><use transform="matrix(0.010416666666666668,0,0,0.010416666666666668,46.03125000000001,0)" xlink:href="#aR"/><use transform="matrix(0.010416666666666668,0,0,0.010416666666666668,58.82291666666667,0)" xlink:href="#aJ"/></g><g id="aq"><use transform="matrix(0.0126953125,0,0,0.0126953125,0,0)" xlink:href="#bl"/><use transform="matrix(0.0126953125,0,0,0.0126953125,16.681640625,0)" xlink:href="#aP"/><use transform="matrix(0.0126953125,0,0,0.0126953125,31.83984375,0)" xlink:href="#aI"/><use transform="matrix(0.0126953125,0,0,0.0126953125,38.13671875,0)" xlink:href="#aP"/><use transform="matrix(0.0126953125,0,0,0.0126953125,53.294921875,0)" xlink:href="#aJ"/><use transform="matrix(0.0126953125,0,0,0.0126953125,68.1484375,0)" xlink:href="#bh"/><use transform="matrix(0.0126953125,0,0,0.0126953125,74.4453125,0)" xlink:href="#aR"/><use transform="matrix(0.0126953125,0,0,0.0126953125,90.03515625,0)" xlink:href="#aS"/><use transform="matrix(0.0126953125,0,0,0.0126953125,105.396484375,0)" xlink:href="#aU"/></g><use transform="matrix(0.0126953125,0,0,0.0126953125,0,0)" xlink:href="#aR" id="ar"/><g id="as"><use transform="matrix(0.0126953125,0,0,0.0126953125,0,0)" xlink:href="#aP"/><use transform="matrix(0.0126953125,0,0,0.0126953125,15.158203125,0)" xlink:href="#aS"/><use transform="matrix(0.0126953125,0,0,0.0126953125,30.51953125,0)" xlink:href="#aK"/><use transform="matrix(0.0126953125,0,0,0.0126953125,46.439453125,0)" xlink:href="#aP"/><use transform="matrix(0.0126953125,0,0,0.0126953125,61.59765625,0)" xlink:href="#aV"/><use transform="matrix(0.0126953125,0,0,0.0126953125,70.9541015625,0)" xlink:href="#aP"/><use transform="matrix(0.0126953125,0,0,0.0126953125,86.1123046875,0)" xlink:href="#aY"/><use transform="matrix(0.0126953125,0,0,0.0126953125,100.9658203125,0)" xlink:href="#aR"/></g><g id="at"><use transform="matrix(0.0126953125,0,0,0.0126953125,0,0)" xlink:href="#aW"/><use transform="matrix(0.0126953125,0,0,0.0126953125,16.173828125,0)" xlink:href="#aU"/><use transform="matrix(0.0126953125,0,0,0.0126953125,30.7734375,0)" xlink:href="#aO"/><use transform="matrix(0.0126953125,0,0,0.0126953125,44.4970703125,0)" xlink:href="#aP"/></g><g id="au"><use transform="matrix(0.0126953125,0,0,0.0126953125,0,0)" xlink:href="#aK"/><use transform="matrix(0.0126953125,0,0,0.0126953125,15.919921875,0)" xlink:href="#aP"/></g><g id="av"><use transform="matrix(0.0126953125,0,0,0.0126953125,0,0)" xlink:href="#aJ"/><use transform="matrix(0.0126953125,0,0,0.0126953125,15.107421875,0)" xlink:href="#aU"/><use transform="matrix(0.0126953125,0,0,0.0126953125,29.70703125,0)" xlink:href="#aK"/><use transform="matrix(0.0126953125,0,0,0.0126953125,45.626953125,0)" xlink:href="#aU"/></g><g id="aw"><use transform="matrix(0.0126953125,0,0,0.0126953125,0,0)" xlink:href="#aN"/><use transform="matrix(0.0126953125,0,0,0.0126953125,15.3740234375,0)" xlink:href="#br"/><use transform="matrix(0.0126953125,0,0,0.0126953125,38.1494140625,0)" xlink:href="#aU"/></g><g id="ax"><use transform="matrix(0.0126953125,0,0,0.0126953125,0,0)" xlink:href="#aK"/><use transform="matrix(0.0126953125,0,0,0.0126953125,15.919921875,0)" xlink:href="#aU"/><use transform="matrix(0.0126953125,0,0,0.0126953125,30.51953125,0)" xlink:href="#aO"/></g><use transform="matrix(0.0126953125,0,0,0.0126953125,0,0)" xlink:href="#bf" id="ay"/><g id="az"><use transform="matrix(0.0126953125,0,0,0.0126953125,0,0)" xlink:href="#aI"/><use transform="matrix(0.0126953125,0,0,0.0126953125,6.296875,0)" xlink:href="#bh"/><use transform="matrix(0.0126953125,0,0,0.0126953125,12.59375,0)" xlink:href="#aS"/><use transform="matrix(0.0126953125,0,0,0.0126953125,27.955078125,0)" xlink:href="#bO"/><use transform="matrix(0.0126953125,0,0,0.0126953125,43.3291015625,0)" xlink:href="#aU"/><use transform="matrix(0.0126953125,0,0,0.0126953125,57.9287109375,0)" xlink:href="#aO"/></g><g id="aA"><use transform="matrix(0.0126953125,0,0,0.0126953125,0,0)" xlink:href="#bA"/><use transform="matrix(0.0126953125,0,0,0.0126953125,9.4833984375,0)" xlink:href="#aV"/><use transform="matrix(0.0126953125,0,0,0.0126953125,19.271484375,0)" xlink:href="#bE"/></g><g id="aB"><use transform="matrix(0.0126953125,0,0,0.0126953125,0,0)" xlink:href="#ba"/><use transform="matrix(0.0126953125,0,0,0.0126953125,18.9921875,0)" xlink:href="#aU"/><use transform="matrix(0.0126953125,0,0,0.0126953125,33.591796875,0)" xlink:href="#aI"/><use transform="matrix(0.0126953125,0,0,0.0126953125,39.888671875,0)" xlink:href="#aJ"/><use transform="matrix(0.0126953125,0,0,0.0126953125,54.7421875,0)" xlink:href="#aN"/><use transform="matrix(0.0126953125,0,0,0.0126953125,70.1162109375,0)" xlink:href="#aI"/><use transform="matrix(0.0126953125,0,0,0.0126953125,76.4130859375,0)" xlink:href="#aU"/></g><g id="aC"><use transform="matrix(0.0126953125,0,0,0.0126953125,0,0)" xlink:href="#aM"/><use transform="matrix(0.0126953125,0,0,0.0126953125,15.919921875,0)" xlink:href="#aR"/><use transform="matrix(0.0126953125,0,0,0.0126953125,31.509765625,0)" xlink:href="#aO"/><use transform="matrix(0.0126953125,0,0,0.0126953125,45.2333984375,0)" xlink:href="#bh"/><use transform="matrix(0.0126953125,0,0,0.0126953125,51.5302734375,0)" xlink:href="#aJ"/><use transform="matrix(0.0126953125,0,0,0.0126953125,66.6376953125,0)" xlink:href="#aU"/><use transform="matrix(0.0126953125,0,0,0.0126953125,81.2373046875,0)" xlink:href="#aR"/></g><g id="aD"><use transform="matrix(0.0126953125,0,0,0.0126953125,0,0)" xlink:href="#aP"/><use transform="matrix(0.0126953125,0,0,0.0126953125,14.57421875,0)" xlink:href="#bF"/><use transform="matrix(0.0126953125,0,0,0.0126953125,28.767578125,0)" xlink:href="#aU"/><use transform="matrix(0.0126953125,0,0,0.0126953125,43.3671875,0)" xlink:href="#aT"/><use transform="matrix(0.0126953125,0,0,0.0126953125,52,0)" xlink:href="#aU"/></g><use transform="matrix(0.0126953125,0,0,0.0126953125,0,0)" xlink:href="#aP" id="aE"/><g id="aF"><use transform="matrix(0.0126953125,0,0,0.0126953125,0,0)" xlink:href="#aP"/><use transform="matrix(0.0126953125,0,0,0.0126953125,15.158203125,0)" xlink:href="#aS"/><use transform="matrix(0.0126953125,0,0,0.0126953125,30.138671875,0)" xlink:href="#bq"/><use transform="matrix(0.0126953125,0,0,0.0126953125,44.7509765625,0)" xlink:href="#bh"/><use transform="matrix(0.0126953125,0,0,0.0126953125,51.0478515625,0)" xlink:href="#aU"/></g><g id="aG"><use transform="matrix(0.0126953125,0,0,0.0126953125,0,0)" xlink:href="#aJ"/><use transform="matrix(0.0126953125,0,0,0.0126953125,14.853515625,0)" xlink:href="#aR"/><use transform="matrix(0.0126953125,0,0,0.0126953125,30.443359375,0)" xlink:href="#br"/><use transform="matrix(0.0126953125,0,0,0.0126953125,53.21875,0)" xlink:href="#aU"/><use transform="matrix(0.0126953125,0,0,0.0126953125,67.818359375,0)" xlink:href="#aS"/><use transform="matrix(0.0126953125,0,0,0.0126953125,83.1796875,0)" xlink:href="#aK"/><use transform="matrix(0.0126953125,0,0,0.0126953125,99.099609375,0)" xlink:href="#aR"/></g><g id="aH"><use transform="matrix(0.0126953125,0,0,0.0126953125,0,0)" xlink:href="#bv"/><use transform="matrix(0.0126953125,0,0,0.0126953125,13.96484375,0)" xlink:href="#ba"/><use transform="matrix(0.0126953125,0,0,0.0126953125,32.95703125,0)" xlink:href="#bB"/></g></defs></g></svg>