<svg xmlns="http://www.w3.org/2000/svg" xmlns:xlink="http://www.w3.org/1999/xlink" xmlns:lucid="lucid" width="628.02" height="3550.82"><g transform="translate(2478.9252121412023 -1946.968576739896)" lucid:page-tab-id="0_0"><path d="M-2069.03 1989.47c22.1 0 40 17.9 40 40s-17.9 40-40 40h-161.48c-22.1 0-40-17.9-40-40s17.9-40 40-40z" stroke="#000" stroke-width="2" fill="#fff"/><use xlink:href="#a" transform="matrix(1,0,0,1,-2265.515232791563,1994.4685767398962) translate(91.78125 42.54166666666667)"/><path d="M-2149.77 2071.97v27.33" stroke="#3a414a" stroke-width="3" stroke-linejoin="round" fill="none"/><path d="M-2148.3 2072h-2.95v-1.53h2.95z" stroke="#3a414a" stroke-width=".05" fill="#3a414a"/><path d="M-2149.77 2113.8l-7.5-13h15z" stroke="#3a414a" stroke-width="3" fill="#3a414a"/><path d="M-2229.77 2123.8a6 6 0 0 1 6-6h148a6 6 0 0 1 6 6v108a6 6 0 0 1-6 6h-148a6 6 0 0 1-6-6z" stroke="#000" stroke-width="2" fill="#fff"/><use xlink:href="#b" transform="matrix(1,0,0,1,-2224.770526516547,2122.787736572046) translate(34.8193359375 45.8125)"/><use xlink:href="#c" transform="matrix(1,0,0,1,-2224.770526516547,2122.787736572046) translate(10.76806640625 83.56328124999999)"/><use xlink:href="#d" transform="matrix(1,0,0,1,-2224.770526516547,2122.787736572046) translate(84.97216796875 83.56328124999999)"/><path d="M-2149.7 2240.3l.83 22.02.96 17.3" stroke="#3a414a" stroke-width="3" stroke-linejoin="round" fill="none"/><path d="M-2148.24 2240.27l-2.95.1-.05-1.58h2.96z" stroke="#3a414a" stroke-width=".05" fill="#3a414a"/><path d="M-2147.1 2294.07l-8.2-12.55 14.97-.84z" stroke="#3a414a" stroke-width="3" fill="#3a414a"/><path d="M-2264.83 2304.07a6 6 0 0 1 6-6h223.8a6 6 0 0 1 6 6v218.2a6 6 0 0 1-6 6h-223.8a6 6 0 0 1-6-6z" stroke="#000" stroke-width="2" fill="#fff"/><use xlink:href="#e" transform="matrix(1,0,0,1,-2259.826497729652,2303.0701766327415) translate(4.95654296875 66.625)"/><use xlink:href="#f" transform="matrix(1,0,0,1,-2259.826497729652,2303.0701766327415) translate(133.83935546875 66.625)"/><use xlink:href="#g" transform="matrix(1,0,0,1,-2259.826497729652,2303.0701766327415) translate(24.640625 104.37578124999999)"/><use xlink:href="#h" transform="matrix(1,0,0,1,-2259.826497729652,2303.0701766327415) translate(87.2158203125 104.37578124999999)"/><use xlink:href="#i" transform="matrix(1,0,0,1,-2259.826497729652,2303.0701766327415) translate(109.1279296875 104.37578124999999)"/><use xlink:href="#j" transform="matrix(1,0,0,1,-2259.826497729652,2303.0701766327415) translate(191.8759765625 104.37578124999999)"/><use xlink:href="#k" transform="matrix(1,0,0,1,-2259.826497729652,2303.0701766327415) translate(39.392578125 142.12656249999998)"/><use xlink:href="#l" transform="matrix(1,0,0,1,-2259.826497729652,2303.0701766327415) translate(46.705078125 142.12656249999998)"/><use xlink:href="#m" transform="matrix(1,0,0,1,-2259.826497729652,2303.0701766327415) translate(69.17578125 142.12656249999998)"/><use xlink:href="#n" transform="matrix(1,0,0,1,-2259.826497729652,2303.0701766327415) translate(24.9326171875 179.87734374999997)"/><use xlink:href="#o" transform="matrix(1,0,0,1,-2259.826497729652,2303.0701766327415) translate(113.6220703125 179.87734374999997)"/><path d="M-2146.93 2530.78v50.2" stroke="#3a414a" stroke-width="3" stroke-linejoin="round" fill="none"/><path d="M-2145.45 2530.82h-2.95v-1.54h2.95z" stroke="#3a414a" stroke-width=".05" fill="#3a414a"/><path d="M-2146.93 2595.46l-7.5-13h15z" stroke="#3a414a" stroke-width="3" fill="#3a414a"/><path d="M-2247.3 2605.46a6 6 0 0 1 6-6h188.75a6 6 0 0 1 6 6v142.7a6 6 0 0 1-6 6h-188.75a6 6 0 0 1-6-6z" stroke="#000" stroke-width="2" fill="#fff"/><use xlink:href="#p" transform="matrix(1,0,0,1,-2242.2985121230995,2604.4593756928753) translate(31.07763671875 43.3125)"/><use xlink:href="#q" transform="matrix(1,0,0,1,-2242.2985121230995,2604.4593756928753) translate(144.33251953125 43.3125)"/><use xlink:href="#r" transform="matrix(1,0,0,1,-2242.2985121230995,2604.4593756928753) translate(15.1767578125 81.06328124999999)"/><use xlink:href="#s" transform="matrix(1,0,0,1,-2242.2985121230995,2604.4593756928753) translate(117.0185546875 81.06328124999999)"/><use xlink:href="#t" transform="matrix(1,0,0,1,-2242.2985121230995,2604.4593756928753) translate(49.73974609375 118.81406249999999)"/><use xlink:href="#u" transform="matrix(1,0,0,1,-2242.2985121230995,2604.4593756928753) translate(94.70654296875 118.81406249999999)"/><path d="M-2146.93 2756.67v37.53" stroke="#3a414a" stroke-width="3" stroke-linejoin="round" fill="none"/><path d="M-2145.45 2756.7h-2.95v-1.53h2.95z" stroke="#3a414a" stroke-width=".05" fill="#3a414a"/><path d="M-2146.93 2808.7l-7.5-13h15z" stroke="#3a414a" stroke-width="3" fill="#3a414a"/><path d="M-2226.93 2818.7a6 6 0 0 1 6-6h148a6 6 0 0 1 6 6v108a6 6 0 0 1-6 6h-148a6 6 0 0 1-6-6z" stroke="#000" stroke-width="2" fill="#fff"/><use xlink:href="#v" transform="matrix(1,0,0,1,-2221.9261589855914,2817.6922956682843) translate(14.74169921875 45.8125)"/><use xlink:href="#w" transform="matrix(1,0,0,1,-2221.9261589855914,2817.6922956682843) translate(51.91357421875 45.8125)"/><use xlink:href="#x" transform="matrix(1,0,0,1,-2221.9261589855914,2817.6922956682843) translate(18.46142578125 83.56328124999999)"/><use xlink:href="#y" transform="matrix(1,0,0,1,-2221.9261589855914,2817.6922956682843) translate(56.85205078125 83.56328124999999)"/><path d="M-2146.93 2935.2v39.74" stroke="#3a414a" stroke-width="3" stroke-linejoin="round" fill="none"/><path d="M-2145.45 2935.23h-2.95v-1.54h2.95z" stroke="#3a414a" stroke-width=".05" fill="#3a414a"/><path d="M-2146.93 2989.43l-7.5-13h15z" stroke="#3a414a" stroke-width="3" fill="#3a414a"/><path d="M-2151.48 2995.12a7 7 0 0 1 9.1 0l154.43 132.64a5.15 5.15 0 0 1 0 7.82l-154.42 132.63a7 7 0 0 1-9.1 0l-154.43-132.62a5.15 5.15 0 0 1 0-7.82z" stroke="#000" stroke-width="2" fill="#fff"/><use xlink:href="#z" transform="matrix(1,0,0,1,-2305.448643361704,2996.2138875186934) translate(82.00939453125001 88.703125)"/><use xlink:href="#A" transform="matrix(1,0,0,1,-2305.448643361704,2996.2138875186934) translate(183.21642578125 88.703125)"/><use xlink:href="#q" transform="matrix(1,0,0,1,-2305.448643361704,2996.2138875186934) translate(219.41076171875 88.703125)"/><use xlink:href="#B" transform="matrix(1,0,0,1,-2305.448643361704,2996.2138875186934) translate(70.52013671875 126.45390624999999)"/><use xlink:href="#C" transform="matrix(1,0,0,1,-2305.448643361704,2996.2138875186934) translate(161.45666015625 126.45390624999999)"/><use xlink:href="#D" transform="matrix(1,0,0,1,-2305.448643361704,2996.2138875186934) translate(53.91466796875 164.20468749999998)"/><use xlink:href="#E" transform="matrix(1,0,0,1,-2305.448643361704,2996.2138875186934) translate(171.76525390625 164.20468749999998)"/><use xlink:href="#F" transform="matrix(1,0,0,1,-2305.448643361704,2996.2138875186934) translate(203.75744140625 164.20468749999998)"/><use xlink:href="#G" transform="matrix(1,0,0,1,-2305.448643361704,2996.2138875186934) translate(158.505 201.95546874999997)"/><path d="M-2146.93 3272.4v45.6" stroke="#3a414a" stroke-width="3" stroke-linejoin="round" fill="none"/><path d="M-2148.06 3270.82l1.13.08 1.13-.08.35-.08v1.7h-2.95v-1.7z" stroke="#3a414a" stroke-width=".05" fill="#3a414a"/><path d="M-2146.93 3332.5l-7.5-13h15z" stroke="#3a414a" stroke-width="3" fill="#3a414a"/><path d="M-2258.07 3342.5a6 6 0 0 1 6-6h210.3a6 6 0 0 1 6 6v168.35a6 6 0 0 1-6 6h-210.3a6 6 0 0 1-6-6z" stroke="#000" stroke-width="2" fill="#fff"/><use xlink:href="#H" transform="matrix(1,0,0,1,-2253.0685846481647,3341.4887035348097) translate(6.79736328125 35.875)"/><use xlink:href="#I" transform="matrix(1,0,0,1,-2253.0685846481647,3341.4887035348097) translate(111.57177734375 35.875)"/><use xlink:href="#J" transform="matrix(1,0,0,1,-2253.0685846481647,3341.4887035348097) translate(134.47412109375 35.875)"/><use xlink:href="#K" transform="matrix(1,0,0,1,-2253.0685846481647,3341.4887035348097) translate(44.216796875 73.62578124999999)"/><use xlink:href="#L" transform="matrix(1,0,0,1,-2253.0685846481647,3341.4887035348097) translate(103.072265625 73.62578124999999)"/><use xlink:href="#M" transform="matrix(1,0,0,1,-2253.0685846481647,3341.4887035348097) translate(22.1015625 111.37656249999999)"/><use xlink:href="#I" transform="matrix(1,0,0,1,-2253.0685846481647,3341.4887035348097) translate(97.2451171875 111.37656249999999)"/><use xlink:href="#N" transform="matrix(1,0,0,1,-2253.0685846481647,3341.4887035348097) translate(120.1474609375 111.37656249999999)"/><use xlink:href="#O" transform="matrix(1,0,0,1,-2253.0685846481647,3341.4887035348097) translate(15.64599609375 149.12734375)"/><path d="M-2146.93 3519.35v64.4" stroke="#3a414a" stroke-width="3" stroke-linejoin="round" fill="none"/><path d="M-2145.45 3519.4h-2.95v-1.55h2.95z" stroke="#3a414a" stroke-width=".05" fill="#3a414a"/><path d="M-2146.93 3598.22l-7.5-12.98h15z" stroke="#3a414a" stroke-width="3" fill="#3a414a"/><path d="M-2151.25 3603.97a6.23 6.23 0 0 1 8.65 0l90.28 86.94a5.78 5.78 0 0 1 0 8.34l-90.28 86.94a6.23 6.23 0 0 1-8.65 0l-90.28-86.94a5.78 5.78 0 0 1 0-8.33z" stroke="#000" stroke-width="2" fill="#fff"/><use xlink:href="#P" transform="matrix(1,0,0,1,-2240.8553004312757,3604.8090421089814) translate(11.548945312500004 99.1975)"/><path d="M-1983.66 3131.67h14.5a24 24 0 0 1 24 24v381.55a24 24 0 0 1-24 24h-155.26a22.5 22.5 0 0 0-22.5 22.52" stroke="#3a414a" stroke-width="3" fill="none"/><path d="M-1983.62 3133.14h-1.74l.1-.42.1-1.05-.1-1.06-.1-.4h1.74z" stroke="#3a414a" stroke-width=".05" fill="#3a414a"/><path d="M-2146.93 3598.22l-7.5-12.98h15z" stroke="#3a414a" stroke-width="3" fill="#3a414a"/><path d="M-1931.6 3342.5a6 6 0 0 1 6-6h49.07a6 6 0 0 1 6 6v30.26a6 6 0 0 1-6 6h-49.07a6 6 0 0 1-6-6z" fill="none"/><use xlink:href="#Q" transform="matrix(1,0,0,1,-1926.5966835931345,3341.4887035348097) translate(0 26.200520833333336)"/><path d="M-2126.7 3278.12a6 6 0 0 1 6-6h44.93a6 6 0 0 1 6 6v30.28a6 6 0 0 1-6 6h-44.94a6 6 0 0 1-6-6z" fill="none"/><use xlink:href="#R" transform="matrix(1,0,0,1,-2121.70760984988,3277.1193134520613) translate(0 26.200520833333336)"/><path d="M-1945.16 3351.67v2.66M-1945.16 3351.7v-1.53" stroke="#3a414a" stroke-width="3" fill="none"/><path d="M-1945.16 3368.82l-7.5-13h15z" stroke="#3a414a" stroke-width="3" fill="#3a414a"/><path d="M-2147 3790.42l-2.1 53.7" stroke="#3a414a" stroke-width="3" fill="none"/><path d="M-2145.5 3790.52l-2.96-.12.06-1.65.37.1 1.1.07 1.1-.08.4-.1z" stroke="#3a414a" stroke-width=".05" fill="#3a414a"/><path d="M-2149.65 3858.6l-7-13.3 15 .6z" stroke="#3a414a" stroke-width="3" fill="#3a414a"/><path d="M-2229.77 3868.58a6 6 0 0 1 6-6h148a6 6 0 0 1 6 6v108a6 6 0 0 1-6 6h-148a6 6 0 0 1-6-6z" stroke="#000" stroke-width="2" fill="#fff"/><use xlink:href="#S" transform="matrix(1,0,0,1,-2224.770526516547,3867.583680775374) translate(0.09130859375 45.8125)"/><use xlink:href="#T" transform="matrix(1,0,0,1,-2224.770526516547,3867.583680775374) translate(9.34619140625 83.56328124999999)"/><path d="M-2048.05 3695.07h98.84a24 24 0 0 1 24 24v712.15a24 24 0 0 1-24 24h-178.06a22.5 22.5 0 0 0-22.5 22.5" stroke="#3a414a" stroke-width="3" fill="none"/><path d="M-2048 3696.55h-1.73l.1-.4.08-1.08-.08-1.08-.1-.4h1.72z" stroke="#3a414a" stroke-width=".05" fill="#3a414a"/><path d="M-2149.77 4492.22l-7.5-13h15z" stroke="#3a414a" stroke-width="3" fill="#3a414a"/><path d="M-2126.7 3805.88a6 6 0 0 1 6-6h44.93a6 6 0 0 1 6 6v30.27a6 6 0 0 1-6 6h-44.94a6 6 0 0 1-6-6z" fill="none"/><use xlink:href="#R" transform="matrix(1,0,0,1,-2121.70760984988,3804.8778048870313) translate(0 26.200520833333336)"/><path d="M-2149.77 3985.08v32.8" stroke="#3a414a" stroke-width="3" fill="none"/><path d="M-2148.3 3985.12h-2.95v-1.54h2.95z" stroke="#3a414a" stroke-width=".05" fill="#3a414a"/><path d="M-2149.77 4032.36l-7.5-13h15z" stroke="#3a414a" stroke-width="3" fill="#3a414a"/><path d="M-2154.55 4037.97a7.92 7.92 0 0 1 9.56 0l96.1 72.75a4.54 4.54 0 0 1 0 7.25l-96.1 72.75a7.92 7.92 0 0 1-9.55 0l-96.08-72.75a4.54 4.54 0 0 1 0-7.25z" stroke="#000" stroke-width="2" fill="#fff"/><use xlink:href="#U" transform="matrix(1,0,0,1,-2250.4172300033715,4039.343524972326) translate(19.791458333333317 81.60416666666667)"/><use xlink:href="#V" transform="matrix(1,0,0,1,-2250.4172300033715,4039.343524972326) translate(133.53104166666668 81.60416666666667)"/><use xlink:href="#W" transform="matrix(1,0,0,1,-2250.4172300033715,4039.343524972326) translate(167.76020833333334 81.60416666666667)"/><path d="M-2149.77 4194.83v73.32" stroke="#3a414a" stroke-width="3" fill="none"/><path d="M-2150.92 4193.26l1.15.07 1.15-.07.32-.07v1.67h-2.95v-1.68z" stroke="#3a414a" stroke-width=".05" fill="#3a414a"/><path d="M-2149.77 4282.65l-7.5-13h15z" stroke="#3a414a" stroke-width="3" fill="#3a414a"/><path d="M-2229.77 4292.65a6 6 0 0 1 6-6h148a6 6 0 0 1 6 6v108a6 6 0 0 1-6 6h-148a6 6 0 0 1-6-6z" stroke="#000" stroke-width="2" fill="#fff"/><use xlink:href="#X" transform="matrix(1,0,0,1,-2224.770526516547,4291.64558050941) translate(29.60791015625 45.582617187500006)"/><use xlink:href="#Y" transform="matrix(1,0,0,1,-2224.770526516547,4291.64558050941) translate(-1.578125 83.3333984375)"/><path d="M-2139.66 4220.05a6 6 0 0 1 6-6h44.93a6 6 0 0 1 6 6v30.27a6 6 0 0 1-6 6h-44.93a6 6 0 0 1-6-6z" fill="none"/><use xlink:href="#R" transform="matrix(1,0,0,1,-2134.664614626078,4219.049258508663) translate(0 26.200520833333336)"/><path d="M-2149.77 4409.15v68.58" stroke="#3a414a" stroke-width="3" fill="none"/><path d="M-2148.3 4409.18h-2.95v-1.53h2.95z" stroke="#3a414a" stroke-width=".05" fill="#3a414a"/><path d="M-2149.77 4492.22l-7.5-13h15z" stroke="#3a414a" stroke-width="3" fill="#3a414a"/><path d="M-2154.28 4497.92a6.84 6.84 0 0 1 9.02 0l93.5 81.98a5.26 5.26 0 0 1 0 7.9l-93.5 81.98a6.84 6.84 0 0 1-9.02 0l-93.5-81.97a5.26 5.26 0 0 1 0-7.9z" stroke="#000" stroke-width="2" fill="#fff"/><use xlink:href="#Z" transform="matrix(1,0,0,1,-2247.2910176543223,4498.964519275804) translate(43.753046875 73)"/><use xlink:href="#aa" transform="matrix(1,0,0,1,-2247.2910176543223,4498.964519275804) translate(140.6817578125 73)"/><use xlink:href="#ab" transform="matrix(1,0,0,1,-2247.2910176543223,4498.964519275804) translate(37.32287109375 110.75078124999999)"/><path d="M-1911.97 4099.2a6 6 0 0 1 6-6h49.06a6 6 0 0 1 6 6v30.28a6 6 0 0 1-6 6h-49.07a6 6 0 0 1-6-6z" fill="none"/><use xlink:href="#Q" transform="matrix(1,0,0,1,-1906.9730253302919,4098.205712472326) translate(0 26.200520833333336)"/><path d="M-1925.2 4107.72v24.05M-1925.2 4107.75v-1.53" stroke="#3a414a" stroke-width="3" fill="none"/><path d="M-1925.2 4146.26l-7.5-13h15z" stroke="#3a414a" stroke-width="3" fill="#3a414a"/><path d="M-2254.94 4114.34h-36.55a24 24 0 0 0-24 24v292.88a24 24 0 0 0 24 24h119.22a22.5 22.5 0 0 1 22.5 22.5" stroke="#3a414a" stroke-width="3" fill="none"/><path d="M-2253.34 4113.33l-.1 1 .1 1.03.13.46h-1.78v-2.95h1.76z" stroke="#3a414a" stroke-width=".05" fill="#3a414a"/><path d="M-2149.77 4492.22l-7.5-13h15z" stroke="#3a414a" stroke-width="3" fill="#3a414a"/><path d="M-2315.5 4299.97v3.8M-2315.5 4300v-1.53" stroke="#3a414a" stroke-width="3" fill="none"/><path d="M-2315.5 4318.27l-7.5-13h15z" stroke="#3a414a" stroke-width="3" fill="#3a414a"/><path d="M-2149.77 4673.98v42.96" stroke="#3a414a" stroke-width="3" fill="none"/><path d="M-2150.9 4672.4l1.13.08 1.13-.08.34-.07v1.7h-2.95v-1.7z" stroke="#3a414a" stroke-width=".05" fill="#3a414a"/><path d="M-2149.77 4731.43l-7.5-13h15z" stroke="#3a414a" stroke-width="3" fill="#3a414a"/><path d="M-2229.77 4741.43a6 6 0 0 1 6-6h148a6 6 0 0 1 6 6v108a6 6 0 0 1-6 6h-148a6 6 0 0 1-6-6z" stroke="#000" stroke-width="2" fill="#fff"/><use xlink:href="#v" transform="matrix(1,0,0,1,-2224.770526516547,4740.4341298886475) translate(0.5166015625 63)"/><use xlink:href="#ac" transform="matrix(1,0,0,1,-2224.770526516547,4740.4341298886475) translate(37.6884765625 63)"/><path d="M-2149.77 4857.93v40.7" stroke="#3a414a" stroke-width="3" fill="none"/><path d="M-2148.3 4857.97h-2.95v-1.54h2.95z" stroke="#3a414a" stroke-width=".05" fill="#3a414a"/><path d="M-2149.77 4913.13l-7.5-13h15z" stroke="#3a414a" stroke-width="3" fill="#3a414a"/><path d="M-2047.46 4583.85h75.46a24 24 0 0 1 24 24v804.94a24 24 0 0 1-24 24h-79.28" stroke="#3a414a" stroke-width="3" fill="none"/><path d="M-2047.43 4585.33h-1.73l.1-.42.1-1.05-.1-1.06-.1-.42h1.73z" stroke="#3a414a" stroke-width=".05" fill="#3a414a"/><path d="M-2065.77 5436.8l13-7.5v15z" stroke="#3a414a" stroke-width="3" fill="#3a414a"/><path d="M-2229.77 4923.13a6 6 0 0 1 6-6h148a6 6 0 0 1 6 6v108a6 6 0 0 1-6 6h-148a6 6 0 0 1-6-6z" stroke="#000" stroke-width="2" fill="#fff"/><g><use xlink:href="#ad" transform="matrix(1,0,0,1,-2224.770526516547,4922.129650721981) translate(26.26904296875 45.8125)"/><use xlink:href="#ae" transform="matrix(1,0,0,1,-2224.770526516547,4922.129650721981) translate(45.24853515625 83.56328124999999)"/></g><path d="M-2149.77 5039.63v20.64" stroke="#3a414a" stroke-width="3" fill="none"/><path d="M-2148.3 5039.67h-2.95v-1.54h2.95z" stroke="#3a414a" stroke-width=".05" fill="#3a414a"/><path d="M-2149.77 5074.76l-7.5-13h15z" stroke="#3a414a" stroke-width="3" fill="#3a414a"/><path d="M-2111.88 4699.16a6 6 0 0 1 6-6h44.94a6 6 0 0 1 6 6v30.27a6 6 0 0 1-6 6h-44.94a6 6 0 0 1-6-6z" fill="none"/><g><use xlink:href="#R" transform="matrix(1,0,0,1,-2106.877042515248,4698.158504888647) translate(0 26.200520833333336)"/></g><path d="M-2229.77 5084.76a6 6 0 0 1 6-6h148a6 6 0 0 1 6 6v218.2a6 6 0 0 1-6 6h-148a6 6 0 0 1-6-6z" stroke="#000" stroke-width="2" fill="#fff"/><g><use xlink:href="#H" transform="matrix(1,0,0,1,-2224.770526516547,5083.7607370449205) translate(15.03369140625 32.09375)"/><use xlink:href="#af" transform="matrix(1,0,0,1,-2224.770526516547,5083.7607370449205) translate(119.80810546875 32.09375)"/><use xlink:href="#ag" transform="matrix(1,0,0,1,-2224.770526516547,5083.7607370449205) translate(6.978515625 69.84453124999999)"/><use xlink:href="#ah" transform="matrix(1,0,0,1,-2224.770526516547,5083.7607370449205) translate(113.7080078125 69.84453124999999)"/><use xlink:href="#ai" transform="matrix(1,0,0,1,-2224.770526516547,5083.7607370449205) translate(17.99169921875 107.59531249999999)"/><use xlink:href="#aj" transform="matrix(1,0,0,1,-2224.770526516547,5083.7607370449205) translate(101.05712890625 107.59531249999999)"/><use xlink:href="#ak" transform="matrix(1,0,0,1,-2224.770526516547,5083.7607370449205) translate(49.1396484375 145.34609375)"/><use xlink:href="#al" transform="matrix(1,0,0,1,-2224.770526516547,5083.7607370449205) translate(27.84326171875 183.09687499999998)"/><use xlink:href="#am" transform="matrix(1,0,0,1,-2224.770526516547,5083.7607370449205) translate(105.75439453125 183.09687499999998)"/><use xlink:href="#G" transform="matrix(1,0,0,1,-2224.770526516547,5083.7607370449205) translate(75 220.84765624999997)"/></g><path d="M-2149.77 5311.47v46.83" stroke="#3a414a" stroke-width="3" fill="none"/><path d="M-2148.3 5311.5h-2.95v-1.53h2.95z" stroke="#3a414a" stroke-width=".05" fill="#3a414a"/><path d="M-2149.77 5372.8l-7.5-13h15z" stroke="#3a414a" stroke-width="3" fill="#3a414a"/><path d="M-2229.77 5382.8a6 6 0 0 1 6-6h148a6 6 0 0 1 6 6v108a6 6 0 0 1-6 6h-148a6 6 0 0 1-6-6z" stroke="#000" stroke-width="2" fill="#fff"/><g><use xlink:href="#an" transform="matrix(1,0,0,1,-2224.770526516547,5381.790901150246) translate(22.70166015625 45.8125)"/><use xlink:href="#ao" transform="matrix(1,0,0,1,-2224.770526516547,5381.790901150246) translate(96.22021484375 45.8125)"/><use xlink:href="#ap" transform="matrix(1,0,0,1,-2224.770526516547,5381.790901150246) translate(40.646484375 83.56328124999999)"/></g><path d="M-2232.27 5436.8h-212.48a24 24 0 0 1-24-24V1972.46a24 24 0 0 1 24-24h272.47a22.5 22.5 0 0 1 22.5 22.5" stroke="#3a414a" stroke-width="3" fill="none"/><path d="M-2230.77 5438.27h-1.54v-2.95h1.53z" stroke="#3a414a" stroke-width=".05" fill="#3a414a"/><path d="M-2149.77 1985.47l-7.5-13h15z" stroke="#3a414a" stroke-width="3" fill="#3a414a"/><path d="M-1914.17 4967.15a6 6 0 0 1 6-6h49.06a6 6 0 0 1 6 6v30.28a6 6 0 0 1-6 6h-49.07a6 6 0 0 1-6-6z" fill="none"/><g><use xlink:href="#Q" transform="matrix(1,0,0,1,-1909.1726949195954,4966.151419985362) translate(0 26.200520833333336)"/></g><path d="M-1948 4977.9v20.73M-1948 4977.92v-1.53" stroke="#3a414a" stroke-width="3" fill="none"/><path d="M-1948 5013.12l-7.5-13h15z" stroke="#3a414a" stroke-width="3" fill="#3a414a"/><path d="M-2392.6 4292.65a6 6 0 0 1 6-6h49.06a6 6 0 0 1 6 6v30.27a6 6 0 0 1-6 6h-49.07a6 6 0 0 1-6-6z" fill="none"/><g><use xlink:href="#Q" transform="matrix(1,0,0,1,-2387.6049822625923,4291.64558050941) translate(0 26.200520833333336)"/></g><path d="M-2469.6 5132.9l.77-173.5M-2469.6 5132.86v1.54" stroke="#3a414a" stroke-width="3" fill="none"/><path d="M-2468.76 4944.9l7.44 13.04-15-.07z" stroke="#3a414a" stroke-width="3" fill="#3a414a"/><path d="M-2468.75 4697.04v-57.62M-2468.75 4697v1.54" stroke="#3a414a" stroke-width="3" fill="none"/><path d="M-2468.75 4624.93l7.5 13h-15z" stroke="#3a414a" stroke-width="3" fill="#3a414a"/><path d="M-2468.75 4048.3v-57.63M-2468.75 4048.25v1.54" stroke="#3a414a" stroke-width="3" fill="none"/><path d="M-2468.75 3976.18l7.5 13h-15z" stroke="#3a414a" stroke-width="3" fill="#3a414a"/><path d="M-2468.75 3036.3v-57.6M-2468.75 3036.28v1.53" stroke="#3a414a" stroke-width="3" fill="none"/><path d="M-2468.75 2964.2l7.5 13h-15z" stroke="#3a414a" stroke-width="3" fill="#3a414a"/><path d="M-2468.75 2265.22v-57.63M-2468.75 2265.18v1.54" stroke="#3a414a" stroke-width="3" fill="none"/><path d="M-2468.75 2193.1l7.5 13h-15z" stroke="#3a414a" stroke-width="3" fill="#3a414a"/><defs><path d="M158 0v-1118h175l1 205c55-151 181-225 313-225 147 0 245 90 285 228 53-141 190-228 352-228 194 0 352 125 352 384V0h-181v-749c0-161-105-225-225-225-151 0-243 103-243 244V0H807v-767c0-124-93-207-219-207-131 0-250 92-250 270V0H158" id="aq"/><path d="M471 26C259 26 90-98 90-318c0-256 228-303 435-329 202-27 287-16 287-108 0-139-79-219-234-219-161 0-248 86-283 164l-173-57c86-203 278-265 451-265 150 0 419 46 419 395V0H815v-152h-12C765-73 660 26 471 26zm31-159c199 0 310-134 310-271v-155c-30 35-226 55-295 64-131 17-246 59-246 186 0 116 97 176 231 176" id="ar"/><path d="M158 0v-1118h180V0H158zm91-1301c-68 0-125-53-125-119s57-119 125-119c69 0 126 53 126 119s-57 119-126 119" id="as"/><path d="M338-670V0H158v-1118h173l1 207c72-158 192-221 342-221 226 0 378 139 378 422V0H872v-695c0-172-96-275-252-275-161 0-282 109-282 300" id="at"/><g id="a"><use transform="matrix(0.010416666666666668,0,0,0.010416666666666668,0,0)" xlink:href="#aq"/><use transform="matrix(0.010416666666666668,0,0,0.010416666666666668,18.687500000000004,0)" xlink:href="#ar"/><use transform="matrix(0.010416666666666668,0,0,0.010416666666666668,30.66666666666667,0)" xlink:href="#as"/><use transform="matrix(0.010416666666666668,0,0,0.010416666666666668,35.833333333333336,0)" xlink:href="#at"/></g><path d="M645 0H180v-1490h484c435 0 692 280 692 742 0 466-257 748-711 748zM370-168h263c363 0 539-218 539-580 0-358-176-574-521-574H370v1154" id="au"/><path d="M628 24c-324 0-524-230-524-574 0-343 198-582 503-582 237 0 487 146 487 559v75H286c9 234 145 362 343 362 132 0 231-58 273-172l174 48C1024-91 857 24 628 24zM287-650h624c-17-190-120-322-304-322-192 0-309 151-320 322" id="av"/><path d="M678-1118v154H420V0H240v-964H20v-154h220v-149c0-194 155-293 318-293 85 0 141 18 168 30l-50 154c-19-6-47-17-97-17-111 0-159 58-159 166v109h258" id="aw"/><g id="b"><use transform="matrix(0.0126953125,0,0,0.0126953125,0,0)" xlink:href="#au"/><use transform="matrix(0.0126953125,0,0,0.0126953125,18.763671875,0)" xlink:href="#av"/><use transform="matrix(0.0126953125,0,0,0.0126953125,33.921875,0)" xlink:href="#aw"/><use transform="matrix(0.0126953125,0,0,0.0126953125,43.544921875,0)" xlink:href="#as"/><use transform="matrix(0.0126953125,0,0,0.0126953125,49.841796875,0)" xlink:href="#at"/><use transform="matrix(0.0126953125,0,0,0.0126953125,65.203125,0)" xlink:href="#av"/></g><path d="M158 418v-1536h174v179h20c37-59 106-193 324-193 279 0 474 222 474 576 0 356-194 580-473 580-213 0-288-135-325-197h-14v591H158zm492-555c209 0 317-186 317-421 0-232-105-413-317-413-206 0-314 166-314 413 0 249 111 421 314 421" id="ax"/><path d="M613 24c-304 0-509-231-509-576 0-350 205-580 509-580 305 0 511 230 511 580 0 345-206 576-511 576zm0-161c226 0 329-195 329-415 0-222-103-419-329-419-223 0-326 196-326 419 0 220 103 415 326 415" id="ay"/><path d="M538 24C308 24 148-78 108-271l171-41c32 123 123 178 257 178 156 0 256-77 256-169 0-77-54-128-164-154l-186-44c-203-48-300-148-300-305 0-192 176-326 414-326 230 0 351 112 402 269l-163 42c-31-80-94-158-238-158-133 0-233 69-233 162 0 83 57 129 188 160l169 40c203 48 298 149 298 302 0 196-179 339-441 339" id="az"/><g id="c"><use transform="matrix(0.0126953125,0,0,0.0126953125,0,0)" xlink:href="#ax"/><use transform="matrix(0.0126953125,0,0,0.0126953125,15.919921875,0)" xlink:href="#as"/><use transform="matrix(0.0126953125,0,0,0.0126953125,22.216796875,0)" xlink:href="#at"/><use transform="matrix(0.0126953125,0,0,0.0126953125,37.578125,0)" xlink:href="#ay"/><use transform="matrix(0.0126953125,0,0,0.0126953125,53.16796875,0)" xlink:href="#az"/></g><path d="M180 0v-1490h510c348 0 508 194 508 460 0 198-88 351-276 417L1256 0h-220L726-579c-117 2-238 0-356 1V0H180zm190-747h312c235 0 327-108 327-283 0-177-92-293-329-293H370v576" id="aA"/><g id="d"><use transform="matrix(0.0126953125,0,0,0.0126953125,0,0)" xlink:href="#au"/><use transform="matrix(0.0126953125,0,0,0.0126953125,18.763671875,0)" xlink:href="#au"/><use transform="matrix(0.0126953125,0,0,0.0126953125,37.52734375,0)" xlink:href="#aA"/></g><path d="M783 20c-382 0-661-292-661-764 0-473 279-766 661-766 302 0 548 182 601 489h-190c-42-204-217-313-411-313-268 0-476 208-476 590 0 381 209 588 476 588 195 0 369-110 411-313h190c-52 303-296 489-601 489" id="aB"/><path d="M611 442c-248 0-391-105-460-228l146-94c47 65 117 165 314 165 178 0 307-82 307-266v-224h-17C863-141 792-18 576-18c-268 0-472-195-472-546 0-346 197-568 476-568 216 0 288 133 326 193h17v-179h175V29c0 289-215 413-487 413zm-5-620c203 0 314-146 314-390 0-237-108-403-314-403-213 0-319 180-319 403 0 230 109 390 319 390" id="aC"/><path d="M537 14c-226 0-379-139-379-422v-710h180v695c0 172 97 275 253 275 160 0 281-109 281-300v-670h181V0H879v-209C806-46 684 14 537 14" id="aD"/><path d="M158 0v-1118h174v172h12c41-113 157-188 290-188 26 0 70 2 91 3v181c-11-2-60-10-108-10-161 0-279 109-279 260V0H158" id="aE"/><g id="e"><use transform="matrix(0.0126953125,0,0,0.0126953125,0,0)" xlink:href="#aB"/><use transform="matrix(0.0126953125,0,0,0.0126953125,18.9921875,0)" xlink:href="#ay"/><use transform="matrix(0.0126953125,0,0,0.0126953125,34.58203125,0)" xlink:href="#at"/><use transform="matrix(0.0126953125,0,0,0.0126953125,49.943359375,0)" xlink:href="#aw"/><use transform="matrix(0.0126953125,0,0,0.0126953125,59.56640625,0)" xlink:href="#as"/><use transform="matrix(0.0126953125,0,0,0.0126953125,65.86328125,0)" xlink:href="#aC"/><use transform="matrix(0.0126953125,0,0,0.0126953125,81.80859375,0)" xlink:href="#aD"/><use transform="matrix(0.0126953125,0,0,0.0126953125,97.1826171875,0)" xlink:href="#aE"/><use transform="matrix(0.0126953125,0,0,0.0126953125,106.970703125,0)" xlink:href="#ar"/></g><path d="M98-1322v-168h1126v168H757V0H567v-1322H98" id="aF"/><path d="M646 20c-332 0-524-278-524-764 0-483 194-766 524-766s524 283 524 766c0 485-191 764-524 764zm0-166c218 0 341-220 341-598 0-380-123-601-341-601s-341 222-341 601c0 378 123 598 341 598" id="aG"/><g id="f"><use transform="matrix(0.0126953125,0,0,0.0126953125,0,0)" xlink:href="#aF"/><use transform="matrix(0.0126953125,0,0,0.0126953125,16.783203125,0)" xlink:href="#as"/><use transform="matrix(0.0126953125,0,0,0.0126953125,23.080078125,0)" xlink:href="#aq"/><use transform="matrix(0.0126953125,0,0,0.0126953125,45.85546875,0)" xlink:href="#av"/><use transform="matrix(0.0126953125,0,0,0.0126953125,61.013671875,0)" xlink:href="#aE"/><use transform="matrix(0.0126953125,0,0,0.0126953125,70.8017578125,0)" xlink:href="#aG"/></g><path d="M218-607c0-325 108-727 258-974h175c-155 315-250 682-250 974 0 265 78 531 250 886H476C306-10 218-315 218-607" id="aH"/><path d="M180 0v-1490h190v1322h690V0H180" id="aI"/><path d="M577 24c-279 0-473-224-473-580 0-354 195-576 474-576 218 0 287 134 324 193h14v-551h180V0H922v-173h-20C865-111 790 24 577 24zm27-161c203 0 314-172 314-421 0-247-108-413-314-413-212 0-317 181-317 413 0 235 108 421 317 421" id="aJ"/><g id="g"><use transform="matrix(0.0126953125,0,0,0.0126953125,0,0)" xlink:href="#aH"/><use transform="matrix(0.0126953125,0,0,0.0126953125,9.4833984375,0)" xlink:href="#aI"/><use transform="matrix(0.0126953125,0,0,0.0126953125,24.1845703125,0)" xlink:href="#av"/><use transform="matrix(0.0126953125,0,0,0.0126953125,39.3427734375,0)" xlink:href="#aJ"/></g><use transform="matrix(0.0126953125,0,0,0.0126953125,0,0)" xlink:href="#ar" id="h"/><path d="M613 24c-304 0-509-231-509-576 0-350 205-580 509-580 216 0 392 114 453 309l-173 49c-33-115-133-197-280-197-223 0-326 196-326 419 0 220 103 415 326 415 150 0 252-85 285-206l172 49C1010-95 832 24 613 24" id="aK"/><g id="i"><use transform="matrix(0.0126953125,0,0,0.0126953125,0,0)" xlink:href="#ax"/><use transform="matrix(0.0126953125,0,0,0.0126953125,15.919921875,0)" xlink:href="#as"/><use transform="matrix(0.0126953125,0,0,0.0126953125,22.216796875,0)" xlink:href="#az"/><use transform="matrix(0.0126953125,0,0,0.0126953125,35.9404296875,0)" xlink:href="#aK"/><use transform="matrix(0.0126953125,0,0,0.0126953125,51.0478515625,0)" xlink:href="#ar"/><use transform="matrix(0.0126953125,0,0,0.0126953125,65.6474609375,0)" xlink:href="#aE"/></g><path d="M96 279C273-86 346-350 346-607c0-292-95-659-250-974h175c150 246 258 650 258 974 0 297-91 602-258 886H96" id="aL"/><use transform="matrix(0.0126953125,0,0,0.0126953125,0,0)" xlink:href="#aL" id="j"/><use transform="matrix(0.0126953125,0,0,0.0126953125,0,0)" xlink:href="#av" id="l"/><g id="m"><use transform="matrix(0.0126953125,0,0,0.0126953125,0,0)" xlink:href="#aK"/><use transform="matrix(0.0126953125,0,0,0.0126953125,14.853515625,0)" xlink:href="#ay"/><use transform="matrix(0.0126953125,0,0,0.0126953125,30.443359375,0)" xlink:href="#at"/><use transform="matrix(0.0126953125,0,0,0.0126953125,45.8046875,0)" xlink:href="#aw"/><use transform="matrix(0.0126953125,0,0,0.0126953125,55.427734375,0)" xlink:href="#as"/><use transform="matrix(0.0126953125,0,0,0.0126953125,61.724609375,0)" xlink:href="#aC"/><use transform="matrix(0.0126953125,0,0,0.0126953125,77.669921875,0)" xlink:href="#aD"/><use transform="matrix(0.0126953125,0,0,0.0126953125,93.0439453125,0)" xlink:href="#aE"/><use transform="matrix(0.0126953125,0,0,0.0126953125,102.83203125,0)" xlink:href="#ar"/></g><path d="M653-1490V0H466v-1314h-10L96-1047v-204l324-239h233" id="aM"/><g id="n"><use transform="matrix(0.0126953125,0,0,0.0126953125,0,0)" xlink:href="#aF"/><use transform="matrix(0.0126953125,0,0,0.0126953125,16.783203125,0)" xlink:href="#as"/><use transform="matrix(0.0126953125,0,0,0.0126953125,23.080078125,0)" xlink:href="#aq"/><use transform="matrix(0.0126953125,0,0,0.0126953125,45.85546875,0)" xlink:href="#av"/><use transform="matrix(0.0126953125,0,0,0.0126953125,61.013671875,0)" xlink:href="#aE"/><use transform="matrix(0.0126953125,0,0,0.0126953125,70.8017578125,0)" xlink:href="#aM"/></g><path d="M481 0L54-1118h197c107 314 236 620 325 951 87-331 217-637 324-951h197L670 0H481" id="aN"/><g id="o"><use transform="matrix(0.0126953125,0,0,0.0126953125,0,0)" xlink:href="#aH"/><use transform="matrix(0.0126953125,0,0,0.0126953125,9.4833984375,0)" xlink:href="#az"/><use transform="matrix(0.0126953125,0,0,0.0126953125,23.20703125,0)" xlink:href="#av"/><use transform="matrix(0.0126953125,0,0,0.0126953125,38.365234375,0)" xlink:href="#aE"/><use transform="matrix(0.0126953125,0,0,0.0126953125,48.5595703125,0)" xlink:href="#aN"/><use transform="matrix(0.0126953125,0,0,0.0126953125,62.6640625,0)" xlink:href="#ay"/><use transform="matrix(0.0126953125,0,0,0.0126953125,77.9619140625,0)" xlink:href="#aL"/></g><path d="M370-1490V0H180v-1490h190" id="aO"/><path d="M338-1490V0H158v-1490h180" id="aP"/><path d="M126 0v-134l627-806v-11H146v-167h839v143L376-178v11h629V0H126" id="aQ"/><g id="p"><use transform="matrix(0.0126953125,0,0,0.0126953125,0,0)" xlink:href="#aO"/><use transform="matrix(0.0126953125,0,0,0.0126953125,6.982421875,0)" xlink:href="#at"/><use transform="matrix(0.0126953125,0,0,0.0126953125,22.34375,0)" xlink:href="#as"/><use transform="matrix(0.0126953125,0,0,0.0126953125,28.640625,0)" xlink:href="#aK"/><use transform="matrix(0.0126953125,0,0,0.0126953125,43.494140625,0)" xlink:href="#as"/><use transform="matrix(0.0126953125,0,0,0.0126953125,49.791015625,0)" xlink:href="#ar"/><use transform="matrix(0.0126953125,0,0,0.0126953125,64.390625,0)" xlink:href="#aP"/><use transform="matrix(0.0126953125,0,0,0.0126953125,70.6875,0)" xlink:href="#as"/><use transform="matrix(0.0126953125,0,0,0.0126953125,76.984375,0)" xlink:href="#aQ"/><use transform="matrix(0.0126953125,0,0,0.0126953125,91.3427734375,0)" xlink:href="#ar"/></g><use transform="matrix(0.0126953125,0,0,0.0126953125,0,0)" xlink:href="#ay" id="q"/><path d="M598-1118v154H368v674c0 100 37 144 132 144 23 0 62-6 92-12L629-6c-37 13-88 20-134 20-193 0-307-107-307-290v-688H20v-154h168v-266h180v266h230" id="aR"/><g id="r"><use transform="matrix(0.0126953125,0,0,0.0126953125,0,0)" xlink:href="#az"/><use transform="matrix(0.0126953125,0,0,0.0126953125,13.7236328125,0)" xlink:href="#as"/><use transform="matrix(0.0126953125,0,0,0.0126953125,20.0205078125,0)" xlink:href="#az"/><use transform="matrix(0.0126953125,0,0,0.0126953125,33.744140625,0)" xlink:href="#aR"/><use transform="matrix(0.0126953125,0,0,0.0126953125,41.99609375,0)" xlink:href="#av"/><use transform="matrix(0.0126953125,0,0,0.0126953125,57.154296875,0)" xlink:href="#aq"/><use transform="matrix(0.0126953125,0,0,0.0126953125,79.9296875,0)" xlink:href="#ar"/></g><path d="M154 0v-137l495-537c165-179 249-281 249-418 0-156-121-253-280-253-170 0-278 110-278 278H158c0-264 200-443 465-443 266 0 455 183 455 416 0 161-73 288-336 568L416-179v12h687V0H154" id="aS"/><path d="M128 359l88-567h206L266 359H128" id="aT"/><g id="s"><use transform="matrix(0.0126953125,0,0,0.0126953125,0,0)" xlink:href="#aH"/><use transform="matrix(0.0126953125,0,0,0.0126953125,9.4833984375,0)" xlink:href="#aO"/><use transform="matrix(0.0126953125,0,0,0.0126953125,16.4658203125,0)" xlink:href="#aS"/><use transform="matrix(0.0126953125,0,0,0.0126953125,32.322265625,0)" xlink:href="#aB"/><use transform="matrix(0.0126953125,0,0,0.0126953125,51.314453125,0)" xlink:href="#aT"/></g><g id="t"><use transform="matrix(0.0126953125,0,0,0.0126953125,0,0)" xlink:href="#as"/><use transform="matrix(0.0126953125,0,0,0.0126953125,6.296875,0)" xlink:href="#at"/><use transform="matrix(0.0126953125,0,0,0.0126953125,21.658203125,0)" xlink:href="#aR"/><use transform="matrix(0.0126953125,0,0,0.0126953125,30.1640625,0)" xlink:href="#aT"/></g><g id="u"><use transform="matrix(0.0126953125,0,0,0.0126953125,0,0)" xlink:href="#aP"/><use transform="matrix(0.0126953125,0,0,0.0126953125,6.296875,0)" xlink:href="#aK"/><use transform="matrix(0.0126953125,0,0,0.0126953125,21.150390625,0)" xlink:href="#aJ"/><use transform="matrix(0.0126953125,0,0,0.0126953125,37.0703125,0)" xlink:href="#aL"/></g><path d="M628 24c-324 0-524-230-524-574 0-343 198-582 503-582 237 0 487 146 487 559v75H286c9 234 145 362 343 362 132 0 231-58 273-172l174 48C1024-91 857 24 628 24zM287-650h624c-17-190-120-322-304-322-192 0-309 151-320 322zm172-632H282v-9l235-267h171l236 267v9H745l-142-175" id="aU"/><g id="v"><use transform="matrix(0.0126953125,0,0,0.0126953125,0,0)" xlink:href="#aI"/><use transform="matrix(0.0126953125,0,0,0.0126953125,14.701171875,0)" xlink:href="#aU"/></g><g id="w"><use transform="matrix(0.0126953125,0,0,0.0126953125,0,0)" xlink:href="#az"/><use transform="matrix(0.0126953125,0,0,0.0126953125,13.7236328125,0)" xlink:href="#av"/><use transform="matrix(0.0126953125,0,0,0.0126953125,28.8818359375,0)" xlink:href="#at"/><use transform="matrix(0.0126953125,0,0,0.0126953125,44.2431640625,0)" xlink:href="#az"/><use transform="matrix(0.0126953125,0,0,0.0126953125,57.966796875,0)" xlink:href="#ay"/><use transform="matrix(0.0126953125,0,0,0.0126953125,73.556640625,0)" xlink:href="#aE"/></g><g id="x"><use transform="matrix(0.0126953125,0,0,0.0126953125,0,0)" xlink:href="#aJ"/><use transform="matrix(0.0126953125,0,0,0.0126953125,15.919921875,0)" xlink:href="#av"/></g><path d="M338-670V0H158v-1490h180v566c73-149 190-208 336-208 226 0 379 139 379 422V0H872v-695c0-172-96-275-252-275-161 0-282 109-282 300" id="aV"/><g id="y"><use transform="matrix(0.0126953125,0,0,0.0126953125,0,0)" xlink:href="#aK"/><use transform="matrix(0.0126953125,0,0,0.0126953125,14.853515625,0)" xlink:href="#aV"/><use transform="matrix(0.0126953125,0,0,0.0126953125,30.2275390625,0)" xlink:href="#aD"/><use transform="matrix(0.0126953125,0,0,0.0126953125,45.6015625,0)" xlink:href="#aN"/><use transform="matrix(0.0126953125,0,0,0.0126953125,60.0869140625,0)" xlink:href="#ar"/></g><path d="M600 0L52-1490h200c166 485 304 806 458 1336 156-533 285-846 449-1336h202L819 0H600" id="aW"/><g id="z"><use transform="matrix(0.0126953125,0,0,0.0126953125,0,0)" xlink:href="#aW"/><use transform="matrix(0.0126953125,0,0,0.0126953125,16.6181640625,0)" xlink:href="#av"/><use transform="matrix(0.0126953125,0,0,0.0126953125,31.7763671875,0)" xlink:href="#aE"/><use transform="matrix(0.0126953125,0,0,0.0126953125,41.970703125,0)" xlink:href="#as"/><use transform="matrix(0.0126953125,0,0,0.0126953125,48.267578125,0)" xlink:href="#aw"/><use transform="matrix(0.0126953125,0,0,0.0126953125,57.890625,0)" xlink:href="#as"/><use transform="matrix(0.0126953125,0,0,0.0126953125,64.1875,0)" xlink:href="#aK"/><use transform="matrix(0.0126953125,0,0,0.0126953125,79.294921875,0)" xlink:href="#ar"/></g><g id="A"><use transform="matrix(0.0126953125,0,0,0.0126953125,0,0)" xlink:href="#az"/><use transform="matrix(0.0126953125,0,0,0.0126953125,13.7236328125,0)" xlink:href="#av"/></g><g id="B"><use transform="matrix(0.0126953125,0,0,0.0126953125,0,0)" xlink:href="#av"/><use transform="matrix(0.0126953125,0,0,0.0126953125,15.158203125,0)" xlink:href="#az"/><use transform="matrix(0.0126953125,0,0,0.0126953125,28.8818359375,0)" xlink:href="#aR"/><use transform="matrix(0.0126953125,0,0,0.0126953125,37.5146484375,0)" xlink:href="#ar"/><use transform="matrix(0.0126953125,0,0,0.0126953125,52.1142578125,0)" xlink:href="#aJ"/><use transform="matrix(0.0126953125,0,0,0.0126953125,68.0341796875,0)" xlink:href="#ay"/></g><g id="C"><use transform="matrix(0.0126953125,0,0,0.0126953125,0,0)" xlink:href="#aq"/><use transform="matrix(0.0126953125,0,0,0.0126953125,22.775390625,0)" xlink:href="#aD"/><use transform="matrix(0.0126953125,0,0,0.0126953125,38.1494140625,0)" xlink:href="#aJ"/><use transform="matrix(0.0126953125,0,0,0.0126953125,54.0693359375,0)" xlink:href="#ay"/><use transform="matrix(0.0126953125,0,0,0.0126953125,69.6591796875,0)" xlink:href="#aD"/></g><path d="M934 0v166H0V0h934" id="aX"/><path d="M409 0L70-1118h191c89 329 165 560 243 925 75-353 154-601 240-925h192c85 325 161 564 235 922 77-354 157-598 244-922h191L1267 0h-179c-86-307-176-590-250-913C763-588 675-308 588 0H409" id="aY"/><g id="D"><use transform="matrix(0.0126953125,0,0,0.0126953125,0,0)" xlink:href="#aE"/><use transform="matrix(0.0126953125,0,0,0.0126953125,9.7880859375,0)" xlink:href="#ar"/><use transform="matrix(0.0126953125,0,0,0.0126953125,24.3876953125,0)" xlink:href="#as"/><use transform="matrix(0.0126953125,0,0,0.0126953125,30.6845703125,0)" xlink:href="#at"/><use transform="matrix(0.0126953125,0,0,0.0126953125,46.0458984375,0)" xlink:href="#aX"/><use transform="matrix(0.0126953125,0,0,0.0126953125,58.779296875,0)" xlink:href="#at"/><use transform="matrix(0.0126953125,0,0,0.0126953125,74.140625,0)" xlink:href="#ay"/><use transform="matrix(0.0126953125,0,0,0.0126953125,89.2607421875,0)" xlink:href="#aY"/></g><path d="M204-479l-12-1011h204L383-479H204zm91 492c-75 0-135-60-135-134 0-75 60-135 135-135 74 0 134 60 134 135 0 74-60 134-134 134" id="aZ"/><path d="M226-283v-166h904v166H226zm0-434v-166h904v166H226" id="ba"/><g id="E"><use transform="matrix(0.0126953125,0,0,0.0126953125,0,0)" xlink:href="#aZ"/><use transform="matrix(0.0126953125,0,0,0.0126953125,7.4775390625,0)" xlink:href="#ba"/></g><path d="M383-449c-3-277 82-343 222-425 88-53 156-134 156-250 0-139-108-227-243-227-118 0-235 70-246 236H82c10-251 200-395 436-395 259 0 427 165 427 393 0 161-74 273-203 352-132 80-180 132-178 316H383zm93 462c-75 0-135-60-135-134 0-75 60-135 135-135 74 0 134 60 134 135 0 74-60 134-134 134" id="bb"/><g id="F"><use transform="matrix(0.0126953125,0,0,0.0126953125,0,0)" xlink:href="#aE"/><use transform="matrix(0.0126953125,0,0,0.0126953125,9.7880859375,0)" xlink:href="#ar"/><use transform="matrix(0.0126953125,0,0,0.0126953125,24.3876953125,0)" xlink:href="#as"/><use transform="matrix(0.0126953125,0,0,0.0126953125,30.6845703125,0)" xlink:href="#at"/><use transform="matrix(0.0126953125,0,0,0.0126953125,46.0458984375,0)" xlink:href="#bb"/></g><path d="M52 0l541-1490h220L1361 0h-200l-149-416H398L254 0H52zm404-582h497c-103-290-145-390-251-756-108 377-145 460-246 756" id="bc"/><g id="H"><use transform="matrix(0.0126953125,0,0,0.0126953125,0,0)" xlink:href="#bc"/><use transform="matrix(0.0126953125,0,0,0.0126953125,17.4306640625,0)" xlink:href="#aR"/><use transform="matrix(0.0126953125,0,0,0.0126953125,25.9365234375,0)" xlink:href="#aD"/><use transform="matrix(0.0126953125,0,0,0.0126953125,41.310546875,0)" xlink:href="#ar"/><use transform="matrix(0.0126953125,0,0,0.0126953125,55.91015625,0)" xlink:href="#aP"/><use transform="matrix(0.0126953125,0,0,0.0126953125,62.20703125,0)" xlink:href="#as"/><use transform="matrix(0.0126953125,0,0,0.0126953125,68.50390625,0)" xlink:href="#aQ"/><use transform="matrix(0.0126953125,0,0,0.0126953125,82.8623046875,0)" xlink:href="#ar"/></g><use transform="matrix(0.0126953125,0,0,0.0126953125,0,0)" xlink:href="#ay" id="I"/><path d="M657 26c-323 0-524-166-541-416h195c15 169 171 246 346 246 202 0 356-106 356-265 5-203-294-238-475-293-239-73-380-191-380-389 0-252 224-419 512-419 294 0 499 171 508 396H992c-17-145-151-228-328-228-193 0-321 102-321 242 0 156 175 211 284 241l149 41c160 44 422 134 422 412 0 244-197 432-541 432" id="bd"/><g id="J"><use transform="matrix(0.0126953125,0,0,0.0126953125,0,0)" xlink:href="#bd"/><use transform="matrix(0.0126953125,0,0,0.0126953125,16.681640625,0)" xlink:href="#av"/><use transform="matrix(0.0126953125,0,0,0.0126953125,31.83984375,0)" xlink:href="#aE"/><use transform="matrix(0.0126953125,0,0,0.0126953125,42.0341796875,0)" xlink:href="#aN"/><use transform="matrix(0.0126953125,0,0,0.0126953125,56.138671875,0)" xlink:href="#ay"/></g><g id="K"><use transform="matrix(0.0126953125,0,0,0.0126953125,0,0)" xlink:href="#aI"/><use transform="matrix(0.0126953125,0,0,0.0126953125,14.701171875,0)" xlink:href="#as"/><use transform="matrix(0.0126953125,0,0,0.0126953125,20.998046875,0)" xlink:href="#aC"/><use transform="matrix(0.0126953125,0,0,0.0126953125,36.943359375,0)" xlink:href="#ar"/></g><path d="M180 0v-1490h510c348 0 508 209 508 474 0 266-160 477-507 477H370V0H180zm190-706h312c236 0 327-133 327-310 0-176-91-307-329-307H370v617" id="be"/><path d="M458 0L52-1490h194c108 439 233 855 324 1313 92-459 221-873 331-1313h216c110 438 234 854 330 1307 92-455 216-869 323-1307h196L1558 0h-221l-256-944c-26-95-50-200-73-331-22 122-44 223-73 331L680 0H458" id="bf"/><path d="M180 0v-1490h270l367 940c28 72 75 218 110 339 35-117 81-264 110-339l362-940h271V0h-187c2-448-5-837 7-1287-157 497-311 829-483 1287H842C666-458 514-784 354-1284c12 438 5 843 7 1284H180" id="bg"/><g id="L"><use transform="matrix(0.0126953125,0,0,0.0126953125,0,0)" xlink:href="#be"/><use transform="matrix(0.0126953125,0,0,0.0126953125,16.60546875,0)" xlink:href="#bf"/><use transform="matrix(0.0126953125,0,0,0.0126953125,42.224609375,0)" xlink:href="#bg"/></g><g id="M"><use transform="matrix(0.0126953125,0,0,0.0126953125,0,0)" xlink:href="#bg"/><use transform="matrix(0.0126953125,0,0,0.0126953125,23.486328125,0)" xlink:href="#ay"/><use transform="matrix(0.0126953125,0,0,0.0126953125,38.568359375,0)" xlink:href="#aN"/><use transform="matrix(0.0126953125,0,0,0.0126953125,52.6728515625,0)" xlink:href="#av"/></g><path d="M677 24c-213 0-288-135-325-197h-20V0H158v-1490h180v551h14c37-59 106-193 324-193 279 0 474 222 474 576 0 356-194 580-473 580zm-27-161c209 0 317-186 317-421 0-232-105-413-317-413-206 0-314 166-314 413 0 249 111 421 314 421" id="bh"/><path d="M502 418V313h118c73 0 98-17 98-66s-25-65-98-65h-82l21-161C285-4 104-228 104-552c0-350 205-580 509-580 216 0 392 114 453 309l-173 49c-33-115-133-197-280-197-223 0-326 196-326 419 0 220 103 415 326 415 150 0 252-85 285-206l172 49C1015-110 859 5 663 22v64c130 5 189 54 189 162 0 118-71 170-231 170H502" id="bi"/><g id="N"><use transform="matrix(0.0126953125,0,0,0.0126953125,0,0)" xlink:href="#bh"/><use transform="matrix(0.0126953125,0,0,0.0126953125,15.919921875,0)" xlink:href="#aE"/><use transform="matrix(0.0126953125,0,0,0.0126953125,25.7080078125,0)" xlink:href="#ar"/><use transform="matrix(0.0126953125,0,0,0.0126953125,40.3076171875,0)" xlink:href="#bi"/><use transform="matrix(0.0126953125,0,0,0.0126953125,55.1611328125,0)" xlink:href="#ay"/></g><path d="M120-303v-155l652-1032h231v1020h202v167h-202V0H821v-303H120zm702-167v-782h-12L323-482v12h499" id="bj"/><g id="O"><use transform="matrix(0.0126953125,0,0,0.0126953125,0,0)" xlink:href="#aY"/><use transform="matrix(0.0126953125,0,0,0.0126953125,21.27734375,0)" xlink:href="#ar"/><use transform="matrix(0.0126953125,0,0,0.0126953125,35.876953125,0)" xlink:href="#as"/><use transform="matrix(0.0126953125,0,0,0.0126953125,42.173828125,0)" xlink:href="#aR"/><use transform="matrix(0.0126953125,0,0,0.0126953125,50.6796875,0)" xlink:href="#aX"/><use transform="matrix(0.0126953125,0,0,0.0126953125,62.537109375,0)" xlink:href="#az"/><use transform="matrix(0.0126953125,0,0,0.0126953125,76.2607421875,0)" xlink:href="#av"/><use transform="matrix(0.0126953125,0,0,0.0126953125,91.4189453125,0)" xlink:href="#aE"/><use transform="matrix(0.0126953125,0,0,0.0126953125,101.61328125,0)" xlink:href="#aN"/><use transform="matrix(0.0126953125,0,0,0.0126953125,115.7177734375,0)" xlink:href="#ay"/><use transform="matrix(0.0126953125,0,0,0.0126953125,131.3076171875,0)" xlink:href="#ba"/><use transform="matrix(0.0126953125,0,0,0.0126953125,148.509765625,0)" xlink:href="#bj"/><use transform="matrix(0.0126953125,0,0,0.0126953125,165.3056640625,0)" xlink:href="#aG"/></g><path d="M1181-520L237-44v-194l712-338v-12L237-926v-196l944 476v126" id="bk"/><g id="P"><use transform="matrix(0.0126953125,0,0,0.0126953125,0,0)" xlink:href="#aY"/><use transform="matrix(0.0126953125,0,0,0.0126953125,21.27734375,0)" xlink:href="#ar"/><use transform="matrix(0.0126953125,0,0,0.0126953125,35.876953125,0)" xlink:href="#as"/><use transform="matrix(0.0126953125,0,0,0.0126953125,42.173828125,0)" xlink:href="#aR"/><use transform="matrix(0.0126953125,0,0,0.0126953125,50.6796875,0)" xlink:href="#aX"/><use transform="matrix(0.0126953125,0,0,0.0126953125,62.537109375,0)" xlink:href="#az"/><use transform="matrix(0.0126953125,0,0,0.0126953125,76.2607421875,0)" xlink:href="#av"/><use transform="matrix(0.0126953125,0,0,0.0126953125,91.4189453125,0)" xlink:href="#aE"/><use transform="matrix(0.0126953125,0,0,0.0126953125,101.61328125,0)" xlink:href="#aN"/><use transform="matrix(0.0126953125,0,0,0.0126953125,115.7177734375,0)" xlink:href="#ay"/><use transform="matrix(0.0126953125,0,0,0.0126953125,131.3076171875,0)" xlink:href="#bk"/><use transform="matrix(0.0126953125,0,0,0.0126953125,148.509765625,0)" xlink:href="#aG"/></g><path d="M180 0v-1490h224l606 953c40 63 108 177 176 312-27-437-7-821-13-1265h190V0h-226C860-448 622-778 356-1262c27 476 11 792 15 1262H180" id="bl"/><path d="M471 26C259 26 90-98 90-318c0-256 228-303 435-329 202-27 287-16 287-108 0-139-79-219-234-219-161 0-248 86-283 164l-173-57c86-203 278-265 451-265 150 0 419 46 419 395V0H815v-152h-12C765-73 660 26 471 26zm31-159c199 0 310-134 310-271v-155c-30 35-226 55-295 64-131 17-246 59-246 186 0 116 97 176 231 176zm187-1180c-99 0-192-83-243-83-35 0-51 40-53 79H267c4-120 55-208 162-208 104 0 174 85 241 85 33 0 49-23 56-81h123c-4 126-62 208-160 208" id="bm"/><g id="Q"><use transform="matrix(0.013020833333333334,0,0,0.013020833333333334,0,0)" xlink:href="#bl"/><use transform="matrix(0.013020833333333334,0,0,0.013020833333333334,20.091145833333336,0)" xlink:href="#bm"/><use transform="matrix(0.013020833333333334,0,0,0.013020833333333334,35.06510416666667,0)" xlink:href="#ay"/></g><g id="R"><use transform="matrix(0.013020833333333334,0,0,0.013020833333333334,0,0)" xlink:href="#bd"/><use transform="matrix(0.013020833333333334,0,0,0.013020833333333334,17.109375,0)" xlink:href="#as"/><use transform="matrix(0.013020833333333334,0,0,0.013020833333333334,23.567708333333336,0)" xlink:href="#aq"/></g><g id="S"><use transform="matrix(0.0126953125,0,0,0.0126953125,0,0)" xlink:href="#au"/><use transform="matrix(0.0126953125,0,0,0.0126953125,18.763671875,0)" xlink:href="#av"/><use transform="matrix(0.0126953125,0,0,0.0126953125,33.921875,0)" xlink:href="#aK"/><use transform="matrix(0.0126953125,0,0,0.0126953125,48.775390625,0)" xlink:href="#aE"/><use transform="matrix(0.0126953125,0,0,0.0126953125,58.1318359375,0)" xlink:href="#av"/><use transform="matrix(0.0126953125,0,0,0.0126953125,73.2900390625,0)" xlink:href="#aq"/><use transform="matrix(0.0126953125,0,0,0.0126953125,96.0654296875,0)" xlink:href="#av"/><use transform="matrix(0.0126953125,0,0,0.0126953125,111.2236328125,0)" xlink:href="#at"/><use transform="matrix(0.0126953125,0,0,0.0126953125,126.5849609375,0)" xlink:href="#aR"/><use transform="matrix(0.0126953125,0,0,0.0126953125,135.2177734375,0)" xlink:href="#ar"/></g><g id="T"><use transform="matrix(0.0126953125,0,0,0.0126953125,0,0)" xlink:href="#aY"/><use transform="matrix(0.0126953125,0,0,0.0126953125,21.27734375,0)" xlink:href="#ar"/><use transform="matrix(0.0126953125,0,0,0.0126953125,35.876953125,0)" xlink:href="#as"/><use transform="matrix(0.0126953125,0,0,0.0126953125,42.173828125,0)" xlink:href="#aR"/><use transform="matrix(0.0126953125,0,0,0.0126953125,50.6796875,0)" xlink:href="#aX"/><use transform="matrix(0.0126953125,0,0,0.0126953125,62.537109375,0)" xlink:href="#az"/><use transform="matrix(0.0126953125,0,0,0.0126953125,76.2607421875,0)" xlink:href="#av"/><use transform="matrix(0.0126953125,0,0,0.0126953125,91.4189453125,0)" xlink:href="#aE"/><use transform="matrix(0.0126953125,0,0,0.0126953125,101.61328125,0)" xlink:href="#aN"/><use transform="matrix(0.0126953125,0,0,0.0126953125,115.7177734375,0)" xlink:href="#ay"/></g><g id="U"><use transform="matrix(0.010416666666666668,0,0,0.010416666666666668,0,0)" xlink:href="#aY"/><use transform="matrix(0.010416666666666668,0,0,0.010416666666666668,17.458333333333336,0)" xlink:href="#ar"/><use transform="matrix(0.010416666666666668,0,0,0.010416666666666668,29.437500000000004,0)" xlink:href="#as"/><use transform="matrix(0.010416666666666668,0,0,0.010416666666666668,34.60416666666667,0)" xlink:href="#aR"/><use transform="matrix(0.010416666666666668,0,0,0.010416666666666668,41.58333333333334,0)" xlink:href="#aX"/><use transform="matrix(0.010416666666666668,0,0,0.010416666666666668,51.312500000000014,0)" xlink:href="#az"/><use transform="matrix(0.010416666666666668,0,0,0.010416666666666668,62.572916666666686,0)" xlink:href="#av"/><use transform="matrix(0.010416666666666668,0,0,0.010416666666666668,75.01041666666669,0)" xlink:href="#aE"/><use transform="matrix(0.010416666666666668,0,0,0.010416666666666668,83.37500000000001,0)" xlink:href="#aN"/><use transform="matrix(0.010416666666666668,0,0,0.010416666666666668,94.94791666666667,0)" xlink:href="#ay"/></g><g id="V"><use transform="matrix(0.010416666666666668,0,0,0.010416666666666668,0,0)" xlink:href="#ba"/><use transform="matrix(0.010416666666666668,0,0,0.010416666666666668,14.114583333333336,0)" xlink:href="#ba"/></g><use transform="matrix(0.010416666666666668,0,0,0.010416666666666668,0,0)" xlink:href="#aG" id="W"/><g id="X"><use transform="matrix(0.0126953125,0,0,0.0126953125,0,0)" xlink:href="#au"/><use transform="matrix(0.0126953125,0,0,0.0126953125,18.763671875,0)" xlink:href="#av"/><use transform="matrix(0.0126953125,0,0,0.0126953125,33.921875,0)" xlink:href="#az"/><use transform="matrix(0.0126953125,0,0,0.0126953125,47.6455078125,0)" xlink:href="#aP"/><use transform="matrix(0.0126953125,0,0,0.0126953125,53.9423828125,0)" xlink:href="#as"/><use transform="matrix(0.0126953125,0,0,0.0126953125,60.2392578125,0)" xlink:href="#aC"/><use transform="matrix(0.0126953125,0,0,0.0126953125,76.1845703125,0)" xlink:href="#ar"/></g><g id="Y"><use transform="matrix(0.0126953125,0,0,0.0126953125,0,0)" xlink:href="#be"/><use transform="matrix(0.0126953125,0,0,0.0126953125,16.60546875,0)" xlink:href="#bf"/><use transform="matrix(0.0126953125,0,0,0.0126953125,42.224609375,0)" xlink:href="#bg"/><use transform="matrix(0.0126953125,0,0,0.0126953125,65.7109375,0)" xlink:href="#aH"/><use transform="matrix(0.0126953125,0,0,0.0126953125,75.1943359375,0)" xlink:href="#az"/><use transform="matrix(0.0126953125,0,0,0.0126953125,88.91796875,0)" xlink:href="#av"/><use transform="matrix(0.0126953125,0,0,0.0126953125,104.076171875,0)" xlink:href="#aE"/><use transform="matrix(0.0126953125,0,0,0.0126953125,114.2705078125,0)" xlink:href="#aN"/><use transform="matrix(0.0126953125,0,0,0.0126953125,128.375,0)" xlink:href="#ay"/><use transform="matrix(0.0126953125,0,0,0.0126953125,143.6728515625,0)" xlink:href="#aL"/></g><g id="Z"><use transform="matrix(0.0126953125,0,0,0.0126953125,0,0)" xlink:href="#be"/><use transform="matrix(0.0126953125,0,0,0.0126953125,16.60546875,0)" xlink:href="#ar"/><use transform="matrix(0.0126953125,0,0,0.0126953125,31.205078125,0)" xlink:href="#az"/><use transform="matrix(0.0126953125,0,0,0.0126953125,44.9287109375,0)" xlink:href="#az"/><use transform="matrix(0.0126953125,0,0,0.0126953125,58.65234375,0)" xlink:href="#ay"/><use transform="matrix(0.0126953125,0,0,0.0126953125,74.2421875,0)" xlink:href="#aD"/></g><use transform="matrix(0.0126953125,0,0,0.0126953125,0,0)" xlink:href="#aM" id="aa"/><g id="ab"><use transform="matrix(0.0126953125,0,0,0.0126953125,0,0)" xlink:href="#az"/><use transform="matrix(0.0126953125,0,0,0.0126953125,13.7236328125,0)" xlink:href="#av"/><use transform="matrix(0.0126953125,0,0,0.0126953125,28.8818359375,0)" xlink:href="#aC"/><use transform="matrix(0.0126953125,0,0,0.0126953125,44.8271484375,0)" xlink:href="#aD"/><use transform="matrix(0.0126953125,0,0,0.0126953125,60.201171875,0)" xlink:href="#at"/><use transform="matrix(0.0126953125,0,0,0.0126953125,75.5625,0)" xlink:href="#aJ"/><use transform="matrix(0.0126953125,0,0,0.0126953125,91.482421875,0)" xlink:href="#ay"/><use transform="matrix(0.0126953125,0,0,0.0126953125,107.072265625,0)" xlink:href="#bb"/></g><g id="ac"><use transform="matrix(0.0126953125,0,0,0.0126953125,0,0)" xlink:href="#az"/><use transform="matrix(0.0126953125,0,0,0.0126953125,13.7236328125,0)" xlink:href="#av"/><use transform="matrix(0.0126953125,0,0,0.0126953125,28.8818359375,0)" xlink:href="#at"/><use transform="matrix(0.0126953125,0,0,0.0126953125,44.2431640625,0)" xlink:href="#az"/><use transform="matrix(0.0126953125,0,0,0.0126953125,57.966796875,0)" xlink:href="#ay"/><use transform="matrix(0.0126953125,0,0,0.0126953125,73.556640625,0)" xlink:href="#aE"/><use transform="matrix(0.0126953125,0,0,0.0126953125,82.9130859375,0)" xlink:href="#av"/><use transform="matrix(0.0126953125,0,0,0.0126953125,98.0712890625,0)" xlink:href="#az"/></g><g id="ad"><use transform="matrix(0.0126953125,0,0,0.0126953125,0,0)" xlink:href="#bc"/><use transform="matrix(0.0126953125,0,0,0.0126953125,17.4306640625,0)" xlink:href="#aR"/><use transform="matrix(0.0126953125,0,0,0.0126953125,25.9365234375,0)" xlink:href="#aD"/><use transform="matrix(0.0126953125,0,0,0.0126953125,41.310546875,0)" xlink:href="#ar"/><use transform="matrix(0.0126953125,0,0,0.0126953125,55.91015625,0)" xlink:href="#aP"/><use transform="matrix(0.0126953125,0,0,0.0126953125,62.20703125,0)" xlink:href="#as"/><use transform="matrix(0.0126953125,0,0,0.0126953125,68.50390625,0)" xlink:href="#aQ"/><use transform="matrix(0.0126953125,0,0,0.0126953125,82.8623046875,0)" xlink:href="#ar"/></g><g id="ae"><use transform="matrix(0.0126953125,0,0,0.0126953125,0,0)" xlink:href="#aI"/><use transform="matrix(0.0126953125,0,0,0.0126953125,14.701171875,0)" xlink:href="#av"/><use transform="matrix(0.0126953125,0,0,0.0126953125,29.859375,0)" xlink:href="#aJ"/><use transform="matrix(0.0126953125,0,0,0.0126953125,45.779296875,0)" xlink:href="#az"/></g><use transform="matrix(0.0126953125,0,0,0.0126953125,0,0)" xlink:href="#av" id="af"/><g id="ag"><use transform="matrix(0.0126953125,0,0,0.0126953125,0,0)" xlink:href="#as"/><use transform="matrix(0.0126953125,0,0,0.0126953125,6.296875,0)" xlink:href="#aq"/><use transform="matrix(0.0126953125,0,0,0.0126953125,29.072265625,0)" xlink:href="#ax"/><use transform="matrix(0.0126953125,0,0,0.0126953125,44.9921875,0)" xlink:href="#aE"/><use transform="matrix(0.0126953125,0,0,0.0126953125,55.1865234375,0)" xlink:href="#as"/><use transform="matrix(0.0126953125,0,0,0.0126953125,61.4833984375,0)" xlink:href="#aq"/><use transform="matrix(0.0126953125,0,0,0.0126953125,84.2587890625,0)" xlink:href="#av"/></g><g id="ah"><use transform="matrix(0.0126953125,0,0,0.0126953125,0,0)" xlink:href="#ay"/><use transform="matrix(0.0126953125,0,0,0.0126953125,15.58984375,0)" xlink:href="#az"/></g><g id="ai"><use transform="matrix(0.0126953125,0,0,0.0126953125,0,0)" xlink:href="#aJ"/><use transform="matrix(0.0126953125,0,0,0.0126953125,15.919921875,0)" xlink:href="#ar"/><use transform="matrix(0.0126953125,0,0,0.0126953125,30.51953125,0)" xlink:href="#aJ"/><use transform="matrix(0.0126953125,0,0,0.0126953125,46.439453125,0)" xlink:href="#ay"/><use transform="matrix(0.0126953125,0,0,0.0126953125,62.029296875,0)" xlink:href="#az"/></g><g id="aj"><use transform="matrix(0.0126953125,0,0,0.0126953125,0,0)" xlink:href="#at"/><use transform="matrix(0.0126953125,0,0,0.0126953125,15.361328125,0)" xlink:href="#ay"/></g><g id="ak"><use transform="matrix(0.0126953125,0,0,0.0126953125,0,0)" xlink:href="#aI"/><use transform="matrix(0.0126953125,0,0,0.0126953125,13.96484375,0)" xlink:href="#aB"/><use transform="matrix(0.0126953125,0,0,0.0126953125,32.95703125,0)" xlink:href="#au"/></g><g id="al"><use transform="matrix(0.0126953125,0,0,0.0126953125,0,0)" xlink:href="#aP"/><use transform="matrix(0.0126953125,0,0,0.0126953125,6.296875,0)" xlink:href="#ay"/><use transform="matrix(0.0126953125,0,0,0.0126953125,21.88671875,0)" xlink:href="#ay"/><use transform="matrix(0.0126953125,0,0,0.0126953125,37.4765625,0)" xlink:href="#ax"/><use transform="matrix(0.0126953125,0,0,0.0126953125,53.396484375,0)" xlink:href="#ba"/></g><use transform="matrix(0.0126953125,0,0,0.0126953125,0,0)" xlink:href="#aG" id="am"/><path d="M140 405l46-156c120 36 205 19 263-150l32-93L54-1118h197c107 313 237 620 324 950 87-331 219-637 326-950h196L606 167c-68 178-176 259-334 259-64 0-113-12-132-21" id="bn"/><g id="an"><use transform="matrix(0.0126953125,0,0,0.0126953125,0,0)" xlink:href="#aJ"/><use transform="matrix(0.0126953125,0,0,0.0126953125,15.919921875,0)" xlink:href="#av"/><use transform="matrix(0.0126953125,0,0,0.0126953125,31.078125,0)" xlink:href="#aP"/><use transform="matrix(0.0126953125,0,0,0.0126953125,37.375,0)" xlink:href="#ar"/><use transform="matrix(0.0126953125,0,0,0.0126953125,51.59375,0)" xlink:href="#bn"/></g><g id="ao"><use transform="matrix(0.0126953125,0,0,0.0126953125,0,0)" xlink:href="#aJ"/><use transform="matrix(0.0126953125,0,0,0.0126953125,15.919921875,0)" xlink:href="#av"/></g><path d="M626 20c-262 0-458-168-468-396h184c12 133 134 229 284 229 180 0 311-137 311-326 0-192-136-335-323-335-92 0-196 33-255 78l-178-22 88-738h784v167H429l-51 435h8c61-51 160-87 263-87 273 0 474 211 474 499 0 286-210 496-497 496" id="bo"/><g id="ap"><use transform="matrix(0.0126953125,0,0,0.0126953125,0,0)" xlink:href="#bo"/><use transform="matrix(0.0126953125,0,0,0.0126953125,15.8056640625,0)" xlink:href="#aG"/><use transform="matrix(0.0126953125,0,0,0.0126953125,32.2080078125,0)" xlink:href="#aq"/><use transform="matrix(0.0126953125,0,0,0.0126953125,54.9833984375,0)" xlink:href="#az"/></g></defs></g></svg>