<svg xmlns="http://www.w3.org/2000/svg" xmlns:xlink="http://www.w3.org/1999/xlink" xmlns:lucid="lucid" width="243.49" height="2182.29"><g transform="translate(4382.130335400463 -1975.5772238593524)" lucid:page-tab-id="0_0"><path d="M-4187.18 1976.58c26.26 0 47.54 21.28 47.54 47.54 0 26.26-21.28 47.54-47.54 47.54h-146.4c-26.26 0-47.55-21.28-47.55-47.54 0-26.26 21.3-47.54 47.54-47.54z" stroke="#000" stroke-width="2" fill="#fff"/><use xlink:href="#a" transform="matrix(1,0,0,1,-4376.129047811564,1981.5772238593524) translate(101.03125 50.22916666666667)"/><path d="M-4260.38 2074.16v54" stroke="#3a414a" stroke-width="3" stroke-linejoin="round" fill="none"/><path d="M-4258.9 2074.2h-2.96v-1.54h2.95z" stroke="#3a414a" stroke-width=".05" fill="#3a414a"/><path d="M-4260.38 2142.66l-7.5-13h15z" stroke="#3a414a" stroke-width="3" fill="#3a414a"/><path d="M-4340.38 2152.66a6 6 0 0 1 6-6h148a6 6 0 0 1 6 6v108a6 6 0 0 1-6 6h-148a6 6 0 0 1-6-6z" stroke="#000" stroke-width="2" fill="#fff"/><use xlink:href="#b" transform="matrix(1,0,0,1,-4335.384341536548,2151.662350218294) translate(45.52783203125 28.625)"/><use xlink:href="#c" transform="matrix(1,0,0,1,-4335.384341536548,2151.662350218294) translate(18.3408203125 66.37578124999999)"/><use xlink:href="#d" transform="matrix(1,0,0,1,-4335.384341536548,2151.662350218294) translate(14.44970703125 104.12656249999999)"/><use xlink:href="#e" transform="matrix(1,0,0,1,-4335.384341536548,2151.662350218294) translate(52.84033203125 104.12656249999999)"/><path d="M-4260.38 2269.16v54" stroke="#3a414a" stroke-width="3" stroke-linejoin="round" fill="none"/><path d="M-4258.9 2269.2h-2.96v-1.54h2.95z" stroke="#3a414a" stroke-width=".05" fill="#3a414a"/><path d="M-4260.38 2337.66l-7.5-13h15z" stroke="#3a414a" stroke-width="3" fill="#3a414a"/><path d="M-4340.38 2347.66a6 6 0 0 1 6-6h148a6 6 0 0 1 6 6v218.22a6 6 0 0 1-6 6h-148a6 6 0 0 1-6-6z" stroke="#000" stroke-width="2" fill="#fff"/><use xlink:href="#f" transform="matrix(1,0,0,1,-4335.384341536548,2346.662350218294) translate(15.408203125 32.09375)"/><use xlink:href="#g" transform="matrix(1,0,0,1,-4335.384341536548,2346.662350218294) translate(119.001953125 32.09375)"/><use xlink:href="#h" transform="matrix(1,0,0,1,-4335.384341536548,2346.662350218294) translate(16.72216796875 69.84453124999999)"/><use xlink:href="#i" transform="matrix(1,0,0,1,-4335.384341536548,2346.662350218294) translate(13.91650390625 107.59531249999999)"/><use xlink:href="#j" transform="matrix(1,0,0,1,-4335.384341536548,2346.662350218294) translate(52.73876953125 107.59531249999999)"/><use xlink:href="#k" transform="matrix(1,0,0,1,-4335.384341536548,2346.662350218294) translate(17.388671875 145.34609375)"/><use xlink:href="#l" transform="matrix(1,0,0,1,-4335.384341536548,2346.662350218294) translate(79.8623046875 145.34609375)"/><use xlink:href="#m" transform="matrix(1,0,0,1,-4335.384341536548,2346.662350218294) translate(5.14404296875 183.09687499999998)"/><use xlink:href="#n" transform="matrix(1,0,0,1,-4335.384341536548,2346.662350218294) translate(113.77783203125 183.09687499999998)"/><use xlink:href="#o" transform="matrix(1,0,0,1,-4335.384341536548,2346.662350218294) translate(33.2705078125 220.84765624999997)"/><path d="M-4260.38 2574.38v54" stroke="#3a414a" stroke-width="3" stroke-linejoin="round" fill="none"/><path d="M-4258.9 2574.4h-2.96v-1.53h2.95z" stroke="#3a414a" stroke-width=".05" fill="#3a414a"/><path d="M-4260.38 2642.88l-7.5-13h15z" stroke="#3a414a" stroke-width="3" fill="#3a414a"/><path d="M-4340.38 2652.88a6 6 0 0 1 6-6h148a6 6 0 0 1 6 6v108a6 6 0 0 1-6 6h-148a6 6 0 0 1-6-6z" stroke="#000" stroke-width="2" fill="#fff"/><use xlink:href="#p" transform="matrix(1,0,0,1,-4335.384341536548,2651.875240843294) translate(30.490234375 45.8125)"/><use xlink:href="#g" transform="matrix(1,0,0,1,-4335.384341536548,2651.875240843294) translate(103.919921875 45.8125)"/><use xlink:href="#q" transform="matrix(1,0,0,1,-4335.384341536548,2651.875240843294) translate(32.8388671875 83.56328124999999)"/><path d="M-4260.38 2769.38v54" stroke="#3a414a" stroke-width="3" stroke-linejoin="round" fill="none"/><path d="M-4258.9 2769.4h-2.96v-1.53h2.95z" stroke="#3a414a" stroke-width=".05" fill="#3a414a"/><path d="M-4260.38 2837.88l-7.5-13h15z" stroke="#3a414a" stroke-width="3" fill="#3a414a"/><path d="M-4340.38 2847.88a6 6 0 0 1 6-6h148a6 6 0 0 1 6 6v142.7a6 6 0 0 1-6 6h-148a6 6 0 0 1-6-6z" stroke="#000" stroke-width="2" fill="#fff"/><use xlink:href="#b" transform="matrix(1,0,0,1,-4335.384341536548,2846.875240843294) translate(45.52783203125 29.71875)"/><use xlink:href="#r" transform="matrix(1,0,0,1,-4335.384341536548,2846.875240843294) translate(6.88330078125 67.46953124999999)"/><use xlink:href="#s" transform="matrix(1,0,0,1,-4335.384341536548,2846.875240843294) translate(7.384765625 105.22031249999999)"/><use xlink:href="#t" transform="matrix(1,0,0,1,-4335.384341536548,2846.875240843294) translate(29.296875 105.22031249999999)"/><use xlink:href="#d" transform="matrix(1,0,0,1,-4335.384341536548,2846.875240843294) translate(14.44970703125 142.97109375)"/><use xlink:href="#e" transform="matrix(1,0,0,1,-4335.384341536548,2846.875240843294) translate(52.84033203125 142.97109375)"/><path d="M-4260.38 2999.1v39.25" stroke="#3a414a" stroke-width="3" stroke-linejoin="round" fill="none"/><path d="M-4258.9 2999.13h-2.96v-1.54h2.95z" stroke="#3a414a" stroke-width=".05" fill="#3a414a"/><path d="M-4260.38 3052.84l-7.5-13h15z" stroke="#3a414a" stroke-width="3" fill="#3a414a"/><path d="M-4340.38 3062.84a6 6 0 0 1 6-6h148a6 6 0 0 1 6 6v180.46a6 6 0 0 1-6 6h-148a6 6 0 0 1-6-6z" stroke="#000" stroke-width="2" fill="#fff"/><use xlink:href="#f" transform="matrix(1,0,0,1,-4335.384341536548,3061.8385532161833) translate(15.408203125 30.90625)"/><use xlink:href="#g" transform="matrix(1,0,0,1,-4335.384341536548,3061.8385532161833) translate(119.001953125 30.90625)"/><use xlink:href="#u" transform="matrix(1,0,0,1,-4335.384341536548,3061.8385532161833) translate(2.0908203125 68.65703124999999)"/><use xlink:href="#v" transform="matrix(1,0,0,1,-4335.384341536548,3061.8385532161833) translate(92.748046875 68.65703124999999)"/><use xlink:href="#l" transform="matrix(1,0,0,1,-4335.384341536548,3061.8385532161833) translate(48.62548828125 106.40781249999999)"/><use xlink:href="#w" transform="matrix(1,0,0,1,-4335.384341536548,3061.8385532161833) translate(16.82373046875 144.15859375)"/><use xlink:href="#d" transform="matrix(1,0,0,1,-4335.384341536548,3061.8385532161833) translate(17.794921875 181.90937499999998)"/><use xlink:href="#x" transform="matrix(1,0,0,1,-4335.384341536548,3061.8385532161833) translate(56.185546875 181.90937499999998)"/><path d="M-4260.38 3251.8v36.65" stroke="#3a414a" stroke-width="3" stroke-linejoin="round" fill="none"/><path d="M-4258.9 3251.84h-2.96v-1.54h2.95z" stroke="#3a414a" stroke-width=".05" fill="#3a414a"/><path d="M-4260.38 3302.95l-7.5-13h15z" stroke="#3a414a" stroke-width="3" fill="#3a414a"/><path d="M-4340.38 3312.95a6 6 0 0 1 6-6h148a6 6 0 0 1 6 6v142.7a6 6 0 0 1-6 6h-148a6 6 0 0 1-6-6z" stroke="#000" stroke-width="2" fill="#fff"/><g><use xlink:href="#y" transform="matrix(1,0,0,1,-4335.384341536548,3311.9449985286833) translate(41.75732421875 29.71875)"/><use xlink:href="#z" transform="matrix(1,0,0,1,-4335.384341536548,3311.9449985286833) translate(78.92919921875 29.71875)"/><use xlink:href="#A" transform="matrix(1,0,0,1,-4335.384341536548,3311.9449985286833) translate(5.2900390625 67.46953124999999)"/><use xlink:href="#B" transform="matrix(1,0,0,1,-4335.384341536548,3311.9449985286833) translate(127.9140625 67.46953124999999)"/><use xlink:href="#C" transform="matrix(1,0,0,1,-4335.384341536548,3311.9449985286833) translate(52.90380859375 105.22031249999999)"/><use xlink:href="#D" transform="matrix(1,0,0,1,-4335.384341536548,3311.9449985286833) translate(48.24462890625 142.97109375)"/></g><path d="M-4260.38 3464.16v54" stroke="#3a414a" stroke-width="3" stroke-linejoin="round" fill="none"/><path d="M-4258.9 3464.2h-2.96v-1.54h2.95z" stroke="#3a414a" stroke-width=".05" fill="#3a414a"/><path d="M-4260.38 3532.66l-7.5-13h15z" stroke="#3a414a" stroke-width="3" fill="#3a414a"/><path d="M-4340.38 3542.66a6 6 0 0 1 6-6h148a6 6 0 0 1 6 6v108a6 6 0 0 1-6 6h-148a6 6 0 0 1-6-6z" stroke="#000" stroke-width="2" fill="#fff"/><g><use xlink:href="#y" transform="matrix(1,0,0,1,-4335.384341536548,3541.656326653683) translate(41.75732421875 28.625)"/><use xlink:href="#z" transform="matrix(1,0,0,1,-4335.384341536548,3541.656326653683) translate(78.92919921875 28.625)"/><use xlink:href="#E" transform="matrix(1,0,0,1,-4335.384341536548,3541.656326653683) translate(18.47412109375 66.37578124999999)"/><use xlink:href="#B" transform="matrix(1,0,0,1,-4335.384341536548,3541.656326653683) translate(114.72998046875 66.37578124999999)"/><use xlink:href="#F" transform="matrix(1,0,0,1,-4335.384341536548,3541.656326653683) translate(52.90380859375 104.12656249999999)"/></g><path d="M-4260.38 3659.16v54" stroke="#3a414a" stroke-width="3" stroke-linejoin="round" fill="none"/><path d="M-4258.9 3659.2h-2.96v-1.54h2.95z" stroke="#3a414a" stroke-width=".05" fill="#3a414a"/><path d="M-4260.38 3727.66l-7.5-13h15z" stroke="#3a414a" stroke-width="3" fill="#3a414a"/><path d="M-4340.38 3737.66a6 6 0 0 1 6-6h148a6 6 0 0 1 6 6v108a6 6 0 0 1-6 6h-148a6 6 0 0 1-6-6z" stroke="#000" stroke-width="2" fill="#fff"/><g><use xlink:href="#G" transform="matrix(1,0,0,1,-4335.384341536548,3736.656326653683) translate(16.25244140625 45.582617187500006)"/><use xlink:href="#H" transform="matrix(1,0,0,1,-4335.384341536548,3736.656326653683) translate(119.14794921875 45.582617187500006)"/><use xlink:href="#I" transform="matrix(1,0,0,1,-4335.384341536548,3736.656326653683) translate(-7.62744140625 83.3333984375)"/></g><path d="M-4260.38 3854.16v54" stroke="#3a414a" stroke-width="3" stroke-linejoin="round" fill="none"/><path d="M-4258.9 3854.2h-2.96v-1.54h2.95z" stroke="#3a414a" stroke-width=".05" fill="#3a414a"/><path d="M-4260.38 3922.66l-7.5-13h15z" stroke="#3a414a" stroke-width="3" fill="#3a414a"/><path d="M-4340.38 3932.66a6 6 0 0 1 6-6h148a6 6 0 0 1 6 6v218.2a6 6 0 0 1-6 6h-148a6 6 0 0 1-6-6z" stroke="#000" stroke-width="2" fill="#fff"/><g><use xlink:href="#J" transform="matrix(1,0,0,1,-4335.384341536548,3931.656326653683) translate(22.28271484375 32.09375)"/><use xlink:href="#z" transform="matrix(1,0,0,1,-4335.384341536548,3931.656326653683) translate(98.40380859375 32.09375)"/><use xlink:href="#A" transform="matrix(1,0,0,1,-4335.384341536548,3931.656326653683) translate(5.2900390625 69.84453124999999)"/><use xlink:href="#B" transform="matrix(1,0,0,1,-4335.384341536548,3931.656326653683) translate(127.9140625 69.84453124999999)"/><use xlink:href="#K" transform="matrix(1,0,0,1,-4335.384341536548,3931.656326653683) translate(4.3251953125 107.59531249999999)"/><use xlink:href="#L" transform="matrix(1,0,0,1,-4335.384341536548,3931.656326653683) translate(55.830078125 107.59531249999999)"/><use xlink:href="#z" transform="matrix(1,0,0,1,-4335.384341536548,3931.656326653683) translate(116.361328125 107.59531249999999)"/><use xlink:href="#E" transform="matrix(1,0,0,1,-4335.384341536548,3931.656326653683) translate(18.47412109375 145.34609375)"/><use xlink:href="#B" transform="matrix(1,0,0,1,-4335.384341536548,3931.656326653683) translate(114.72998046875 145.34609375)"/><use xlink:href="#M" transform="matrix(1,0,0,1,-4335.384341536548,3931.656326653683) translate(22.75244140625 183.09687499999998)"/><use xlink:href="#N" transform="matrix(1,0,0,1,-4335.384341536548,3931.656326653683) translate(112.08935546875 183.09687499999998)"/><use xlink:href="#O" transform="matrix(1,0,0,1,-4335.384341536548,3931.656326653683) translate(30.744140625 220.84765624999997)"/></g><defs><path d="M158 0v-1118h174v172h12c41-113 157-188 290-188 26 0 70 2 91 3v181c-11-2-60-10-108-10-161 0-279 109-279 260V0H158" id="P"/><path d="M653-1490V0H466v-1314h-10L96-1047v-204l324-239h233" id="Q"/><path d="M646 20c-249 0-524-159-524-708 0-524 209-822 547-822 250 0 431 161 467 395H950c-33-129-126-227-281-227-229 0-367 208-367 566h12c80-124 212-198 367-198 255 0 467 205 467 493 0 278-198 501-502 501zm0-167c179 0 318-148 318-334 0-182-133-328-313-328-181 0-322 156-322 330 0 176 134 332 317 332" id="R"/><g id="a"><use transform="matrix(0.010416666666666668,0,0,0.010416666666666668,0,0)" xlink:href="#P"/><use transform="matrix(0.010416666666666668,0,0,0.010416666666666668,8.031250000000002,0)" xlink:href="#Q"/><use transform="matrix(0.010416666666666668,0,0,0.010416666666666668,16.708333333333336,0)" xlink:href="#R"/></g><path d="M789 20c-398 0-667-293-667-764 0-473 273-766 655-766 315 0 558 198 612 487h-196c-61-191-204-311-415-311-262 0-471 207-471 590 0 380 208 588 482 588 249 0 420-165 425-427H828v-166h572v163c0 370-256 606-611 606" id="S"/><path d="M628 24c-324 0-524-230-524-574 0-343 198-582 503-582 237 0 487 146 487 559v75H286c9 234 145 362 343 362 132 0 231-58 273-172l174 48C1024-91 857 24 628 24zM287-650h624c-17-190-120-322-304-322-192 0-309 151-320 322" id="T"/><path d="M471 26C259 26 90-98 90-318c0-256 228-303 435-329 202-27 287-16 287-108 0-139-79-219-234-219-161 0-248 86-283 164l-173-57c86-203 278-265 451-265 150 0 419 46 419 395V0H815v-152h-12C765-73 660 26 471 26zm31-159c199 0 310-134 310-271v-155c-30 35-226 55-295 64-131 17-246 59-246 186 0 116 97 176 231 176" id="U"/><g id="b"><use transform="matrix(0.0126953125,0,0,0.0126953125,0,0)" xlink:href="#S"/><use transform="matrix(0.0126953125,0,0,0.0126953125,19.3984375,0)" xlink:href="#T"/><use transform="matrix(0.0126953125,0,0,0.0126953125,34.556640625,0)" xlink:href="#P"/><use transform="matrix(0.0126953125,0,0,0.0126953125,44.3447265625,0)" xlink:href="#U"/></g><path d="M613 24c-304 0-509-231-509-576 0-350 205-580 509-580 216 0 392 114 453 309l-173 49c-33-115-133-197-280-197-223 0-326 196-326 419 0 220 103 415 326 415 150 0 252-85 285-206l172 49C1010-95 832 24 613 24" id="V"/><path d="M613 24c-304 0-509-231-509-576 0-350 205-580 509-580 305 0 511 230 511 580 0 345-206 576-511 576zm0-161c226 0 329-195 329-415 0-222-103-419-329-419-223 0-326 196-326 419 0 220 103 415 326 415" id="W"/><path d="M338-670V0H158v-1118h173l1 207c72-158 192-221 342-221 226 0 378 139 378 422V0H872v-695c0-172-96-275-252-275-161 0-282 109-282 300" id="X"/><path d="M577 24c-279 0-473-224-473-580 0-354 195-576 474-576 218 0 287 134 324 193h14v-551h180V0H922v-173h-20C865-111 790 24 577 24zm27-161c203 0 314-172 314-421 0-247-108-413-314-413-212 0-317 181-317 413 0 235 108 421 317 421" id="Y"/><path d="M158 0v-1118h180V0H158zm91-1301c-68 0-125-53-125-119s57-119 125-119c69 0 126 53 126 119s-57 119-126 119" id="Z"/><g id="c"><use transform="matrix(0.0126953125,0,0,0.0126953125,0,0)" xlink:href="#V"/><use transform="matrix(0.0126953125,0,0,0.0126953125,14.853515625,0)" xlink:href="#W"/><use transform="matrix(0.0126953125,0,0,0.0126953125,30.443359375,0)" xlink:href="#X"/><use transform="matrix(0.0126953125,0,0,0.0126953125,45.8046875,0)" xlink:href="#Y"/><use transform="matrix(0.0126953125,0,0,0.0126953125,61.724609375,0)" xlink:href="#Z"/><use transform="matrix(0.0126953125,0,0,0.0126953125,68.021484375,0)" xlink:href="#V"/><use transform="matrix(0.0126953125,0,0,0.0126953125,83.12890625,0)" xlink:href="#U"/><use transform="matrix(0.0126953125,0,0,0.0126953125,97.728515625,0)" xlink:href="#W"/></g><g id="d"><use transform="matrix(0.0126953125,0,0,0.0126953125,0,0)" xlink:href="#Y"/><use transform="matrix(0.0126953125,0,0,0.0126953125,15.919921875,0)" xlink:href="#T"/></g><path d="M657 26c-323 0-524-166-541-416h195c15 169 171 246 346 246 202 0 356-106 356-265 5-203-294-238-475-293-239-73-380-191-380-389 0-252 224-419 512-419 294 0 499 171 508 396H992c-17-145-151-228-328-228-193 0-321 102-321 242 0 156 175 211 284 241l149 41c160 44 422 134 422 412 0 244-197 432-541 432" id="aa"/><path d="M98-1322v-168h1126v168H757V0H567v-1322H98" id="ab"/><path d="M52 0l541-1490h220L1361 0h-200l-149-416H398L254 0H52zm404-582h497c-103-290-145-390-251-756-108 377-145 460-246 756" id="ac"/><path d="M180 0v-1490h510c348 0 508 194 508 460 0 198-88 351-276 417L1256 0h-220L726-579c-117 2-238 0-356 1V0H180zm190-747h312c235 0 327-108 327-283 0-177-92-293-329-293H370v576" id="ad"/><g id="e"><use transform="matrix(0.0126953125,0,0,0.0126953125,0,0)" xlink:href="#aa"/><use transform="matrix(0.0126953125,0,0,0.0126953125,16.681640625,0)" xlink:href="#ab"/><use transform="matrix(0.0126953125,0,0,0.0126953125,31.255859375,0)" xlink:href="#ac"/><use transform="matrix(0.0126953125,0,0,0.0126953125,49.1943359375,0)" xlink:href="#ad"/><use transform="matrix(0.0126953125,0,0,0.0126953125,65.9267578125,0)" xlink:href="#ab"/></g><path d="M180 0v-1490h510c348 0 508 209 508 474 0 266-160 477-507 477H370V0H180zm190-706h312c236 0 327-133 327-310 0-176-91-307-329-307H370v617" id="ae"/><path d="M158 418v-1536h174v179h20c37-59 106-193 324-193 279 0 474 222 474 576 0 356-194 580-473 580-213 0-288-135-325-197h-14v591H158zm492-555c209 0 317-186 317-421 0-232-105-413-317-413-206 0-314 166-314 413 0 249 111 421 314 421" id="af"/><g id="f"><use transform="matrix(0.0126953125,0,0,0.0126953125,0,0)" xlink:href="#ae"/><use transform="matrix(0.0126953125,0,0,0.0126953125,16.60546875,0)" xlink:href="#P"/><use transform="matrix(0.0126953125,0,0,0.0126953125,25.9619140625,0)" xlink:href="#T"/><use transform="matrix(0.0126953125,0,0,0.0126953125,41.1201171875,0)" xlink:href="#af"/><use transform="matrix(0.0126953125,0,0,0.0126953125,57.2939453125,0)" xlink:href="#U"/><use transform="matrix(0.0126953125,0,0,0.0126953125,71.8935546875,0)" xlink:href="#P"/><use transform="matrix(0.0126953125,0,0,0.0126953125,81.681640625,0)" xlink:href="#U"/></g><use transform="matrix(0.0126953125,0,0,0.0126953125,0,0)" xlink:href="#W" id="g"/><g id="h"><use transform="matrix(0.0126953125,0,0,0.0126953125,0,0)" xlink:href="#T"/><use transform="matrix(0.0126953125,0,0,0.0126953125,15.158203125,0)" xlink:href="#X"/><use transform="matrix(0.0126953125,0,0,0.0126953125,30.51953125,0)" xlink:href="#Y"/><use transform="matrix(0.0126953125,0,0,0.0126953125,46.439453125,0)" xlink:href="#T"/><use transform="matrix(0.0126953125,0,0,0.0126953125,61.59765625,0)" xlink:href="#P"/><use transform="matrix(0.0126953125,0,0,0.0126953125,70.9541015625,0)" xlink:href="#T"/><use transform="matrix(0.0126953125,0,0,0.0126953125,86.1123046875,0)" xlink:href="#V"/><use transform="matrix(0.0126953125,0,0,0.0126953125,100.9658203125,0)" xlink:href="#W"/></g><g id="i"><use transform="matrix(0.0126953125,0,0,0.0126953125,0,0)" xlink:href="#Y"/><use transform="matrix(0.0126953125,0,0,0.0126953125,15.919921875,0)" xlink:href="#W"/></g><path d="M538 24C308 24 148-78 108-271l171-41c32 123 123 178 257 178 156 0 256-77 256-169 0-77-54-128-164-154l-186-44c-203-48-300-148-300-305 0-192 176-326 414-326 230 0 351 112 402 269l-163 42c-31-80-94-158-238-158-133 0-233 69-233 162 0 83 57 129 188 160l169 40c203 48 298 149 298 302 0 196-179 339-441 339" id="ag"/><g id="j"><use transform="matrix(0.0126953125,0,0,0.0126953125,0,0)" xlink:href="#ag"/><use transform="matrix(0.0126953125,0,0,0.0126953125,13.7236328125,0)" xlink:href="#T"/><use transform="matrix(0.0126953125,0,0,0.0126953125,28.8818359375,0)" xlink:href="#X"/><use transform="matrix(0.0126953125,0,0,0.0126953125,44.2431640625,0)" xlink:href="#ag"/><use transform="matrix(0.0126953125,0,0,0.0126953125,57.966796875,0)" xlink:href="#W"/><use transform="matrix(0.0126953125,0,0,0.0126953125,73.556640625,0)" xlink:href="#P"/></g><g id="k"><use transform="matrix(0.0126953125,0,0,0.0126953125,0,0)" xlink:href="#af"/><use transform="matrix(0.0126953125,0,0,0.0126953125,16.173828125,0)" xlink:href="#U"/><use transform="matrix(0.0126953125,0,0,0.0126953125,30.7734375,0)" xlink:href="#P"/><use transform="matrix(0.0126953125,0,0,0.0126953125,40.5615234375,0)" xlink:href="#U"/></g><path d="M537 14c-226 0-379-139-379-422v-710h180v695c0 172 97 275 253 275 160 0 281-109 281-300v-670h181V0H879v-209C806-46 684 14 537 14" id="ah"/><path d="M158 0v-1118h175l1 205c55-151 181-225 313-225 147 0 245 90 285 228 53-141 190-228 352-228 194 0 352 125 352 384V0h-181v-749c0-161-105-225-225-225-151 0-243 103-243 244V0H807v-767c0-124-93-207-219-207-131 0-250 92-250 270V0H158" id="ai"/><g id="l"><use transform="matrix(0.0126953125,0,0,0.0126953125,0,0)" xlink:href="#ah"/><use transform="matrix(0.0126953125,0,0,0.0126953125,15.3740234375,0)" xlink:href="#ai"/><use transform="matrix(0.0126953125,0,0,0.0126953125,38.1494140625,0)" xlink:href="#U"/></g><path d="M502 418V313h118c73 0 98-17 98-66s-25-65-98-65h-82l21-161C285-4 104-228 104-552c0-350 205-580 509-580 216 0 392 114 453 309l-173 49c-33-115-133-197-280-197-223 0-326 196-326 419 0 220 103 415 326 415 150 0 252-85 285-206l172 49C1015-110 859 5 663 22v64c130 5 189 54 189 162 0 118-71 170-231 170H502" id="aj"/><path d="M471 26C259 26 90-98 90-318c0-256 228-303 435-329 202-27 287-16 287-108 0-139-79-219-234-219-161 0-248 86-283 164l-173-57c86-203 278-265 451-265 150 0 419 46 419 395V0H815v-152h-12C765-73 660 26 471 26zm31-159c199 0 310-134 310-271v-155c-30 35-226 55-295 64-131 17-246 59-246 186 0 116 97 176 231 176zm187-1180c-99 0-192-83-243-83-35 0-51 40-53 79H267c4-120 55-208 162-208 104 0 174 85 241 85 33 0 49-23 56-81h123c-4 126-62 208-160 208" id="ak"/><g id="m"><use transform="matrix(0.0126953125,0,0,0.0126953125,0,0)" xlink:href="#W"/><use transform="matrix(0.0126953125,0,0,0.0126953125,15.58984375,0)" xlink:href="#af"/><use transform="matrix(0.0126953125,0,0,0.0126953125,31.509765625,0)" xlink:href="#T"/><use transform="matrix(0.0126953125,0,0,0.0126953125,46.66796875,0)" xlink:href="#P"/><use transform="matrix(0.0126953125,0,0,0.0126953125,56.0244140625,0)" xlink:href="#aj"/><use transform="matrix(0.0126953125,0,0,0.0126953125,71.1318359375,0)" xlink:href="#ak"/><use transform="matrix(0.0126953125,0,0,0.0126953125,85.7314453125,0)" xlink:href="#W"/></g><g id="n"><use transform="matrix(0.0126953125,0,0,0.0126953125,0,0)" xlink:href="#Y"/><use transform="matrix(0.0126953125,0,0,0.0126953125,15.919921875,0)" xlink:href="#T"/></g><path d="M598-1118v154H368v674c0 100 37 144 132 144 23 0 62-6 92-12L629-6c-37 13-88 20-134 20-193 0-307-107-307-290v-688H20v-154h168v-266h180v266h230" id="al"/><g id="o"><use transform="matrix(0.0126953125,0,0,0.0126953125,0,0)" xlink:href="#T"/><use transform="matrix(0.0126953125,0,0,0.0126953125,15.158203125,0)" xlink:href="#ag"/><use transform="matrix(0.0126953125,0,0,0.0126953125,28.8818359375,0)" xlink:href="#V"/><use transform="matrix(0.0126953125,0,0,0.0126953125,43.7353515625,0)" xlink:href="#P"/><use transform="matrix(0.0126953125,0,0,0.0126953125,53.9296875,0)" xlink:href="#Z"/><use transform="matrix(0.0126953125,0,0,0.0126953125,60.2265625,0)" xlink:href="#al"/><use transform="matrix(0.0126953125,0,0,0.0126953125,68.859375,0)" xlink:href="#U"/></g><path d="M180 0v-1490h908v168H370v486h669v168H370v500h727V0H180" id="am"/><path d="M481 0L54-1118h197c107 314 236 620 325 951 87-331 217-637 324-951h197L670 0H481" id="an"/><g id="p"><use transform="matrix(0.0126953125,0,0,0.0126953125,0,0)" xlink:href="#am"/><use transform="matrix(0.0126953125,0,0,0.0126953125,15.6279296875,0)" xlink:href="#X"/><use transform="matrix(0.0126953125,0,0,0.0126953125,30.6083984375,0)" xlink:href="#an"/><use transform="matrix(0.0126953125,0,0,0.0126953125,45.220703125,0)" xlink:href="#Z"/><use transform="matrix(0.0126953125,0,0,0.0126953125,51.517578125,0)" xlink:href="#U"/></g><path d="M611 442c-248 0-391-105-460-228l146-94c47 65 117 165 314 165 178 0 307-82 307-266v-224h-17C863-141 792-18 576-18c-268 0-472-195-472-546 0-346 197-568 476-568 216 0 288 133 326 193h17v-179h175V29c0 289-215 413-487 413zm-5-620c203 0 314-146 314-390 0-237-108-403-314-403-213 0-319 180-319 403 0 230 109 390 319 390" id="ao"/><g id="q"><use transform="matrix(0.0126953125,0,0,0.0126953125,0,0)" xlink:href="#P"/><use transform="matrix(0.0126953125,0,0,0.0126953125,9.3564453125,0)" xlink:href="#T"/><use transform="matrix(0.0126953125,0,0,0.0126953125,24.5146484375,0)" xlink:href="#ao"/><use transform="matrix(0.0126953125,0,0,0.0126953125,40.4599609375,0)" xlink:href="#Z"/><use transform="matrix(0.0126953125,0,0,0.0126953125,46.7568359375,0)" xlink:href="#ag"/><use transform="matrix(0.0126953125,0,0,0.0126953125,60.48046875,0)" xlink:href="#al"/><use transform="matrix(0.0126953125,0,0,0.0126953125,68.732421875,0)" xlink:href="#W"/></g><g id="r"><use transform="matrix(0.0126953125,0,0,0.0126953125,0,0)" xlink:href="#X"/><use transform="matrix(0.0126953125,0,0,0.0126953125,15.361328125,0)" xlink:href="#W"/><use transform="matrix(0.0126953125,0,0,0.0126953125,30.443359375,0)" xlink:href="#an"/><use transform="matrix(0.0126953125,0,0,0.0126953125,44.9287109375,0)" xlink:href="#U"/><use transform="matrix(0.0126953125,0,0,0.0126953125,59.5283203125,0)" xlink:href="#ai"/><use transform="matrix(0.0126953125,0,0,0.0126953125,82.3037109375,0)" xlink:href="#T"/><use transform="matrix(0.0126953125,0,0,0.0126953125,97.4619140625,0)" xlink:href="#X"/><use transform="matrix(0.0126953125,0,0,0.0126953125,112.8232421875,0)" xlink:href="#al"/><use transform="matrix(0.0126953125,0,0,0.0126953125,121.0751953125,0)" xlink:href="#T"/></g><use transform="matrix(0.0126953125,0,0,0.0126953125,0,0)" xlink:href="#U" id="s"/><g id="t"><use transform="matrix(0.0126953125,0,0,0.0126953125,0,0)" xlink:href="#V"/><use transform="matrix(0.0126953125,0,0,0.0126953125,14.853515625,0)" xlink:href="#W"/><use transform="matrix(0.0126953125,0,0,0.0126953125,30.443359375,0)" xlink:href="#X"/><use transform="matrix(0.0126953125,0,0,0.0126953125,45.8046875,0)" xlink:href="#Y"/><use transform="matrix(0.0126953125,0,0,0.0126953125,61.724609375,0)" xlink:href="#Z"/><use transform="matrix(0.0126953125,0,0,0.0126953125,68.021484375,0)" xlink:href="#aj"/><use transform="matrix(0.0126953125,0,0,0.0126953125,83.12890625,0)" xlink:href="#ak"/><use transform="matrix(0.0126953125,0,0,0.0126953125,97.728515625,0)" xlink:href="#W"/></g><g id="u"><use transform="matrix(0.0126953125,0,0,0.0126953125,0,0)" xlink:href="#ag"/><use transform="matrix(0.0126953125,0,0,0.0126953125,13.7236328125,0)" xlink:href="#T"/><use transform="matrix(0.0126953125,0,0,0.0126953125,28.8818359375,0)" xlink:href="#X"/><use transform="matrix(0.0126953125,0,0,0.0126953125,44.2431640625,0)" xlink:href="#ag"/><use transform="matrix(0.0126953125,0,0,0.0126953125,57.966796875,0)" xlink:href="#W"/><use transform="matrix(0.0126953125,0,0,0.0126953125,73.556640625,0)" xlink:href="#P"/></g><g id="v"><use transform="matrix(0.0126953125,0,0,0.0126953125,0,0)" xlink:href="#af"/><use transform="matrix(0.0126953125,0,0,0.0126953125,16.173828125,0)" xlink:href="#U"/><use transform="matrix(0.0126953125,0,0,0.0126953125,30.7734375,0)" xlink:href="#P"/><use transform="matrix(0.0126953125,0,0,0.0126953125,40.5615234375,0)" xlink:href="#U"/></g><g id="w"><use transform="matrix(0.0126953125,0,0,0.0126953125,0,0)" xlink:href="#W"/><use transform="matrix(0.0126953125,0,0,0.0126953125,15.58984375,0)" xlink:href="#af"/><use transform="matrix(0.0126953125,0,0,0.0126953125,31.509765625,0)" xlink:href="#T"/><use transform="matrix(0.0126953125,0,0,0.0126953125,46.66796875,0)" xlink:href="#P"/><use transform="matrix(0.0126953125,0,0,0.0126953125,56.4560546875,0)" xlink:href="#U"/><use transform="matrix(0.0126953125,0,0,0.0126953125,71.0556640625,0)" xlink:href="#aj"/><use transform="matrix(0.0126953125,0,0,0.0126953125,86.1630859375,0)" xlink:href="#ak"/><use transform="matrix(0.0126953125,0,0,0.0126953125,100.7626953125,0)" xlink:href="#W"/></g><path d="M338-1490V0H158v-1490h180" id="ap"/><g id="x"><use transform="matrix(0.0126953125,0,0,0.0126953125,0,0)" xlink:href="#ap"/><use transform="matrix(0.0126953125,0,0,0.0126953125,6.296875,0)" xlink:href="#T"/><use transform="matrix(0.0126953125,0,0,0.0126953125,21.455078125,0)" xlink:href="#Z"/><use transform="matrix(0.0126953125,0,0,0.0126953125,27.751953125,0)" xlink:href="#al"/><use transform="matrix(0.0126953125,0,0,0.0126953125,36.2578125,0)" xlink:href="#ah"/><use transform="matrix(0.0126953125,0,0,0.0126953125,51.6318359375,0)" xlink:href="#P"/><use transform="matrix(0.0126953125,0,0,0.0126953125,61.419921875,0)" xlink:href="#U"/></g><path d="M180 0v-1490h190v1322h690V0H180" id="aq"/><path d="M628 24c-324 0-524-230-524-574 0-343 198-582 503-582 237 0 487 146 487 559v75H286c9 234 145 362 343 362 132 0 231-58 273-172l174 48C1024-91 857 24 628 24zM287-650h624c-17-190-120-322-304-322-192 0-309 151-320 322zm172-632H282v-9l235-267h171l236 267v9H745l-142-175" id="ar"/><g id="y"><use transform="matrix(0.0126953125,0,0,0.0126953125,0,0)" xlink:href="#aq"/><use transform="matrix(0.0126953125,0,0,0.0126953125,14.701171875,0)" xlink:href="#ar"/></g><g id="z"><use transform="matrix(0.0126953125,0,0,0.0126953125,0,0)" xlink:href="#W"/><use transform="matrix(0.0126953125,0,0,0.0126953125,15.58984375,0)" xlink:href="#ag"/></g><g id="A"><use transform="matrix(0.0126953125,0,0,0.0126953125,0,0)" xlink:href="#af"/><use transform="matrix(0.0126953125,0,0,0.0126953125,15.919921875,0)" xlink:href="#P"/><use transform="matrix(0.0126953125,0,0,0.0126953125,26.1142578125,0)" xlink:href="#Z"/><use transform="matrix(0.0126953125,0,0,0.0126953125,32.4111328125,0)" xlink:href="#ai"/><use transform="matrix(0.0126953125,0,0,0.0126953125,55.1865234375,0)" xlink:href="#T"/><use transform="matrix(0.0126953125,0,0,0.0126953125,70.3447265625,0)" xlink:href="#Z"/><use transform="matrix(0.0126953125,0,0,0.0126953125,76.6416015625,0)" xlink:href="#P"/><use transform="matrix(0.0126953125,0,0,0.0126953125,85.998046875,0)" xlink:href="#W"/><use transform="matrix(0.0126953125,0,0,0.0126953125,101.587890625,0)" xlink:href="#ag"/></g><path d="M120-303v-155l652-1032h231v1020h202v167h-202V0H821v-303H120zm702-167v-782h-12L323-482v12h499" id="as"/><use transform="matrix(0.0126953125,0,0,0.0126953125,0,0)" xlink:href="#as" id="B"/><path d="M677 24c-213 0-288-135-325-197h-20V0H158v-1490h180v551h14c37-59 106-193 324-193 279 0 474 222 474 576 0 356-194 580-473 580zm-27-161c209 0 317-186 317-421 0-232-105-413-317-413-206 0-314 166-314 413 0 249 111 421 314 421" id="at"/><g id="C"><use transform="matrix(0.0126953125,0,0,0.0126953125,0,0)" xlink:href="#at"/><use transform="matrix(0.0126953125,0,0,0.0126953125,15.919921875,0)" xlink:href="#Z"/><use transform="matrix(0.0126953125,0,0,0.0126953125,22.216796875,0)" xlink:href="#al"/><use transform="matrix(0.0126953125,0,0,0.0126953125,30.46875,0)" xlink:href="#ag"/></g><path d="M783 20c-382 0-661-292-661-764 0-473 279-766 661-766 302 0 548 182 601 489h-190c-42-204-217-313-411-313-268 0-476 208-476 590 0 381 209 588 476 588 195 0 369-110 411-313h190c-52 303-296 489-601 489" id="au"/><path d="M180 0v-1490h190c0 262 1 526-3 784 217-279 467-523 702-784h249L716-845 1319 0h-225L585-716 370-489V0H180" id="av"/><g id="D"><use transform="matrix(0.0126953125,0,0,0.0126953125,0,0)" xlink:href="#ac"/><use transform="matrix(0.0126953125,0,0,0.0126953125,17.0498046875,0)" xlink:href="#au"/><use transform="matrix(0.0126953125,0,0,0.0126953125,36.0419921875,0)" xlink:href="#av"/></g><g id="E"><use transform="matrix(0.0126953125,0,0,0.0126953125,0,0)" xlink:href="#ah"/><use transform="matrix(0.0126953125,0,0,0.0126953125,15.3740234375,0)" xlink:href="#ap"/><use transform="matrix(0.0126953125,0,0,0.0126953125,22.0517578125,0)" xlink:href="#al"/><use transform="matrix(0.0126953125,0,0,0.0126953125,30.5576171875,0)" xlink:href="#Z"/><use transform="matrix(0.0126953125,0,0,0.0126953125,36.8544921875,0)" xlink:href="#ai"/><use transform="matrix(0.0126953125,0,0,0.0126953125,59.6298828125,0)" xlink:href="#W"/><use transform="matrix(0.0126953125,0,0,0.0126953125,75.2197265625,0)" xlink:href="#ag"/></g><g id="F"><use transform="matrix(0.0126953125,0,0,0.0126953125,0,0)" xlink:href="#at"/><use transform="matrix(0.0126953125,0,0,0.0126953125,15.919921875,0)" xlink:href="#Z"/><use transform="matrix(0.0126953125,0,0,0.0126953125,22.216796875,0)" xlink:href="#al"/><use transform="matrix(0.0126953125,0,0,0.0126953125,30.46875,0)" xlink:href="#ag"/></g><g id="G"><use transform="matrix(0.0126953125,0,0,0.0126953125,0,0)" xlink:href="#am"/><use transform="matrix(0.0126953125,0,0,0.0126953125,15.6279296875,0)" xlink:href="#X"/><use transform="matrix(0.0126953125,0,0,0.0126953125,30.9892578125,0)" xlink:href="#V"/><use transform="matrix(0.0126953125,0,0,0.0126953125,45.8427734375,0)" xlink:href="#T"/><use transform="matrix(0.0126953125,0,0,0.0126953125,61.0009765625,0)" xlink:href="#P"/><use transform="matrix(0.0126953125,0,0,0.0126953125,71.1953125,0)" xlink:href="#P"/><use transform="matrix(0.0126953125,0,0,0.0126953125,80.9833984375,0)" xlink:href="#U"/></g><use transform="matrix(0.0126953125,0,0,0.0126953125,0,0)" xlink:href="#U" id="H"/><g id="I"><use transform="matrix(0.0126953125,0,0,0.0126953125,0,0)" xlink:href="#V"/><use transform="matrix(0.0126953125,0,0,0.0126953125,14.853515625,0)" xlink:href="#W"/><use transform="matrix(0.0126953125,0,0,0.0126953125,30.443359375,0)" xlink:href="#ai"/><use transform="matrix(0.0126953125,0,0,0.0126953125,53.21875,0)" xlink:href="#ah"/><use transform="matrix(0.0126953125,0,0,0.0126953125,68.5927734375,0)" xlink:href="#X"/><use transform="matrix(0.0126953125,0,0,0.0126953125,83.9541015625,0)" xlink:href="#Z"/><use transform="matrix(0.0126953125,0,0,0.0126953125,90.2509765625,0)" xlink:href="#V"/><use transform="matrix(0.0126953125,0,0,0.0126953125,105.3583984375,0)" xlink:href="#U"/><use transform="matrix(0.0126953125,0,0,0.0126953125,119.9580078125,0)" xlink:href="#aj"/><use transform="matrix(0.0126953125,0,0,0.0126953125,135.0654296875,0)" xlink:href="#ak"/><use transform="matrix(0.0126953125,0,0,0.0126953125,149.6650390625,0)" xlink:href="#W"/></g><path d="M545 20c-263 0-445-160-445-446v-80h190v80c0 182 102 279 255 279 152 0 254-97 254-279v-1064h190v1064c0 286-181 446-444 446" id="aw"/><g id="J"><use transform="matrix(0.0126953125,0,0,0.0126953125,0,0)" xlink:href="#aw"/><use transform="matrix(0.0126953125,0,0,0.0126953125,14.8408203125,0)" xlink:href="#ah"/><use transform="matrix(0.0126953125,0,0,0.0126953125,30.21484375,0)" xlink:href="#X"/><use transform="matrix(0.0126953125,0,0,0.0126953125,45.576171875,0)" xlink:href="#al"/><use transform="matrix(0.0126953125,0,0,0.0126953125,54.208984375,0)" xlink:href="#U"/></g><g id="K"><use transform="matrix(0.0126953125,0,0,0.0126953125,0,0)" xlink:href="#at"/><use transform="matrix(0.0126953125,0,0,0.0126953125,15.919921875,0)" xlink:href="#Z"/><use transform="matrix(0.0126953125,0,0,0.0126953125,22.216796875,0)" xlink:href="#al"/><use transform="matrix(0.0126953125,0,0,0.0126953125,30.46875,0)" xlink:href="#ag"/></g><g id="L"><use transform="matrix(0.0126953125,0,0,0.0126953125,0,0)" xlink:href="#V"/><use transform="matrix(0.0126953125,0,0,0.0126953125,14.853515625,0)" xlink:href="#W"/><use transform="matrix(0.0126953125,0,0,0.0126953125,30.443359375,0)" xlink:href="#ai"/></g><g id="M"><use transform="matrix(0.0126953125,0,0,0.0126953125,0,0)" xlink:href="#Y"/><use transform="matrix(0.0126953125,0,0,0.0126953125,15.919921875,0)" xlink:href="#Z"/><use transform="matrix(0.0126953125,0,0,0.0126953125,22.216796875,0)" xlink:href="#ao"/><use transform="matrix(0.0126953125,0,0,0.0126953125,38.162109375,0)" xlink:href="#Z"/><use transform="matrix(0.0126953125,0,0,0.0126953125,44.458984375,0)" xlink:href="#al"/><use transform="matrix(0.0126953125,0,0,0.0126953125,52.7109375,0)" xlink:href="#W"/><use transform="matrix(0.0126953125,0,0,0.0126953125,68.30078125,0)" xlink:href="#ag"/></g><use transform="matrix(0.0126953125,0,0,0.0126953125,0,0)" xlink:href="#T" id="N"/><g id="O"><use transform="matrix(0.0126953125,0,0,0.0126953125,0,0)" xlink:href="#P"/><use transform="matrix(0.0126953125,0,0,0.0126953125,9.3564453125,0)" xlink:href="#T"/><use transform="matrix(0.0126953125,0,0,0.0126953125,24.5146484375,0)" xlink:href="#al"/><use transform="matrix(0.0126953125,0,0,0.0126953125,32.7666015625,0)" xlink:href="#W"/><use transform="matrix(0.0126953125,0,0,0.0126953125,48.3564453125,0)" xlink:href="#P"/><use transform="matrix(0.0126953125,0,0,0.0126953125,58.55078125,0)" xlink:href="#X"/><use transform="matrix(0.0126953125,0,0,0.0126953125,73.912109375,0)" xlink:href="#U"/></g></defs></g></svg>