<svg xmlns="http://www.w3.org/2000/svg" xmlns:xlink="http://www.w3.org/1999/xlink" xmlns:lucid="lucid" width="519.52" height="2323.58"><g transform="translate(3587.424229965037 -1971.6441995724167)" lucid:page-tab-id="0_0"><path d="M-3245.43 1972.64c26.26 0 47.54 21.3 47.54 47.55 0 26.24-21.27 47.53-47.53 47.53h-146.4c-26.26 0-47.55-21.3-47.55-47.54 0-26.27 21.3-47.56 47.55-47.56z" stroke="#000" stroke-width="2" fill="#fff"/><use xlink:href="#a" transform="matrix(1,0,0,1,-3434.3763943985423,1977.6441995724167) translate(48.630208333333314 50.22916666666667)"/><path d="M-3318.63 2070.23v54" stroke="#3a414a" stroke-width="3" stroke-linejoin="round" fill="none"/><path d="M-3317.16 2070.27h-2.95v-1.54h2.94z" stroke="#3a414a" stroke-width=".05" fill="#3a414a"/><path d="M-3318.63 2138.73l-7.5-13h15z" stroke="#3a414a" stroke-width="3" fill="#3a414a"/><path d="M-3398.63 2148.73a6 6 0 0 1 6-6h148a6 6 0 0 1 6 6v108a6 6 0 0 1-6 6h-148a6 6 0 0 1-6-6z" stroke="#000" stroke-width="2" fill="#fff"/><use xlink:href="#b" transform="matrix(1,0,0,1,-3393.631688123526,2147.7293259313583) translate(22.02880859375 45.8125)"/><use xlink:href="#c" transform="matrix(1,0,0,1,-3393.631688123526,2147.7293259313583) translate(33.32763671875 83.56328124999999)"/><path d="M-3318.63 2265.23v60.02" stroke="#3a414a" stroke-width="3" stroke-linejoin="round" fill="none"/><path d="M-3317.16 2265.27h-2.95v-1.54h2.94z" stroke="#3a414a" stroke-width=".05" fill="#3a414a"/><path d="M-3318.63 2339.74l-7.5-13h15z" stroke="#3a414a" stroke-width="3" fill="#3a414a"/><path d="M-3398.63 2349.74a6 6 0 0 1 6-6h148a6 6 0 0 1 6 6v116.73a6 6 0 0 1-6 6h-148a6 6 0 0 1-6-6z" stroke="#000" stroke-width="2" fill="#fff"/><use xlink:href="#d" transform="matrix(1,0,0,1,-3393.631688123526,2348.736458218855) translate(6.5 24.385416666666668)"/><use xlink:href="#e" transform="matrix(1,0,0,1,-3393.631688123526,2348.736458218855) translate(37 24.385416666666668)"/><use xlink:href="#f" transform="matrix(1,0,0,1,-3393.631688123526,2348.736458218855) translate(56.22916666666667 24.385416666666668)"/><use xlink:href="#g" transform="matrix(1,0,0,1,-3393.631688123526,2348.736458218855) translate(117.64583333333334 24.385416666666668)"/><use xlink:href="#h" transform="matrix(1,0,0,1,-3393.631688123526,2348.736458218855) translate(1.8645833333333286 55.360416666666666)"/><use xlink:href="#i" transform="matrix(1,0,0,1,-3393.631688123526,2348.736458218855) translate(78.67708333333333 55.360416666666666)"/><use xlink:href="#j" transform="matrix(1,0,0,1,-3393.631688123526,2348.736458218855) translate(113.8125 55.360416666666666)"/><use xlink:href="#k" transform="matrix(1,0,0,1,-3393.631688123526,2348.736458218855) translate(7.223958333333329 86.33541666666666)"/><use xlink:href="#l" transform="matrix(1,0,0,1,-3393.631688123526,2348.736458218855) translate(25.661458333333332 86.33541666666666)"/><use xlink:href="#m" transform="matrix(1,0,0,1,-3393.631688123526,2348.736458218855) translate(118.72395833333334 86.33541666666666)"/><use xlink:href="#n" transform="matrix(1,0,0,1,-3393.631688123526,2348.736458218855) translate(56.869791666666664 117.31041666666665)"/><path d="M-3318.63 2474.97v43.2" stroke="#3a414a" stroke-width="3" stroke-linejoin="round" fill="none"/><path d="M-3317.16 2475h-2.95v-1.53h2.94z" stroke="#3a414a" stroke-width=".05" fill="#3a414a"/><path d="M-3318.63 2532.66l-7.5-13h15z" stroke="#3a414a" stroke-width="3" fill="#3a414a"/><path d="M-3398.63 2542.66a6 6 0 0 1 6-6h148a6 6 0 0 1 6 6v218.22a6 6 0 0 1-6 6h-148a6 6 0 0 1-6-6z" stroke="#000" stroke-width="2" fill="#fff"/><use xlink:href="#o" transform="matrix(1,0,0,1,-3393.631688123526,2541.662350218294) translate(10.08251953125 32.09375)"/><use xlink:href="#p" transform="matrix(1,0,0,1,-3393.631688123526,2541.662350218294) translate(109.39794921875 32.09375)"/><use xlink:href="#q" transform="matrix(1,0,0,1,-3393.631688123526,2541.662350218294) translate(3.0556640625 69.84453124999999)"/><use xlink:href="#r" transform="matrix(1,0,0,1,-3393.631688123526,2541.662350218294) translate(131.7861328125 69.84453124999999)"/><use xlink:href="#s" transform="matrix(1,0,0,1,-3393.631688123526,2541.662350218294) translate(0.04052734375 107.59531249999999)"/><use xlink:href="#t" transform="matrix(1,0,0,1,-3393.631688123526,2541.662350218294) translate(11.89794921875 145.34609375)"/><use xlink:href="#u" transform="matrix(1,0,0,1,-3393.631688123526,2541.662350218294) translate(109.77880859375 145.34609375)"/><use xlink:href="#v" transform="matrix(1,0,0,1,-3393.631688123526,2541.662350218294) translate(2.37646484375 183.09687499999998)"/><use xlink:href="#p" transform="matrix(1,0,0,1,-3393.631688123526,2541.662350218294) translate(117.10400390625 183.09687499999998)"/><use xlink:href="#w" transform="matrix(1,0,0,1,-3393.631688123526,2541.662350218294) translate(10.80615234375 220.84765624999997)"/><path d="M-3318.63 2769.38v54" stroke="#3a414a" stroke-width="3" stroke-linejoin="round" fill="none"/><path d="M-3317.16 2769.4h-2.95v-1.53h2.94z" stroke="#3a414a" stroke-width=".05" fill="#3a414a"/><path d="M-3318.63 2837.88l-7.5-13h15z" stroke="#3a414a" stroke-width="3" fill="#3a414a"/><path d="M-3398.63 2847.88a6 6 0 0 1 6-6h148a6 6 0 0 1 6 6v108a6 6 0 0 1-6 6h-148a6 6 0 0 1-6-6z" stroke="#000" stroke-width="2" fill="#fff"/><use xlink:href="#d" transform="matrix(1,0,0,1,-3393.631688123526,2846.875240843294) translate(6.5 48.16666666666667)"/><use xlink:href="#e" transform="matrix(1,0,0,1,-3393.631688123526,2846.875240843294) translate(37 48.16666666666667)"/><use xlink:href="#f" transform="matrix(1,0,0,1,-3393.631688123526,2846.875240843294) translate(56.22916666666667 48.16666666666667)"/><use xlink:href="#g" transform="matrix(1,0,0,1,-3393.631688123526,2846.875240843294) translate(117.64583333333334 48.16666666666667)"/><use xlink:href="#x" transform="matrix(1,0,0,1,-3393.631688123526,2846.875240843294) translate(31.73958333333333 79.14166666666667)"/><path d="M-3318.63 2964.38v54" stroke="#3a414a" stroke-width="3" stroke-linejoin="round" fill="none"/><path d="M-3317.16 2964.4h-2.95v-1.53h2.94z" stroke="#3a414a" stroke-width=".05" fill="#3a414a"/><path d="M-3318.63 3032.88l-7.5-13h15z" stroke="#3a414a" stroke-width="3" fill="#3a414a"/><path d="M-3398.63 3042.88a6 6 0 0 1 6-6h148a6 6 0 0 1 6 6v108a6 6 0 0 1-6 6h-148a6 6 0 0 1-6-6z" stroke="#000" stroke-width="2" fill="#fff"/><use xlink:href="#o" transform="matrix(1,0,0,1,-3393.631688123526,3041.875240843294) translate(9.80322265625 45.8125)"/><use xlink:href="#y" transform="matrix(1,0,0,1,-3393.631688123526,3041.875240843294) translate(109.11865234375 45.8125)"/><use xlink:href="#z" transform="matrix(1,0,0,1,-3393.631688123526,3041.875240843294) translate(41.5986328125 83.56328124999999)"/><path d="M-3318.63 3159.38v54" stroke="#3a414a" stroke-width="3" stroke-linejoin="round" fill="none"/><path d="M-3317.16 3159.4h-2.95v-1.53h2.94z" stroke="#3a414a" stroke-width=".05" fill="#3a414a"/><path d="M-3318.63 3227.88l-7.5-13h15z" stroke="#3a414a" stroke-width="3" fill="#3a414a"/><path d="M-3398.63 3237.88a6 6 0 0 1 6-6h148a6 6 0 0 1 6 6v108a6 6 0 0 1-6 6h-148a6 6 0 0 1-6-6z" stroke="#000" stroke-width="2" fill="#fff"/><use xlink:href="#A" transform="matrix(1,0,0,1,-3393.631688123526,3236.875240843294) translate(32.7880859375 28.625)"/><use xlink:href="#B" transform="matrix(1,0,0,1,-3393.631688123526,3236.875240843294) translate(23.431640625 66.37578124999999)"/><use xlink:href="#C" transform="matrix(1,0,0,1,-3393.631688123526,3236.875240843294) translate(95.05859375 66.37578124999999)"/><use xlink:href="#D" transform="matrix(1,0,0,1,-3393.631688123526,3236.875240843294) translate(46.4482421875 104.12656249999999)"/><path d="M-3318.63 3354.38v40" stroke="#3a414a" stroke-width="3" stroke-linejoin="round" fill="none"/><path d="M-3317.16 3354.4h-2.95v-1.53h2.94z" stroke="#3a414a" stroke-width=".05" fill="#3a414a"/><path d="M-3318.63 3408.88l-7.5-13h15z" stroke="#3a414a" stroke-width="3" fill="#3a414a"/><path d="M-3398.63 3418.88a6 6 0 0 1 6-6h148a6 6 0 0 1 6 6v180.46a6 6 0 0 1-6 6h-148a6 6 0 0 1-6-6z" stroke="#000" stroke-width="2" fill="#fff"/><g><use xlink:href="#E" transform="matrix(1,0,0,1,-3393.631688123526,3417.878219629002) translate(14.90673828125 30.90625)"/><use xlink:href="#F" transform="matrix(1,0,0,1,-3393.631688123526,3417.878219629002) translate(30.39501953125 68.65703124999999)"/><use xlink:href="#G" transform="matrix(1,0,0,1,-3393.631688123526,3417.878219629002) translate(16.48095703125 106.40781249999999)"/><use xlink:href="#y" transform="matrix(1,0,0,1,-3393.631688123526,3417.878219629002) translate(102.44091796875 106.40781249999999)"/><use xlink:href="#H" transform="matrix(1,0,0,1,-3393.631688123526,3417.878219629002) translate(14.72900390625 144.15859375)"/><use xlink:href="#r" transform="matrix(1,0,0,1,-3393.631688123526,3417.878219629002) translate(120.11279296875 144.15859375)"/><use xlink:href="#I" transform="matrix(1,0,0,1,-3393.631688123526,3417.878219629002) translate(0.04052734375 181.90937499999998)"/></g><path d="M-3318.63 3607.84v36.65" stroke="#3a414a" stroke-width="3" stroke-linejoin="round" fill="none"/><path d="M-3317.16 3607.88h-2.95v-1.54h2.94z" stroke="#3a414a" stroke-width=".05" fill="#3a414a"/><path d="M-3318.63 3659l-7.5-13h15z" stroke="#3a414a" stroke-width="3" fill="#3a414a"/><path d="M-3426.42 3669a6 6 0 0 1 6-6h203.58a6 6 0 0 1 6 6v167.15a6 6 0 0 1-6 6h-203.58a6 6 0 0 1-6-6z" stroke="#000" stroke-width="2" fill="#fff"/><g><use xlink:href="#J" transform="matrix(1,0,0,1,-3421.424229965037,3667.984664941502) translate(41.6435546875 35.8125)"/><use xlink:href="#K" transform="matrix(1,0,0,1,-3421.424229965037,3667.984664941502) translate(149.7568359375 35.8125)"/><use xlink:href="#L" transform="matrix(1,0,0,1,-3421.424229965037,3667.984664941502) translate(17.052734375 73.56328124999999)"/><use xlink:href="#M" transform="matrix(1,0,0,1,-3421.424229965037,3667.984664941502) translate(7.34716796875 111.31406249999999)"/><use xlink:href="#N" transform="matrix(1,0,0,1,-3421.424229965037,3667.984664941502) translate(45.17919921875 111.31406249999999)"/><use xlink:href="#O" transform="matrix(1,0,0,1,-3421.424229965037,3667.984664941502) translate(150.56298828125 111.31406249999999)"/><use xlink:href="#r" transform="matrix(1,0,0,1,-3421.424229965037,3667.984664941502) translate(183.49462890625 111.31406249999999)"/><use xlink:href="#P" transform="matrix(1,0,0,1,-3421.424229965037,3667.984664941502) translate(87.11181640625 149.06484375)"/></g><path d="M-3318.63 3844.65v36.66" stroke="#3a414a" stroke-width="3" stroke-linejoin="round" fill="none"/><path d="M-3317.16 3844.7h-2.95v-1.55h2.94z" stroke="#3a414a" stroke-width=".05" fill="#3a414a"/><path d="M-3318.63 3895.8l-7.5-13h15z" stroke="#3a414a" stroke-width="3" fill="#3a414a"/><path d="M-3398.63 3905.8a6 6 0 0 1 6-6h148a6 6 0 0 1 6 6v142.7a6 6 0 0 1-6 6h-148a6 6 0 0 1-6-6z" stroke="#000" stroke-width="2" fill="#fff"/><g><use xlink:href="#Q" transform="matrix(1,0,0,1,-3393.631688123526,3904.7977658245313) translate(9.95556640625 29.71875)"/><use xlink:href="#R" transform="matrix(1,0,0,1,-3393.631688123526,3904.7977658245313) translate(111.16259765625 29.71875)"/><use xlink:href="#S" transform="matrix(1,0,0,1,-3393.631688123526,3904.7977658245313) translate(8.39404296875 67.46953124999999)"/><use xlink:href="#T" transform="matrix(1,0,0,1,-3393.631688123526,3904.7977658245313) translate(91.30712890625 67.46953124999999)"/><use xlink:href="#U" transform="matrix(1,0,0,1,-3393.631688123526,3904.7977658245313) translate(25.7041015625 105.22031249999999)"/><use xlink:href="#V" transform="matrix(1,0,0,1,-3393.631688123526,3904.7977658245313) translate(111.00390625 105.22031249999999)"/><use xlink:href="#W" transform="matrix(1,0,0,1,-3393.631688123526,3904.7977658245313) translate(75 142.97109375)"/></g><path d="M-3318.7 4057v.16l-.1.8-.1.8-.15.8-.2.8-.2.78-.27.8-.3.78-.33.8-.4.83-.43.83-.5.86-.55.88-.62.9-.72.94-.8.97-.93 1.03-1.05 1.07-1.2 1.14-1.4 1.2-1.65 1.3-1.94 1.4-2.3 1.54-2.8 1.7-3.42 1.88-4.33 2.14-5.6 2.5-7.65 3-11.36 3.95-21.88 6.52-63.16 17.7-11.36 3.95-7.65 3.02-5.62 2.5-4.32 2.13-3.43 1.88-2.78 1.7-2.32 1.52-1.93 1.4-1.64 1.3-1.4 1.2-1.2 1.15-.76.76" stroke="#3a414a" stroke-width="3" stroke-linejoin="round" fill="none"/><path d="M-3317.2 4057.08l-2.94-.06.03-1.5h2.94z" stroke="#3a414a" stroke-width=".05" fill="#3a414a"/><path d="M-3505.2 4153.13l-1.53-14.92 13.7 6.14z" stroke="#3a414a" stroke-width="3" fill="#3a414a"/><path d="M-3586.42 4162.87a6 6 0 0 1 6-6h148a6 6 0 0 1 6 6v108a6 6 0 0 1-6 6h-148a6 6 0 0 1-6-6z" stroke="#000" stroke-width="2" fill="#fff"/><g><use xlink:href="#X" transform="matrix(1,0,0,1,-3581.424229965037,4161.869217278683) translate(43.72509765625 63)"/></g><path d="M-3318.55 4057l.04.38.07.6.12.6.13.6.17.6.2.62.23.6.26.63.28.63.34.65.38.67.43.68.5.7.54.73.63.76.72.8.82.83.94.88 1.1.95 1.28 1.02 1.52 1.1 1.8 1.2 2.18 1.3 2.7 1.48 3.35 1.67 4.35 1.93 5.82 2.3 8.3 2.87 13.56 4.07 77.56 20.4 8.3 2.9 5.82 2.3 4.33 1.9 3.37 1.68 2.68 1.47 2.18 1.3 1.8 1.2 1.52 1.1.93.74" stroke="#3a414a" stroke-width="3" stroke-linejoin="round" fill="none"/><path d="M-3317.13 4057.02l-2.94.06-.04-1.57h2.94z" stroke="#3a414a" stroke-width=".05" fill="#3a414a"/><path d="M-3150.4 4135.9l-12.94-7.56 13.03-7.43z" stroke="#3a414a" stroke-width="3" fill="#3a414a"/><path d="M-3228.9 4145.5a6 6 0 0 1 6-6h148a6 6 0 0 1 6 6v142.73a6 6 0 0 1-6 6h-148a6 6 0 0 1-6-6z" stroke="#000" stroke-width="2" fill="#fff"/><g><use xlink:href="#Y" transform="matrix(1,0,0,1,-3223.904084182731,4144.513553216183) translate(36.78125 34.26041666666667)"/><use xlink:href="#Z" transform="matrix(1,0,0,1,-3223.904084182731,4144.513553216183) translate(29.63020833333333 65.23541666666667)"/><use xlink:href="#aa" transform="matrix(1,0,0,1,-3223.904084182731,4144.513553216183) translate(107.93229166666667 65.23541666666667)"/><use xlink:href="#ab" transform="matrix(1,0,0,1,-3223.904084182731,4144.513553216183) translate(10.755208333333314 96.21041666666666)"/><use xlink:href="#ac" transform="matrix(1,0,0,1,-3223.904084182731,4144.513553216183) translate(113.64062500000001 96.21041666666666)"/><use xlink:href="#ad" transform="matrix(1,0,0,1,-3223.904084182731,4144.513553216183) translate(30.260416666666664 127.18541666666665)"/><use xlink:href="#ae" transform="matrix(1,0,0,1,-3223.904084182731,4144.513553216183) translate(81.52083333333334 127.18541666666665)"/></g><path d="M-3483.36 4069.25a6 6 0 0 1 6-6h44.94a6 6 0 0 1 6 6v30.28a6 6 0 0 1-6 6h-44.94a6 6 0 0 1-6-6z" fill="none"/><g><use xlink:href="#af" transform="matrix(1,0,0,1,-3478.36131329837,4068.2541365283937) translate(0 26.200520833333336)"/></g><path d="M-3223.1 4069.25a6 6 0 0 1 6-6h49.07a6 6 0 0 1 6 6v30.28a6 6 0 0 1-6 6h-49.06a6 6 0 0 1-6-6z" fill="none"/><g><use xlink:href="#ag" transform="matrix(1,0,0,1,-3218.0905150254275,4068.2541365283937) translate(0 26.200520833333336)"/></g><defs><path d="M158 0v-1118h174v172h12c41-113 157-188 290-188 26 0 70 2 91 3v181c-11-2-60-10-108-10-161 0-279 109-279 260V0H158" id="ah"/><path d="M628 24c-324 0-524-230-524-574 0-343 198-582 503-582 237 0 487 146 487 559v75H286c9 234 145 362 343 362 132 0 231-58 273-172l174 48C1024-91 857 24 628 24zM287-650h624c-17-190-120-322-304-322-192 0-309 151-320 322" id="ai"/><path d="M471 26C259 26 90-98 90-318c0-256 228-303 435-329 202-27 287-16 287-108 0-139-79-219-234-219-161 0-248 86-283 164l-173-57c86-203 278-265 451-265 150 0 419 46 419 395V0H815v-152h-12C765-73 660 26 471 26zm31-159c199 0 310-134 310-271v-155c-30 35-226 55-295 64-131 17-246 59-246 186 0 116 97 176 231 176" id="aj"/><path d="M577 24c-279 0-473-224-473-580 0-354 195-576 474-576 218 0 287 134 324 193h14v-551h180V0H922v-173h-20C865-111 790 24 577 24zm27-161c203 0 314-172 314-421 0-247-108-413-314-413-212 0-317 181-317 413 0 235 108 421 317 421" id="ak"/><path d="M934 0v166H0V0h934" id="al"/><path d="M538 24C308 24 148-78 108-271l171-41c32 123 123 178 257 178 156 0 256-77 256-169 0-77-54-128-164-154l-186-44c-203-48-300-148-300-305 0-192 176-326 414-326 230 0 351 112 402 269l-163 42c-31-80-94-158-238-158-133 0-233 69-233 162 0 83 57 129 188 160l169 40c203 48 298 149 298 302 0 196-179 339-441 339" id="am"/><path d="M338-670V0H158v-1118h173l1 207c72-158 192-221 342-221 226 0 378 139 378 422V0H872v-695c0-172-96-275-252-275-161 0-282 109-282 300" id="an"/><path d="M613 24c-304 0-509-231-509-576 0-350 205-580 509-580 305 0 511 230 511 580 0 345-206 576-511 576zm0-161c226 0 329-195 329-415 0-222-103-419-329-419-223 0-326 196-326 419 0 220 103 415 326 415" id="ao"/><g id="a"><use transform="matrix(0.010416666666666668,0,0,0.010416666666666668,0,0)" xlink:href="#ah"/><use transform="matrix(0.010416666666666668,0,0,0.010416666666666668,7.677083333333336,0)" xlink:href="#ai"/><use transform="matrix(0.010416666666666668,0,0,0.010416666666666668,20.32291666666667,0)" xlink:href="#aj"/><use transform="matrix(0.010416666666666668,0,0,0.010416666666666668,32.30208333333334,0)" xlink:href="#ak"/><use transform="matrix(0.010416666666666668,0,0,0.010416666666666668,45.364583333333336,0)" xlink:href="#al"/><use transform="matrix(0.010416666666666668,0,0,0.010416666666666668,55.093750000000014,0)" xlink:href="#am"/><use transform="matrix(0.010416666666666668,0,0,0.010416666666666668,66.35416666666669,0)" xlink:href="#ai"/><use transform="matrix(0.010416666666666668,0,0,0.010416666666666668,78.79166666666669,0)" xlink:href="#an"/><use transform="matrix(0.010416666666666668,0,0,0.010416666666666668,91.39583333333336,0)" xlink:href="#am"/><use transform="matrix(0.010416666666666668,0,0,0.010416666666666668,102.65625000000003,0)" xlink:href="#ao"/><use transform="matrix(0.010416666666666668,0,0,0.010416666666666668,115.4479166666667,0)" xlink:href="#ah"/><use transform="matrix(0.010416666666666668,0,0,0.010416666666666668,123.4791666666667,0)" xlink:href="#am"/></g><path d="M370-1490V0H180v-1490h190" id="ap"/><path d="M158 0v-1118h180V0H158zm91-1301c-68 0-125-53-125-119s57-119 125-119c69 0 126 53 126 119s-57 119-126 119" id="aq"/><path d="M613 24c-304 0-509-231-509-576 0-350 205-580 509-580 216 0 392 114 453 309l-173 49c-33-115-133-197-280-197-223 0-326 196-326 419 0 220 103 415 326 415 150 0 252-85 285-206l172 49C1010-95 832 24 613 24" id="ar"/><path d="M338-1490V0H158v-1490h180" id="as"/><path d="M126 0v-134l627-806v-11H146v-167h839v143L376-178v11h629V0H126" id="at"/><g id="b"><use transform="matrix(0.0126953125,0,0,0.0126953125,0,0)" xlink:href="#ap"/><use transform="matrix(0.0126953125,0,0,0.0126953125,6.982421875,0)" xlink:href="#an"/><use transform="matrix(0.0126953125,0,0,0.0126953125,22.34375,0)" xlink:href="#aq"/><use transform="matrix(0.0126953125,0,0,0.0126953125,28.640625,0)" xlink:href="#ar"/><use transform="matrix(0.0126953125,0,0,0.0126953125,43.494140625,0)" xlink:href="#aq"/><use transform="matrix(0.0126953125,0,0,0.0126953125,49.791015625,0)" xlink:href="#aj"/><use transform="matrix(0.0126953125,0,0,0.0126953125,64.390625,0)" xlink:href="#as"/><use transform="matrix(0.0126953125,0,0,0.0126953125,70.6875,0)" xlink:href="#aq"/><use transform="matrix(0.0126953125,0,0,0.0126953125,76.984375,0)" xlink:href="#at"/><use transform="matrix(0.0126953125,0,0,0.0126953125,91.3427734375,0)" xlink:href="#aj"/></g><g id="c"><use transform="matrix(0.0126953125,0,0,0.0126953125,0,0)" xlink:href="#am"/><use transform="matrix(0.0126953125,0,0,0.0126953125,13.7236328125,0)" xlink:href="#ai"/><use transform="matrix(0.0126953125,0,0,0.0126953125,28.8818359375,0)" xlink:href="#an"/><use transform="matrix(0.0126953125,0,0,0.0126953125,44.2431640625,0)" xlink:href="#am"/><use transform="matrix(0.0126953125,0,0,0.0126953125,57.966796875,0)" xlink:href="#ao"/><use transform="matrix(0.0126953125,0,0,0.0126953125,73.556640625,0)" xlink:href="#ah"/></g><path d="M180 0v-1490h190v1322h690V0H180" id="au"/><path d="M628 24c-324 0-524-230-524-574 0-343 198-582 503-582 237 0 487 146 487 559v75H286c9 234 145 362 343 362 132 0 231-58 273-172l174 48C1024-91 857 24 628 24zM287-650h624c-17-190-120-322-304-322-192 0-309 151-320 322zm172-632H282v-9l235-267h171l236 267v9H745l-142-175" id="av"/><g id="d"><use transform="matrix(0.010416666666666668,0,0,0.010416666666666668,0,0)" xlink:href="#au"/><use transform="matrix(0.010416666666666668,0,0,0.010416666666666668,12.062500000000002,0)" xlink:href="#av"/></g><path d="M646 20c-249 0-524-159-524-708 0-524 209-822 547-822 250 0 431 161 467 395H950c-33-129-126-227-281-227-229 0-367 208-367 566h12c80-124 212-198 367-198 255 0 467 205 467 493 0 278-198 501-502 501zm0-167c179 0 318-148 318-334 0-182-133-328-313-328-181 0-322 156-322 330 0 176 134 332 317 332" id="aw"/><use transform="matrix(0.010416666666666668,0,0,0.010416666666666668,0,0)" xlink:href="#aw" id="e"/><path d="M677 24c-213 0-288-135-325-197h-20V0H158v-1490h180v551h14c37-59 106-193 324-193 279 0 474 222 474 576 0 356-194 580-473 580zm-27-161c209 0 317-186 317-421 0-232-105-413-317-413-206 0-314 166-314 413 0 249 111 421 314 421" id="ax"/><path d="M140 405l46-156c120 36 205 19 263-150l32-93L54-1118h197c107 313 237 620 324 950 87-331 219-637 326-950h196L606 167c-68 178-176 259-334 259-64 0-113-12-132-21" id="ay"/><path d="M598-1118v154H368v674c0 100 37 144 132 144 23 0 62-6 92-12L629-6c-37 13-88 20-134 20-193 0-307-107-307-290v-688H20v-154h168v-266h180v266h230" id="az"/><g id="f"><use transform="matrix(0.010416666666666668,0,0,0.010416666666666668,0,0)" xlink:href="#ax"/><use transform="matrix(0.010416666666666668,0,0,0.010416666666666668,12.645833333333334,0)" xlink:href="#ay"/><use transform="matrix(0.010416666666666668,0,0,0.010416666666666668,24.947916666666668,0)" xlink:href="#az"/><use transform="matrix(0.010416666666666668,0,0,0.010416666666666668,31.718750000000007,0)" xlink:href="#ai"/><use transform="matrix(0.010416666666666668,0,0,0.010416666666666668,44.15625000000001,0)" xlink:href="#am"/></g><g id="g"><use transform="matrix(0.010416666666666668,0,0,0.010416666666666668,0,0)" xlink:href="#ak"/><use transform="matrix(0.010416666666666668,0,0,0.010416666666666668,13.062500000000002,0)" xlink:href="#ao"/></g><path d="M52 0l541-1490h220L1361 0h-200l-149-416H398L254 0H52zm404-582h497c-103-290-145-390-251-756-108 377-145 460-246 756" id="aA"/><path d="M180 0v-1490h190v644h782v-644h190V0h-190v-678H370V0H180" id="aB"/><path d="M98-1322v-168h1126v168H757V0H567v-1322H98" id="aC"/><path d="M154 0v-137l495-537c165-179 249-281 249-418 0-156-121-253-280-253-170 0-278 110-278 278H158c0-264 200-443 465-443 266 0 455 183 455 416 0 161-73 288-336 568L416-179v12h687V0H154" id="aD"/><path d="M646 20c-332 0-524-278-524-764 0-483 194-766 524-766s524 283 524 766c0 485-191 764-524 764zm0-166c218 0 341-220 341-598 0-380-123-601-341-601s-341 222-341 601c0 378 123 598 341 598" id="aE"/><g id="h"><use transform="matrix(0.010416666666666668,0,0,0.010416666666666668,0,0)" xlink:href="#aA"/><use transform="matrix(0.010416666666666668,0,0,0.010416666666666668,14.718750000000002,0)" xlink:href="#aB"/><use transform="matrix(0.010416666666666668,0,0,0.010416666666666668,30.57291666666667,0)" xlink:href="#aC"/><use transform="matrix(0.010416666666666668,0,0,0.010416666666666668,44.34375000000001,0)" xlink:href="#aD"/><use transform="matrix(0.010416666666666668,0,0,0.010416666666666668,57.35416666666667,0)" xlink:href="#aE"/></g><path d="M481 0L54-1118h197c107 314 236 620 325 951 87-331 217-637 324-951h197L670 0H481" id="aF"/><g id="i"><use transform="matrix(0.010416666666666668,0,0,0.010416666666666668,0,0)" xlink:href="#aF"/><use transform="matrix(0.010416666666666668,0,0,0.010416666666666668,11.989583333333334,0)" xlink:href="#aq"/><use transform="matrix(0.010416666666666668,0,0,0.010416666666666668,17.15625,0)" xlink:href="#aj"/></g><path d="M783 20c-382 0-661-292-661-764 0-473 279-766 661-766 302 0 548 182 601 489h-190c-42-204-217-313-411-313-268 0-476 208-476 590 0 381 209 588 476 588 195 0 369-110 411-313h190c-52 303-296 489-601 489" id="aG"/><g id="j"><use transform="matrix(0.010416666666666668,0,0,0.010416666666666668,0,0)" xlink:href="#ap"/><use transform="matrix(0.010416666666666668,0,0,0.010416666666666668,5.729166666666667,0)" xlink:href="#aD"/><use transform="matrix(0.010416666666666668,0,0,0.010416666666666668,18.739583333333336,0)" xlink:href="#aG"/></g><use transform="matrix(0.010416666666666668,0,0,0.010416666666666668,0,0)" xlink:href="#ai" id="k"/><path d="M611 442c-248 0-391-105-460-228l146-94c47 65 117 165 314 165 178 0 307-82 307-266v-224h-17C863-141 792-18 576-18c-268 0-472-195-472-546 0-346 197-568 476-568 216 0 288 133 326 193h17v-179h175V29c0 289-215 413-487 413zm-5-620c203 0 314-146 314-390 0-237-108-403-314-403-213 0-319 180-319 403 0 230 109 390 319 390" id="aH"/><g id="l"><use transform="matrix(0.010416666666666668,0,0,0.010416666666666668,0,0)" xlink:href="#ao"/><use transform="matrix(0.010416666666666668,0,0,0.010416666666666668,12.791666666666668,0)" xlink:href="#ah"/><use transform="matrix(0.010416666666666668,0,0,0.010416666666666668,20.468750000000004,0)" xlink:href="#aH"/><use transform="matrix(0.010416666666666668,0,0,0.010416666666666668,33.552083333333336,0)" xlink:href="#aj"/><use transform="matrix(0.010416666666666668,0,0,0.010416666666666668,45.53124999999999,0)" xlink:href="#an"/><use transform="matrix(0.010416666666666668,0,0,0.010416666666666668,58.13541666666667,0)" xlink:href="#aq"/><use transform="matrix(0.010416666666666668,0,0,0.010416666666666668,63.30208333333334,0)" xlink:href="#at"/><use transform="matrix(0.010416666666666668,0,0,0.010416666666666668,75.08333333333334,0)" xlink:href="#aj"/></g><g id="m"><use transform="matrix(0.010416666666666668,0,0,0.010416666666666668,0,0)" xlink:href="#ao"/><use transform="matrix(0.010416666666666668,0,0,0.010416666666666668,12.791666666666668,0)" xlink:href="#am"/></g><g id="n"><use transform="matrix(0.010416666666666668,0,0,0.010416666666666668,0,0)" xlink:href="#ax"/><use transform="matrix(0.010416666666666668,0,0,0.010416666666666668,13.062500000000002,0)" xlink:href="#aq"/><use transform="matrix(0.010416666666666668,0,0,0.010416666666666668,18.229166666666668,0)" xlink:href="#az"/><use transform="matrix(0.010416666666666668,0,0,0.010416666666666668,25.000000000000004,0)" xlink:href="#am"/></g><path d="M537 14c-226 0-379-139-379-422v-710h180v695c0 172 97 275 253 275 160 0 281-109 281-300v-670h181V0H879v-209C806-46 684 14 537 14" id="aI"/><g id="o"><use transform="matrix(0.0126953125,0,0,0.0126953125,0,0)" xlink:href="#aG"/><use transform="matrix(0.0126953125,0,0,0.0126953125,18.9921875,0)" xlink:href="#aj"/><use transform="matrix(0.0126953125,0,0,0.0126953125,33.591796875,0)" xlink:href="#as"/><use transform="matrix(0.0126953125,0,0,0.0126953125,39.888671875,0)" xlink:href="#ar"/><use transform="matrix(0.0126953125,0,0,0.0126953125,54.7421875,0)" xlink:href="#aI"/><use transform="matrix(0.0126953125,0,0,0.0126953125,70.1162109375,0)" xlink:href="#as"/><use transform="matrix(0.0126953125,0,0,0.0126953125,76.4130859375,0)" xlink:href="#ao"/></g><g id="p"><use transform="matrix(0.0126953125,0,0,0.0126953125,0,0)" xlink:href="#ak"/><use transform="matrix(0.0126953125,0,0,0.0126953125,15.919921875,0)" xlink:href="#aj"/></g><path d="M338-670V0H158v-1490h180v566c73-149 190-208 336-208 226 0 379 139 379 422V0H872v-695c0-172-96-275-252-275-161 0-282 109-282 300" id="aJ"/><path d="M158 0v-1118h175l1 205c55-151 181-225 313-225 147 0 245 90 285 228 53-141 190-228 352-228 194 0 352 125 352 384V0h-181v-749c0-161-105-225-225-225-151 0-243 103-243 244V0H807v-767c0-124-93-207-219-207-131 0-250 92-250 270V0H158" id="aK"/><g id="q"><use transform="matrix(0.0126953125,0,0,0.0126953125,0,0)" xlink:href="#aJ"/><use transform="matrix(0.0126953125,0,0,0.0126953125,15.3740234375,0)" xlink:href="#aI"/><use transform="matrix(0.0126953125,0,0,0.0126953125,30.748046875,0)" xlink:href="#aK"/><use transform="matrix(0.0126953125,0,0,0.0126953125,53.5234375,0)" xlink:href="#aq"/><use transform="matrix(0.0126953125,0,0,0.0126953125,59.8203125,0)" xlink:href="#ak"/><use transform="matrix(0.0126953125,0,0,0.0126953125,75.740234375,0)" xlink:href="#aj"/><use transform="matrix(0.0126953125,0,0,0.0126953125,90.33984375,0)" xlink:href="#ak"/><use transform="matrix(0.0126953125,0,0,0.0126953125,106.259765625,0)" xlink:href="#ai"/></g><use transform="matrix(0.0126953125,0,0,0.0126953125,0,0)" xlink:href="#ai" id="r"/><path d="M158 418v-1536h174v179h20c37-59 106-193 324-193 279 0 474 222 474 576 0 356-194 580-473 580-213 0-288-135-325-197h-14v591H158zm492-555c209 0 317-186 317-421 0-232-105-413-317-413-206 0-314 166-314 413 0 249 111 421 314 421" id="aL"/><g id="s"><use transform="matrix(0.0126953125,0,0,0.0126953125,0,0)" xlink:href="#az"/><use transform="matrix(0.0126953125,0,0,0.0126953125,8.251953125,0)" xlink:href="#ai"/><use transform="matrix(0.0126953125,0,0,0.0126953125,23.41015625,0)" xlink:href="#aK"/><use transform="matrix(0.0126953125,0,0,0.0126953125,46.185546875,0)" xlink:href="#aL"/><use transform="matrix(0.0126953125,0,0,0.0126953125,62.10546875,0)" xlink:href="#ai"/><use transform="matrix(0.0126953125,0,0,0.0126953125,77.263671875,0)" xlink:href="#ah"/><use transform="matrix(0.0126953125,0,0,0.0126953125,87.0517578125,0)" xlink:href="#aj"/><use transform="matrix(0.0126953125,0,0,0.0126953125,101.6513671875,0)" xlink:href="#az"/><use transform="matrix(0.0126953125,0,0,0.0126953125,110.1572265625,0)" xlink:href="#aI"/><use transform="matrix(0.0126953125,0,0,0.0126953125,125.53125,0)" xlink:href="#ah"/><use transform="matrix(0.0126953125,0,0,0.0126953125,135.3193359375,0)" xlink:href="#aj"/></g><g id="t"><use transform="matrix(0.0126953125,0,0,0.0126953125,0,0)" xlink:href="#aI"/><use transform="matrix(0.0126953125,0,0,0.0126953125,15.3740234375,0)" xlink:href="#am"/><use transform="matrix(0.0126953125,0,0,0.0126953125,29.09765625,0)" xlink:href="#aj"/><use transform="matrix(0.0126953125,0,0,0.0126953125,43.697265625,0)" xlink:href="#an"/><use transform="matrix(0.0126953125,0,0,0.0126953125,59.05859375,0)" xlink:href="#ak"/><use transform="matrix(0.0126953125,0,0,0.0126953125,74.978515625,0)" xlink:href="#ao"/></g><g id="u"><use transform="matrix(0.0126953125,0,0,0.0126953125,0,0)" xlink:href="#aj"/><use transform="matrix(0.0126953125,0,0,0.0126953125,14.599609375,0)" xlink:href="#am"/></g><path d="M678-1118v154H420V0H240v-964H20v-154h220v-149c0-194 155-293 318-293 85 0 141 18 168 30l-50 154c-19-6-47-17-97-17-111 0-159 58-159 166v109h258" id="aM"/><g id="v"><use transform="matrix(0.0126953125,0,0,0.0126953125,0,0)" xlink:href="#aM"/><use transform="matrix(0.0126953125,0,0,0.0126953125,8.861328125,0)" xlink:href="#ao"/><use transform="matrix(0.0126953125,0,0,0.0126953125,24.451171875,0)" xlink:href="#ah"/><use transform="matrix(0.0126953125,0,0,0.0126953125,34.6455078125,0)" xlink:href="#aK"/><use transform="matrix(0.0126953125,0,0,0.0126953125,57.4208984375,0)" xlink:href="#aI"/><use transform="matrix(0.0126953125,0,0,0.0126953125,72.794921875,0)" xlink:href="#as"/><use transform="matrix(0.0126953125,0,0,0.0126953125,79.091796875,0)" xlink:href="#aj"/><use transform="matrix(0.0126953125,0,0,0.0126953125,93.69140625,0)" xlink:href="#am"/></g><path d="M471 26C259 26 90-98 90-318c0-256 228-303 435-329 202-27 287-16 287-108 0-139-79-219-234-219-161 0-248 86-283 164l-173-57c86-203 278-265 451-265 150 0 419 46 419 395V0H815v-152h-12C765-73 660 26 471 26zm31-159c199 0 310-134 310-271v-155c-30 35-226 55-295 64-131 17-246 59-246 186 0 116 97 176 231 176zm187-1180c-99 0-192-83-243-83-35 0-51 40-53 79H267c4-120 55-208 162-208 104 0 174 85 241 85 33 0 49-23 56-81h123c-4 126-62 208-160 208" id="aN"/><g id="w"><use transform="matrix(0.0126953125,0,0,0.0126953125,0,0)" xlink:href="#ar"/><use transform="matrix(0.0126953125,0,0,0.0126953125,14.853515625,0)" xlink:href="#ao"/><use transform="matrix(0.0126953125,0,0,0.0126953125,30.443359375,0)" xlink:href="#an"/><use transform="matrix(0.0126953125,0,0,0.0126953125,45.423828125,0)" xlink:href="#aF"/><use transform="matrix(0.0126953125,0,0,0.0126953125,59.5283203125,0)" xlink:href="#ai"/><use transform="matrix(0.0126953125,0,0,0.0126953125,74.6865234375,0)" xlink:href="#ah"/><use transform="matrix(0.0126953125,0,0,0.0126953125,84.474609375,0)" xlink:href="#am"/><use transform="matrix(0.0126953125,0,0,0.0126953125,98.1982421875,0)" xlink:href="#aN"/><use transform="matrix(0.0126953125,0,0,0.0126953125,112.7978515625,0)" xlink:href="#ao"/></g><path d="M180 0v-1490h528c311 0 458 177 458 395 0 191-114 278-244 313v14c139 9 302 137 302 371 0 225-148 397-499 397H180zm190-168h350c232 0 321-102 321-231 0-149-120-277-311-277H370v508zm0-668h328c160 0 286-101 286-255 0-129-87-231-280-231H370v486" id="aO"/><path d="M180 0v-1490h270l367 940c28 72 75 218 110 339 35-117 81-264 110-339l362-940h271V0h-187c2-448-5-837 7-1287-157 497-311 829-483 1287H842C666-458 514-784 354-1284c12 438 5 843 7 1284H180" id="aP"/><path d="M180 0v-1490h510c348 0 508 209 508 474 0 266-160 477-507 477H370V0H180zm190-706h312c236 0 327-133 327-310 0-176-91-307-329-307H370v617" id="aQ"/><path d="M633 20c-303 0-511-173-511-416 0-188 124-348 291-378v-8c-145-37-237-174-237-332 0-227 192-396 457-396 261 0 456 169 456 396 0 158-94 295-235 332v8c162 30 291 190 291 378 0 243-212 416-512 416zm0-165c197 0 322-103 322-261 0-165-138-283-322-283-188 0-324 118-324 283 0 158 123 261 324 261zm0-703c157 0 272-101 272-252 0-149-110-246-272-246-165 0-273 97-273 246 0 151 112 252 273 252" id="aR"/><g id="x"><use transform="matrix(0.010416666666666668,0,0,0.010416666666666668,0,0)" xlink:href="#aO"/><use transform="matrix(0.010416666666666668,0,0,0.010416666666666668,13.958333333333336,0)" xlink:href="#aP"/><use transform="matrix(0.010416666666666668,0,0,0.010416666666666668,33.22916666666667,0)" xlink:href="#aQ"/><use transform="matrix(0.010416666666666668,0,0,0.010416666666666668,46.85416666666667,0)" xlink:href="#aD"/><use transform="matrix(0.010416666666666668,0,0,0.010416666666666668,59.86458333333334,0)" xlink:href="#aR"/><use transform="matrix(0.010416666666666668,0,0,0.010416666666666668,73.06250000000001,0)" xlink:href="#aE"/></g><g id="y"><use transform="matrix(0.0126953125,0,0,0.0126953125,0,0)" xlink:href="#ak"/><use transform="matrix(0.0126953125,0,0,0.0126953125,15.919921875,0)" xlink:href="#ai"/></g><g id="z"><use transform="matrix(0.0126953125,0,0,0.0126953125,0,0)" xlink:href="#az"/><use transform="matrix(0.0126953125,0,0,0.0126953125,8.505859375,0)" xlink:href="#al"/><use transform="matrix(0.0126953125,0,0,0.0126953125,20.36328125,0)" xlink:href="#aM"/><use transform="matrix(0.0126953125,0,0,0.0126953125,29.986328125,0)" xlink:href="#aq"/><use transform="matrix(0.0126953125,0,0,0.0126953125,36.283203125,0)" xlink:href="#an"/><use transform="matrix(0.0126953125,0,0,0.0126953125,51.64453125,0)" xlink:href="#ai"/></g><g id="A"><use transform="matrix(0.0126953125,0,0,0.0126953125,0,0)" xlink:href="#au"/><use transform="matrix(0.0126953125,0,0,0.0126953125,14.701171875,0)" xlink:href="#ai"/><use transform="matrix(0.0126953125,0,0,0.0126953125,29.859375,0)" xlink:href="#aq"/><use transform="matrix(0.0126953125,0,0,0.0126953125,36.15625,0)" xlink:href="#az"/><use transform="matrix(0.0126953125,0,0,0.0126953125,44.662109375,0)" xlink:href="#aI"/><use transform="matrix(0.0126953125,0,0,0.0126953125,60.0361328125,0)" xlink:href="#ah"/><use transform="matrix(0.0126953125,0,0,0.0126953125,69.82421875,0)" xlink:href="#aj"/></g><g id="B"><use transform="matrix(0.0126953125,0,0,0.0126953125,0,0)" xlink:href="#ax"/><use transform="matrix(0.0126953125,0,0,0.0126953125,15.919921875,0)" xlink:href="#ah"/><use transform="matrix(0.0126953125,0,0,0.0126953125,25.7080078125,0)" xlink:href="#aI"/><use transform="matrix(0.0126953125,0,0,0.0126953125,41.08203125,0)" xlink:href="#az"/><use transform="matrix(0.0126953125,0,0,0.0126953125,49.71484375,0)" xlink:href="#aj"/></g><g id="C"><use transform="matrix(0.0126953125,0,0,0.0126953125,0,0)" xlink:href="#ak"/><use transform="matrix(0.0126953125,0,0,0.0126953125,15.919921875,0)" xlink:href="#ao"/></g><g id="D"><use transform="matrix(0.0126953125,0,0,0.0126953125,0,0)" xlink:href="#aO"/><use transform="matrix(0.0126953125,0,0,0.0126953125,17.01171875,0)" xlink:href="#aP"/><use transform="matrix(0.0126953125,0,0,0.0126953125,40.498046875,0)" xlink:href="#aQ"/></g><path d="M784 20c-382 0-662-292-662-764 0-473 280-766 662-766s660 293 660 766c0 472-278 764-660 764zm0-176c266 0 475-207 475-588 0-383-209-590-475-590-268 0-477 208-477 590 0 380 209 588 477 588" id="aS"/><g id="E"><use transform="matrix(0.0126953125,0,0,0.0126953125,0,0)" xlink:href="#aS"/><use transform="matrix(0.0126953125,0,0,0.0126953125,19.880859375,0)" xlink:href="#ah"/><use transform="matrix(0.0126953125,0,0,0.0126953125,29.2373046875,0)" xlink:href="#aH"/><use transform="matrix(0.0126953125,0,0,0.0126953125,45.1826171875,0)" xlink:href="#aj"/><use transform="matrix(0.0126953125,0,0,0.0126953125,59.7822265625,0)" xlink:href="#an"/><use transform="matrix(0.0126953125,0,0,0.0126953125,75.1435546875,0)" xlink:href="#aq"/><use transform="matrix(0.0126953125,0,0,0.0126953125,81.4404296875,0)" xlink:href="#at"/><use transform="matrix(0.0126953125,0,0,0.0126953125,95.798828125,0)" xlink:href="#aj"/><use transform="matrix(0.0126953125,0,0,0.0126953125,110.3984375,0)" xlink:href="#ah"/></g><g id="F"><use transform="matrix(0.0126953125,0,0,0.0126953125,0,0)" xlink:href="#aF"/><use transform="matrix(0.0126953125,0,0,0.0126953125,14.4853515625,0)" xlink:href="#aj"/><use transform="matrix(0.0126953125,0,0,0.0126953125,29.0849609375,0)" xlink:href="#as"/><use transform="matrix(0.0126953125,0,0,0.0126953125,35.3818359375,0)" xlink:href="#ao"/><use transform="matrix(0.0126953125,0,0,0.0126953125,50.9716796875,0)" xlink:href="#ah"/><use transform="matrix(0.0126953125,0,0,0.0126953125,60.328125,0)" xlink:href="#ai"/><use transform="matrix(0.0126953125,0,0,0.0126953125,75.486328125,0)" xlink:href="#am"/></g><g id="G"><use transform="matrix(0.0126953125,0,0,0.0126953125,0,0)" xlink:href="#ax"/><use transform="matrix(0.0126953125,0,0,0.0126953125,15.919921875,0)" xlink:href="#ah"/><use transform="matrix(0.0126953125,0,0,0.0126953125,25.7080078125,0)" xlink:href="#aI"/><use transform="matrix(0.0126953125,0,0,0.0126953125,41.08203125,0)" xlink:href="#az"/><use transform="matrix(0.0126953125,0,0,0.0126953125,49.333984375,0)" xlink:href="#ao"/><use transform="matrix(0.0126953125,0,0,0.0126953125,64.923828125,0)" xlink:href="#am"/></g><g id="H"><use transform="matrix(0.0126953125,0,0,0.0126953125,0,0)" xlink:href="#aL"/><use transform="matrix(0.0126953125,0,0,0.0126953125,15.919921875,0)" xlink:href="#ah"/><use transform="matrix(0.0126953125,0,0,0.0126953125,25.2763671875,0)" xlink:href="#ai"/><use transform="matrix(0.0126953125,0,0,0.0126953125,40.4345703125,0)" xlink:href="#am"/><use transform="matrix(0.0126953125,0,0,0.0126953125,54.158203125,0)" xlink:href="#am"/><use transform="matrix(0.0126953125,0,0,0.0126953125,67.8818359375,0)" xlink:href="#aj"/><use transform="matrix(0.0126953125,0,0,0.0126953125,82.4814453125,0)" xlink:href="#ao"/></g><g id="I"><use transform="matrix(0.0126953125,0,0,0.0126953125,0,0)" xlink:href="#az"/><use transform="matrix(0.0126953125,0,0,0.0126953125,8.251953125,0)" xlink:href="#ai"/><use transform="matrix(0.0126953125,0,0,0.0126953125,23.41015625,0)" xlink:href="#aK"/><use transform="matrix(0.0126953125,0,0,0.0126953125,46.185546875,0)" xlink:href="#aL"/><use transform="matrix(0.0126953125,0,0,0.0126953125,62.10546875,0)" xlink:href="#ai"/><use transform="matrix(0.0126953125,0,0,0.0126953125,77.263671875,0)" xlink:href="#ah"/><use transform="matrix(0.0126953125,0,0,0.0126953125,87.0517578125,0)" xlink:href="#aj"/><use transform="matrix(0.0126953125,0,0,0.0126953125,101.6513671875,0)" xlink:href="#az"/><use transform="matrix(0.0126953125,0,0,0.0126953125,110.1572265625,0)" xlink:href="#aI"/><use transform="matrix(0.0126953125,0,0,0.0126953125,125.53125,0)" xlink:href="#ah"/><use transform="matrix(0.0126953125,0,0,0.0126953125,135.3193359375,0)" xlink:href="#aj"/></g><g id="J"><use transform="matrix(0.0126953125,0,0,0.0126953125,0,0)" xlink:href="#aG"/><use transform="matrix(0.0126953125,0,0,0.0126953125,18.9921875,0)" xlink:href="#aj"/><use transform="matrix(0.0126953125,0,0,0.0126953125,33.591796875,0)" xlink:href="#as"/><use transform="matrix(0.0126953125,0,0,0.0126953125,39.888671875,0)" xlink:href="#ar"/><use transform="matrix(0.0126953125,0,0,0.0126953125,54.7421875,0)" xlink:href="#aI"/><use transform="matrix(0.0126953125,0,0,0.0126953125,70.1162109375,0)" xlink:href="#as"/><use transform="matrix(0.0126953125,0,0,0.0126953125,76.4130859375,0)" xlink:href="#aj"/><use transform="matrix(0.0126953125,0,0,0.0126953125,91.0126953125,0)" xlink:href="#ah"/></g><use transform="matrix(0.0126953125,0,0,0.0126953125,0,0)" xlink:href="#aj" id="K"/><g id="L"><use transform="matrix(0.0126953125,0,0,0.0126953125,0,0)" xlink:href="#ar"/><use transform="matrix(0.0126953125,0,0,0.0126953125,14.853515625,0)" xlink:href="#ao"/><use transform="matrix(0.0126953125,0,0,0.0126953125,30.443359375,0)" xlink:href="#aK"/><use transform="matrix(0.0126953125,0,0,0.0126953125,53.21875,0)" xlink:href="#aL"/><use transform="matrix(0.0126953125,0,0,0.0126953125,69.138671875,0)" xlink:href="#ai"/><use transform="matrix(0.0126953125,0,0,0.0126953125,84.296875,0)" xlink:href="#an"/><use transform="matrix(0.0126953125,0,0,0.0126953125,99.658203125,0)" xlink:href="#am"/><use transform="matrix(0.0126953125,0,0,0.0126953125,113.3818359375,0)" xlink:href="#aj"/><use transform="matrix(0.0126953125,0,0,0.0126953125,127.9814453125,0)" xlink:href="#am"/><use transform="matrix(0.0126953125,0,0,0.0126953125,141.705078125,0)" xlink:href="#aN"/><use transform="matrix(0.0126953125,0,0,0.0126953125,156.3046875,0)" xlink:href="#ao"/></g><g id="M"><use transform="matrix(0.0126953125,0,0,0.0126953125,0,0)" xlink:href="#ak"/><use transform="matrix(0.0126953125,0,0,0.0126953125,15.919921875,0)" xlink:href="#aj"/></g><g id="N"><use transform="matrix(0.0126953125,0,0,0.0126953125,0,0)" xlink:href="#aL"/><use transform="matrix(0.0126953125,0,0,0.0126953125,15.919921875,0)" xlink:href="#ah"/><use transform="matrix(0.0126953125,0,0,0.0126953125,25.2763671875,0)" xlink:href="#ai"/><use transform="matrix(0.0126953125,0,0,0.0126953125,40.4345703125,0)" xlink:href="#am"/><use transform="matrix(0.0126953125,0,0,0.0126953125,54.158203125,0)" xlink:href="#am"/><use transform="matrix(0.0126953125,0,0,0.0126953125,67.8818359375,0)" xlink:href="#aN"/><use transform="matrix(0.0126953125,0,0,0.0126953125,82.4814453125,0)" xlink:href="#ao"/></g><path d="M653-1490V0H466v-1314h-10L96-1047v-204l324-239h233" id="aT"/><g id="O"><use transform="matrix(0.0126953125,0,0,0.0126953125,0,0)" xlink:href="#aL"/><use transform="matrix(0.0126953125,0,0,0.0126953125,15.0439453125,0)" xlink:href="#aT"/></g><g id="P"><use transform="matrix(0.0126953125,0,0,0.0126953125,0,0)" xlink:href="#aL"/><use transform="matrix(0.0126953125,0,0,0.0126953125,15.919921875,0)" xlink:href="#aD"/></g><path d="M600 0L52-1490h200c166 485 304 806 458 1336 156-533 285-846 449-1336h202L819 0H600" id="aU"/><g id="Q"><use transform="matrix(0.0126953125,0,0,0.0126953125,0,0)" xlink:href="#aU"/><use transform="matrix(0.0126953125,0,0,0.0126953125,16.6181640625,0)" xlink:href="#ai"/><use transform="matrix(0.0126953125,0,0,0.0126953125,31.7763671875,0)" xlink:href="#ah"/><use transform="matrix(0.0126953125,0,0,0.0126953125,41.970703125,0)" xlink:href="#aq"/><use transform="matrix(0.0126953125,0,0,0.0126953125,48.267578125,0)" xlink:href="#aM"/><use transform="matrix(0.0126953125,0,0,0.0126953125,57.890625,0)" xlink:href="#aq"/><use transform="matrix(0.0126953125,0,0,0.0126953125,64.1875,0)" xlink:href="#ar"/><use transform="matrix(0.0126953125,0,0,0.0126953125,79.294921875,0)" xlink:href="#aj"/></g><g id="R"><use transform="matrix(0.0126953125,0,0,0.0126953125,0,0)" xlink:href="#am"/><use transform="matrix(0.0126953125,0,0,0.0126953125,13.7236328125,0)" xlink:href="#ai"/></g><g id="S"><use transform="matrix(0.0126953125,0,0,0.0126953125,0,0)" xlink:href="#aJ"/><use transform="matrix(0.0126953125,0,0,0.0126953125,15.3740234375,0)" xlink:href="#ao"/><use transform="matrix(0.0126953125,0,0,0.0126953125,30.9638671875,0)" xlink:href="#aI"/><use transform="matrix(0.0126953125,0,0,0.0126953125,46.337890625,0)" xlink:href="#aF"/><use transform="matrix(0.0126953125,0,0,0.0126953125,60.4423828125,0)" xlink:href="#ai"/></g><g id="T"><use transform="matrix(0.0126953125,0,0,0.0126953125,0,0)" xlink:href="#ai"/><use transform="matrix(0.0126953125,0,0,0.0126953125,15.158203125,0)" xlink:href="#ah"/><use transform="matrix(0.0126953125,0,0,0.0126953125,25.3525390625,0)" xlink:href="#ah"/><use transform="matrix(0.0126953125,0,0,0.0126953125,34.708984375,0)" xlink:href="#ao"/></g><path d="M226-283v-166h904v166H226zm0-434v-166h904v166H226" id="aV"/><g id="U"><use transform="matrix(0.0126953125,0,0,0.0126953125,0,0)" xlink:href="#aQ"/><use transform="matrix(0.0126953125,0,0,0.0126953125,16.60546875,0)" xlink:href="#aT"/><use transform="matrix(0.0126953125,0,0,0.0126953125,27.1806640625,0)" xlink:href="#aV"/><use transform="matrix(0.0126953125,0,0,0.0126953125,44.3828125,0)" xlink:href="#aV"/><use transform="matrix(0.0126953125,0,0,0.0126953125,61.5849609375,0)" xlink:href="#aE"/></g><path d="M383-449c-3-277 82-343 222-425 88-53 156-134 156-250 0-139-108-227-243-227-118 0-235 70-246 236H82c10-251 200-395 436-395 259 0 427 165 427 393 0 161-74 273-203 352-132 80-180 132-178 316H383zm93 462c-75 0-135-60-135-134 0-75 60-135 135-135 74 0 134 60 134 135 0 74-60 134-134 134" id="aW"/><use transform="matrix(0.0126953125,0,0,0.0126953125,0,0)" xlink:href="#aW" id="V"/><path d="M441-652l13-317-268 171-72-126 282-146-282-146 72-128 268 171-13-317h144l-12 317 267-171 72 128-282 146 282 146-72 126-267-171 12 317H441" id="aX"/><g id="X"><use transform="matrix(0.0126953125,0,0,0.0126953125,0,0)" xlink:href="#aX"/><use transform="matrix(0.0126953125,0,0,0.0126953125,13.025390625,0)" xlink:href="#aL"/><use transform="matrix(0.0126953125,0,0,0.0126953125,28.9453125,0)" xlink:href="#aV"/><use transform="matrix(0.0126953125,0,0,0.0126953125,46.1474609375,0)" xlink:href="#aE"/></g><path d="M180 0v-1490h901v168H370v510h643v168H370V0H180" id="aY"/><g id="Y"><use transform="matrix(0.010416666666666668,0,0,0.010416666666666668,0,0)" xlink:href="#aY"/><use transform="matrix(0.010416666666666668,0,0,0.010416666666666668,12.593750000000002,0)" xlink:href="#aq"/><use transform="matrix(0.010416666666666668,0,0,0.010416666666666668,17.760416666666668,0)" xlink:href="#an"/><use transform="matrix(0.010416666666666668,0,0,0.010416666666666668,30.364583333333336,0)" xlink:href="#aj"/><use transform="matrix(0.010416666666666668,0,0,0.010416666666666668,42.34375,0)" xlink:href="#as"/><use transform="matrix(0.010416666666666668,0,0,0.010416666666666668,47.510416666666664,0)" xlink:href="#aq"/><use transform="matrix(0.010416666666666668,0,0,0.010416666666666668,52.67708333333333,0)" xlink:href="#at"/><use transform="matrix(0.010416666666666668,0,0,0.010416666666666668,64.45833333333333,0)" xlink:href="#aj"/></g><path d="M471 26C259 26 90-98 90-318c0-256 228-303 435-329 202-27 287-16 287-108 0-139-79-219-234-219-161 0-248 86-283 164l-173-57c86-203 278-265 451-265 150 0 419 46 419 395V0H815v-152h-12C765-73 660 26 471 26zm31-159c199 0 310-134 310-271v-155c-30 35-226 55-295 64-131 17-246 59-246 186 0 116 97 176 231 176zm-23-1131l140-294h201l-194 294H479" id="aZ"/><g id="Z"><use transform="matrix(0.010416666666666668,0,0,0.010416666666666668,0,0)" xlink:href="#ar"/><use transform="matrix(0.010416666666666668,0,0,0.010416666666666668,12.395833333333334,0)" xlink:href="#aZ"/><use transform="matrix(0.010416666666666668,0,0,0.010416666666666668,24.375000000000004,0)" xlink:href="#as"/><use transform="matrix(0.010416666666666668,0,0,0.010416666666666668,29.54166666666667,0)" xlink:href="#ar"/><use transform="matrix(0.010416666666666668,0,0,0.010416666666666668,41.72916666666667,0)" xlink:href="#aI"/><use transform="matrix(0.010416666666666668,0,0,0.010416666666666668,54.34375000000001,0)" xlink:href="#as"/><use transform="matrix(0.010416666666666668,0,0,0.010416666666666668,59.51041666666667,0)" xlink:href="#ao"/></g><use transform="matrix(0.010416666666666668,0,0,0.010416666666666668,0,0)" xlink:href="#ai" id="aa"/><g id="ab"><use transform="matrix(0.010416666666666668,0,0,0.010416666666666668,0,0)" xlink:href="#ar"/><use transform="matrix(0.010416666666666668,0,0,0.010416666666666668,12.187500000000002,0)" xlink:href="#ao"/><use transform="matrix(0.010416666666666668,0,0,0.010416666666666668,24.979166666666668,0)" xlink:href="#an"/><use transform="matrix(0.010416666666666668,0,0,0.010416666666666668,37.27083333333334,0)" xlink:href="#aF"/><use transform="matrix(0.010416666666666668,0,0,0.010416666666666668,48.843750000000014,0)" xlink:href="#ai"/><use transform="matrix(0.010416666666666668,0,0,0.010416666666666668,61.281250000000014,0)" xlink:href="#ah"/><use transform="matrix(0.010416666666666668,0,0,0.010416666666666668,69.64583333333336,0)" xlink:href="#az"/><use transform="matrix(0.010416666666666668,0,0,0.010416666666666668,76.4166666666667,0)" xlink:href="#ai"/><use transform="matrix(0.010416666666666668,0,0,0.010416666666666668,88.8541666666667,0)" xlink:href="#ah"/></g><g id="ac"><use transform="matrix(0.010416666666666668,0,0,0.010416666666666668,0,0)" xlink:href="#aQ"/><use transform="matrix(0.010416666666666668,0,0,0.010416666666666668,13.625000000000002,0)" xlink:href="#aj"/></g><g id="ad"><use transform="matrix(0.010416666666666668,0,0,0.010416666666666668,0,0)" xlink:href="#aL"/><use transform="matrix(0.010416666666666668,0,0,0.010416666666666668,13.270833333333334,0)" xlink:href="#aj"/><use transform="matrix(0.010416666666666668,0,0,0.010416666666666668,25.250000000000004,0)" xlink:href="#ah"/><use transform="matrix(0.010416666666666668,0,0,0.010416666666666668,33.28125000000001,0)" xlink:href="#aj"/></g><g id="ae"><use transform="matrix(0.010416666666666668,0,0,0.010416666666666668,0,0)" xlink:href="#aJ"/><use transform="matrix(0.010416666666666668,0,0,0.010416666666666668,12.614583333333334,0)" xlink:href="#aQ"/><use transform="matrix(0.010416666666666668,0,0,0.010416666666666668,26.239583333333336,0)" xlink:href="#aj"/></g><path d="M657 26c-323 0-524-166-541-416h195c15 169 171 246 346 246 202 0 356-106 356-265 5-203-294-238-475-293-239-73-380-191-380-389 0-252 224-419 512-419 294 0 499 171 508 396H992c-17-145-151-228-328-228-193 0-321 102-321 242 0 156 175 211 284 241l149 41c160 44 422 134 422 412 0 244-197 432-541 432" id="ba"/><g id="af"><use transform="matrix(0.013020833333333334,0,0,0.013020833333333334,0,0)" xlink:href="#ba"/><use transform="matrix(0.013020833333333334,0,0,0.013020833333333334,17.109375,0)" xlink:href="#aq"/><use transform="matrix(0.013020833333333334,0,0,0.013020833333333334,23.567708333333336,0)" xlink:href="#aK"/></g><path d="M180 0v-1490h224l606 953c40 63 108 177 176 312-27-437-7-821-13-1265h190V0h-226C860-448 622-778 356-1262c27 476 11 792 15 1262H180" id="bb"/><g id="ag"><use transform="matrix(0.013020833333333334,0,0,0.013020833333333334,0,0)" xlink:href="#bb"/><use transform="matrix(0.013020833333333334,0,0,0.013020833333333334,20.091145833333336,0)" xlink:href="#aN"/><use transform="matrix(0.013020833333333334,0,0,0.013020833333333334,35.06510416666667,0)" xlink:href="#ao"/></g></defs></g></svg>