<svg xmlns="http://www.w3.org/2000/svg" xmlns:xlink="http://www.w3.org/1999/xlink" xmlns:lucid="lucid" width="243.49" height="904.82"><g transform="translate(3860.9955630543254 -1971.6441995724167)" lucid:page-tab-id="0_0"><path d="M-3666.05 1972.64c26.26 0 47.55 21.3 47.55 47.55 0 26.24-21.3 47.53-47.55 47.53h-146.4c-26.26 0-47.54-21.3-47.54-47.54 0-26.27 21.3-47.56 47.55-47.56z" stroke="#000" stroke-width="2" fill="#fff"/><use xlink:href="#a" transform="matrix(1,0,0,1,-3854.994275465426,1977.6441995724167) translate(43.13541666666666 50.22916666666667)"/><path d="M-3739.25 2070.23v64.38" stroke="#3a414a" stroke-width="3" stroke-linejoin="round" fill="none"/><path d="M-3737.78 2070.27h-2.94v-1.54h2.94z" stroke="#3a414a" stroke-width=".05" fill="#3a414a"/><path d="M-3739.25 2149.1l-7.5-13h15z" stroke="#3a414a" stroke-width="3" fill="#3a414a"/><path d="M-3819.25 2159.1a6 6 0 0 1 6-6h148a6 6 0 0 1 6 6v108a6 6 0 0 1-6 6h-148a6 6 0 0 1-6-6z" stroke="#000" stroke-width="2" fill="#fff"/><use xlink:href="#b" transform="matrix(1,0,0,1,-3814.2495691904096,2158.1052082188553) translate(22.02880859375 45.8125)"/><use xlink:href="#c" transform="matrix(1,0,0,1,-3814.2495691904096,2158.1052082188553) translate(31.8486328125 83.56328124999999)"/><path d="M-3739.25 2275.6v36.66" stroke="#3a414a" stroke-width="3" stroke-linejoin="round" fill="none"/><path d="M-3737.78 2275.64h-2.94v-1.53h2.94z" stroke="#3a414a" stroke-width=".05" fill="#3a414a"/><path d="M-3739.25 2326.75l-7.5-13h15z" stroke="#3a414a" stroke-width="3" fill="#3a414a"/><path d="M-3819.25 2336.75a6 6 0 0 1 6-6h148a6 6 0 0 1 6 6v142.7a6 6 0 0 1-6 6h-148a6 6 0 0 1-6-6z" stroke="#000" stroke-width="2" fill="#fff"/><use xlink:href="#d" transform="matrix(1,0,0,1,-3814.2495691904096,2335.749544156355) translate(60.0703125 29.71875)"/><use xlink:href="#e" transform="matrix(1,0,0,1,-3814.2495691904096,2335.749544156355) translate(11.04736328125 67.46953124999999)"/><use xlink:href="#f" transform="matrix(1,0,0,1,-3814.2495691904096,2335.749544156355) translate(59.4609375 105.22031249999999)"/><use xlink:href="#g" transform="matrix(1,0,0,1,-3814.2495691904096,2335.749544156355) translate(0.04052734375 142.97109375)"/><path d="M-3739.25 2487.96v54" stroke="#3a414a" stroke-width="3" stroke-linejoin="round" fill="none"/><path d="M-3737.78 2488h-2.94v-1.54h2.94z" stroke="#3a414a" stroke-width=".05" fill="#3a414a"/><path d="M-3739.25 2556.46l-7.5-13h15z" stroke="#3a414a" stroke-width="3" fill="#3a414a"/><path d="M-3819.25 2566.46a6 6 0 0 1 6-6h148a6 6 0 0 1 6 6v108a6 6 0 0 1-6 6h-148a6 6 0 0 1-6-6z" stroke="#000" stroke-width="2" fill="#fff"/><use xlink:href="#d" transform="matrix(1,0,0,1,-3814.2495691904096,2565.460872281355) translate(60.0703125 28.625)"/><use xlink:href="#e" transform="matrix(1,0,0,1,-3814.2495691904096,2565.460872281355) translate(11.04736328125 66.37578124999999)"/><use xlink:href="#h" transform="matrix(1,0,0,1,-3814.2495691904096,2565.460872281355) translate(6.76904296875 104.12656249999999)"/><use xlink:href="#i" transform="matrix(1,0,0,1,-3814.2495691904096,2565.460872281355) translate(45.15966796875 104.12656249999999)"/><path d="M-3739.25 2682.96v54" stroke="#3a414a" stroke-width="3" stroke-linejoin="round" fill="none"/><path d="M-3737.78 2683h-2.94v-1.54h2.94z" stroke="#3a414a" stroke-width=".05" fill="#3a414a"/><path d="M-3739.25 2751.46l-7.5-13h15z" stroke="#3a414a" stroke-width="3" fill="#3a414a"/><path d="M-3819.25 2761.46a6 6 0 0 1 6-6h148a6 6 0 0 1 6 6v108a6 6 0 0 1-6 6h-148a6 6 0 0 1-6-6z" stroke="#000" stroke-width="2" fill="#fff"/><g><use xlink:href="#j" transform="matrix(1,0,0,1,-3814.2495691904096,2760.460872281355) translate(14.21484375 45.8125)"/><use xlink:href="#k" transform="matrix(1,0,0,1,-3814.2495691904096,2760.460872281355) translate(46.4482421875 83.56328124999999)"/></g><defs><path d="M538 24C308 24 148-78 108-271l171-41c32 123 123 178 257 178 156 0 256-77 256-169 0-77-54-128-164-154l-186-44c-203-48-300-148-300-305 0-192 176-326 414-326 230 0 351 112 402 269l-163 42c-31-80-94-158-238-158-133 0-233 69-233 162 0 83 57 129 188 160l169 40c203 48 298 149 298 302 0 196-179 339-441 339" id="l"/><path d="M628 24c-324 0-524-230-524-574 0-343 198-582 503-582 237 0 487 146 487 559v75H286c9 234 145 362 343 362 132 0 231-58 273-172l174 48C1024-91 857 24 628 24zM287-650h624c-17-190-120-322-304-322-192 0-309 151-320 322" id="m"/><path d="M598-1118v154H368v674c0 100 37 144 132 144 23 0 62-6 92-12L629-6c-37 13-88 20-134 20-193 0-307-107-307-290v-688H20v-154h168v-266h180v266h230" id="n"/><path d="M537 14c-226 0-379-139-379-422v-710h180v695c0 172 97 275 253 275 160 0 281-109 281-300v-670h181V0H879v-209C806-46 684 14 537 14" id="o"/><path d="M158 418v-1536h174v179h20c37-59 106-193 324-193 279 0 474 222 474 576 0 356-194 580-473 580-213 0-288-135-325-197h-14v591H158zm492-555c209 0 317-186 317-421 0-232-105-413-317-413-206 0-314 166-314 413 0 249 111 421 314 421" id="p"/><path d="M934 0v166H0V0h934" id="q"/><path d="M338-670V0H158v-1118h173l1 207c72-158 192-221 342-221 226 0 378 139 378 422V0H872v-695c0-172-96-275-252-275-161 0-282 109-282 300" id="r"/><path d="M613 24c-304 0-509-231-509-576 0-350 205-580 509-580 305 0 511 230 511 580 0 345-206 576-511 576zm0-161c226 0 329-195 329-415 0-222-103-419-329-419-223 0-326 196-326 419 0 220 103 415 326 415" id="s"/><path d="M158 0v-1118h174v172h12c41-113 157-188 290-188 26 0 70 2 91 3v181c-11-2-60-10-108-10-161 0-279 109-279 260V0H158" id="t"/><g id="a"><use transform="matrix(0.010416666666666668,0,0,0.010416666666666668,0,0)" xlink:href="#l"/><use transform="matrix(0.010416666666666668,0,0,0.010416666666666668,11.260416666666668,0)" xlink:href="#m"/><use transform="matrix(0.010416666666666668,0,0,0.010416666666666668,23.697916666666668,0)" xlink:href="#n"/><use transform="matrix(0.010416666666666668,0,0,0.010416666666666668,30.677083333333343,0)" xlink:href="#o"/><use transform="matrix(0.010416666666666668,0,0,0.010416666666666668,43.29166666666667,0)" xlink:href="#p"/><use transform="matrix(0.010416666666666668,0,0,0.010416666666666668,56.35416666666667,0)" xlink:href="#q"/><use transform="matrix(0.010416666666666668,0,0,0.010416666666666668,66.08333333333334,0)" xlink:href="#l"/><use transform="matrix(0.010416666666666668,0,0,0.010416666666666668,77.34375000000001,0)" xlink:href="#m"/><use transform="matrix(0.010416666666666668,0,0,0.010416666666666668,89.78125000000001,0)" xlink:href="#r"/><use transform="matrix(0.010416666666666668,0,0,0.010416666666666668,102.38541666666667,0)" xlink:href="#l"/><use transform="matrix(0.010416666666666668,0,0,0.010416666666666668,113.64583333333337,0)" xlink:href="#s"/><use transform="matrix(0.010416666666666668,0,0,0.010416666666666668,126.43750000000003,0)" xlink:href="#t"/><use transform="matrix(0.010416666666666668,0,0,0.010416666666666668,134.46875000000003,0)" xlink:href="#l"/></g><path d="M370-1490V0H180v-1490h190" id="u"/><path d="M158 0v-1118h180V0H158zm91-1301c-68 0-125-53-125-119s57-119 125-119c69 0 126 53 126 119s-57 119-126 119" id="v"/><path d="M613 24c-304 0-509-231-509-576 0-350 205-580 509-580 216 0 392 114 453 309l-173 49c-33-115-133-197-280-197-223 0-326 196-326 419 0 220 103 415 326 415 150 0 252-85 285-206l172 49C1010-95 832 24 613 24" id="w"/><path d="M471 26C259 26 90-98 90-318c0-256 228-303 435-329 202-27 287-16 287-108 0-139-79-219-234-219-161 0-248 86-283 164l-173-57c86-203 278-265 451-265 150 0 419 46 419 395V0H815v-152h-12C765-73 660 26 471 26zm31-159c199 0 310-134 310-271v-155c-30 35-226 55-295 64-131 17-246 59-246 186 0 116 97 176 231 176" id="x"/><path d="M338-1490V0H158v-1490h180" id="y"/><path d="M126 0v-134l627-806v-11H146v-167h839v143L376-178v11h629V0H126" id="z"/><g id="b"><use transform="matrix(0.0126953125,0,0,0.0126953125,0,0)" xlink:href="#u"/><use transform="matrix(0.0126953125,0,0,0.0126953125,6.982421875,0)" xlink:href="#r"/><use transform="matrix(0.0126953125,0,0,0.0126953125,22.34375,0)" xlink:href="#v"/><use transform="matrix(0.0126953125,0,0,0.0126953125,28.640625,0)" xlink:href="#w"/><use transform="matrix(0.0126953125,0,0,0.0126953125,43.494140625,0)" xlink:href="#v"/><use transform="matrix(0.0126953125,0,0,0.0126953125,49.791015625,0)" xlink:href="#x"/><use transform="matrix(0.0126953125,0,0,0.0126953125,64.390625,0)" xlink:href="#y"/><use transform="matrix(0.0126953125,0,0,0.0126953125,70.6875,0)" xlink:href="#v"/><use transform="matrix(0.0126953125,0,0,0.0126953125,76.984375,0)" xlink:href="#z"/><use transform="matrix(0.0126953125,0,0,0.0126953125,91.3427734375,0)" xlink:href="#x"/></g><path d="M52 0l541-1490h220L1361 0h-200l-149-416H398L254 0H52zm404-582h497c-103-290-145-390-251-756-108 377-145 460-246 756" id="A"/><path d="M180 0v-1490h190v644h782v-644h190V0h-190v-678H370V0H180" id="B"/><path d="M98-1322v-168h1126v168H757V0H567v-1322H98" id="C"/><path d="M154 0v-137l495-537c165-179 249-281 249-418 0-156-121-253-280-253-170 0-278 110-278 278H158c0-264 200-443 465-443 266 0 455 183 455 416 0 161-73 288-336 568L416-179v12h687V0H154" id="D"/><path d="M646 20c-332 0-524-278-524-764 0-483 194-766 524-766s524 283 524 766c0 485-191 764-524 764zm0-166c218 0 341-220 341-598 0-380-123-601-341-601s-341 222-341 601c0 378 123 598 341 598" id="E"/><g id="c"><use transform="matrix(0.0126953125,0,0,0.0126953125,0,0)" xlink:href="#A"/><use transform="matrix(0.0126953125,0,0,0.0126953125,17.9384765625,0)" xlink:href="#B"/><use transform="matrix(0.0126953125,0,0,0.0126953125,37.2607421875,0)" xlink:href="#C"/><use transform="matrix(0.0126953125,0,0,0.0126953125,54.0439453125,0)" xlink:href="#D"/><use transform="matrix(0.0126953125,0,0,0.0126953125,69.900390625,0)" xlink:href="#E"/></g><path d="M180 0v-1490h190v1322h690V0H180" id="F"/><path d="M628 24c-324 0-524-230-524-574 0-343 198-582 503-582 237 0 487 146 487 559v75H286c9 234 145 362 343 362 132 0 231-58 273-172l174 48C1024-91 857 24 628 24zM287-650h624c-17-190-120-322-304-322-192 0-309 151-320 322zm172-632H282v-9l235-267h171l236 267v9H745l-142-175" id="G"/><g id="d"><use transform="matrix(0.0126953125,0,0,0.0126953125,0,0)" xlink:href="#F"/><use transform="matrix(0.0126953125,0,0,0.0126953125,14.701171875,0)" xlink:href="#G"/></g><path d="M677 24c-213 0-288-135-325-197h-20V0H158v-1490h180v551h14c37-59 106-193 324-193 279 0 474 222 474 576 0 356-194 580-473 580zm-27-161c209 0 317-186 317-421 0-232-105-413-317-413-206 0-314 166-314 413 0 249 111 421 314 421" id="H"/><g id="e"><use transform="matrix(0.0126953125,0,0,0.0126953125,0,0)" xlink:href="#w"/><use transform="matrix(0.0126953125,0,0,0.0126953125,15.107421875,0)" xlink:href="#x"/><use transform="matrix(0.0126953125,0,0,0.0126953125,29.70703125,0)" xlink:href="#y"/><use transform="matrix(0.0126953125,0,0,0.0126953125,36.00390625,0)" xlink:href="#v"/><use transform="matrix(0.0126953125,0,0,0.0126953125,42.30078125,0)" xlink:href="#H"/><use transform="matrix(0.0126953125,0,0,0.0126953125,58.220703125,0)" xlink:href="#t"/><use transform="matrix(0.0126953125,0,0,0.0126953125,68.0087890625,0)" xlink:href="#x"/><use transform="matrix(0.0126953125,0,0,0.0126953125,82.6083984375,0)" xlink:href="#w"/><use transform="matrix(0.0126953125,0,0,0.0126953125,97.7158203125,0)" xlink:href="#x"/><use transform="matrix(0.0126953125,0,0,0.0126953125,112.3154296875,0)" xlink:href="#s"/></g><path d="M577 24c-279 0-473-224-473-580 0-354 195-576 474-576 218 0 287 134 324 193h14v-551h180V0H922v-173h-20C865-111 790 24 577 24zm27-161c203 0 314-172 314-421 0-247-108-413-314-413-212 0-317 181-317 413 0 235 108 421 317 421" id="I"/><g id="f"><use transform="matrix(0.0126953125,0,0,0.0126953125,0,0)" xlink:href="#I"/><use transform="matrix(0.0126953125,0,0,0.0126953125,15.919921875,0)" xlink:href="#m"/></g><path d="M158 0v-1118h175l1 205c55-151 181-225 313-225 147 0 245 90 285 228 53-141 190-228 352-228 194 0 352 125 352 384V0h-181v-749c0-161-105-225-225-225-151 0-243 103-243 244V0H807v-767c0-124-93-207-219-207-131 0-250 92-250 270V0H158" id="J"/><g id="g"><use transform="matrix(0.0126953125,0,0,0.0126953125,0,0)" xlink:href="#n"/><use transform="matrix(0.0126953125,0,0,0.0126953125,8.251953125,0)" xlink:href="#m"/><use transform="matrix(0.0126953125,0,0,0.0126953125,23.41015625,0)" xlink:href="#J"/><use transform="matrix(0.0126953125,0,0,0.0126953125,46.185546875,0)" xlink:href="#p"/><use transform="matrix(0.0126953125,0,0,0.0126953125,62.10546875,0)" xlink:href="#m"/><use transform="matrix(0.0126953125,0,0,0.0126953125,77.263671875,0)" xlink:href="#t"/><use transform="matrix(0.0126953125,0,0,0.0126953125,87.0517578125,0)" xlink:href="#x"/><use transform="matrix(0.0126953125,0,0,0.0126953125,101.6513671875,0)" xlink:href="#n"/><use transform="matrix(0.0126953125,0,0,0.0126953125,110.1572265625,0)" xlink:href="#o"/><use transform="matrix(0.0126953125,0,0,0.0126953125,125.53125,0)" xlink:href="#t"/><use transform="matrix(0.0126953125,0,0,0.0126953125,135.3193359375,0)" xlink:href="#x"/></g><g id="h"><use transform="matrix(0.0126953125,0,0,0.0126953125,0,0)" xlink:href="#I"/><use transform="matrix(0.0126953125,0,0,0.0126953125,15.919921875,0)" xlink:href="#m"/></g><path d="M471 26C259 26 90-98 90-318c0-256 228-303 435-329 202-27 287-16 287-108 0-139-79-219-234-219-161 0-248 86-283 164l-173-57c86-203 278-265 451-265 150 0 419 46 419 395V0H815v-152h-12C765-73 660 26 471 26zm31-159c199 0 310-134 310-271v-155c-30 35-226 55-295 64-131 17-246 59-246 186 0 116 97 176 231 176zm187-1180c-99 0-192-83-243-83-35 0-51 40-53 79H267c4-120 55-208 162-208 104 0 174 85 241 85 33 0 49-23 56-81h123c-4 126-62 208-160 208" id="K"/><g id="i"><use transform="matrix(0.0126953125,0,0,0.0126953125,0,0)" xlink:href="#p"/><use transform="matrix(0.0126953125,0,0,0.0126953125,15.919921875,0)" xlink:href="#t"/><use transform="matrix(0.0126953125,0,0,0.0126953125,25.2763671875,0)" xlink:href="#m"/><use transform="matrix(0.0126953125,0,0,0.0126953125,40.4345703125,0)" xlink:href="#l"/><use transform="matrix(0.0126953125,0,0,0.0126953125,54.158203125,0)" xlink:href="#l"/><use transform="matrix(0.0126953125,0,0,0.0126953125,67.8818359375,0)" xlink:href="#K"/><use transform="matrix(0.0126953125,0,0,0.0126953125,82.4814453125,0)" xlink:href="#s"/></g><path d="M783 20c-382 0-661-292-661-764 0-473 279-766 661-766 302 0 548 182 601 489h-190c-42-204-217-313-411-313-268 0-476 208-476 590 0 381 209 588 476 588 195 0 369-110 411-313h190c-52 303-296 489-601 489" id="L"/><path d="M678-1118v154H420V0H240v-964H20v-154h220v-149c0-194 155-293 318-293 85 0 141 18 168 30l-50 154c-19-6-47-17-97-17-111 0-159 58-159 166v109h258" id="M"/><path d="M611 442c-248 0-391-105-460-228l146-94c47 65 117 165 314 165 178 0 307-82 307-266v-224h-17C863-141 792-18 576-18c-268 0-472-195-472-546 0-346 197-568 476-568 216 0 288 133 326 193h17v-179h175V29c0 289-215 413-487 413zm-5-620c203 0 314-146 314-390 0-237-108-403-314-403-213 0-319 180-319 403 0 230 109 390 319 390" id="N"/><g id="j"><use transform="matrix(0.0126953125,0,0,0.0126953125,0,0)" xlink:href="#L"/><use transform="matrix(0.0126953125,0,0,0.0126953125,18.9921875,0)" xlink:href="#s"/><use transform="matrix(0.0126953125,0,0,0.0126953125,34.58203125,0)" xlink:href="#r"/><use transform="matrix(0.0126953125,0,0,0.0126953125,49.943359375,0)" xlink:href="#M"/><use transform="matrix(0.0126953125,0,0,0.0126953125,59.56640625,0)" xlink:href="#v"/><use transform="matrix(0.0126953125,0,0,0.0126953125,65.86328125,0)" xlink:href="#N"/><use transform="matrix(0.0126953125,0,0,0.0126953125,81.80859375,0)" xlink:href="#o"/><use transform="matrix(0.0126953125,0,0,0.0126953125,97.1826171875,0)" xlink:href="#t"/><use transform="matrix(0.0126953125,0,0,0.0126953125,106.970703125,0)" xlink:href="#x"/></g><path d="M180 0v-1490h528c311 0 458 177 458 395 0 191-114 278-244 313v14c139 9 302 137 302 371 0 225-148 397-499 397H180zm190-168h350c232 0 321-102 321-231 0-149-120-277-311-277H370v508zm0-668h328c160 0 286-101 286-255 0-129-87-231-280-231H370v486" id="O"/><path d="M180 0v-1490h270l367 940c28 72 75 218 110 339 35-117 81-264 110-339l362-940h271V0h-187c2-448-5-837 7-1287-157 497-311 829-483 1287H842C666-458 514-784 354-1284c12 438 5 843 7 1284H180" id="P"/><path d="M180 0v-1490h510c348 0 508 209 508 474 0 266-160 477-507 477H370V0H180zm190-706h312c236 0 327-133 327-310 0-176-91-307-329-307H370v617" id="Q"/><g id="k"><use transform="matrix(0.0126953125,0,0,0.0126953125,0,0)" xlink:href="#O"/><use transform="matrix(0.0126953125,0,0,0.0126953125,17.01171875,0)" xlink:href="#P"/><use transform="matrix(0.0126953125,0,0,0.0126953125,40.498046875,0)" xlink:href="#Q"/></g></defs></g></svg>